G04 #@! TF.FileFunction,Copper,L2,Bot,Signal*
%FSLAX46Y46*%
G04 Gerber Fmt 4.6, Leading zero omitted, Abs format (unit mm)*
G04 Created by KiCad (PCBNEW 4.0.0-rc2-stable) date 10-2-2016 17:40:28*
%MOMM*%
G01*
G04 APERTURE LIST*
%ADD10C,0.100000*%
%ADD11O,1.501140X2.199640*%
%ADD12O,1.524000X2.199640*%
%ADD13O,1.524000X2.197100*%
%ADD14C,2.499360*%
%ADD15C,2.997200*%
%ADD16R,2.032000X1.727200*%
%ADD17O,2.032000X1.727200*%
%ADD18C,2.400000*%
%ADD19R,2.400000X2.400000*%
%ADD20C,3.649980*%
%ADD21R,1.501140X1.501140*%
%ADD22C,1.501140*%
%ADD23C,1.998980*%
%ADD24C,0.600000*%
%ADD25C,0.250000*%
G04 APERTURE END LIST*
D10*
D11*
X106310000Y-79190000D03*
X103770000Y-79190000D03*
X101230000Y-79190000D03*
X98690000Y-79190000D03*
X98690000Y-86810000D03*
X101230000Y-86810000D03*
X103770000Y-86810000D03*
X106310000Y-86810000D03*
D12*
X52220000Y-91620000D03*
X54760000Y-91620000D03*
X57300000Y-91620000D03*
X59840000Y-91620000D03*
X62380000Y-91620000D03*
X64920000Y-91620000D03*
X67460000Y-91620000D03*
X70000000Y-91620000D03*
X72540000Y-91620000D03*
X75080000Y-91620000D03*
X77620000Y-91620000D03*
X80160000Y-91620000D03*
X82700000Y-91620000D03*
X85240000Y-91620000D03*
X87780000Y-91620000D03*
X87780000Y-76380000D03*
X85240000Y-76380000D03*
X82700000Y-76380000D03*
X80160000Y-76380000D03*
D13*
X77620000Y-76380000D03*
X75080000Y-76380000D03*
X72540000Y-76380000D03*
X70000000Y-76380000D03*
X67460000Y-76380000D03*
X64920000Y-76380000D03*
X62380000Y-76380000D03*
X59840000Y-76380000D03*
X57300000Y-76380000D03*
X54760000Y-76380000D03*
X52220000Y-76380000D03*
D14*
X157000000Y-44920000D03*
X157000000Y-39840000D03*
X157000000Y-50000000D03*
X192000000Y-44920000D03*
X192000000Y-39840000D03*
X192000000Y-50000000D03*
D15*
X45301000Y-65000000D03*
X50000000Y-65000000D03*
X54699000Y-65000000D03*
X44801000Y-46000000D03*
X49500000Y-46000000D03*
X54199000Y-46000000D03*
X44801000Y-28500000D03*
X49500000Y-28500000D03*
X54199000Y-28500000D03*
X72801000Y-28500000D03*
X77500000Y-28500000D03*
X82199000Y-28500000D03*
X72801000Y-46500000D03*
X77500000Y-46500000D03*
X82199000Y-46500000D03*
X73301000Y-65000000D03*
X78000000Y-65000000D03*
X82699000Y-65000000D03*
X97301000Y-28500000D03*
X102000000Y-28500000D03*
X106699000Y-28500000D03*
X97801000Y-65000000D03*
X102500000Y-65000000D03*
X107199000Y-65000000D03*
X122301000Y-28500000D03*
X127000000Y-28500000D03*
X131699000Y-28500000D03*
X122301000Y-46000000D03*
X127000000Y-46000000D03*
X131699000Y-46000000D03*
X122801000Y-65000000D03*
X127500000Y-65000000D03*
X132199000Y-65000000D03*
D16*
X32500000Y-45500000D03*
D17*
X32500000Y-42960000D03*
X32500000Y-40420000D03*
X32500000Y-37880000D03*
D18*
X34500000Y-61000000D03*
D19*
X34500000Y-57500000D03*
D18*
X34500000Y-64500000D03*
X34500000Y-68000000D03*
X34500000Y-71500000D03*
D20*
X133438520Y-89000000D03*
X121569100Y-89000000D03*
D21*
X123055000Y-82650000D03*
D22*
X124325000Y-80110000D03*
X125595000Y-82650000D03*
X126865000Y-80110000D03*
X128135000Y-82650000D03*
X129405000Y-80110000D03*
X130675000Y-82650000D03*
X131945000Y-80110000D03*
D23*
X153748800Y-66750440D03*
X160251200Y-62249560D03*
X153748800Y-62249560D03*
X160251200Y-66750440D03*
D24*
X103000000Y-83000000D03*
X126500000Y-77000000D03*
X129500000Y-74000000D03*
X138000000Y-65500000D03*
X50000000Y-73000000D03*
X121500000Y-77000000D03*
X61500000Y-83000000D03*
X61500000Y-79000000D03*
X62000000Y-63500000D03*
X65000000Y-82500000D03*
X65000000Y-86500000D03*
X65500000Y-61500000D03*
X65000000Y-63500000D03*
X41500000Y-47500000D03*
X35000000Y-75000000D03*
X65500000Y-68500000D03*
X69500000Y-70000000D03*
X88000000Y-79000000D03*
X93000000Y-74000000D03*
X119500000Y-63500000D03*
X113000000Y-70000000D03*
X96000000Y-75000000D03*
X121000000Y-52000000D03*
X100000000Y-83000000D03*
X93000000Y-87500000D03*
X82500000Y-73000000D03*
X121000000Y-34500000D03*
X99000000Y-70000000D03*
X96000000Y-73000000D03*
X90000000Y-79000000D03*
X78500000Y-88500000D03*
D25*
X103000000Y-83000000D02*
X101000000Y-85000000D01*
X101000000Y-85000000D02*
X97500000Y-85000000D01*
X97500000Y-85000000D02*
X89000000Y-93500000D01*
X89000000Y-93500000D02*
X56000000Y-93500000D01*
X56000000Y-93500000D02*
X56000000Y-92500000D01*
X56000000Y-92500000D02*
X55000000Y-91500000D01*
X55000000Y-91500000D02*
X54760000Y-91620000D01*
X106310000Y-79190000D02*
X106500000Y-79000000D01*
X106500000Y-79000000D02*
X125500000Y-79000000D01*
X125500000Y-79000000D02*
X126500000Y-80000000D01*
X126500000Y-80000000D02*
X127000000Y-80000000D01*
X127000000Y-80000000D02*
X126865000Y-80110000D01*
X87780000Y-76380000D02*
X88000000Y-76500000D01*
X88000000Y-76500000D02*
X89000000Y-77500000D01*
X89000000Y-77500000D02*
X100000000Y-77500000D01*
X100000000Y-77500000D02*
X100000000Y-78000000D01*
X100000000Y-78000000D02*
X101000000Y-79000000D01*
X101000000Y-79000000D02*
X101230000Y-79190000D01*
X101230000Y-79190000D02*
X101000000Y-79000000D01*
X101000000Y-79000000D02*
X104000000Y-79000000D01*
X104000000Y-79000000D02*
X103770000Y-79190000D01*
X98690000Y-79190000D02*
X98000000Y-79500000D01*
X98000000Y-79500000D02*
X87500000Y-90000000D01*
X87500000Y-90000000D02*
X53500000Y-90000000D01*
X53500000Y-90000000D02*
X52000000Y-91500000D01*
X52000000Y-91500000D02*
X52220000Y-91620000D01*
X98690000Y-79190000D02*
X98500000Y-79000000D01*
X98500000Y-79000000D02*
X98500000Y-79500000D01*
X98500000Y-79500000D02*
X100500000Y-81500000D01*
X100500000Y-81500000D02*
X124500000Y-81500000D01*
X124500000Y-81500000D02*
X125500000Y-82500000D01*
X125500000Y-82500000D02*
X125595000Y-82650000D01*
X122801000Y-65000000D02*
X123000000Y-65000000D01*
X123000000Y-65000000D02*
X125000000Y-67000000D01*
X125000000Y-67000000D02*
X153500000Y-67000000D01*
X153500000Y-67000000D02*
X153748800Y-66750440D01*
X157000000Y-39840000D02*
X157000000Y-40000000D01*
X157000000Y-40000000D02*
X192000000Y-40000000D01*
X192000000Y-40000000D02*
X192000000Y-39840000D01*
X45301000Y-65000000D02*
X45500000Y-65000000D01*
X45500000Y-65000000D02*
X47500000Y-67000000D01*
X47500000Y-67000000D02*
X56000000Y-67000000D01*
X56000000Y-67000000D02*
X58000000Y-65000000D01*
X58000000Y-65000000D02*
X73301000Y-65000000D01*
X45301000Y-65000000D02*
X45500000Y-65000000D01*
X45500000Y-65000000D02*
X41500000Y-61000000D01*
X41500000Y-61000000D02*
X34500000Y-61000000D01*
X97801000Y-65000000D02*
X98000000Y-65000000D01*
X98000000Y-65000000D02*
X100000000Y-67000000D01*
X100000000Y-67000000D02*
X108500000Y-67000000D01*
X108500000Y-67000000D02*
X110500000Y-65000000D01*
X110500000Y-65000000D02*
X122801000Y-65000000D01*
X73301000Y-65000000D02*
X73500000Y-65000000D01*
X73500000Y-65000000D02*
X75500000Y-67000000D01*
X75500000Y-67000000D02*
X84000000Y-67000000D01*
X84000000Y-67000000D02*
X86000000Y-65000000D01*
X86000000Y-65000000D02*
X97801000Y-65000000D01*
X72801000Y-28500000D02*
X73000000Y-28500000D01*
X73000000Y-28500000D02*
X75000000Y-30500000D01*
X75000000Y-30500000D02*
X83500000Y-30500000D01*
X83500000Y-30500000D02*
X85500000Y-28500000D01*
X85500000Y-28500000D02*
X97301000Y-28500000D01*
X32500000Y-42960000D02*
X32500000Y-43000000D01*
X32500000Y-43000000D02*
X33500000Y-44000000D01*
X33500000Y-44000000D02*
X34000000Y-44000000D01*
X34000000Y-44000000D02*
X36000000Y-46000000D01*
X36000000Y-46000000D02*
X44801000Y-46000000D01*
X126500000Y-77000000D02*
X129500000Y-74000000D01*
X138000000Y-65500000D02*
X153500000Y-50000000D01*
X153500000Y-50000000D02*
X157000000Y-50000000D01*
X59840000Y-76380000D02*
X60000000Y-76500000D01*
X60000000Y-76500000D02*
X60000000Y-76000000D01*
X60000000Y-76000000D02*
X57000000Y-73000000D01*
X57000000Y-73000000D02*
X50000000Y-73000000D01*
X59840000Y-76380000D02*
X60000000Y-76500000D01*
X60000000Y-76500000D02*
X60000000Y-75500000D01*
X60000000Y-75500000D02*
X61500000Y-74000000D01*
X61500000Y-74000000D02*
X90000000Y-74000000D01*
X90000000Y-74000000D02*
X92500000Y-76500000D01*
X92500000Y-76500000D02*
X101500000Y-76500000D01*
X101500000Y-76500000D02*
X102000000Y-77000000D01*
X102000000Y-77000000D02*
X121500000Y-77000000D01*
X157000000Y-50000000D02*
X192000000Y-50000000D01*
X61500000Y-83000000D02*
X61500000Y-79000000D01*
X157000000Y-44920000D02*
X157000000Y-45000000D01*
X157000000Y-45000000D02*
X139500000Y-62500000D01*
X139500000Y-62500000D02*
X119000000Y-62500000D01*
X119000000Y-62500000D02*
X118500000Y-63000000D01*
X118500000Y-63000000D02*
X72000000Y-63000000D01*
X72000000Y-63000000D02*
X70500000Y-64500000D01*
X70500000Y-64500000D02*
X64500000Y-64500000D01*
X64500000Y-64500000D02*
X63500000Y-63500000D01*
X63500000Y-63500000D02*
X62000000Y-63500000D01*
X65000000Y-82500000D02*
X65000000Y-86500000D01*
X192000000Y-44920000D02*
X192000000Y-45000000D01*
X192000000Y-45000000D02*
X190000000Y-43000000D01*
X190000000Y-43000000D02*
X156000000Y-43000000D01*
X156000000Y-43000000D02*
X137500000Y-61500000D01*
X137500000Y-61500000D02*
X65500000Y-61500000D01*
X65000000Y-63500000D02*
X49500000Y-48000000D01*
X49500000Y-48000000D02*
X43500000Y-48000000D01*
X43500000Y-48000000D02*
X43000000Y-47500000D01*
X43000000Y-47500000D02*
X41500000Y-47500000D01*
X70000000Y-76380000D02*
X70000000Y-76500000D01*
X70000000Y-76500000D02*
X69000000Y-77500000D01*
X69000000Y-77500000D02*
X69000000Y-78000000D01*
X69000000Y-78000000D02*
X51000000Y-78000000D01*
X51000000Y-78000000D02*
X48000000Y-75000000D01*
X48000000Y-75000000D02*
X35000000Y-75000000D01*
X65500000Y-68500000D02*
X64500000Y-67500000D01*
X64500000Y-67500000D02*
X46500000Y-67500000D01*
X46500000Y-67500000D02*
X46000000Y-67000000D01*
X46000000Y-67000000D02*
X44000000Y-67000000D01*
X44000000Y-67000000D02*
X41500000Y-64500000D01*
X41500000Y-64500000D02*
X34500000Y-64500000D01*
X34500000Y-68000000D02*
X36500000Y-70000000D01*
X36500000Y-70000000D02*
X69500000Y-70000000D01*
X77620000Y-76380000D02*
X78000000Y-77000000D01*
X78000000Y-77000000D02*
X80000000Y-79000000D01*
X80000000Y-79000000D02*
X88000000Y-79000000D01*
X93000000Y-74000000D02*
X98500000Y-68500000D01*
X98500000Y-68500000D02*
X154500000Y-68500000D01*
X154500000Y-68500000D02*
X155500000Y-67500000D01*
X155500000Y-67500000D02*
X155500000Y-67000000D01*
X155500000Y-67000000D02*
X160500000Y-62000000D01*
X160500000Y-62000000D02*
X160251200Y-62249560D01*
X80160000Y-76380000D02*
X80000000Y-76500000D01*
X80000000Y-76500000D02*
X81500000Y-75000000D01*
X81500000Y-75000000D02*
X81500000Y-74500000D01*
X81500000Y-74500000D02*
X89000000Y-74500000D01*
X89000000Y-74500000D02*
X91500000Y-77000000D01*
X91500000Y-77000000D02*
X100500000Y-77000000D01*
X100500000Y-77000000D02*
X101000000Y-77500000D01*
X101000000Y-77500000D02*
X107500000Y-77500000D01*
X107500000Y-77500000D02*
X108500000Y-78500000D01*
X108500000Y-78500000D02*
X126500000Y-78500000D01*
X126500000Y-78500000D02*
X127000000Y-79000000D01*
X127000000Y-79000000D02*
X130500000Y-79000000D01*
X130500000Y-79000000D02*
X131500000Y-80000000D01*
X131500000Y-80000000D02*
X132000000Y-80000000D01*
X132000000Y-80000000D02*
X131945000Y-80110000D01*
X127500000Y-65000000D02*
X125500000Y-63000000D01*
X125500000Y-63000000D02*
X121500000Y-63000000D01*
X121500000Y-63000000D02*
X121000000Y-63500000D01*
X121000000Y-63500000D02*
X119500000Y-63500000D01*
X113000000Y-70000000D02*
X108000000Y-75000000D01*
X108000000Y-75000000D02*
X96000000Y-75000000D01*
X127000000Y-46000000D02*
X121000000Y-52000000D01*
X100000000Y-83000000D02*
X98500000Y-84500000D01*
X98500000Y-84500000D02*
X96500000Y-84500000D01*
X96500000Y-84500000D02*
X93500000Y-87500000D01*
X93500000Y-87500000D02*
X93000000Y-87500000D01*
X82500000Y-73000000D02*
X81000000Y-71500000D01*
X81000000Y-71500000D02*
X34500000Y-71500000D01*
X127000000Y-28500000D02*
X121000000Y-34500000D01*
X99000000Y-70000000D02*
X96000000Y-73000000D01*
X90000000Y-79000000D02*
X80500000Y-88500000D01*
X80500000Y-88500000D02*
X78500000Y-88500000D01*
M02*
