%FSLAX45Y45*%
G04 Gerber Fmt 4.5, Leading zero omitted, Abs format (unit mm)*
G04 Created by KiCad (PCBNEW 4.0.0-rc2-stable) date 9-2-2016 22:10:57*
%MOMM*%
G01*
G04 APERTURE LIST*
%ADD10C,0.127000*%
%ADD11C,0.100000*%
%ADD12C,0.200000*%
%ADD13C,0.300000*%
G04 APERTURE END LIST*
D10*
D11*
X18700000Y-9800000D02*
X20900000Y-9800000D01*
X2750000Y-9800000D02*
X18700000Y-9800000D01*
X21150000Y-9550000D02*
X20900000Y-9800000D01*
X21150000Y-2250000D02*
X21150000Y-9550000D01*
X21000000Y-2100000D02*
X21150000Y-2250000D01*
X15450000Y-2100000D02*
X21000000Y-2100000D01*
X2750000Y-2100000D02*
X2600000Y-2250000D01*
X15300000Y-2100000D02*
X15450000Y-2100000D01*
X2600000Y-9650000D02*
X2750000Y-9800000D01*
X2600000Y-9600000D02*
X2600000Y-9650000D01*
X2600000Y-8750000D02*
X2600000Y-9650000D01*
X2600000Y-8350000D02*
X2600000Y-8750000D01*
X2600000Y-2250000D02*
X2600000Y-8350000D01*
X2750000Y-2100000D02*
X15300000Y-2100000D01*
D12*
X11994350Y-8737440D02*
X12319470Y-9062560D01*
X12319470Y-8737440D02*
X11994350Y-9062560D01*
X13181292Y-8737440D02*
X13506412Y-9062560D01*
X13506412Y-8737440D02*
X13181292Y-9062560D01*
D13*
X2866428Y-10270714D02*
X2866428Y-9970714D01*
X2937857Y-9970714D01*
X2980714Y-9985000D01*
X3009286Y-10013572D01*
X3023571Y-10042143D01*
X3037857Y-10099286D01*
X3037857Y-10142143D01*
X3023571Y-10199286D01*
X3009286Y-10227857D01*
X2980714Y-10256429D01*
X2937857Y-10270714D01*
X2866428Y-10270714D01*
X3166428Y-10270714D02*
X3166428Y-10070714D01*
X3166428Y-10127857D02*
X3180714Y-10099286D01*
X3195000Y-10085000D01*
X3223571Y-10070714D01*
X3252143Y-10070714D01*
X3352143Y-10270714D02*
X3352143Y-10070714D01*
X3352143Y-9970714D02*
X3337857Y-9985000D01*
X3352143Y-9999286D01*
X3366428Y-9985000D01*
X3352143Y-9970714D01*
X3352143Y-9999286D01*
X3537857Y-10270714D02*
X3509286Y-10256429D01*
X3495000Y-10227857D01*
X3495000Y-9970714D01*
X3695000Y-10270714D02*
X3666428Y-10256429D01*
X3652143Y-10227857D01*
X3652143Y-9970714D01*
X4037857Y-10270714D02*
X4037857Y-9970714D01*
X4137857Y-10185000D01*
X4237857Y-9970714D01*
X4237857Y-10270714D01*
X4509286Y-10270714D02*
X4509286Y-10113572D01*
X4495000Y-10085000D01*
X4466429Y-10070714D01*
X4409286Y-10070714D01*
X4380714Y-10085000D01*
X4509286Y-10256429D02*
X4480714Y-10270714D01*
X4409286Y-10270714D01*
X4380714Y-10256429D01*
X4366429Y-10227857D01*
X4366429Y-10199286D01*
X4380714Y-10170714D01*
X4409286Y-10156429D01*
X4480714Y-10156429D01*
X4509286Y-10142143D01*
X4652143Y-10070714D02*
X4652143Y-10370714D01*
X4652143Y-10085000D02*
X4680714Y-10070714D01*
X4737857Y-10070714D01*
X4766429Y-10085000D01*
X4780714Y-10099286D01*
X4795000Y-10127857D01*
X4795000Y-10213572D01*
X4780714Y-10242143D01*
X4766429Y-10256429D01*
X4737857Y-10270714D01*
X4680714Y-10270714D01*
X4652143Y-10256429D01*
X4923571Y-10242143D02*
X4937857Y-10256429D01*
X4923571Y-10270714D01*
X4909286Y-10256429D01*
X4923571Y-10242143D01*
X4923571Y-10270714D01*
X4923571Y-10085000D02*
X4937857Y-10099286D01*
X4923571Y-10113572D01*
X4909286Y-10099286D01*
X4923571Y-10085000D01*
X4923571Y-10113572D01*
X2269880Y-10602440D02*
X2595000Y-10927560D01*
X2595000Y-10602440D02*
X2269880Y-10927560D01*
X2837857Y-10600714D02*
X3023571Y-10600714D01*
X2923571Y-10715000D01*
X2966428Y-10715000D01*
X2995000Y-10729286D01*
X3009286Y-10743572D01*
X3023571Y-10772143D01*
X3023571Y-10843572D01*
X3009286Y-10872143D01*
X2995000Y-10886429D01*
X2966428Y-10900714D01*
X2880714Y-10900714D01*
X2852143Y-10886429D01*
X2837857Y-10872143D01*
X3152143Y-10872143D02*
X3166428Y-10886429D01*
X3152143Y-10900714D01*
X3137857Y-10886429D01*
X3152143Y-10872143D01*
X3152143Y-10900714D01*
X3280714Y-10629286D02*
X3295000Y-10615000D01*
X3323571Y-10600714D01*
X3395000Y-10600714D01*
X3423571Y-10615000D01*
X3437857Y-10629286D01*
X3452143Y-10657857D01*
X3452143Y-10686429D01*
X3437857Y-10729286D01*
X3266428Y-10900714D01*
X3452143Y-10900714D01*
X3723571Y-10600714D02*
X3580714Y-10600714D01*
X3566428Y-10743572D01*
X3580714Y-10729286D01*
X3609286Y-10715000D01*
X3680714Y-10715000D01*
X3709286Y-10729286D01*
X3723571Y-10743572D01*
X3737857Y-10772143D01*
X3737857Y-10843572D01*
X3723571Y-10872143D01*
X3709286Y-10886429D01*
X3680714Y-10900714D01*
X3609286Y-10900714D01*
X3580714Y-10886429D01*
X3566428Y-10872143D01*
X3866428Y-10900714D02*
X3866428Y-10700714D01*
X3866428Y-10729286D02*
X3880714Y-10715000D01*
X3909286Y-10700714D01*
X3952143Y-10700714D01*
X3980714Y-10715000D01*
X3995000Y-10743572D01*
X3995000Y-10900714D01*
X3995000Y-10743572D02*
X4009286Y-10715000D01*
X4037857Y-10700714D01*
X4080714Y-10700714D01*
X4109286Y-10715000D01*
X4123571Y-10743572D01*
X4123571Y-10900714D01*
X4266429Y-10900714D02*
X4266429Y-10700714D01*
X4266429Y-10729286D02*
X4280714Y-10715000D01*
X4309286Y-10700714D01*
X4352143Y-10700714D01*
X4380714Y-10715000D01*
X4395000Y-10743572D01*
X4395000Y-10900714D01*
X4395000Y-10743572D02*
X4409286Y-10715000D01*
X4437857Y-10700714D01*
X4480714Y-10700714D01*
X4509286Y-10715000D01*
X4523571Y-10743572D01*
X4523571Y-10900714D01*
X5109286Y-10586429D02*
X4852143Y-10972143D01*
X5495000Y-10600714D02*
X5523571Y-10600714D01*
X5552143Y-10615000D01*
X5566428Y-10629286D01*
X5580714Y-10657857D01*
X5595000Y-10715000D01*
X5595000Y-10786429D01*
X5580714Y-10843572D01*
X5566428Y-10872143D01*
X5552143Y-10886429D01*
X5523571Y-10900714D01*
X5495000Y-10900714D01*
X5466428Y-10886429D01*
X5452143Y-10872143D01*
X5437857Y-10843572D01*
X5423571Y-10786429D01*
X5423571Y-10715000D01*
X5437857Y-10657857D01*
X5452143Y-10629286D01*
X5466428Y-10615000D01*
X5495000Y-10600714D01*
X5723571Y-10872143D02*
X5737857Y-10886429D01*
X5723571Y-10900714D01*
X5709286Y-10886429D01*
X5723571Y-10872143D01*
X5723571Y-10900714D01*
X6023571Y-10900714D02*
X5852143Y-10900714D01*
X5937857Y-10900714D02*
X5937857Y-10600714D01*
X5909285Y-10643572D01*
X5880714Y-10672143D01*
X5852143Y-10686429D01*
X6137857Y-10629286D02*
X6152143Y-10615000D01*
X6180714Y-10600714D01*
X6252143Y-10600714D01*
X6280714Y-10615000D01*
X6295000Y-10629286D01*
X6309285Y-10657857D01*
X6309285Y-10686429D01*
X6295000Y-10729286D01*
X6123571Y-10900714D01*
X6309285Y-10900714D01*
X6480714Y-10729286D02*
X6452143Y-10715000D01*
X6437857Y-10700714D01*
X6423571Y-10672143D01*
X6423571Y-10657857D01*
X6437857Y-10629286D01*
X6452143Y-10615000D01*
X6480714Y-10600714D01*
X6537857Y-10600714D01*
X6566428Y-10615000D01*
X6580714Y-10629286D01*
X6595000Y-10657857D01*
X6595000Y-10672143D01*
X6580714Y-10700714D01*
X6566428Y-10715000D01*
X6537857Y-10729286D01*
X6480714Y-10729286D01*
X6452143Y-10743572D01*
X6437857Y-10757857D01*
X6423571Y-10786429D01*
X6423571Y-10843572D01*
X6437857Y-10872143D01*
X6452143Y-10886429D01*
X6480714Y-10900714D01*
X6537857Y-10900714D01*
X6566428Y-10886429D01*
X6580714Y-10872143D01*
X6595000Y-10843572D01*
X6595000Y-10786429D01*
X6580714Y-10757857D01*
X6566428Y-10743572D01*
X6537857Y-10729286D01*
X6709286Y-10600714D02*
X6709286Y-10657857D01*
X6823571Y-10600714D02*
X6823571Y-10657857D01*
X7266428Y-11015000D02*
X7252143Y-11000714D01*
X7223571Y-10957857D01*
X7209285Y-10929286D01*
X7195000Y-10886429D01*
X7180714Y-10815000D01*
X7180714Y-10757857D01*
X7195000Y-10686429D01*
X7209285Y-10643572D01*
X7223571Y-10615000D01*
X7252143Y-10572143D01*
X7266428Y-10557857D01*
X7366428Y-10629286D02*
X7380714Y-10615000D01*
X7409285Y-10600714D01*
X7480714Y-10600714D01*
X7509285Y-10615000D01*
X7523571Y-10629286D01*
X7537857Y-10657857D01*
X7537857Y-10686429D01*
X7523571Y-10729286D01*
X7352143Y-10900714D01*
X7537857Y-10900714D01*
X7895000Y-10900714D02*
X7895000Y-10600714D01*
X8023571Y-10900714D02*
X8023571Y-10743572D01*
X8009285Y-10715000D01*
X7980714Y-10700714D01*
X7937857Y-10700714D01*
X7909285Y-10715000D01*
X7895000Y-10729286D01*
X8209285Y-10900714D02*
X8180714Y-10886429D01*
X8166428Y-10872143D01*
X8152143Y-10843572D01*
X8152143Y-10757857D01*
X8166428Y-10729286D01*
X8180714Y-10715000D01*
X8209285Y-10700714D01*
X8252143Y-10700714D01*
X8280714Y-10715000D01*
X8295000Y-10729286D01*
X8309285Y-10757857D01*
X8309285Y-10843572D01*
X8295000Y-10872143D01*
X8280714Y-10886429D01*
X8252143Y-10900714D01*
X8209285Y-10900714D01*
X8480714Y-10900714D02*
X8452143Y-10886429D01*
X8437857Y-10857857D01*
X8437857Y-10600714D01*
X8709286Y-10886429D02*
X8680714Y-10900714D01*
X8623571Y-10900714D01*
X8595000Y-10886429D01*
X8580714Y-10857857D01*
X8580714Y-10743572D01*
X8595000Y-10715000D01*
X8623571Y-10700714D01*
X8680714Y-10700714D01*
X8709286Y-10715000D01*
X8723571Y-10743572D01*
X8723571Y-10772143D01*
X8580714Y-10800714D01*
X8837857Y-10886429D02*
X8866429Y-10900714D01*
X8923571Y-10900714D01*
X8952143Y-10886429D01*
X8966429Y-10857857D01*
X8966429Y-10843572D01*
X8952143Y-10815000D01*
X8923571Y-10800714D01*
X8880714Y-10800714D01*
X8852143Y-10786429D01*
X8837857Y-10757857D01*
X8837857Y-10743572D01*
X8852143Y-10715000D01*
X8880714Y-10700714D01*
X8923571Y-10700714D01*
X8952143Y-10715000D01*
X9066428Y-11015000D02*
X9080714Y-11000714D01*
X9109286Y-10957857D01*
X9123571Y-10929286D01*
X9137857Y-10886429D01*
X9152143Y-10815000D01*
X9152143Y-10757857D01*
X9137857Y-10686429D01*
X9123571Y-10643572D01*
X9109286Y-10615000D01*
X9080714Y-10572143D01*
X9066428Y-10557857D01*
M02*
