M48
;DRILL file {KiCad 4.0.0-rc2-stable} date 9-2-2016 22:10:54
;FORMAT={-:-/ absolute / metric / decimal}
FMAT,2
METRIC,TZ
T1C0.400
T2C0.800
T3C0.899
T4C0.998
T5C1.001
T6C1.016
T7C1.199
T8C1.200
T9C1.847
T10C4.000
%
G90
G05
M71
T1
X35.Y-75.
X41.5Y-47.5
X50.Y-73.
X61.5Y-79.
X61.5Y-83.
X62.Y-63.5
X65.Y-63.5
X65.Y-82.5
X65.Y-86.5
X65.5Y-61.5
X65.5Y-68.5
X69.5Y-70.
X78.5Y-88.5
X82.5Y-73.
X88.Y-79.
X90.Y-79.
X93.Y-74.
X93.Y-87.5
X96.Y-73.
X96.Y-75.
X99.Y-70.
X100.Y-83.
X103.Y-83.
X113.Y-70.
X119.5Y-63.5
X121.Y-34.5
X121.Y-52.
X121.5Y-77.
X126.5Y-77.
X129.5Y-74.
X138.Y-65.5
T2
X98.69Y-79.19
X98.69Y-86.81
X101.23Y-79.19
X101.23Y-86.81
X103.77Y-79.19
X103.77Y-86.81
X106.31Y-79.19
X106.31Y-86.81
T3
X123.055Y-82.65
X124.325Y-80.11
X125.595Y-82.65
X126.865Y-80.11
X128.135Y-82.65
X129.405Y-80.11
X130.675Y-82.65
X131.945Y-80.11
T4
X52.22Y-76.38
X54.76Y-76.38
X57.3Y-76.38
X59.84Y-76.38
X62.38Y-76.38
X64.92Y-76.38
X67.46Y-76.38
T5
X52.22Y-91.62
X54.76Y-91.62
X57.3Y-91.62
X59.84Y-91.62
X62.38Y-91.62
X64.92Y-91.62
X67.46Y-91.62
X70.Y-76.38
X70.Y-91.62
X72.54Y-76.38
X72.54Y-91.62
X75.08Y-76.38
X75.08Y-91.62
X77.62Y-76.38
X77.62Y-91.62
X80.16Y-76.38
X80.16Y-91.62
X82.7Y-76.38
X82.7Y-91.62
X85.24Y-76.38
X85.24Y-91.62
X87.78Y-76.38
X87.78Y-91.62
X153.749Y-62.25
X153.749Y-66.75
X160.251Y-62.25
X160.251Y-66.75
T6
X32.5Y-37.88
X32.5Y-40.42
X32.5Y-42.96
X32.5Y-45.5
T7
X157.Y-39.84
X157.Y-44.92
X157.Y-50.
X192.Y-39.84
X192.Y-44.92
X192.Y-50.
T8
X34.5Y-57.5
X34.5Y-61.
X34.5Y-64.5
X34.5Y-68.
X34.5Y-71.5
T9
X44.801Y-28.5
X44.801Y-46.
X45.301Y-65.
X49.5Y-28.5
X49.5Y-46.
X50.Y-65.
X54.199Y-28.5
X54.199Y-46.
X54.699Y-65.
X72.801Y-28.5
X72.801Y-46.5
X73.301Y-65.
X77.5Y-28.5
X77.5Y-46.5
X78.Y-65.
X82.199Y-28.5
X82.199Y-46.5
X82.699Y-65.
X97.301Y-28.5
X97.801Y-65.
X102.Y-28.5
X102.5Y-65.
X106.699Y-28.5
X107.199Y-65.
X122.301Y-28.5
X122.301Y-46.
X122.801Y-65.
X127.Y-28.5
X127.Y-46.
X127.5Y-65.
X131.699Y-28.5
X131.699Y-46.
X132.199Y-65.
T10
X32.Y-92.
X32.5Y-29.
X206.5Y-28.
X207.Y-90.5
T0
M30
