G04 #@! TF.FileFunction,Legend,Top*
%FSLAX46Y46*%
G04 Gerber Fmt 4.6, Leading zero omitted, Abs format (unit mm)*
G04 Created by KiCad (PCBNEW 4.0.0-rc2-stable) date 10-2-2016 17:40:28*
%MOMM*%
G01*
G04 APERTURE LIST*
%ADD10C,0.100000*%
%ADD11C,0.200000*%
%ADD12C,0.150000*%
%ADD13C,0.215000*%
%ADD14C,0.225000*%
%ADD15C,0.275000*%
%ADD16C,0.381000*%
%ADD17C,0.378460*%
%ADD18C,0.002540*%
%ADD19C,0.010000*%
%ADD20C,0.304800*%
%ADD21C,2.540000*%
%ADD22C,0.285750*%
%ADD23C,0.287020*%
%ADD24C,0.203200*%
%ADD25C,0.300000*%
%ADD26C,0.317500*%
%ADD27C,0.254000*%
G04 APERTURE END LIST*
D10*
D11*
X170000000Y-56500000D02*
X197500000Y-56500000D01*
X197500000Y-59000000D02*
X197500000Y-56500000D01*
X170000000Y-59000000D02*
X197500000Y-59000000D01*
X170000000Y-57000000D02*
X170000000Y-59000000D01*
D12*
X146328572Y-27271429D02*
X146328572Y-26671429D01*
X146328572Y-26900000D02*
X146385715Y-26871429D01*
X146500001Y-26871429D01*
X146557144Y-26900000D01*
X146585715Y-26928571D01*
X146614286Y-26985714D01*
X146614286Y-27157143D01*
X146585715Y-27214286D01*
X146557144Y-27242857D01*
X146500001Y-27271429D01*
X146385715Y-27271429D01*
X146328572Y-27242857D01*
X147100001Y-27242857D02*
X147042858Y-27271429D01*
X146928572Y-27271429D01*
X146871429Y-27242857D01*
X146842858Y-27185714D01*
X146842858Y-26957143D01*
X146871429Y-26900000D01*
X146928572Y-26871429D01*
X147042858Y-26871429D01*
X147100001Y-26900000D01*
X147128572Y-26957143D01*
X147128572Y-27014286D01*
X146842858Y-27071429D01*
X147357144Y-27242857D02*
X147414287Y-27271429D01*
X147528572Y-27271429D01*
X147585715Y-27242857D01*
X147614287Y-27185714D01*
X147614287Y-27157143D01*
X147585715Y-27100000D01*
X147528572Y-27071429D01*
X147442858Y-27071429D01*
X147385715Y-27042857D01*
X147357144Y-26985714D01*
X147357144Y-26957143D01*
X147385715Y-26900000D01*
X147442858Y-26871429D01*
X147528572Y-26871429D01*
X147585715Y-26900000D01*
X147785715Y-26871429D02*
X148014286Y-26871429D01*
X147871429Y-26671429D02*
X147871429Y-27185714D01*
X147900001Y-27242857D01*
X147957143Y-27271429D01*
X148014286Y-27271429D01*
X148471429Y-27271429D02*
X148471429Y-26957143D01*
X148442858Y-26900000D01*
X148385715Y-26871429D01*
X148271429Y-26871429D01*
X148214286Y-26900000D01*
X148471429Y-27242857D02*
X148414286Y-27271429D01*
X148271429Y-27271429D01*
X148214286Y-27242857D01*
X148185715Y-27185714D01*
X148185715Y-27128571D01*
X148214286Y-27071429D01*
X148271429Y-27042857D01*
X148414286Y-27042857D01*
X148471429Y-27014286D01*
X148757143Y-26871429D02*
X148757143Y-27271429D01*
X148757143Y-26928571D02*
X148785715Y-26900000D01*
X148842857Y-26871429D01*
X148928572Y-26871429D01*
X148985715Y-26900000D01*
X149014286Y-26957143D01*
X149014286Y-27271429D01*
X149557143Y-27271429D02*
X149557143Y-26671429D01*
X149557143Y-27242857D02*
X149500000Y-27271429D01*
X149385714Y-27271429D01*
X149328572Y-27242857D01*
X149300000Y-27214286D01*
X149271429Y-27157143D01*
X149271429Y-26985714D01*
X149300000Y-26928571D01*
X149328572Y-26900000D01*
X149385714Y-26871429D01*
X149500000Y-26871429D01*
X149557143Y-26900000D01*
X149842857Y-26957143D02*
X150300000Y-26957143D01*
X150300000Y-27128571D02*
X149842857Y-27128571D01*
X150585714Y-27271429D02*
X150585714Y-26671429D01*
X150785714Y-27100000D01*
X150985714Y-26671429D01*
X150985714Y-27271429D01*
X151271428Y-27271429D02*
X151271428Y-26871429D01*
X151271428Y-26671429D02*
X151242857Y-26700000D01*
X151271428Y-26728571D01*
X151300000Y-26700000D01*
X151271428Y-26671429D01*
X151271428Y-26728571D01*
X151871428Y-26700000D02*
X151814285Y-26671429D01*
X151728571Y-26671429D01*
X151642856Y-26700000D01*
X151585714Y-26757143D01*
X151557142Y-26814286D01*
X151528571Y-26928571D01*
X151528571Y-27014286D01*
X151557142Y-27128571D01*
X151585714Y-27185714D01*
X151642856Y-27242857D01*
X151728571Y-27271429D01*
X151785714Y-27271429D01*
X151871428Y-27242857D01*
X151899999Y-27214286D01*
X151899999Y-27014286D01*
X151785714Y-27014286D01*
X152157142Y-27042857D02*
X152614285Y-27042857D01*
X152871428Y-26728571D02*
X152899999Y-26700000D01*
X152957142Y-26671429D01*
X153099999Y-26671429D01*
X153157142Y-26700000D01*
X153185713Y-26728571D01*
X153214285Y-26785714D01*
X153214285Y-26842857D01*
X153185713Y-26928571D01*
X152842856Y-27271429D01*
X153214285Y-27271429D01*
X153785714Y-27271429D02*
X153442857Y-27271429D01*
X153614285Y-27271429D02*
X153614285Y-26671429D01*
X153557142Y-26757143D01*
X153500000Y-26814286D01*
X153442857Y-26842857D01*
X154042857Y-27271429D02*
X154042857Y-26671429D01*
X154042857Y-26900000D02*
X154100000Y-26871429D01*
X154214286Y-26871429D01*
X154271429Y-26900000D01*
X154300000Y-26928571D01*
X154328571Y-26985714D01*
X154328571Y-27157143D01*
X154300000Y-27214286D01*
X154271429Y-27242857D01*
X154214286Y-27271429D01*
X154100000Y-27271429D01*
X154042857Y-27242857D01*
X154585714Y-27271429D02*
X154585714Y-26871429D01*
X154585714Y-26671429D02*
X154557143Y-26700000D01*
X154585714Y-26728571D01*
X154614286Y-26700000D01*
X154585714Y-26671429D01*
X154585714Y-26728571D01*
X154842857Y-27242857D02*
X154900000Y-27271429D01*
X155014285Y-27271429D01*
X155071428Y-27242857D01*
X155100000Y-27185714D01*
X155100000Y-27157143D01*
X155071428Y-27100000D01*
X155014285Y-27071429D01*
X154928571Y-27071429D01*
X154871428Y-27042857D01*
X154842857Y-26985714D01*
X154842857Y-26957143D01*
X154871428Y-26900000D01*
X154928571Y-26871429D01*
X155014285Y-26871429D01*
X155071428Y-26900000D01*
X156014285Y-26957143D02*
X156099999Y-26985714D01*
X156128571Y-27014286D01*
X156157142Y-27071429D01*
X156157142Y-27157143D01*
X156128571Y-27214286D01*
X156099999Y-27242857D01*
X156042857Y-27271429D01*
X155814285Y-27271429D01*
X155814285Y-26671429D01*
X156014285Y-26671429D01*
X156071428Y-26700000D01*
X156099999Y-26728571D01*
X156128571Y-26785714D01*
X156128571Y-26842857D01*
X156099999Y-26900000D01*
X156071428Y-26928571D01*
X156014285Y-26957143D01*
X155814285Y-26957143D01*
X156414285Y-27271429D02*
X156414285Y-26871429D01*
X156414285Y-26985714D02*
X156442857Y-26928571D01*
X156471428Y-26900000D01*
X156528571Y-26871429D01*
X156585714Y-26871429D01*
X157042857Y-27271429D02*
X157042857Y-26957143D01*
X157014286Y-26900000D01*
X156957143Y-26871429D01*
X156842857Y-26871429D01*
X156785714Y-26900000D01*
X157042857Y-27242857D02*
X156985714Y-27271429D01*
X156842857Y-27271429D01*
X156785714Y-27242857D01*
X156757143Y-27185714D01*
X156757143Y-27128571D01*
X156785714Y-27071429D01*
X156842857Y-27042857D01*
X156985714Y-27042857D01*
X157042857Y-27014286D01*
X157328571Y-26871429D02*
X157328571Y-27271429D01*
X157328571Y-26928571D02*
X157357143Y-26900000D01*
X157414285Y-26871429D01*
X157500000Y-26871429D01*
X157557143Y-26900000D01*
X157585714Y-26957143D01*
X157585714Y-27271429D01*
X158128571Y-27271429D02*
X158128571Y-26671429D01*
X158128571Y-27242857D02*
X158071428Y-27271429D01*
X157957142Y-27271429D01*
X157900000Y-27242857D01*
X157871428Y-27214286D01*
X157842857Y-27157143D01*
X157842857Y-26985714D01*
X157871428Y-26928571D01*
X157900000Y-26900000D01*
X157957142Y-26871429D01*
X158071428Y-26871429D01*
X158128571Y-26900000D01*
X158385714Y-27242857D02*
X158442857Y-27271429D01*
X158557142Y-27271429D01*
X158614285Y-27242857D01*
X158642857Y-27185714D01*
X158642857Y-27157143D01*
X158614285Y-27100000D01*
X158557142Y-27071429D01*
X158471428Y-27071429D01*
X158414285Y-27042857D01*
X158385714Y-26985714D01*
X158385714Y-26957143D01*
X158414285Y-26900000D01*
X158471428Y-26871429D01*
X158557142Y-26871429D01*
X158614285Y-26900000D01*
X158814285Y-26871429D02*
X159042856Y-26871429D01*
X158899999Y-26671429D02*
X158899999Y-27185714D01*
X158928571Y-27242857D01*
X158985713Y-27271429D01*
X159042856Y-27271429D01*
X159328570Y-27271429D02*
X159271428Y-27242857D01*
X159242856Y-27214286D01*
X159214285Y-27157143D01*
X159214285Y-26985714D01*
X159242856Y-26928571D01*
X159271428Y-26900000D01*
X159328570Y-26871429D01*
X159414285Y-26871429D01*
X159471428Y-26900000D01*
X159499999Y-26928571D01*
X159528570Y-26985714D01*
X159528570Y-27157143D01*
X159499999Y-27214286D01*
X159471428Y-27242857D01*
X159414285Y-27271429D01*
X159328570Y-27271429D01*
X159699999Y-26871429D02*
X159928570Y-26871429D01*
X159785713Y-27271429D02*
X159785713Y-26757143D01*
X159814285Y-26700000D01*
X159871427Y-26671429D01*
X159928570Y-26671429D01*
X160128570Y-26871429D02*
X160128570Y-27471429D01*
X160128570Y-26900000D02*
X160185713Y-26871429D01*
X160299999Y-26871429D01*
X160357142Y-26900000D01*
X160385713Y-26928571D01*
X160414284Y-26985714D01*
X160414284Y-27157143D01*
X160385713Y-27214286D01*
X160357142Y-27242857D01*
X160299999Y-27271429D01*
X160185713Y-27271429D01*
X160128570Y-27242857D01*
X160928570Y-27271429D02*
X160928570Y-26957143D01*
X160899999Y-26900000D01*
X160842856Y-26871429D01*
X160728570Y-26871429D01*
X160671427Y-26900000D01*
X160928570Y-27242857D02*
X160871427Y-27271429D01*
X160728570Y-27271429D01*
X160671427Y-27242857D01*
X160642856Y-27185714D01*
X160642856Y-27128571D01*
X160671427Y-27071429D01*
X160728570Y-27042857D01*
X160871427Y-27042857D01*
X160928570Y-27014286D01*
X161214284Y-26871429D02*
X161214284Y-27271429D01*
X161214284Y-26928571D02*
X161242856Y-26900000D01*
X161299998Y-26871429D01*
X161385713Y-26871429D01*
X161442856Y-26900000D01*
X161471427Y-26957143D01*
X161471427Y-27271429D01*
X161985713Y-27242857D02*
X161928570Y-27271429D01*
X161814284Y-27271429D01*
X161757141Y-27242857D01*
X161728570Y-27185714D01*
X161728570Y-26957143D01*
X161757141Y-26900000D01*
X161814284Y-26871429D01*
X161928570Y-26871429D01*
X161985713Y-26900000D01*
X162014284Y-26957143D01*
X162014284Y-27014286D01*
X161728570Y-27071429D01*
X162499999Y-27242857D02*
X162442856Y-27271429D01*
X162328570Y-27271429D01*
X162271427Y-27242857D01*
X162242856Y-27185714D01*
X162242856Y-26957143D01*
X162271427Y-26900000D01*
X162328570Y-26871429D01*
X162442856Y-26871429D01*
X162499999Y-26900000D01*
X162528570Y-26957143D01*
X162528570Y-27014286D01*
X162242856Y-27071429D01*
X162871427Y-27271429D02*
X162814285Y-27242857D01*
X162785713Y-27185714D01*
X162785713Y-26671429D01*
X162957142Y-27328571D02*
X163414285Y-27328571D01*
X163499999Y-26871429D02*
X163642856Y-27271429D01*
X163785714Y-26871429D01*
X164128571Y-26671429D02*
X164185714Y-26671429D01*
X164242857Y-26700000D01*
X164271428Y-26728571D01*
X164299999Y-26785714D01*
X164328571Y-26900000D01*
X164328571Y-27042857D01*
X164299999Y-27157143D01*
X164271428Y-27214286D01*
X164242857Y-27242857D01*
X164185714Y-27271429D01*
X164128571Y-27271429D01*
X164071428Y-27242857D01*
X164042857Y-27214286D01*
X164014285Y-27157143D01*
X163985714Y-27042857D01*
X163985714Y-26900000D01*
X164014285Y-26785714D01*
X164042857Y-26728571D01*
X164071428Y-26700000D01*
X164128571Y-26671429D01*
X164557143Y-26728571D02*
X164585714Y-26700000D01*
X164642857Y-26671429D01*
X164785714Y-26671429D01*
X164842857Y-26700000D01*
X164871428Y-26728571D01*
X164900000Y-26785714D01*
X164900000Y-26842857D01*
X164871428Y-26928571D01*
X164528571Y-27271429D01*
X164900000Y-27271429D01*
X164957143Y-26614286D02*
X165471429Y-27385714D01*
X165557143Y-27271429D02*
X165557143Y-26671429D01*
X165757143Y-27100000D01*
X165957143Y-26671429D01*
X165957143Y-27271429D01*
X166242857Y-27271429D02*
X166242857Y-26871429D01*
X166242857Y-26671429D02*
X166214286Y-26700000D01*
X166242857Y-26728571D01*
X166271429Y-26700000D01*
X166242857Y-26671429D01*
X166242857Y-26728571D01*
X166842857Y-26700000D02*
X166785714Y-26671429D01*
X166700000Y-26671429D01*
X166614285Y-26700000D01*
X166557143Y-26757143D01*
X166528571Y-26814286D01*
X166500000Y-26928571D01*
X166500000Y-27014286D01*
X166528571Y-27128571D01*
X166557143Y-27185714D01*
X166614285Y-27242857D01*
X166700000Y-27271429D01*
X166757143Y-27271429D01*
X166842857Y-27242857D01*
X166871428Y-27214286D01*
X166871428Y-27014286D01*
X166757143Y-27014286D01*
X167128571Y-27042857D02*
X167585714Y-27042857D01*
X167842857Y-26728571D02*
X167871428Y-26700000D01*
X167928571Y-26671429D01*
X168071428Y-26671429D01*
X168128571Y-26700000D01*
X168157142Y-26728571D01*
X168185714Y-26785714D01*
X168185714Y-26842857D01*
X168157142Y-26928571D01*
X167814285Y-27271429D01*
X168185714Y-27271429D01*
X168757143Y-27271429D02*
X168414286Y-27271429D01*
X168585714Y-27271429D02*
X168585714Y-26671429D01*
X168528571Y-26757143D01*
X168471429Y-26814286D01*
X168414286Y-26842857D01*
X169014286Y-27271429D02*
X169014286Y-26671429D01*
X169014286Y-26900000D02*
X169071429Y-26871429D01*
X169185715Y-26871429D01*
X169242858Y-26900000D01*
X169271429Y-26928571D01*
X169300000Y-26985714D01*
X169300000Y-27157143D01*
X169271429Y-27214286D01*
X169242858Y-27242857D01*
X169185715Y-27271429D01*
X169071429Y-27271429D01*
X169014286Y-27242857D01*
X169557143Y-27271429D02*
X169557143Y-26871429D01*
X169557143Y-26671429D02*
X169528572Y-26700000D01*
X169557143Y-26728571D01*
X169585715Y-26700000D01*
X169557143Y-26671429D01*
X169557143Y-26728571D01*
X169814286Y-27242857D02*
X169871429Y-27271429D01*
X169985714Y-27271429D01*
X170042857Y-27242857D01*
X170071429Y-27185714D01*
X170071429Y-27157143D01*
X170042857Y-27100000D01*
X169985714Y-27071429D01*
X169900000Y-27071429D01*
X169842857Y-27042857D01*
X169814286Y-26985714D01*
X169814286Y-26957143D01*
X169842857Y-26900000D01*
X169900000Y-26871429D01*
X169985714Y-26871429D01*
X170042857Y-26900000D01*
X170985714Y-26957143D02*
X171071428Y-26985714D01*
X171100000Y-27014286D01*
X171128571Y-27071429D01*
X171128571Y-27157143D01*
X171100000Y-27214286D01*
X171071428Y-27242857D01*
X171014286Y-27271429D01*
X170785714Y-27271429D01*
X170785714Y-26671429D01*
X170985714Y-26671429D01*
X171042857Y-26700000D01*
X171071428Y-26728571D01*
X171100000Y-26785714D01*
X171100000Y-26842857D01*
X171071428Y-26900000D01*
X171042857Y-26928571D01*
X170985714Y-26957143D01*
X170785714Y-26957143D01*
X171385714Y-27271429D02*
X171385714Y-26871429D01*
X171385714Y-26985714D02*
X171414286Y-26928571D01*
X171442857Y-26900000D01*
X171500000Y-26871429D01*
X171557143Y-26871429D01*
X172014286Y-27271429D02*
X172014286Y-26957143D01*
X171985715Y-26900000D01*
X171928572Y-26871429D01*
X171814286Y-26871429D01*
X171757143Y-26900000D01*
X172014286Y-27242857D02*
X171957143Y-27271429D01*
X171814286Y-27271429D01*
X171757143Y-27242857D01*
X171728572Y-27185714D01*
X171728572Y-27128571D01*
X171757143Y-27071429D01*
X171814286Y-27042857D01*
X171957143Y-27042857D01*
X172014286Y-27014286D01*
X172300000Y-26871429D02*
X172300000Y-27271429D01*
X172300000Y-26928571D02*
X172328572Y-26900000D01*
X172385714Y-26871429D01*
X172471429Y-26871429D01*
X172528572Y-26900000D01*
X172557143Y-26957143D01*
X172557143Y-27271429D01*
X173100000Y-27271429D02*
X173100000Y-26671429D01*
X173100000Y-27242857D02*
X173042857Y-27271429D01*
X172928571Y-27271429D01*
X172871429Y-27242857D01*
X172842857Y-27214286D01*
X172814286Y-27157143D01*
X172814286Y-26985714D01*
X172842857Y-26928571D01*
X172871429Y-26900000D01*
X172928571Y-26871429D01*
X173042857Y-26871429D01*
X173100000Y-26900000D01*
X173357143Y-27242857D02*
X173414286Y-27271429D01*
X173528571Y-27271429D01*
X173585714Y-27242857D01*
X173614286Y-27185714D01*
X173614286Y-27157143D01*
X173585714Y-27100000D01*
X173528571Y-27071429D01*
X173442857Y-27071429D01*
X173385714Y-27042857D01*
X173357143Y-26985714D01*
X173357143Y-26957143D01*
X173385714Y-26900000D01*
X173442857Y-26871429D01*
X173528571Y-26871429D01*
X173585714Y-26900000D01*
X173785714Y-26871429D02*
X174014285Y-26871429D01*
X173871428Y-26671429D02*
X173871428Y-27185714D01*
X173900000Y-27242857D01*
X173957142Y-27271429D01*
X174014285Y-27271429D01*
X174299999Y-27271429D02*
X174242857Y-27242857D01*
X174214285Y-27214286D01*
X174185714Y-27157143D01*
X174185714Y-26985714D01*
X174214285Y-26928571D01*
X174242857Y-26900000D01*
X174299999Y-26871429D01*
X174385714Y-26871429D01*
X174442857Y-26900000D01*
X174471428Y-26928571D01*
X174499999Y-26985714D01*
X174499999Y-27157143D01*
X174471428Y-27214286D01*
X174442857Y-27242857D01*
X174385714Y-27271429D01*
X174299999Y-27271429D01*
X174671428Y-26871429D02*
X174899999Y-26871429D01*
X174757142Y-27271429D02*
X174757142Y-26757143D01*
X174785714Y-26700000D01*
X174842856Y-26671429D01*
X174899999Y-26671429D01*
X175099999Y-26871429D02*
X175099999Y-27471429D01*
X175099999Y-26900000D02*
X175157142Y-26871429D01*
X175271428Y-26871429D01*
X175328571Y-26900000D01*
X175357142Y-26928571D01*
X175385713Y-26985714D01*
X175385713Y-27157143D01*
X175357142Y-27214286D01*
X175328571Y-27242857D01*
X175271428Y-27271429D01*
X175157142Y-27271429D01*
X175099999Y-27242857D01*
X175899999Y-27271429D02*
X175899999Y-26957143D01*
X175871428Y-26900000D01*
X175814285Y-26871429D01*
X175699999Y-26871429D01*
X175642856Y-26900000D01*
X175899999Y-27242857D02*
X175842856Y-27271429D01*
X175699999Y-27271429D01*
X175642856Y-27242857D01*
X175614285Y-27185714D01*
X175614285Y-27128571D01*
X175642856Y-27071429D01*
X175699999Y-27042857D01*
X175842856Y-27042857D01*
X175899999Y-27014286D01*
X176185713Y-26871429D02*
X176185713Y-27271429D01*
X176185713Y-26928571D02*
X176214285Y-26900000D01*
X176271427Y-26871429D01*
X176357142Y-26871429D01*
X176414285Y-26900000D01*
X176442856Y-26957143D01*
X176442856Y-27271429D01*
X176957142Y-27242857D02*
X176899999Y-27271429D01*
X176785713Y-27271429D01*
X176728570Y-27242857D01*
X176699999Y-27185714D01*
X176699999Y-26957143D01*
X176728570Y-26900000D01*
X176785713Y-26871429D01*
X176899999Y-26871429D01*
X176957142Y-26900000D01*
X176985713Y-26957143D01*
X176985713Y-27014286D01*
X176699999Y-27071429D01*
X177471428Y-27242857D02*
X177414285Y-27271429D01*
X177299999Y-27271429D01*
X177242856Y-27242857D01*
X177214285Y-27185714D01*
X177214285Y-26957143D01*
X177242856Y-26900000D01*
X177299999Y-26871429D01*
X177414285Y-26871429D01*
X177471428Y-26900000D01*
X177499999Y-26957143D01*
X177499999Y-27014286D01*
X177214285Y-27071429D01*
X177842856Y-27271429D02*
X177785714Y-27242857D01*
X177757142Y-27185714D01*
X177757142Y-26671429D01*
X177928571Y-27328571D02*
X178385714Y-27328571D01*
X178471428Y-26871429D02*
X178614285Y-27271429D01*
X178757143Y-26871429D01*
X179100000Y-26671429D02*
X179157143Y-26671429D01*
X179214286Y-26700000D01*
X179242857Y-26728571D01*
X179271428Y-26785714D01*
X179300000Y-26900000D01*
X179300000Y-27042857D01*
X179271428Y-27157143D01*
X179242857Y-27214286D01*
X179214286Y-27242857D01*
X179157143Y-27271429D01*
X179100000Y-27271429D01*
X179042857Y-27242857D01*
X179014286Y-27214286D01*
X178985714Y-27157143D01*
X178957143Y-27042857D01*
X178957143Y-26900000D01*
X178985714Y-26785714D01*
X179014286Y-26728571D01*
X179042857Y-26700000D01*
X179100000Y-26671429D01*
X179528572Y-26728571D02*
X179557143Y-26700000D01*
X179614286Y-26671429D01*
X179757143Y-26671429D01*
X179814286Y-26700000D01*
X179842857Y-26728571D01*
X179871429Y-26785714D01*
X179871429Y-26842857D01*
X179842857Y-26928571D01*
X179500000Y-27271429D01*
X179871429Y-27271429D01*
X180128572Y-27214286D02*
X180157144Y-27242857D01*
X180128572Y-27271429D01*
X180100001Y-27242857D01*
X180128572Y-27214286D01*
X180128572Y-27271429D01*
X180385715Y-27242857D02*
X180442858Y-27271429D01*
X180557143Y-27271429D01*
X180614286Y-27242857D01*
X180642858Y-27185714D01*
X180642858Y-27157143D01*
X180614286Y-27100000D01*
X180557143Y-27071429D01*
X180471429Y-27071429D01*
X180414286Y-27042857D01*
X180385715Y-26985714D01*
X180385715Y-26957143D01*
X180414286Y-26900000D01*
X180471429Y-26871429D01*
X180557143Y-26871429D01*
X180614286Y-26900000D01*
X181157143Y-27242857D02*
X181100000Y-27271429D01*
X180985714Y-27271429D01*
X180928572Y-27242857D01*
X180900000Y-27214286D01*
X180871429Y-27157143D01*
X180871429Y-26985714D01*
X180900000Y-26928571D01*
X180928572Y-26900000D01*
X180985714Y-26871429D01*
X181100000Y-26871429D01*
X181157143Y-26900000D01*
X181414286Y-27271429D02*
X181414286Y-26671429D01*
X181671429Y-27271429D02*
X181671429Y-26957143D01*
X181642858Y-26900000D01*
X181585715Y-26871429D01*
X181500000Y-26871429D01*
X181442858Y-26900000D01*
X181414286Y-26928571D01*
D13*
X146261905Y-23620119D02*
X146261905Y-22520119D01*
X146523810Y-22520119D01*
X146680952Y-22572500D01*
X146785714Y-22677262D01*
X146838095Y-22782024D01*
X146890476Y-22991548D01*
X146890476Y-23148690D01*
X146838095Y-23358214D01*
X146785714Y-23462976D01*
X146680952Y-23567738D01*
X146523810Y-23620119D01*
X146261905Y-23620119D01*
X147990476Y-23515357D02*
X147938095Y-23567738D01*
X147780952Y-23620119D01*
X147676190Y-23620119D01*
X147519048Y-23567738D01*
X147414286Y-23462976D01*
X147361905Y-23358214D01*
X147309524Y-23148690D01*
X147309524Y-22991548D01*
X147361905Y-22782024D01*
X147414286Y-22677262D01*
X147519048Y-22572500D01*
X147676190Y-22520119D01*
X147780952Y-22520119D01*
X147938095Y-22572500D01*
X147990476Y-22624881D01*
X148409524Y-23567738D02*
X148566667Y-23620119D01*
X148828571Y-23620119D01*
X148933333Y-23567738D01*
X148985714Y-23515357D01*
X149038095Y-23410595D01*
X149038095Y-23305833D01*
X148985714Y-23201071D01*
X148933333Y-23148690D01*
X148828571Y-23096310D01*
X148619048Y-23043929D01*
X148514286Y-22991548D01*
X148461905Y-22939167D01*
X148409524Y-22834405D01*
X148409524Y-22729643D01*
X148461905Y-22624881D01*
X148514286Y-22572500D01*
X148619048Y-22520119D01*
X148880952Y-22520119D01*
X149038095Y-22572500D01*
X149509524Y-23515357D02*
X149561905Y-23567738D01*
X149509524Y-23620119D01*
X149457143Y-23567738D01*
X149509524Y-23515357D01*
X149509524Y-23620119D01*
X149509524Y-22939167D02*
X149561905Y-22991548D01*
X149509524Y-23043929D01*
X149457143Y-22991548D01*
X149509524Y-22939167D01*
X149509524Y-23043929D01*
X150871429Y-23620119D02*
X150871429Y-22520119D01*
X151238095Y-23305833D01*
X151604762Y-22520119D01*
X151604762Y-23620119D01*
X152128572Y-23620119D02*
X152128572Y-22886786D01*
X152128572Y-22520119D02*
X152076191Y-22572500D01*
X152128572Y-22624881D01*
X152180953Y-22572500D01*
X152128572Y-22520119D01*
X152128572Y-22624881D01*
X153228572Y-22572500D02*
X153123810Y-22520119D01*
X152966667Y-22520119D01*
X152809525Y-22572500D01*
X152704763Y-22677262D01*
X152652382Y-22782024D01*
X152600001Y-22991548D01*
X152600001Y-23148690D01*
X152652382Y-23358214D01*
X152704763Y-23462976D01*
X152809525Y-23567738D01*
X152966667Y-23620119D01*
X153071429Y-23620119D01*
X153228572Y-23567738D01*
X153280953Y-23515357D01*
X153280953Y-23148690D01*
X153071429Y-23148690D01*
X153752382Y-23201071D02*
X154590477Y-23201071D01*
X155061906Y-22624881D02*
X155114287Y-22572500D01*
X155219049Y-22520119D01*
X155480953Y-22520119D01*
X155585715Y-22572500D01*
X155638096Y-22624881D01*
X155690477Y-22729643D01*
X155690477Y-22834405D01*
X155638096Y-22991548D01*
X155009525Y-23620119D01*
X155690477Y-23620119D01*
X156738096Y-23620119D02*
X156109525Y-23620119D01*
X156423811Y-23620119D02*
X156423811Y-22520119D01*
X156319049Y-22677262D01*
X156214287Y-22782024D01*
X156109525Y-22834405D01*
X157209525Y-23620119D02*
X157209525Y-22520119D01*
X157209525Y-22939167D02*
X157314287Y-22886786D01*
X157523810Y-22886786D01*
X157628572Y-22939167D01*
X157680953Y-22991548D01*
X157733334Y-23096310D01*
X157733334Y-23410595D01*
X157680953Y-23515357D01*
X157628572Y-23567738D01*
X157523810Y-23620119D01*
X157314287Y-23620119D01*
X157209525Y-23567738D01*
X158204763Y-23620119D02*
X158204763Y-22886786D01*
X158204763Y-22520119D02*
X158152382Y-22572500D01*
X158204763Y-22624881D01*
X158257144Y-22572500D01*
X158204763Y-22520119D01*
X158204763Y-22624881D01*
X158676192Y-23567738D02*
X158780954Y-23620119D01*
X158990478Y-23620119D01*
X159095239Y-23567738D01*
X159147620Y-23462976D01*
X159147620Y-23410595D01*
X159095239Y-23305833D01*
X158990478Y-23253452D01*
X158833335Y-23253452D01*
X158728573Y-23201071D01*
X158676192Y-23096310D01*
X158676192Y-23043929D01*
X158728573Y-22939167D01*
X158833335Y-22886786D01*
X158990478Y-22886786D01*
X159095239Y-22939167D01*
X160457144Y-23620119D02*
X160457144Y-22520119D01*
X160457144Y-23043929D02*
X161085715Y-23043929D01*
X161085715Y-23620119D02*
X161085715Y-22520119D01*
X161766668Y-23620119D02*
X161661906Y-23567738D01*
X161609525Y-23515357D01*
X161557144Y-23410595D01*
X161557144Y-23096310D01*
X161609525Y-22991548D01*
X161661906Y-22939167D01*
X161766668Y-22886786D01*
X161923810Y-22886786D01*
X162028572Y-22939167D01*
X162080953Y-22991548D01*
X162133334Y-23096310D01*
X162133334Y-23410595D01*
X162080953Y-23515357D01*
X162028572Y-23567738D01*
X161923810Y-23620119D01*
X161766668Y-23620119D01*
X162761906Y-23620119D02*
X162657144Y-23567738D01*
X162604763Y-23515357D01*
X162552382Y-23410595D01*
X162552382Y-23096310D01*
X162604763Y-22991548D01*
X162657144Y-22939167D01*
X162761906Y-22886786D01*
X162919048Y-22886786D01*
X163023810Y-22939167D01*
X163076191Y-22991548D01*
X163128572Y-23096310D01*
X163128572Y-23410595D01*
X163076191Y-23515357D01*
X163023810Y-23567738D01*
X162919048Y-23620119D01*
X162761906Y-23620119D01*
X163442858Y-22886786D02*
X163861906Y-22886786D01*
X163600001Y-23620119D02*
X163600001Y-22677262D01*
X163652382Y-22572500D01*
X163757144Y-22520119D01*
X163861906Y-22520119D01*
X164176191Y-23567738D02*
X164280953Y-23620119D01*
X164490477Y-23620119D01*
X164595238Y-23567738D01*
X164647619Y-23462976D01*
X164647619Y-23410595D01*
X164595238Y-23305833D01*
X164490477Y-23253452D01*
X164333334Y-23253452D01*
X164228572Y-23201071D01*
X164176191Y-23096310D01*
X164176191Y-23043929D01*
X164228572Y-22939167D01*
X164333334Y-22886786D01*
X164490477Y-22886786D01*
X164595238Y-22939167D01*
X164961905Y-22886786D02*
X165380953Y-22886786D01*
X165119048Y-22520119D02*
X165119048Y-23462976D01*
X165171429Y-23567738D01*
X165276191Y-23620119D01*
X165380953Y-23620119D01*
X165747619Y-23620119D02*
X165747619Y-22886786D01*
X165747619Y-23096310D02*
X165800000Y-22991548D01*
X165852381Y-22939167D01*
X165957143Y-22886786D01*
X166061904Y-22886786D01*
X166585714Y-23620119D02*
X166480952Y-23567738D01*
X166428571Y-23515357D01*
X166376190Y-23410595D01*
X166376190Y-23096310D01*
X166428571Y-22991548D01*
X166480952Y-22939167D01*
X166585714Y-22886786D01*
X166742856Y-22886786D01*
X166847618Y-22939167D01*
X166899999Y-22991548D01*
X166952380Y-23096310D01*
X166952380Y-23410595D01*
X166899999Y-23515357D01*
X166847618Y-23567738D01*
X166742856Y-23620119D01*
X166585714Y-23620119D01*
X167580952Y-23620119D02*
X167476190Y-23567738D01*
X167423809Y-23515357D01*
X167371428Y-23410595D01*
X167371428Y-23096310D01*
X167423809Y-22991548D01*
X167476190Y-22939167D01*
X167580952Y-22886786D01*
X167738094Y-22886786D01*
X167842856Y-22939167D01*
X167895237Y-22991548D01*
X167947618Y-23096310D01*
X167947618Y-23410595D01*
X167895237Y-23515357D01*
X167842856Y-23567738D01*
X167738094Y-23620119D01*
X167580952Y-23620119D01*
X168419047Y-23620119D02*
X168419047Y-22886786D01*
X168419047Y-22991548D02*
X168471428Y-22939167D01*
X168576190Y-22886786D01*
X168733332Y-22886786D01*
X168838094Y-22939167D01*
X168890475Y-23043929D01*
X168890475Y-23620119D01*
X168890475Y-23043929D02*
X168942856Y-22939167D01*
X169047618Y-22886786D01*
X169204761Y-22886786D01*
X169309523Y-22939167D01*
X169361904Y-23043929D01*
X169361904Y-23620119D01*
X170671428Y-23567738D02*
X170828571Y-23620119D01*
X171090475Y-23620119D01*
X171195237Y-23567738D01*
X171247618Y-23515357D01*
X171299999Y-23410595D01*
X171299999Y-23305833D01*
X171247618Y-23201071D01*
X171195237Y-23148690D01*
X171090475Y-23096310D01*
X170880952Y-23043929D01*
X170776190Y-22991548D01*
X170723809Y-22939167D01*
X170671428Y-22834405D01*
X170671428Y-22729643D01*
X170723809Y-22624881D01*
X170776190Y-22572500D01*
X170880952Y-22520119D01*
X171142856Y-22520119D01*
X171299999Y-22572500D01*
X171771428Y-23620119D02*
X171771428Y-22520119D01*
X171876190Y-23201071D02*
X172190475Y-23620119D01*
X172190475Y-22886786D02*
X171771428Y-23305833D01*
X173133332Y-23620119D02*
X173133332Y-23043929D01*
X173080951Y-22939167D01*
X172976189Y-22886786D01*
X172766666Y-22886786D01*
X172661904Y-22939167D01*
X173133332Y-23567738D02*
X173028570Y-23620119D01*
X172766666Y-23620119D01*
X172661904Y-23567738D01*
X172609523Y-23462976D01*
X172609523Y-23358214D01*
X172661904Y-23253452D01*
X172766666Y-23201071D01*
X173028570Y-23201071D01*
X173133332Y-23148690D01*
X173657142Y-23620119D02*
X173657142Y-22520119D01*
X173761904Y-23201071D02*
X174076189Y-23620119D01*
X174076189Y-22886786D02*
X173657142Y-23305833D01*
X174966665Y-23567738D02*
X174861903Y-23620119D01*
X174652380Y-23620119D01*
X174547618Y-23567738D01*
X174495237Y-23462976D01*
X174495237Y-23043929D01*
X174547618Y-22939167D01*
X174652380Y-22886786D01*
X174861903Y-22886786D01*
X174966665Y-22939167D01*
X175019046Y-23043929D01*
X175019046Y-23148690D01*
X174495237Y-23253452D01*
X175647618Y-23620119D02*
X175542856Y-23567738D01*
X175490475Y-23462976D01*
X175490475Y-22520119D01*
X176538093Y-23620119D02*
X176538093Y-23043929D01*
X176485712Y-22939167D01*
X176380950Y-22886786D01*
X176171427Y-22886786D01*
X176066665Y-22939167D01*
X176538093Y-23567738D02*
X176433331Y-23620119D01*
X176171427Y-23620119D01*
X176066665Y-23567738D01*
X176014284Y-23462976D01*
X176014284Y-23358214D01*
X176066665Y-23253452D01*
X176171427Y-23201071D01*
X176433331Y-23201071D01*
X176538093Y-23148690D01*
X177533331Y-23620119D02*
X177533331Y-23043929D01*
X177480950Y-22939167D01*
X177376188Y-22886786D01*
X177166665Y-22886786D01*
X177061903Y-22939167D01*
X177533331Y-23567738D02*
X177428569Y-23620119D01*
X177166665Y-23620119D01*
X177061903Y-23567738D01*
X177009522Y-23462976D01*
X177009522Y-23358214D01*
X177061903Y-23253452D01*
X177166665Y-23201071D01*
X177428569Y-23201071D01*
X177533331Y-23148690D01*
X178057141Y-23620119D02*
X178057141Y-22886786D01*
X178057141Y-23096310D02*
X178109522Y-22991548D01*
X178161903Y-22939167D01*
X178266665Y-22886786D01*
X178371426Y-22886786D01*
X178685712Y-23567738D02*
X178790474Y-23620119D01*
X178999998Y-23620119D01*
X179104759Y-23567738D01*
X179157140Y-23462976D01*
X179157140Y-23410595D01*
X179104759Y-23305833D01*
X178999998Y-23253452D01*
X178842855Y-23253452D01*
X178738093Y-23201071D01*
X178685712Y-23096310D01*
X178685712Y-23043929D01*
X178738093Y-22939167D01*
X178842855Y-22886786D01*
X178999998Y-22886786D01*
X179104759Y-22939167D01*
X146104762Y-24275119D02*
X146471429Y-25375119D01*
X146838095Y-24275119D01*
X147623809Y-25322738D02*
X147519047Y-25375119D01*
X147309524Y-25375119D01*
X147204762Y-25322738D01*
X147152381Y-25217976D01*
X147152381Y-24798929D01*
X147204762Y-24694167D01*
X147309524Y-24641786D01*
X147519047Y-24641786D01*
X147623809Y-24694167D01*
X147676190Y-24798929D01*
X147676190Y-24903690D01*
X147152381Y-25008452D01*
X148147619Y-25375119D02*
X148147619Y-24641786D01*
X148147619Y-24851310D02*
X148200000Y-24746548D01*
X148252381Y-24694167D01*
X148357143Y-24641786D01*
X148461904Y-24641786D01*
X148776190Y-25322738D02*
X148880952Y-25375119D01*
X149090476Y-25375119D01*
X149195237Y-25322738D01*
X149247618Y-25217976D01*
X149247618Y-25165595D01*
X149195237Y-25060833D01*
X149090476Y-25008452D01*
X148933333Y-25008452D01*
X148828571Y-24956071D01*
X148776190Y-24851310D01*
X148776190Y-24798929D01*
X148828571Y-24694167D01*
X148933333Y-24641786D01*
X149090476Y-24641786D01*
X149195237Y-24694167D01*
X149719047Y-25375119D02*
X149719047Y-24641786D01*
X149719047Y-24275119D02*
X149666666Y-24327500D01*
X149719047Y-24379881D01*
X149771428Y-24327500D01*
X149719047Y-24275119D01*
X149719047Y-24379881D01*
X150661904Y-25322738D02*
X150557142Y-25375119D01*
X150347619Y-25375119D01*
X150242857Y-25322738D01*
X150190476Y-25217976D01*
X150190476Y-24798929D01*
X150242857Y-24694167D01*
X150347619Y-24641786D01*
X150557142Y-24641786D01*
X150661904Y-24694167D01*
X150714285Y-24798929D01*
X150714285Y-24903690D01*
X150190476Y-25008452D01*
X151185714Y-25270357D02*
X151238095Y-25322738D01*
X151185714Y-25375119D01*
X151133333Y-25322738D01*
X151185714Y-25270357D01*
X151185714Y-25375119D01*
X151185714Y-24694167D02*
X151238095Y-24746548D01*
X151185714Y-24798929D01*
X151133333Y-24746548D01*
X151185714Y-24694167D01*
X151185714Y-24798929D01*
X152757143Y-24275119D02*
X152861904Y-24275119D01*
X152966666Y-24327500D01*
X153019047Y-24379881D01*
X153071428Y-24484643D01*
X153123809Y-24694167D01*
X153123809Y-24956071D01*
X153071428Y-25165595D01*
X153019047Y-25270357D01*
X152966666Y-25322738D01*
X152861904Y-25375119D01*
X152757143Y-25375119D01*
X152652381Y-25322738D01*
X152600000Y-25270357D01*
X152547619Y-25165595D01*
X152495238Y-24956071D01*
X152495238Y-24694167D01*
X152547619Y-24484643D01*
X152600000Y-24379881D01*
X152652381Y-24327500D01*
X152757143Y-24275119D01*
X153595238Y-25270357D02*
X153647619Y-25322738D01*
X153595238Y-25375119D01*
X153542857Y-25322738D01*
X153595238Y-25270357D01*
X153595238Y-25375119D01*
X154328572Y-24275119D02*
X154433333Y-24275119D01*
X154538095Y-24327500D01*
X154590476Y-24379881D01*
X154642857Y-24484643D01*
X154695238Y-24694167D01*
X154695238Y-24956071D01*
X154642857Y-25165595D01*
X154590476Y-25270357D01*
X154538095Y-25322738D01*
X154433333Y-25375119D01*
X154328572Y-25375119D01*
X154223810Y-25322738D01*
X154171429Y-25270357D01*
X154119048Y-25165595D01*
X154066667Y-24956071D01*
X154066667Y-24694167D01*
X154119048Y-24484643D01*
X154171429Y-24379881D01*
X154223810Y-24327500D01*
X154328572Y-24275119D01*
X155166667Y-25270357D02*
X155219048Y-25322738D01*
X155166667Y-25375119D01*
X155114286Y-25322738D01*
X155166667Y-25270357D01*
X155166667Y-25375119D01*
X155847620Y-24746548D02*
X155742858Y-24694167D01*
X155690477Y-24641786D01*
X155638096Y-24537024D01*
X155638096Y-24484643D01*
X155690477Y-24379881D01*
X155742858Y-24327500D01*
X155847620Y-24275119D01*
X156057143Y-24275119D01*
X156161905Y-24327500D01*
X156214286Y-24379881D01*
X156266667Y-24484643D01*
X156266667Y-24537024D01*
X156214286Y-24641786D01*
X156161905Y-24694167D01*
X156057143Y-24746548D01*
X155847620Y-24746548D01*
X155742858Y-24798929D01*
X155690477Y-24851310D01*
X155638096Y-24956071D01*
X155638096Y-25165595D01*
X155690477Y-25270357D01*
X155742858Y-25322738D01*
X155847620Y-25375119D01*
X156057143Y-25375119D01*
X156161905Y-25322738D01*
X156214286Y-25270357D01*
X156266667Y-25165595D01*
X156266667Y-24956071D01*
X156214286Y-24851310D01*
X156161905Y-24798929D01*
X156057143Y-24746548D01*
X158361905Y-24379881D02*
X158414286Y-24327500D01*
X158519048Y-24275119D01*
X158780952Y-24275119D01*
X158885714Y-24327500D01*
X158938095Y-24379881D01*
X158990476Y-24484643D01*
X158990476Y-24589405D01*
X158938095Y-24746548D01*
X158309524Y-25375119D01*
X158990476Y-25375119D01*
X159671429Y-24275119D02*
X159776190Y-24275119D01*
X159880952Y-24327500D01*
X159933333Y-24379881D01*
X159985714Y-24484643D01*
X160038095Y-24694167D01*
X160038095Y-24956071D01*
X159985714Y-25165595D01*
X159933333Y-25270357D01*
X159880952Y-25322738D01*
X159776190Y-25375119D01*
X159671429Y-25375119D01*
X159566667Y-25322738D01*
X159514286Y-25270357D01*
X159461905Y-25165595D01*
X159409524Y-24956071D01*
X159409524Y-24694167D01*
X159461905Y-24484643D01*
X159514286Y-24379881D01*
X159566667Y-24327500D01*
X159671429Y-24275119D01*
X161085714Y-25375119D02*
X160457143Y-25375119D01*
X160771429Y-25375119D02*
X160771429Y-24275119D01*
X160666667Y-24432262D01*
X160561905Y-24537024D01*
X160457143Y-24589405D01*
X162028571Y-24275119D02*
X161819048Y-24275119D01*
X161714286Y-24327500D01*
X161661905Y-24379881D01*
X161557143Y-24537024D01*
X161504762Y-24746548D01*
X161504762Y-25165595D01*
X161557143Y-25270357D01*
X161609524Y-25322738D01*
X161714286Y-25375119D01*
X161923809Y-25375119D01*
X162028571Y-25322738D01*
X162080952Y-25270357D01*
X162133333Y-25165595D01*
X162133333Y-24903690D01*
X162080952Y-24798929D01*
X162028571Y-24746548D01*
X161923809Y-24694167D01*
X161714286Y-24694167D01*
X161609524Y-24746548D01*
X161557143Y-24798929D01*
X161504762Y-24903690D01*
X162604762Y-25270357D02*
X162657143Y-25322738D01*
X162604762Y-25375119D01*
X162552381Y-25322738D01*
X162604762Y-25270357D01*
X162604762Y-25375119D01*
X163338096Y-24275119D02*
X163442857Y-24275119D01*
X163547619Y-24327500D01*
X163600000Y-24379881D01*
X163652381Y-24484643D01*
X163704762Y-24694167D01*
X163704762Y-24956071D01*
X163652381Y-25165595D01*
X163600000Y-25270357D01*
X163547619Y-25322738D01*
X163442857Y-25375119D01*
X163338096Y-25375119D01*
X163233334Y-25322738D01*
X163180953Y-25270357D01*
X163128572Y-25165595D01*
X163076191Y-24956071D01*
X163076191Y-24694167D01*
X163128572Y-24484643D01*
X163180953Y-24379881D01*
X163233334Y-24327500D01*
X163338096Y-24275119D01*
X164123810Y-24379881D02*
X164176191Y-24327500D01*
X164280953Y-24275119D01*
X164542857Y-24275119D01*
X164647619Y-24327500D01*
X164700000Y-24379881D01*
X164752381Y-24484643D01*
X164752381Y-24589405D01*
X164700000Y-24746548D01*
X164071429Y-25375119D01*
X164752381Y-25375119D01*
X165223810Y-25270357D02*
X165276191Y-25322738D01*
X165223810Y-25375119D01*
X165171429Y-25322738D01*
X165223810Y-25270357D01*
X165223810Y-25375119D01*
X165957144Y-24275119D02*
X166061905Y-24275119D01*
X166166667Y-24327500D01*
X166219048Y-24379881D01*
X166271429Y-24484643D01*
X166323810Y-24694167D01*
X166323810Y-24956071D01*
X166271429Y-25165595D01*
X166219048Y-25270357D01*
X166166667Y-25322738D01*
X166061905Y-25375119D01*
X165957144Y-25375119D01*
X165852382Y-25322738D01*
X165800001Y-25270357D01*
X165747620Y-25165595D01*
X165695239Y-24956071D01*
X165695239Y-24694167D01*
X165747620Y-24484643D01*
X165800001Y-24379881D01*
X165852382Y-24327500D01*
X165957144Y-24275119D01*
X166847620Y-25375119D02*
X167057144Y-25375119D01*
X167161905Y-25322738D01*
X167214286Y-25270357D01*
X167319048Y-25113214D01*
X167371429Y-24903690D01*
X167371429Y-24484643D01*
X167319048Y-24379881D01*
X167266667Y-24327500D01*
X167161905Y-24275119D01*
X166952382Y-24275119D01*
X166847620Y-24327500D01*
X166795239Y-24379881D01*
X166742858Y-24484643D01*
X166742858Y-24746548D01*
X166795239Y-24851310D01*
X166847620Y-24903690D01*
X166952382Y-24956071D01*
X167161905Y-24956071D01*
X167266667Y-24903690D01*
X167319048Y-24851310D01*
X167371429Y-24746548D01*
X169728572Y-24275119D02*
X169938095Y-24275119D01*
X170042857Y-24327500D01*
X170147619Y-24432262D01*
X170200000Y-24641786D01*
X170200000Y-25008452D01*
X170147619Y-25217976D01*
X170042857Y-25322738D01*
X169938095Y-25375119D01*
X169728572Y-25375119D01*
X169623810Y-25322738D01*
X169519048Y-25217976D01*
X169466667Y-25008452D01*
X169466667Y-24641786D01*
X169519048Y-24432262D01*
X169623810Y-24327500D01*
X169728572Y-24275119D01*
X170671429Y-24641786D02*
X170671429Y-25375119D01*
X170671429Y-24746548D02*
X170723810Y-24694167D01*
X170828572Y-24641786D01*
X170985714Y-24641786D01*
X171090476Y-24694167D01*
X171142857Y-24798929D01*
X171142857Y-25375119D01*
X171509524Y-24641786D02*
X171928572Y-24641786D01*
X171666667Y-24275119D02*
X171666667Y-25217976D01*
X171719048Y-25322738D01*
X171823810Y-25375119D01*
X171928572Y-25375119D01*
X172190476Y-24641786D02*
X172400000Y-25375119D01*
X172609523Y-24851310D01*
X172819047Y-25375119D01*
X173028571Y-24641786D01*
X173866666Y-25322738D02*
X173761904Y-25375119D01*
X173552381Y-25375119D01*
X173447619Y-25322738D01*
X173395238Y-25217976D01*
X173395238Y-24798929D01*
X173447619Y-24694167D01*
X173552381Y-24641786D01*
X173761904Y-24641786D01*
X173866666Y-24694167D01*
X173919047Y-24798929D01*
X173919047Y-24903690D01*
X173395238Y-25008452D01*
X174390476Y-25375119D02*
X174390476Y-24641786D01*
X174390476Y-24851310D02*
X174442857Y-24746548D01*
X174495238Y-24694167D01*
X174600000Y-24641786D01*
X174704761Y-24641786D01*
X175071428Y-24641786D02*
X175071428Y-25741786D01*
X175071428Y-24694167D02*
X175176190Y-24641786D01*
X175385713Y-24641786D01*
X175490475Y-24694167D01*
X175542856Y-24746548D01*
X175595237Y-24851310D01*
X175595237Y-25165595D01*
X175542856Y-25270357D01*
X175490475Y-25322738D01*
X175385713Y-25375119D01*
X175176190Y-25375119D01*
X175071428Y-25322738D01*
X176485713Y-25322738D02*
X176380951Y-25375119D01*
X176171428Y-25375119D01*
X176066666Y-25322738D01*
X176014285Y-25217976D01*
X176014285Y-24798929D01*
X176066666Y-24694167D01*
X176171428Y-24641786D01*
X176380951Y-24641786D01*
X176485713Y-24694167D01*
X176538094Y-24798929D01*
X176538094Y-24903690D01*
X176014285Y-25008452D01*
X177009523Y-25375119D02*
X177009523Y-24641786D01*
X177009523Y-24851310D02*
X177061904Y-24746548D01*
X177114285Y-24694167D01*
X177219047Y-24641786D01*
X177323808Y-24641786D01*
X177690475Y-25270357D02*
X177742856Y-25322738D01*
X177690475Y-25375119D01*
X177638094Y-25322738D01*
X177690475Y-25270357D01*
X177690475Y-25375119D01*
X177690475Y-24694167D02*
X177742856Y-24746548D01*
X177690475Y-24798929D01*
X177638094Y-24746548D01*
X177690475Y-24694167D01*
X177690475Y-24798929D01*
X179052380Y-25375119D02*
X179052380Y-24275119D01*
X179419046Y-25060833D01*
X179785713Y-24275119D01*
X179785713Y-25375119D01*
X180309523Y-25375119D02*
X180309523Y-24641786D01*
X180309523Y-24275119D02*
X180257142Y-24327500D01*
X180309523Y-24379881D01*
X180361904Y-24327500D01*
X180309523Y-24275119D01*
X180309523Y-24379881D01*
X181304761Y-25322738D02*
X181199999Y-25375119D01*
X180990476Y-25375119D01*
X180885714Y-25322738D01*
X180833333Y-25270357D01*
X180780952Y-25165595D01*
X180780952Y-24851310D01*
X180833333Y-24746548D01*
X180885714Y-24694167D01*
X180990476Y-24641786D01*
X181199999Y-24641786D01*
X181304761Y-24694167D01*
X181776190Y-25375119D02*
X181776190Y-24275119D01*
X182247618Y-25375119D02*
X182247618Y-24798929D01*
X182195237Y-24694167D01*
X182090475Y-24641786D01*
X181933333Y-24641786D01*
X181828571Y-24694167D01*
X181776190Y-24746548D01*
X182771428Y-25375119D02*
X182771428Y-24641786D01*
X182771428Y-24275119D02*
X182719047Y-24327500D01*
X182771428Y-24379881D01*
X182823809Y-24327500D01*
X182771428Y-24275119D01*
X182771428Y-24379881D01*
X183714285Y-25322738D02*
X183609523Y-25375119D01*
X183400000Y-25375119D01*
X183295238Y-25322738D01*
X183242857Y-25217976D01*
X183242857Y-24798929D01*
X183295238Y-24694167D01*
X183400000Y-24641786D01*
X183609523Y-24641786D01*
X183714285Y-24694167D01*
X183766666Y-24798929D01*
X183766666Y-24903690D01*
X183242857Y-25008452D01*
X184395238Y-25375119D02*
X184290476Y-25322738D01*
X184238095Y-25217976D01*
X184238095Y-24275119D01*
X185652380Y-24798929D02*
X186019046Y-24798929D01*
X186176189Y-25375119D02*
X185652380Y-25375119D01*
X185652380Y-24275119D01*
X186176189Y-24275119D01*
X186647618Y-25375119D02*
X186647618Y-24641786D01*
X186647618Y-24851310D02*
X186699999Y-24746548D01*
X186752380Y-24694167D01*
X186857142Y-24641786D01*
X186961903Y-24641786D01*
X187799998Y-25375119D02*
X187799998Y-24798929D01*
X187747617Y-24694167D01*
X187642855Y-24641786D01*
X187433332Y-24641786D01*
X187328570Y-24694167D01*
X187799998Y-25322738D02*
X187695236Y-25375119D01*
X187433332Y-25375119D01*
X187328570Y-25322738D01*
X187276189Y-25217976D01*
X187276189Y-25113214D01*
X187328570Y-25008452D01*
X187433332Y-24956071D01*
X187695236Y-24956071D01*
X187799998Y-24903690D01*
X188271427Y-25322738D02*
X188376189Y-25375119D01*
X188585713Y-25375119D01*
X188690474Y-25322738D01*
X188742855Y-25217976D01*
X188742855Y-25165595D01*
X188690474Y-25060833D01*
X188585713Y-25008452D01*
X188428570Y-25008452D01*
X188323808Y-24956071D01*
X188271427Y-24851310D01*
X188271427Y-24798929D01*
X188323808Y-24694167D01*
X188428570Y-24641786D01*
X188585713Y-24641786D01*
X188690474Y-24694167D01*
X189214284Y-25375119D02*
X189214284Y-24641786D01*
X189214284Y-24746548D02*
X189266665Y-24694167D01*
X189371427Y-24641786D01*
X189528569Y-24641786D01*
X189633331Y-24694167D01*
X189685712Y-24798929D01*
X189685712Y-25375119D01*
X189685712Y-24798929D02*
X189738093Y-24694167D01*
X189842855Y-24641786D01*
X189999998Y-24641786D01*
X190104760Y-24694167D01*
X190157141Y-24798929D01*
X190157141Y-25375119D01*
X191152379Y-24641786D02*
X191152379Y-25375119D01*
X190680951Y-24641786D02*
X190680951Y-25217976D01*
X190733332Y-25322738D01*
X190838094Y-25375119D01*
X190995236Y-25375119D01*
X191099998Y-25322738D01*
X191152379Y-25270357D01*
X191623808Y-25322738D02*
X191728570Y-25375119D01*
X191938094Y-25375119D01*
X192042855Y-25322738D01*
X192095236Y-25217976D01*
X192095236Y-25165595D01*
X192042855Y-25060833D01*
X191938094Y-25008452D01*
X191780951Y-25008452D01*
X191676189Y-24956071D01*
X191623808Y-24851310D01*
X191623808Y-24798929D01*
X191676189Y-24694167D01*
X191780951Y-24641786D01*
X191938094Y-24641786D01*
X192042855Y-24694167D01*
D11*
X170000000Y-56500000D02*
X170000000Y-57000000D01*
D14*
X170585714Y-57007143D02*
X170885714Y-57907143D01*
X171185714Y-57007143D01*
X171485715Y-57907143D02*
X171485715Y-57307143D01*
X171485715Y-57478571D02*
X171528572Y-57392857D01*
X171571429Y-57350000D01*
X171657143Y-57307143D01*
X171742858Y-57307143D01*
X171957143Y-57307143D02*
X172171429Y-57907143D01*
X172385715Y-57307143D02*
X172171429Y-57907143D01*
X172085715Y-58121429D01*
X172042858Y-58164286D01*
X171957143Y-58207143D01*
X172728572Y-57907143D02*
X172728572Y-57007143D01*
X173114286Y-57907143D02*
X173114286Y-57435714D01*
X173071429Y-57350000D01*
X172985715Y-57307143D01*
X172857143Y-57307143D01*
X172771429Y-57350000D01*
X172728572Y-57392857D01*
X173885715Y-57864286D02*
X173800001Y-57907143D01*
X173628572Y-57907143D01*
X173542858Y-57864286D01*
X173500001Y-57778571D01*
X173500001Y-57435714D01*
X173542858Y-57350000D01*
X173628572Y-57307143D01*
X173800001Y-57307143D01*
X173885715Y-57350000D01*
X173928572Y-57435714D01*
X173928572Y-57521429D01*
X173500001Y-57607143D01*
X174314287Y-57907143D02*
X174314287Y-57307143D01*
X174314287Y-57007143D02*
X174271430Y-57050000D01*
X174314287Y-57092857D01*
X174357144Y-57050000D01*
X174314287Y-57007143D01*
X174314287Y-57092857D01*
X175128572Y-57907143D02*
X175128572Y-57007143D01*
X175128572Y-57864286D02*
X175042858Y-57907143D01*
X174871429Y-57907143D01*
X174785715Y-57864286D01*
X174742858Y-57821429D01*
X174700001Y-57735714D01*
X174700001Y-57478571D01*
X174742858Y-57392857D01*
X174785715Y-57350000D01*
X174871429Y-57307143D01*
X175042858Y-57307143D01*
X175128572Y-57350000D01*
X176242858Y-57564286D02*
X176928572Y-57564286D01*
X176585715Y-57907143D02*
X176585715Y-57221429D01*
X177957143Y-57307143D02*
X178171429Y-57907143D01*
X178385715Y-57307143D01*
X178857143Y-57907143D02*
X178771429Y-57864286D01*
X178728572Y-57821429D01*
X178685715Y-57735714D01*
X178685715Y-57478571D01*
X178728572Y-57392857D01*
X178771429Y-57350000D01*
X178857143Y-57307143D01*
X178985715Y-57307143D01*
X179071429Y-57350000D01*
X179114286Y-57392857D01*
X179157143Y-57478571D01*
X179157143Y-57735714D01*
X179114286Y-57821429D01*
X179071429Y-57864286D01*
X178985715Y-57907143D01*
X178857143Y-57907143D01*
X179671429Y-57907143D02*
X179585715Y-57864286D01*
X179542858Y-57821429D01*
X179500001Y-57735714D01*
X179500001Y-57478571D01*
X179542858Y-57392857D01*
X179585715Y-57350000D01*
X179671429Y-57307143D01*
X179800001Y-57307143D01*
X179885715Y-57350000D01*
X179928572Y-57392857D01*
X179971429Y-57478571D01*
X179971429Y-57735714D01*
X179928572Y-57821429D01*
X179885715Y-57864286D01*
X179800001Y-57907143D01*
X179671429Y-57907143D01*
X180357144Y-57907143D02*
X180357144Y-57307143D01*
X180357144Y-57478571D02*
X180400001Y-57392857D01*
X180442858Y-57350000D01*
X180528572Y-57307143D01*
X180614287Y-57307143D01*
X180871430Y-57864286D02*
X180957144Y-57907143D01*
X181128572Y-57907143D01*
X181214287Y-57864286D01*
X181257144Y-57778571D01*
X181257144Y-57735714D01*
X181214287Y-57650000D01*
X181128572Y-57607143D01*
X181000001Y-57607143D01*
X180914287Y-57564286D01*
X180871430Y-57478571D01*
X180871430Y-57435714D01*
X180914287Y-57350000D01*
X181000001Y-57307143D01*
X181128572Y-57307143D01*
X181214287Y-57350000D01*
X181642858Y-57307143D02*
X181642858Y-58207143D01*
X181642858Y-57350000D02*
X181728572Y-57307143D01*
X181900001Y-57307143D01*
X181985715Y-57350000D01*
X182028572Y-57392857D01*
X182071429Y-57478571D01*
X182071429Y-57735714D01*
X182028572Y-57821429D01*
X181985715Y-57864286D01*
X181900001Y-57907143D01*
X181728572Y-57907143D01*
X181642858Y-57864286D01*
X182585715Y-57907143D02*
X182500001Y-57864286D01*
X182457144Y-57821429D01*
X182414287Y-57735714D01*
X182414287Y-57478571D01*
X182457144Y-57392857D01*
X182500001Y-57350000D01*
X182585715Y-57307143D01*
X182714287Y-57307143D01*
X182800001Y-57350000D01*
X182842858Y-57392857D01*
X182885715Y-57478571D01*
X182885715Y-57735714D01*
X182842858Y-57821429D01*
X182800001Y-57864286D01*
X182714287Y-57907143D01*
X182585715Y-57907143D01*
X183614287Y-57864286D02*
X183528573Y-57907143D01*
X183357144Y-57907143D01*
X183271430Y-57864286D01*
X183228573Y-57778571D01*
X183228573Y-57435714D01*
X183271430Y-57350000D01*
X183357144Y-57307143D01*
X183528573Y-57307143D01*
X183614287Y-57350000D01*
X183657144Y-57435714D01*
X183657144Y-57521429D01*
X183228573Y-57607143D01*
X184428573Y-57907143D02*
X184428573Y-57007143D01*
X184428573Y-57864286D02*
X184342859Y-57907143D01*
X184171430Y-57907143D01*
X184085716Y-57864286D01*
X184042859Y-57821429D01*
X184000002Y-57735714D01*
X184000002Y-57478571D01*
X184042859Y-57392857D01*
X184085716Y-57350000D01*
X184171430Y-57307143D01*
X184342859Y-57307143D01*
X184428573Y-57350000D01*
X185542859Y-57435714D02*
X186228573Y-57435714D01*
X186228573Y-57692857D02*
X185542859Y-57692857D01*
X187214287Y-57007143D02*
X187514287Y-57907143D01*
X187814287Y-57007143D01*
X188242859Y-57907143D02*
X188157145Y-57864286D01*
X188114288Y-57821429D01*
X188071431Y-57735714D01*
X188071431Y-57478571D01*
X188114288Y-57392857D01*
X188157145Y-57350000D01*
X188242859Y-57307143D01*
X188371431Y-57307143D01*
X188457145Y-57350000D01*
X188500002Y-57392857D01*
X188542859Y-57478571D01*
X188542859Y-57735714D01*
X188500002Y-57821429D01*
X188457145Y-57864286D01*
X188371431Y-57907143D01*
X188242859Y-57907143D01*
X189057145Y-57907143D02*
X188971431Y-57864286D01*
X188928574Y-57778571D01*
X188928574Y-57007143D01*
X189400003Y-57907143D02*
X189400003Y-57007143D01*
X189485717Y-57564286D02*
X189742860Y-57907143D01*
X189742860Y-57307143D02*
X189400003Y-57650000D01*
X190085717Y-57864286D02*
X190171431Y-57907143D01*
X190342859Y-57907143D01*
X190428574Y-57864286D01*
X190471431Y-57778571D01*
X190471431Y-57735714D01*
X190428574Y-57650000D01*
X190342859Y-57607143D01*
X190214288Y-57607143D01*
X190128574Y-57564286D01*
X190085717Y-57478571D01*
X190085717Y-57435714D01*
X190128574Y-57350000D01*
X190214288Y-57307143D01*
X190342859Y-57307143D01*
X190428574Y-57350000D01*
X190857145Y-57907143D02*
X190857145Y-57307143D01*
X190857145Y-57478571D02*
X190900002Y-57392857D01*
X190942859Y-57350000D01*
X191028573Y-57307143D01*
X191114288Y-57307143D01*
X191757145Y-57864286D02*
X191671431Y-57907143D01*
X191500002Y-57907143D01*
X191414288Y-57864286D01*
X191371431Y-57778571D01*
X191371431Y-57435714D01*
X191414288Y-57350000D01*
X191500002Y-57307143D01*
X191671431Y-57307143D01*
X191757145Y-57350000D01*
X191800002Y-57435714D01*
X191800002Y-57521429D01*
X191371431Y-57607143D01*
X192185717Y-57307143D02*
X192185717Y-58207143D01*
X192185717Y-57350000D02*
X192271431Y-57307143D01*
X192442860Y-57307143D01*
X192528574Y-57350000D01*
X192571431Y-57392857D01*
X192614288Y-57478571D01*
X192614288Y-57735714D01*
X192571431Y-57821429D01*
X192528574Y-57864286D01*
X192442860Y-57907143D01*
X192271431Y-57907143D01*
X192185717Y-57864286D01*
X193385717Y-57307143D02*
X193385717Y-57907143D01*
X193000003Y-57307143D02*
X193000003Y-57778571D01*
X193042860Y-57864286D01*
X193128574Y-57907143D01*
X193257146Y-57907143D01*
X193342860Y-57864286D01*
X193385717Y-57821429D01*
X193814289Y-57907143D02*
X193814289Y-57007143D01*
X193814289Y-57350000D02*
X193900003Y-57307143D01*
X194071432Y-57307143D01*
X194157146Y-57350000D01*
X194200003Y-57392857D01*
X194242860Y-57478571D01*
X194242860Y-57735714D01*
X194200003Y-57821429D01*
X194157146Y-57864286D01*
X194071432Y-57907143D01*
X193900003Y-57907143D01*
X193814289Y-57864286D01*
X194757146Y-57907143D02*
X194671432Y-57864286D01*
X194628575Y-57778571D01*
X194628575Y-57007143D01*
X195100004Y-57907143D02*
X195100004Y-57307143D01*
X195100004Y-57007143D02*
X195057147Y-57050000D01*
X195100004Y-57092857D01*
X195142861Y-57050000D01*
X195100004Y-57007143D01*
X195100004Y-57092857D01*
X195871432Y-57864286D02*
X195785718Y-57907143D01*
X195614289Y-57907143D01*
X195528575Y-57864286D01*
X195485718Y-57778571D01*
X195485718Y-57435714D01*
X195528575Y-57350000D01*
X195614289Y-57307143D01*
X195785718Y-57307143D01*
X195871432Y-57350000D01*
X195914289Y-57435714D01*
X195914289Y-57521429D01*
X195485718Y-57607143D01*
X196300004Y-57907143D02*
X196300004Y-57007143D01*
X196385718Y-57564286D02*
X196642861Y-57907143D01*
X196642861Y-57307143D02*
X196300004Y-57650000D01*
D15*
X62683333Y-74511904D02*
X62683333Y-73988095D01*
X62997619Y-74616666D02*
X61897619Y-74249999D01*
X62997619Y-73883333D01*
X61897619Y-73621428D02*
X61897619Y-72888095D01*
X62997619Y-73359523D01*
X62578571Y-72469047D02*
X62578571Y-71630952D01*
X62997619Y-71107142D02*
X61897619Y-71107142D01*
X61897619Y-70688095D01*
X61950000Y-70583333D01*
X62002381Y-70530952D01*
X62107143Y-70478571D01*
X62264286Y-70478571D01*
X62369048Y-70530952D01*
X62421429Y-70583333D01*
X62473810Y-70688095D01*
X62473810Y-71107142D01*
X61897619Y-69797618D02*
X61897619Y-69588095D01*
X61950000Y-69483333D01*
X62054762Y-69378571D01*
X62264286Y-69326190D01*
X62630952Y-69326190D01*
X62840476Y-69378571D01*
X62945238Y-69483333D01*
X62997619Y-69588095D01*
X62997619Y-69797618D01*
X62945238Y-69902380D01*
X62840476Y-70007142D01*
X62630952Y-70059523D01*
X62264286Y-70059523D01*
X62054762Y-70007142D01*
X61950000Y-69902380D01*
X61897619Y-69797618D01*
X61897619Y-69011904D02*
X61897619Y-68383333D01*
X62997619Y-68697618D02*
X61897619Y-68697618D01*
X87997619Y-96335714D02*
X86897619Y-96335714D01*
X86897619Y-96073809D01*
X86950000Y-95916667D01*
X87054762Y-95811905D01*
X87159524Y-95759524D01*
X87369048Y-95707143D01*
X87526190Y-95707143D01*
X87735714Y-95759524D01*
X87840476Y-95811905D01*
X87945238Y-95916667D01*
X87997619Y-96073809D01*
X87997619Y-96335714D01*
X87997619Y-94659524D02*
X87997619Y-95288095D01*
X87997619Y-94973809D02*
X86897619Y-94973809D01*
X87054762Y-95078571D01*
X87159524Y-95183333D01*
X87211905Y-95288095D01*
X87002381Y-94240476D02*
X86950000Y-94188095D01*
X86897619Y-94083333D01*
X86897619Y-93821429D01*
X86950000Y-93716667D01*
X87002381Y-93664286D01*
X87107143Y-93611905D01*
X87211905Y-93611905D01*
X87369048Y-93664286D01*
X87997619Y-94292857D01*
X87997619Y-93611905D01*
X54997619Y-95183333D02*
X54473810Y-95549999D01*
X54997619Y-95811904D02*
X53897619Y-95811904D01*
X53897619Y-95392857D01*
X53950000Y-95288095D01*
X54002381Y-95235714D01*
X54107143Y-95183333D01*
X54264286Y-95183333D01*
X54369048Y-95235714D01*
X54421429Y-95288095D01*
X54473810Y-95392857D01*
X54473810Y-95811904D01*
X53897619Y-94816666D02*
X54997619Y-94083333D01*
X53897619Y-94083333D02*
X54997619Y-94816666D01*
X51897619Y-95838095D02*
X51897619Y-95209524D01*
X52997619Y-95523809D02*
X51897619Y-95523809D01*
X51897619Y-94947619D02*
X52997619Y-94214286D01*
X51897619Y-94214286D02*
X52997619Y-94947619D01*
X28290476Y-44897619D02*
X27766667Y-44897619D01*
X27714286Y-45421429D01*
X27766667Y-45369048D01*
X27871429Y-45316667D01*
X28133333Y-45316667D01*
X28238095Y-45369048D01*
X28290476Y-45421429D01*
X28342857Y-45526190D01*
X28342857Y-45788095D01*
X28290476Y-45892857D01*
X28238095Y-45945238D01*
X28133333Y-45997619D01*
X27871429Y-45997619D01*
X27766667Y-45945238D01*
X27714286Y-45892857D01*
X28657143Y-44897619D02*
X29023810Y-45997619D01*
X29390476Y-44897619D01*
X27661905Y-42450000D02*
X27557143Y-42397619D01*
X27400000Y-42397619D01*
X27242858Y-42450000D01*
X27138096Y-42554762D01*
X27085715Y-42659524D01*
X27033334Y-42869048D01*
X27033334Y-43026190D01*
X27085715Y-43235714D01*
X27138096Y-43340476D01*
X27242858Y-43445238D01*
X27400000Y-43497619D01*
X27504762Y-43497619D01*
X27661905Y-43445238D01*
X27714286Y-43392857D01*
X27714286Y-43026190D01*
X27504762Y-43026190D01*
X28185715Y-43497619D02*
X28185715Y-42397619D01*
X28814286Y-43497619D01*
X28814286Y-42397619D01*
X29338096Y-43497619D02*
X29338096Y-42397619D01*
X29600001Y-42397619D01*
X29757143Y-42450000D01*
X29861905Y-42554762D01*
X29914286Y-42659524D01*
X29966667Y-42869048D01*
X29966667Y-43026190D01*
X29914286Y-43235714D01*
X29861905Y-43340476D01*
X29757143Y-43445238D01*
X29600001Y-43497619D01*
X29338096Y-43497619D01*
X27164286Y-40945238D02*
X27321429Y-40997619D01*
X27583333Y-40997619D01*
X27688095Y-40945238D01*
X27740476Y-40892857D01*
X27792857Y-40788095D01*
X27792857Y-40683333D01*
X27740476Y-40578571D01*
X27688095Y-40526190D01*
X27583333Y-40473810D01*
X27373810Y-40421429D01*
X27269048Y-40369048D01*
X27216667Y-40316667D01*
X27164286Y-40211905D01*
X27164286Y-40107143D01*
X27216667Y-40002381D01*
X27269048Y-39950000D01*
X27373810Y-39897619D01*
X27635714Y-39897619D01*
X27792857Y-39950000D01*
X28264286Y-40997619D02*
X28264286Y-39897619D01*
X28526191Y-39897619D01*
X28683333Y-39950000D01*
X28788095Y-40054762D01*
X28840476Y-40159524D01*
X28892857Y-40369048D01*
X28892857Y-40526190D01*
X28840476Y-40735714D01*
X28788095Y-40840476D01*
X28683333Y-40945238D01*
X28526191Y-40997619D01*
X28264286Y-40997619D01*
X29311905Y-40683333D02*
X29835714Y-40683333D01*
X29207143Y-40997619D02*
X29573810Y-39897619D01*
X29940476Y-40997619D01*
X27190477Y-38445238D02*
X27347620Y-38497619D01*
X27609524Y-38497619D01*
X27714286Y-38445238D01*
X27766667Y-38392857D01*
X27819048Y-38288095D01*
X27819048Y-38183333D01*
X27766667Y-38078571D01*
X27714286Y-38026190D01*
X27609524Y-37973810D01*
X27400001Y-37921429D01*
X27295239Y-37869048D01*
X27242858Y-37816667D01*
X27190477Y-37711905D01*
X27190477Y-37607143D01*
X27242858Y-37502381D01*
X27295239Y-37450000D01*
X27400001Y-37397619D01*
X27661905Y-37397619D01*
X27819048Y-37450000D01*
X28919048Y-38392857D02*
X28866667Y-38445238D01*
X28709524Y-38497619D01*
X28604762Y-38497619D01*
X28447620Y-38445238D01*
X28342858Y-38340476D01*
X28290477Y-38235714D01*
X28238096Y-38026190D01*
X28238096Y-37869048D01*
X28290477Y-37659524D01*
X28342858Y-37554762D01*
X28447620Y-37450000D01*
X28604762Y-37397619D01*
X28709524Y-37397619D01*
X28866667Y-37450000D01*
X28919048Y-37502381D01*
X29914286Y-38497619D02*
X29390477Y-38497619D01*
X29390477Y-37397619D01*
X26638096Y-70897619D02*
X27319048Y-70897619D01*
X26952382Y-71316667D01*
X27109524Y-71316667D01*
X27214286Y-71369048D01*
X27266667Y-71421429D01*
X27319048Y-71526190D01*
X27319048Y-71788095D01*
X27266667Y-71892857D01*
X27214286Y-71945238D01*
X27109524Y-71997619D01*
X26795239Y-71997619D01*
X26690477Y-71945238D01*
X26638096Y-71892857D01*
X27633334Y-70897619D02*
X28000001Y-71997619D01*
X28366667Y-70897619D01*
X28628572Y-70897619D02*
X29309524Y-70897619D01*
X28942858Y-71316667D01*
X29100000Y-71316667D01*
X29204762Y-71369048D01*
X29257143Y-71421429D01*
X29309524Y-71526190D01*
X29309524Y-71788095D01*
X29257143Y-71892857D01*
X29204762Y-71945238D01*
X29100000Y-71997619D01*
X28785715Y-71997619D01*
X28680953Y-71945238D01*
X28628572Y-71892857D01*
X27214286Y-68183333D02*
X27738095Y-68183333D01*
X27109524Y-68497619D02*
X27476191Y-67397619D01*
X27842857Y-68497619D01*
X28157143Y-67502381D02*
X28209524Y-67450000D01*
X28314286Y-67397619D01*
X28576190Y-67397619D01*
X28680952Y-67450000D01*
X28733333Y-67502381D01*
X28785714Y-67607143D01*
X28785714Y-67711905D01*
X28733333Y-67869048D01*
X28104762Y-68497619D01*
X28785714Y-68497619D01*
X27214286Y-64683333D02*
X27738095Y-64683333D01*
X27109524Y-64997619D02*
X27476191Y-63897619D01*
X27842857Y-64997619D01*
X28104762Y-63897619D02*
X28785714Y-63897619D01*
X28419048Y-64316667D01*
X28576190Y-64316667D01*
X28680952Y-64369048D01*
X28733333Y-64421429D01*
X28785714Y-64526190D01*
X28785714Y-64788095D01*
X28733333Y-64892857D01*
X28680952Y-64945238D01*
X28576190Y-64997619D01*
X28261905Y-64997619D01*
X28157143Y-64945238D01*
X28104762Y-64892857D01*
X27161905Y-60450000D02*
X27057143Y-60397619D01*
X26900000Y-60397619D01*
X26742858Y-60450000D01*
X26638096Y-60554762D01*
X26585715Y-60659524D01*
X26533334Y-60869048D01*
X26533334Y-61026190D01*
X26585715Y-61235714D01*
X26638096Y-61340476D01*
X26742858Y-61445238D01*
X26900000Y-61497619D01*
X27004762Y-61497619D01*
X27161905Y-61445238D01*
X27214286Y-61392857D01*
X27214286Y-61026190D01*
X27004762Y-61026190D01*
X27685715Y-61497619D02*
X27685715Y-60397619D01*
X28314286Y-61497619D01*
X28314286Y-60397619D01*
X28838096Y-61497619D02*
X28838096Y-60397619D01*
X29100001Y-60397619D01*
X29257143Y-60450000D01*
X29361905Y-60554762D01*
X29414286Y-60659524D01*
X29466667Y-60869048D01*
X29466667Y-61026190D01*
X29414286Y-61235714D01*
X29361905Y-61340476D01*
X29257143Y-61445238D01*
X29100001Y-61497619D01*
X28838096Y-61497619D01*
X27790476Y-56897619D02*
X27266667Y-56897619D01*
X27214286Y-57421429D01*
X27266667Y-57369048D01*
X27371429Y-57316667D01*
X27633333Y-57316667D01*
X27738095Y-57369048D01*
X27790476Y-57421429D01*
X27842857Y-57526190D01*
X27842857Y-57788095D01*
X27790476Y-57892857D01*
X27738095Y-57945238D01*
X27633333Y-57997619D01*
X27371429Y-57997619D01*
X27266667Y-57945238D01*
X27214286Y-57892857D01*
X28157143Y-56897619D02*
X28523810Y-57997619D01*
X28890476Y-56897619D01*
D16*
X96404000Y-79698000D02*
X108596000Y-79698000D01*
X108596000Y-86302000D02*
X96404000Y-86302000D01*
X107580000Y-84270000D02*
X108596000Y-84270000D01*
X107580000Y-81730000D02*
X108596000Y-81730000D01*
X96404000Y-86302000D02*
X96404000Y-79698000D01*
X108596000Y-79698000D02*
X108596000Y-86302000D01*
X107580000Y-84270000D02*
X107580000Y-81730000D01*
X53490000Y-82730000D02*
X48410000Y-82730000D01*
X53490000Y-85270000D02*
X48410000Y-85270000D01*
X50950000Y-80190000D02*
X50950000Y-87810000D01*
X48410000Y-80190000D02*
X53490000Y-80190000D01*
X53490000Y-80190000D02*
X53490000Y-87810000D01*
X53490000Y-87810000D02*
X48410000Y-87810000D01*
X91590000Y-75110000D02*
X48410000Y-75110000D01*
X48410000Y-92890000D02*
X91590000Y-92890000D01*
X48410000Y-92890000D02*
X48410000Y-75110000D01*
X91590000Y-92890000D02*
X91590000Y-75110000D01*
X50950000Y-76380000D02*
G75*
G03X50950000Y-76380000I-1270000J0D01*
G01*
X50950000Y-91620000D02*
G75*
G03X50950000Y-91620000I-1270000J0D01*
G01*
X91590000Y-76380000D02*
G75*
G03X91590000Y-76380000I-1270000J0D01*
G01*
X91590000Y-91620000D02*
G75*
G03X91590000Y-91620000I-1270000J0D01*
G01*
X89050000Y-77650000D02*
X50950000Y-77650000D01*
X50950000Y-90350000D02*
X89050000Y-90350000D01*
X89050000Y-92890000D02*
X89050000Y-90350000D01*
X89050000Y-77650000D02*
X89050000Y-75110000D01*
X50950000Y-75110000D02*
X50950000Y-77650000D01*
X50950000Y-92890000D02*
X50950000Y-90350000D01*
D12*
X176050000Y-44285000D02*
X176050000Y-42380000D01*
X176050000Y-47460000D02*
X176050000Y-45555000D01*
X169700000Y-44285000D02*
X169700000Y-45555000D01*
X157000000Y-55080000D02*
X163350000Y-55080000D01*
X163350000Y-55080000D02*
X163350000Y-52540000D01*
X163350000Y-52540000D02*
X160810000Y-52540000D01*
X157000000Y-55080000D02*
X157000000Y-53810000D01*
X169700000Y-45555000D02*
X176050000Y-45555000D01*
X176050000Y-44285000D02*
X169700000Y-44285000D01*
X165890000Y-41745000D02*
X175415000Y-41745000D01*
X175415000Y-41745000D02*
X176050000Y-42380000D01*
X176050000Y-47460000D02*
X175415000Y-48095000D01*
X175415000Y-48095000D02*
X165890000Y-48095000D01*
X160810000Y-41110000D02*
X165890000Y-41110000D01*
X165890000Y-41110000D02*
X165890000Y-48730000D01*
X165890000Y-48730000D02*
X160810000Y-48730000D01*
X160810000Y-36030000D02*
X160810000Y-53810000D01*
X160810000Y-53810000D02*
X149380000Y-53810000D01*
X149380000Y-53810000D02*
X149380000Y-36030000D01*
X149380000Y-36030000D02*
X160810000Y-36030000D01*
X211050000Y-44285000D02*
X211050000Y-42380000D01*
X211050000Y-47460000D02*
X211050000Y-45555000D01*
X204700000Y-44285000D02*
X204700000Y-45555000D01*
X192000000Y-55080000D02*
X198350000Y-55080000D01*
X198350000Y-55080000D02*
X198350000Y-52540000D01*
X198350000Y-52540000D02*
X195810000Y-52540000D01*
X192000000Y-55080000D02*
X192000000Y-53810000D01*
X204700000Y-45555000D02*
X211050000Y-45555000D01*
X211050000Y-44285000D02*
X204700000Y-44285000D01*
X200890000Y-41745000D02*
X210415000Y-41745000D01*
X210415000Y-41745000D02*
X211050000Y-42380000D01*
X211050000Y-47460000D02*
X210415000Y-48095000D01*
X210415000Y-48095000D02*
X200890000Y-48095000D01*
X195810000Y-41110000D02*
X200890000Y-41110000D01*
X200890000Y-41110000D02*
X200890000Y-48730000D01*
X200890000Y-48730000D02*
X195810000Y-48730000D01*
X195810000Y-36030000D02*
X195810000Y-53810000D01*
X195810000Y-53810000D02*
X184380000Y-53810000D01*
X184380000Y-53810000D02*
X184380000Y-36030000D01*
X184380000Y-36030000D02*
X195810000Y-36030000D01*
D17*
X52600960Y-65500380D02*
X53098800Y-65500380D01*
X52600960Y-64499620D02*
X53098800Y-64499620D01*
X52618172Y-65000000D02*
G75*
G03X52618172Y-65000000I-2618172J0D01*
G01*
X52560320Y-64479300D02*
G75*
G03X49479300Y-62439680I-2560320J-520700D01*
G01*
X49519940Y-67560320D02*
G75*
G03X52560320Y-65480060I480060J2560320D01*
G01*
X49298960Y-67839720D02*
G75*
G03X52839720Y-65701040I701040J2839720D01*
G01*
X52829560Y-64298960D02*
G75*
G03X49298960Y-62170440I-2829560J-701040D01*
G01*
X47399040Y-65000000D02*
G75*
G03X50000000Y-67600960I2600960J0D01*
G01*
X50000000Y-62399040D02*
G75*
G03X47399040Y-65000000I0J-2600960D01*
G01*
X47099320Y-65000000D02*
G75*
G03X50000000Y-67900680I2900680J0D01*
G01*
X50000000Y-62099320D02*
G75*
G03X47099320Y-65000000I0J-2900680D01*
G01*
X49489460Y-68159760D02*
G75*
G03X53159760Y-65510540I510540J3159760D01*
G01*
X53159760Y-64489460D02*
G75*
G03X49489460Y-61840240I-3159760J-510540D01*
G01*
X46799600Y-65000000D02*
G75*
G03X50000000Y-68200400I3200400J0D01*
G01*
X50000000Y-61799600D02*
G75*
G03X46799600Y-65000000I0J-3200400D01*
G01*
X43599200Y-61502420D02*
X56400800Y-61502420D01*
X56400800Y-61499880D02*
X56400800Y-68500120D01*
X56400800Y-68500120D02*
X43599200Y-68500120D01*
X43599200Y-68500120D02*
X43599200Y-61499880D01*
X52100960Y-46500380D02*
X52598800Y-46500380D01*
X52100960Y-45499620D02*
X52598800Y-45499620D01*
X52118172Y-46000000D02*
G75*
G03X52118172Y-46000000I-2618172J0D01*
G01*
X52060320Y-45479300D02*
G75*
G03X48979300Y-43439680I-2560320J-520700D01*
G01*
X49019940Y-48560320D02*
G75*
G03X52060320Y-46480060I480060J2560320D01*
G01*
X48798960Y-48839720D02*
G75*
G03X52339720Y-46701040I701040J2839720D01*
G01*
X52329560Y-45298960D02*
G75*
G03X48798960Y-43170440I-2829560J-701040D01*
G01*
X46899040Y-46000000D02*
G75*
G03X49500000Y-48600960I2600960J0D01*
G01*
X49500000Y-43399040D02*
G75*
G03X46899040Y-46000000I0J-2600960D01*
G01*
X46599320Y-46000000D02*
G75*
G03X49500000Y-48900680I2900680J0D01*
G01*
X49500000Y-43099320D02*
G75*
G03X46599320Y-46000000I0J-2900680D01*
G01*
X48989460Y-49159760D02*
G75*
G03X52659760Y-46510540I510540J3159760D01*
G01*
X52659760Y-45489460D02*
G75*
G03X48989460Y-42840240I-3159760J-510540D01*
G01*
X46299600Y-46000000D02*
G75*
G03X49500000Y-49200400I3200400J0D01*
G01*
X49500000Y-42799600D02*
G75*
G03X46299600Y-46000000I0J-3200400D01*
G01*
X43099200Y-42502420D02*
X55900800Y-42502420D01*
X55900800Y-42499880D02*
X55900800Y-49500120D01*
X55900800Y-49500120D02*
X43099200Y-49500120D01*
X43099200Y-49500120D02*
X43099200Y-42499880D01*
X52100960Y-29000380D02*
X52598800Y-29000380D01*
X52100960Y-27999620D02*
X52598800Y-27999620D01*
X52118172Y-28500000D02*
G75*
G03X52118172Y-28500000I-2618172J0D01*
G01*
X52060320Y-27979300D02*
G75*
G03X48979300Y-25939680I-2560320J-520700D01*
G01*
X49019940Y-31060320D02*
G75*
G03X52060320Y-28980060I480060J2560320D01*
G01*
X48798960Y-31339720D02*
G75*
G03X52339720Y-29201040I701040J2839720D01*
G01*
X52329560Y-27798960D02*
G75*
G03X48798960Y-25670440I-2829560J-701040D01*
G01*
X46899040Y-28500000D02*
G75*
G03X49500000Y-31100960I2600960J0D01*
G01*
X49500000Y-25899040D02*
G75*
G03X46899040Y-28500000I0J-2600960D01*
G01*
X46599320Y-28500000D02*
G75*
G03X49500000Y-31400680I2900680J0D01*
G01*
X49500000Y-25599320D02*
G75*
G03X46599320Y-28500000I0J-2900680D01*
G01*
X48989460Y-31659760D02*
G75*
G03X52659760Y-29010540I510540J3159760D01*
G01*
X52659760Y-27989460D02*
G75*
G03X48989460Y-25340240I-3159760J-510540D01*
G01*
X46299600Y-28500000D02*
G75*
G03X49500000Y-31700400I3200400J0D01*
G01*
X49500000Y-25299600D02*
G75*
G03X46299600Y-28500000I0J-3200400D01*
G01*
X43099200Y-25002420D02*
X55900800Y-25002420D01*
X55900800Y-24999880D02*
X55900800Y-32000120D01*
X55900800Y-32000120D02*
X43099200Y-32000120D01*
X43099200Y-32000120D02*
X43099200Y-24999880D01*
X80100960Y-29000380D02*
X80598800Y-29000380D01*
X80100960Y-27999620D02*
X80598800Y-27999620D01*
X80118172Y-28500000D02*
G75*
G03X80118172Y-28500000I-2618172J0D01*
G01*
X80060320Y-27979300D02*
G75*
G03X76979300Y-25939680I-2560320J-520700D01*
G01*
X77019940Y-31060320D02*
G75*
G03X80060320Y-28980060I480060J2560320D01*
G01*
X76798960Y-31339720D02*
G75*
G03X80339720Y-29201040I701040J2839720D01*
G01*
X80329560Y-27798960D02*
G75*
G03X76798960Y-25670440I-2829560J-701040D01*
G01*
X74899040Y-28500000D02*
G75*
G03X77500000Y-31100960I2600960J0D01*
G01*
X77500000Y-25899040D02*
G75*
G03X74899040Y-28500000I0J-2600960D01*
G01*
X74599320Y-28500000D02*
G75*
G03X77500000Y-31400680I2900680J0D01*
G01*
X77500000Y-25599320D02*
G75*
G03X74599320Y-28500000I0J-2900680D01*
G01*
X76989460Y-31659760D02*
G75*
G03X80659760Y-29010540I510540J3159760D01*
G01*
X80659760Y-27989460D02*
G75*
G03X76989460Y-25340240I-3159760J-510540D01*
G01*
X74299600Y-28500000D02*
G75*
G03X77500000Y-31700400I3200400J0D01*
G01*
X77500000Y-25299600D02*
G75*
G03X74299600Y-28500000I0J-3200400D01*
G01*
X71099200Y-25002420D02*
X83900800Y-25002420D01*
X83900800Y-24999880D02*
X83900800Y-32000120D01*
X83900800Y-32000120D02*
X71099200Y-32000120D01*
X71099200Y-32000120D02*
X71099200Y-24999880D01*
X80100960Y-47000380D02*
X80598800Y-47000380D01*
X80100960Y-45999620D02*
X80598800Y-45999620D01*
X80118172Y-46500000D02*
G75*
G03X80118172Y-46500000I-2618172J0D01*
G01*
X80060320Y-45979300D02*
G75*
G03X76979300Y-43939680I-2560320J-520700D01*
G01*
X77019940Y-49060320D02*
G75*
G03X80060320Y-46980060I480060J2560320D01*
G01*
X76798960Y-49339720D02*
G75*
G03X80339720Y-47201040I701040J2839720D01*
G01*
X80329560Y-45798960D02*
G75*
G03X76798960Y-43670440I-2829560J-701040D01*
G01*
X74899040Y-46500000D02*
G75*
G03X77500000Y-49100960I2600960J0D01*
G01*
X77500000Y-43899040D02*
G75*
G03X74899040Y-46500000I0J-2600960D01*
G01*
X74599320Y-46500000D02*
G75*
G03X77500000Y-49400680I2900680J0D01*
G01*
X77500000Y-43599320D02*
G75*
G03X74599320Y-46500000I0J-2900680D01*
G01*
X76989460Y-49659760D02*
G75*
G03X80659760Y-47010540I510540J3159760D01*
G01*
X80659760Y-45989460D02*
G75*
G03X76989460Y-43340240I-3159760J-510540D01*
G01*
X74299600Y-46500000D02*
G75*
G03X77500000Y-49700400I3200400J0D01*
G01*
X77500000Y-43299600D02*
G75*
G03X74299600Y-46500000I0J-3200400D01*
G01*
X71099200Y-43002420D02*
X83900800Y-43002420D01*
X83900800Y-42999880D02*
X83900800Y-50000120D01*
X83900800Y-50000120D02*
X71099200Y-50000120D01*
X71099200Y-50000120D02*
X71099200Y-42999880D01*
X80600960Y-65500380D02*
X81098800Y-65500380D01*
X80600960Y-64499620D02*
X81098800Y-64499620D01*
X80618172Y-65000000D02*
G75*
G03X80618172Y-65000000I-2618172J0D01*
G01*
X80560320Y-64479300D02*
G75*
G03X77479300Y-62439680I-2560320J-520700D01*
G01*
X77519940Y-67560320D02*
G75*
G03X80560320Y-65480060I480060J2560320D01*
G01*
X77298960Y-67839720D02*
G75*
G03X80839720Y-65701040I701040J2839720D01*
G01*
X80829560Y-64298960D02*
G75*
G03X77298960Y-62170440I-2829560J-701040D01*
G01*
X75399040Y-65000000D02*
G75*
G03X78000000Y-67600960I2600960J0D01*
G01*
X78000000Y-62399040D02*
G75*
G03X75399040Y-65000000I0J-2600960D01*
G01*
X75099320Y-65000000D02*
G75*
G03X78000000Y-67900680I2900680J0D01*
G01*
X78000000Y-62099320D02*
G75*
G03X75099320Y-65000000I0J-2900680D01*
G01*
X77489460Y-68159760D02*
G75*
G03X81159760Y-65510540I510540J3159760D01*
G01*
X81159760Y-64489460D02*
G75*
G03X77489460Y-61840240I-3159760J-510540D01*
G01*
X74799600Y-65000000D02*
G75*
G03X78000000Y-68200400I3200400J0D01*
G01*
X78000000Y-61799600D02*
G75*
G03X74799600Y-65000000I0J-3200400D01*
G01*
X71599200Y-61502420D02*
X84400800Y-61502420D01*
X84400800Y-61499880D02*
X84400800Y-68500120D01*
X84400800Y-68500120D02*
X71599200Y-68500120D01*
X71599200Y-68500120D02*
X71599200Y-61499880D01*
X104600960Y-29000380D02*
X105098800Y-29000380D01*
X104600960Y-27999620D02*
X105098800Y-27999620D01*
X104618172Y-28500000D02*
G75*
G03X104618172Y-28500000I-2618172J0D01*
G01*
X104560320Y-27979300D02*
G75*
G03X101479300Y-25939680I-2560320J-520700D01*
G01*
X101519940Y-31060320D02*
G75*
G03X104560320Y-28980060I480060J2560320D01*
G01*
X101298960Y-31339720D02*
G75*
G03X104839720Y-29201040I701040J2839720D01*
G01*
X104829560Y-27798960D02*
G75*
G03X101298960Y-25670440I-2829560J-701040D01*
G01*
X99399040Y-28500000D02*
G75*
G03X102000000Y-31100960I2600960J0D01*
G01*
X102000000Y-25899040D02*
G75*
G03X99399040Y-28500000I0J-2600960D01*
G01*
X99099320Y-28500000D02*
G75*
G03X102000000Y-31400680I2900680J0D01*
G01*
X102000000Y-25599320D02*
G75*
G03X99099320Y-28500000I0J-2900680D01*
G01*
X101489460Y-31659760D02*
G75*
G03X105159760Y-29010540I510540J3159760D01*
G01*
X105159760Y-27989460D02*
G75*
G03X101489460Y-25340240I-3159760J-510540D01*
G01*
X98799600Y-28500000D02*
G75*
G03X102000000Y-31700400I3200400J0D01*
G01*
X102000000Y-25299600D02*
G75*
G03X98799600Y-28500000I0J-3200400D01*
G01*
X95599200Y-25002420D02*
X108400800Y-25002420D01*
X108400800Y-24999880D02*
X108400800Y-32000120D01*
X108400800Y-32000120D02*
X95599200Y-32000120D01*
X95599200Y-32000120D02*
X95599200Y-24999880D01*
X105100960Y-65500380D02*
X105598800Y-65500380D01*
X105100960Y-64499620D02*
X105598800Y-64499620D01*
X105118172Y-65000000D02*
G75*
G03X105118172Y-65000000I-2618172J0D01*
G01*
X105060320Y-64479300D02*
G75*
G03X101979300Y-62439680I-2560320J-520700D01*
G01*
X102019940Y-67560320D02*
G75*
G03X105060320Y-65480060I480060J2560320D01*
G01*
X101798960Y-67839720D02*
G75*
G03X105339720Y-65701040I701040J2839720D01*
G01*
X105329560Y-64298960D02*
G75*
G03X101798960Y-62170440I-2829560J-701040D01*
G01*
X99899040Y-65000000D02*
G75*
G03X102500000Y-67600960I2600960J0D01*
G01*
X102500000Y-62399040D02*
G75*
G03X99899040Y-65000000I0J-2600960D01*
G01*
X99599320Y-65000000D02*
G75*
G03X102500000Y-67900680I2900680J0D01*
G01*
X102500000Y-62099320D02*
G75*
G03X99599320Y-65000000I0J-2900680D01*
G01*
X101989460Y-68159760D02*
G75*
G03X105659760Y-65510540I510540J3159760D01*
G01*
X105659760Y-64489460D02*
G75*
G03X101989460Y-61840240I-3159760J-510540D01*
G01*
X99299600Y-65000000D02*
G75*
G03X102500000Y-68200400I3200400J0D01*
G01*
X102500000Y-61799600D02*
G75*
G03X99299600Y-65000000I0J-3200400D01*
G01*
X96099200Y-61502420D02*
X108900800Y-61502420D01*
X108900800Y-61499880D02*
X108900800Y-68500120D01*
X108900800Y-68500120D02*
X96099200Y-68500120D01*
X96099200Y-68500120D02*
X96099200Y-61499880D01*
X129600960Y-29000380D02*
X130098800Y-29000380D01*
X129600960Y-27999620D02*
X130098800Y-27999620D01*
X129618172Y-28500000D02*
G75*
G03X129618172Y-28500000I-2618172J0D01*
G01*
X129560320Y-27979300D02*
G75*
G03X126479300Y-25939680I-2560320J-520700D01*
G01*
X126519940Y-31060320D02*
G75*
G03X129560320Y-28980060I480060J2560320D01*
G01*
X126298960Y-31339720D02*
G75*
G03X129839720Y-29201040I701040J2839720D01*
G01*
X129829560Y-27798960D02*
G75*
G03X126298960Y-25670440I-2829560J-701040D01*
G01*
X124399040Y-28500000D02*
G75*
G03X127000000Y-31100960I2600960J0D01*
G01*
X127000000Y-25899040D02*
G75*
G03X124399040Y-28500000I0J-2600960D01*
G01*
X124099320Y-28500000D02*
G75*
G03X127000000Y-31400680I2900680J0D01*
G01*
X127000000Y-25599320D02*
G75*
G03X124099320Y-28500000I0J-2900680D01*
G01*
X126489460Y-31659760D02*
G75*
G03X130159760Y-29010540I510540J3159760D01*
G01*
X130159760Y-27989460D02*
G75*
G03X126489460Y-25340240I-3159760J-510540D01*
G01*
X123799600Y-28500000D02*
G75*
G03X127000000Y-31700400I3200400J0D01*
G01*
X127000000Y-25299600D02*
G75*
G03X123799600Y-28500000I0J-3200400D01*
G01*
X120599200Y-25002420D02*
X133400800Y-25002420D01*
X133400800Y-24999880D02*
X133400800Y-32000120D01*
X133400800Y-32000120D02*
X120599200Y-32000120D01*
X120599200Y-32000120D02*
X120599200Y-24999880D01*
X129600960Y-46500380D02*
X130098800Y-46500380D01*
X129600960Y-45499620D02*
X130098800Y-45499620D01*
X129618172Y-46000000D02*
G75*
G03X129618172Y-46000000I-2618172J0D01*
G01*
X129560320Y-45479300D02*
G75*
G03X126479300Y-43439680I-2560320J-520700D01*
G01*
X126519940Y-48560320D02*
G75*
G03X129560320Y-46480060I480060J2560320D01*
G01*
X126298960Y-48839720D02*
G75*
G03X129839720Y-46701040I701040J2839720D01*
G01*
X129829560Y-45298960D02*
G75*
G03X126298960Y-43170440I-2829560J-701040D01*
G01*
X124399040Y-46000000D02*
G75*
G03X127000000Y-48600960I2600960J0D01*
G01*
X127000000Y-43399040D02*
G75*
G03X124399040Y-46000000I0J-2600960D01*
G01*
X124099320Y-46000000D02*
G75*
G03X127000000Y-48900680I2900680J0D01*
G01*
X127000000Y-43099320D02*
G75*
G03X124099320Y-46000000I0J-2900680D01*
G01*
X126489460Y-49159760D02*
G75*
G03X130159760Y-46510540I510540J3159760D01*
G01*
X130159760Y-45489460D02*
G75*
G03X126489460Y-42840240I-3159760J-510540D01*
G01*
X123799600Y-46000000D02*
G75*
G03X127000000Y-49200400I3200400J0D01*
G01*
X127000000Y-42799600D02*
G75*
G03X123799600Y-46000000I0J-3200400D01*
G01*
X120599200Y-42502420D02*
X133400800Y-42502420D01*
X133400800Y-42499880D02*
X133400800Y-49500120D01*
X133400800Y-49500120D02*
X120599200Y-49500120D01*
X120599200Y-49500120D02*
X120599200Y-42499880D01*
X130100960Y-65500380D02*
X130598800Y-65500380D01*
X130100960Y-64499620D02*
X130598800Y-64499620D01*
X130118172Y-65000000D02*
G75*
G03X130118172Y-65000000I-2618172J0D01*
G01*
X130060320Y-64479300D02*
G75*
G03X126979300Y-62439680I-2560320J-520700D01*
G01*
X127019940Y-67560320D02*
G75*
G03X130060320Y-65480060I480060J2560320D01*
G01*
X126798960Y-67839720D02*
G75*
G03X130339720Y-65701040I701040J2839720D01*
G01*
X130329560Y-64298960D02*
G75*
G03X126798960Y-62170440I-2829560J-701040D01*
G01*
X124899040Y-65000000D02*
G75*
G03X127500000Y-67600960I2600960J0D01*
G01*
X127500000Y-62399040D02*
G75*
G03X124899040Y-65000000I0J-2600960D01*
G01*
X124599320Y-65000000D02*
G75*
G03X127500000Y-67900680I2900680J0D01*
G01*
X127500000Y-62099320D02*
G75*
G03X124599320Y-65000000I0J-2900680D01*
G01*
X126989460Y-68159760D02*
G75*
G03X130659760Y-65510540I510540J3159760D01*
G01*
X130659760Y-64489460D02*
G75*
G03X126989460Y-61840240I-3159760J-510540D01*
G01*
X124299600Y-65000000D02*
G75*
G03X127500000Y-68200400I3200400J0D01*
G01*
X127500000Y-61799600D02*
G75*
G03X124299600Y-65000000I0J-3200400D01*
G01*
X121099200Y-61502420D02*
X133900800Y-61502420D01*
X133900800Y-61499880D02*
X133900800Y-68500120D01*
X133900800Y-68500120D02*
X121099200Y-68500120D01*
X121099200Y-68500120D02*
X121099200Y-61499880D01*
D12*
X33770000Y-44230000D02*
X33770000Y-36610000D01*
X31230000Y-44230000D02*
X31230000Y-36610000D01*
X30950000Y-47050000D02*
X30950000Y-45500000D01*
X33770000Y-36610000D02*
X31230000Y-36610000D01*
X31230000Y-44230000D02*
X33770000Y-44230000D01*
X34050000Y-45500000D02*
X34050000Y-47050000D01*
X34050000Y-47050000D02*
X30950000Y-47050000D01*
X30400000Y-69800000D02*
X30000000Y-69800000D01*
X30400000Y-66300000D02*
X30000000Y-66300000D01*
X30400000Y-59200000D02*
X30000000Y-59200000D01*
X30400000Y-62700000D02*
X30000000Y-62700000D01*
X31500000Y-55700000D02*
X31500000Y-73300000D01*
X30400000Y-55700000D02*
X30400000Y-73300000D01*
X37600000Y-55700000D02*
X30000000Y-55700000D01*
X30000000Y-73300000D02*
X37600000Y-73300000D01*
X37600000Y-73300000D02*
X37600000Y-55700000D01*
X119880000Y-96874000D02*
X135120000Y-96874000D01*
X135120000Y-96874000D02*
X135120000Y-78840000D01*
X135120000Y-78840000D02*
X119880000Y-78840000D01*
X119880000Y-78840000D02*
X119880000Y-96874000D01*
X106210000Y-53110000D02*
X106310000Y-53040000D01*
X106030000Y-53110000D02*
X106210000Y-53110000D01*
X105930000Y-53040000D02*
X106030000Y-53110000D01*
X105880000Y-52900000D02*
X105930000Y-53040000D01*
X105880000Y-52320000D02*
X105880000Y-52900000D01*
X105940000Y-52170000D02*
X105880000Y-52320000D01*
X106040000Y-52100000D02*
X105940000Y-52170000D01*
X106210000Y-52100000D02*
X106040000Y-52100000D01*
X106310000Y-52190000D02*
X106210000Y-52100000D01*
X106360000Y-52320000D02*
X106310000Y-52190000D01*
X106360000Y-52590000D02*
X106360000Y-52320000D01*
X105880000Y-52590000D02*
X106360000Y-52590000D01*
X105310000Y-52110000D02*
X105310000Y-53110000D01*
X105360000Y-52250000D02*
X105310000Y-52420000D01*
X105400000Y-52190000D02*
X105360000Y-52250000D01*
X105500000Y-52110000D02*
X105400000Y-52190000D01*
X105610000Y-52110000D02*
X105500000Y-52110000D01*
X103260000Y-52100000D02*
X103450000Y-53110000D01*
X103450000Y-53110000D02*
X103640000Y-52390000D01*
X103640000Y-52390000D02*
X103830000Y-53110000D01*
X103830000Y-53110000D02*
X104030000Y-52100000D01*
X102880000Y-53030000D02*
X102790000Y-53110000D01*
X102790000Y-53110000D02*
X102600000Y-53110000D01*
X102600000Y-53110000D02*
X102530000Y-53060000D01*
X102530000Y-53060000D02*
X102460000Y-52980000D01*
X102460000Y-52980000D02*
X102400000Y-52820000D01*
X102400000Y-52820000D02*
X102400000Y-52400000D01*
X102400000Y-52400000D02*
X102450000Y-52250000D01*
X102450000Y-52250000D02*
X102520000Y-52160000D01*
X102520000Y-52160000D02*
X102600000Y-52110000D01*
X102600000Y-52110000D02*
X102780000Y-52110000D01*
X102780000Y-52110000D02*
X102880000Y-52190000D01*
X102880000Y-51610000D02*
X102880000Y-53110000D01*
X102130000Y-52110000D02*
X102020000Y-52110000D01*
X102020000Y-52110000D02*
X101920000Y-52190000D01*
X101920000Y-52190000D02*
X101880000Y-52250000D01*
X101880000Y-52250000D02*
X101830000Y-52420000D01*
X101830000Y-52110000D02*
X101830000Y-53110000D01*
X104840000Y-52320000D02*
X104840000Y-53110000D01*
X104780000Y-52170000D02*
X104840000Y-52320000D01*
X104690000Y-52100000D02*
X104780000Y-52170000D01*
X104510000Y-52100000D02*
X104690000Y-52100000D01*
X104400000Y-52180000D02*
X104510000Y-52100000D01*
X104360000Y-52880000D02*
X104400000Y-53020000D01*
X104360000Y-52750000D02*
X104360000Y-52880000D01*
X104410000Y-52610000D02*
X104360000Y-52750000D01*
X104510000Y-52530000D02*
X104410000Y-52610000D01*
X104750000Y-52530000D02*
X104510000Y-52530000D01*
X104840000Y-52460000D02*
X104750000Y-52530000D01*
X104740000Y-53110000D02*
X104840000Y-53030000D01*
X104510000Y-53110000D02*
X104740000Y-53110000D01*
X104400000Y-53020000D02*
X104510000Y-53110000D01*
X100920000Y-53020000D02*
X101030000Y-53110000D01*
X101030000Y-53110000D02*
X101260000Y-53110000D01*
X101260000Y-53110000D02*
X101360000Y-53030000D01*
X101360000Y-52460000D02*
X101270000Y-52530000D01*
X101270000Y-52530000D02*
X101030000Y-52530000D01*
X101030000Y-52530000D02*
X100930000Y-52610000D01*
X100930000Y-52610000D02*
X100880000Y-52750000D01*
X100880000Y-52750000D02*
X100880000Y-52880000D01*
X100880000Y-52880000D02*
X100920000Y-53020000D01*
X100920000Y-52180000D02*
X101030000Y-52100000D01*
X101030000Y-52100000D02*
X101210000Y-52100000D01*
X101210000Y-52100000D02*
X101300000Y-52170000D01*
X101300000Y-52170000D02*
X101360000Y-52320000D01*
X101360000Y-52320000D02*
X101360000Y-53110000D01*
X100020000Y-53110000D02*
X100020000Y-51610000D01*
X100080000Y-52170000D02*
X100020000Y-52240000D01*
X100160000Y-52110000D02*
X100080000Y-52170000D01*
X100300000Y-52110000D02*
X100160000Y-52110000D01*
X100400000Y-52180000D02*
X100300000Y-52110000D01*
X100450000Y-52330000D02*
X100400000Y-52180000D01*
X100450000Y-53110000D02*
X100450000Y-52330000D01*
X98790000Y-53110000D02*
X98790000Y-52330000D01*
X98790000Y-52330000D02*
X98740000Y-52180000D01*
X98740000Y-52180000D02*
X98640000Y-52110000D01*
X98640000Y-52110000D02*
X98500000Y-52110000D01*
X98500000Y-52110000D02*
X98420000Y-52170000D01*
X98420000Y-52170000D02*
X98360000Y-52240000D01*
X98360000Y-52110000D02*
X98360000Y-53110000D01*
X97450000Y-52590000D02*
X97930000Y-52590000D01*
X97930000Y-52590000D02*
X97930000Y-52320000D01*
X97930000Y-52320000D02*
X97880000Y-52190000D01*
X97880000Y-52190000D02*
X97780000Y-52100000D01*
X97780000Y-52100000D02*
X97610000Y-52100000D01*
X97610000Y-52100000D02*
X97510000Y-52170000D01*
X97510000Y-52170000D02*
X97450000Y-52320000D01*
X97450000Y-52320000D02*
X97450000Y-52900000D01*
X97450000Y-52900000D02*
X97500000Y-53040000D01*
X97500000Y-53040000D02*
X97600000Y-53110000D01*
X97600000Y-53110000D02*
X97780000Y-53110000D01*
X97780000Y-53110000D02*
X97880000Y-53040000D01*
X96590000Y-52100000D02*
X96590000Y-53610000D01*
X96700000Y-52100000D02*
X96880000Y-52100000D01*
X96700000Y-53100000D02*
X96890000Y-53100000D01*
X96700000Y-52100000D02*
X96620000Y-52160000D01*
X96970000Y-52170000D02*
X96880000Y-52100000D01*
X97020000Y-52240000D02*
X96970000Y-52170000D01*
X97070000Y-52400000D02*
X97020000Y-52240000D01*
X97070000Y-52810000D02*
X97070000Y-52400000D01*
X97020000Y-52950000D02*
X97070000Y-52810000D01*
X96980000Y-53020000D02*
X97020000Y-52950000D01*
X96880000Y-53100000D02*
X96980000Y-53020000D01*
X96600000Y-53030000D02*
X96700000Y-53100000D01*
X95640000Y-52400000D02*
X95640000Y-52810000D01*
X95640000Y-52810000D02*
X95690000Y-52950000D01*
X95690000Y-52950000D02*
X95740000Y-53040000D01*
X95740000Y-53040000D02*
X95840000Y-53110000D01*
X95840000Y-53110000D02*
X95980000Y-53110000D01*
X95980000Y-53110000D02*
X96080000Y-53030000D01*
X96080000Y-53030000D02*
X96120000Y-52960000D01*
X96120000Y-52960000D02*
X96170000Y-52820000D01*
X96170000Y-52820000D02*
X96170000Y-52410000D01*
X96170000Y-52410000D02*
X96120000Y-52250000D01*
X96120000Y-52250000D02*
X96070000Y-52180000D01*
X96070000Y-52180000D02*
X95980000Y-52110000D01*
X95980000Y-52110000D02*
X95830000Y-52110000D01*
X95830000Y-52110000D02*
X95750000Y-52170000D01*
X95750000Y-52170000D02*
X95690000Y-52250000D01*
X95690000Y-52250000D02*
X95640000Y-52400000D01*
D18*
G36*
X97362720Y-51389880D02*
X97426220Y-51356860D01*
X97565920Y-51267960D01*
X97766580Y-51138420D01*
X98002800Y-50978400D01*
X98241560Y-50818380D01*
X98437140Y-50686300D01*
X98574300Y-50599940D01*
X98630180Y-50566920D01*
X98660660Y-50577080D01*
X98774960Y-50632960D01*
X98937520Y-50719320D01*
X99034040Y-50767580D01*
X99183900Y-50833620D01*
X99257560Y-50846320D01*
X99270260Y-50826000D01*
X99326140Y-50709160D01*
X99412500Y-50513580D01*
X99526800Y-50251960D01*
X99656340Y-49949700D01*
X99793500Y-49619500D01*
X99933200Y-49284220D01*
X100065280Y-48966720D01*
X100184660Y-48679700D01*
X100278640Y-48446020D01*
X100339600Y-48283460D01*
X100362460Y-48212340D01*
X100354840Y-48197100D01*
X100281180Y-48125980D01*
X100149100Y-48026920D01*
X99864620Y-47795780D01*
X99585220Y-47445260D01*
X99415040Y-47049020D01*
X99356620Y-46607060D01*
X99404880Y-46198120D01*
X99567440Y-45804420D01*
X99841760Y-45451360D01*
X100174500Y-45187200D01*
X100563120Y-45022100D01*
X101000000Y-44966220D01*
X101419100Y-45014480D01*
X101820420Y-45171960D01*
X102173480Y-45441200D01*
X102323340Y-45613920D01*
X102529080Y-45972060D01*
X102645920Y-46358140D01*
X102658620Y-46454660D01*
X102640840Y-46876300D01*
X102516380Y-47280160D01*
X102295400Y-47640840D01*
X101985520Y-47938020D01*
X101947420Y-47965960D01*
X101802640Y-48072640D01*
X101708660Y-48146300D01*
X101632460Y-48207260D01*
X102168400Y-49500120D01*
X102254760Y-49705860D01*
X102402080Y-50056380D01*
X102531620Y-50361180D01*
X102635760Y-50605020D01*
X102706880Y-50765040D01*
X102737360Y-50831080D01*
X102742440Y-50833620D01*
X102788160Y-50841240D01*
X102887220Y-50805680D01*
X103067560Y-50719320D01*
X103186940Y-50658360D01*
X103324100Y-50592320D01*
X103385060Y-50566920D01*
X103438400Y-50594860D01*
X103570480Y-50681220D01*
X103760980Y-50810760D01*
X103992120Y-50965700D01*
X104213100Y-51115560D01*
X104416300Y-51250180D01*
X104563620Y-51344160D01*
X104634740Y-51382260D01*
X104644900Y-51382260D01*
X104708400Y-51346700D01*
X104825240Y-51250180D01*
X105000500Y-51082540D01*
X105249420Y-50838700D01*
X105287520Y-50800600D01*
X105493260Y-50592320D01*
X105658360Y-50417060D01*
X105770120Y-50292600D01*
X105810760Y-50236720D01*
X105810760Y-50236720D01*
X105772660Y-50165600D01*
X105681220Y-50018280D01*
X105546600Y-49815080D01*
X105384040Y-49573780D01*
X104954780Y-48954020D01*
X105191000Y-48367280D01*
X105262120Y-48186940D01*
X105353560Y-47968500D01*
X105422140Y-47813560D01*
X105457700Y-47744980D01*
X105521200Y-47722120D01*
X105681220Y-47684020D01*
X105914900Y-47635760D01*
X106191760Y-47584960D01*
X106455920Y-47536700D01*
X106694680Y-47490980D01*
X106867400Y-47457960D01*
X106946140Y-47442720D01*
X106963920Y-47430020D01*
X106979160Y-47391920D01*
X106989320Y-47310640D01*
X106994400Y-47165860D01*
X106999480Y-46937260D01*
X106999480Y-46607060D01*
X106999480Y-46571500D01*
X106994400Y-46256540D01*
X106989320Y-46005080D01*
X106981700Y-45839980D01*
X106969000Y-45773940D01*
X106969000Y-45773940D01*
X106895340Y-45756160D01*
X106725160Y-45720600D01*
X106486400Y-45672340D01*
X106201920Y-45619000D01*
X106184140Y-45616460D01*
X105899660Y-45560580D01*
X105663440Y-45512320D01*
X105495800Y-45474220D01*
X105427220Y-45451360D01*
X105411980Y-45431040D01*
X105353560Y-45319280D01*
X105272280Y-45144020D01*
X105178300Y-44930660D01*
X105086860Y-44707140D01*
X105005580Y-44506480D01*
X104952240Y-44356620D01*
X104937000Y-44288040D01*
X104937000Y-44288040D01*
X104980180Y-44219460D01*
X105076700Y-44072140D01*
X105216400Y-43868940D01*
X105381500Y-43627640D01*
X105394200Y-43607320D01*
X105556760Y-43368560D01*
X105688840Y-43165360D01*
X105777740Y-43020580D01*
X105810760Y-42957080D01*
X105810760Y-42952000D01*
X105754880Y-42880880D01*
X105632960Y-42743720D01*
X105457700Y-42560840D01*
X105249420Y-42350020D01*
X105180840Y-42283980D01*
X104949700Y-42055380D01*
X104787140Y-41908060D01*
X104685540Y-41826780D01*
X104637280Y-41809000D01*
X104634740Y-41811540D01*
X104563620Y-41854720D01*
X104411220Y-41953780D01*
X104205480Y-42093480D01*
X103961640Y-42258580D01*
X103946400Y-42268740D01*
X103705100Y-42431300D01*
X103506980Y-42568460D01*
X103364740Y-42662440D01*
X103301240Y-42698000D01*
X103291080Y-42698000D01*
X103194560Y-42670060D01*
X103024380Y-42611640D01*
X102813560Y-42530360D01*
X102592580Y-42441460D01*
X102389380Y-42355100D01*
X102239520Y-42286520D01*
X102168400Y-42245880D01*
X102165860Y-42243340D01*
X102140460Y-42156980D01*
X102099820Y-41976640D01*
X102046480Y-41730260D01*
X101993140Y-41435620D01*
X101982980Y-41389900D01*
X101929640Y-41102880D01*
X101883920Y-40866660D01*
X101848360Y-40704100D01*
X101833120Y-40635520D01*
X101792480Y-40627900D01*
X101652780Y-40617740D01*
X101439420Y-40610120D01*
X101180340Y-40607580D01*
X100908560Y-40610120D01*
X100644400Y-40615200D01*
X100418340Y-40622820D01*
X100255780Y-40635520D01*
X100187200Y-40648220D01*
X100184660Y-40653300D01*
X100161800Y-40742200D01*
X100121160Y-40920000D01*
X100070360Y-41168920D01*
X100014480Y-41463560D01*
X100004320Y-41516900D01*
X99950980Y-41801380D01*
X99902720Y-42035060D01*
X99867160Y-42195080D01*
X99849380Y-42258580D01*
X99823980Y-42271280D01*
X99707140Y-42324620D01*
X99516640Y-42403360D01*
X99277880Y-42499880D01*
X98729240Y-42720860D01*
X98056140Y-42258580D01*
X97995180Y-42217940D01*
X97751340Y-42052840D01*
X97553220Y-41920760D01*
X97413520Y-41831860D01*
X97357640Y-41798840D01*
X97352560Y-41801380D01*
X97283980Y-41859800D01*
X97151900Y-41984260D01*
X96969020Y-42162060D01*
X96758200Y-42372880D01*
X96600720Y-42530360D01*
X96415300Y-42718320D01*
X96298460Y-42845320D01*
X96232420Y-42926600D01*
X96209560Y-42977400D01*
X96217180Y-43010420D01*
X96260360Y-43079000D01*
X96359420Y-43226320D01*
X96496580Y-43432060D01*
X96661680Y-43668280D01*
X96796300Y-43868940D01*
X96943620Y-44095000D01*
X97037600Y-44255020D01*
X97070620Y-44333760D01*
X97063000Y-44366780D01*
X97014740Y-44498860D01*
X96936000Y-44699520D01*
X96834400Y-44935740D01*
X96600720Y-45469140D01*
X96250200Y-45535180D01*
X96039380Y-45575820D01*
X95742200Y-45634240D01*
X95457720Y-45687580D01*
X95015760Y-45773940D01*
X95000520Y-47399540D01*
X95069100Y-47430020D01*
X95135140Y-47447800D01*
X95297700Y-47483360D01*
X95531380Y-47529080D01*
X95808240Y-47582420D01*
X96044460Y-47625600D01*
X96280680Y-47671320D01*
X96450860Y-47704340D01*
X96527060Y-47719580D01*
X96544840Y-47744980D01*
X96605800Y-47861820D01*
X96689620Y-48042160D01*
X96783600Y-48263140D01*
X96877580Y-48489200D01*
X96961400Y-48700020D01*
X97019820Y-48860040D01*
X97042680Y-48943860D01*
X97009660Y-49004820D01*
X96920760Y-49144520D01*
X96788680Y-49342640D01*
X96628660Y-49578860D01*
X96466100Y-49815080D01*
X96331480Y-50015740D01*
X96234960Y-50160520D01*
X96196860Y-50226560D01*
X96217180Y-50272280D01*
X96311160Y-50386580D01*
X96488960Y-50569460D01*
X96753120Y-50831080D01*
X96796300Y-50874260D01*
X97007120Y-51074920D01*
X97184920Y-51240020D01*
X97306840Y-51349240D01*
X97362720Y-51389880D01*
X97362720Y-51389880D01*
G37*
X97362720Y-51389880D02*
X97426220Y-51356860D01*
X97565920Y-51267960D01*
X97766580Y-51138420D01*
X98002800Y-50978400D01*
X98241560Y-50818380D01*
X98437140Y-50686300D01*
X98574300Y-50599940D01*
X98630180Y-50566920D01*
X98660660Y-50577080D01*
X98774960Y-50632960D01*
X98937520Y-50719320D01*
X99034040Y-50767580D01*
X99183900Y-50833620D01*
X99257560Y-50846320D01*
X99270260Y-50826000D01*
X99326140Y-50709160D01*
X99412500Y-50513580D01*
X99526800Y-50251960D01*
X99656340Y-49949700D01*
X99793500Y-49619500D01*
X99933200Y-49284220D01*
X100065280Y-48966720D01*
X100184660Y-48679700D01*
X100278640Y-48446020D01*
X100339600Y-48283460D01*
X100362460Y-48212340D01*
X100354840Y-48197100D01*
X100281180Y-48125980D01*
X100149100Y-48026920D01*
X99864620Y-47795780D01*
X99585220Y-47445260D01*
X99415040Y-47049020D01*
X99356620Y-46607060D01*
X99404880Y-46198120D01*
X99567440Y-45804420D01*
X99841760Y-45451360D01*
X100174500Y-45187200D01*
X100563120Y-45022100D01*
X101000000Y-44966220D01*
X101419100Y-45014480D01*
X101820420Y-45171960D01*
X102173480Y-45441200D01*
X102323340Y-45613920D01*
X102529080Y-45972060D01*
X102645920Y-46358140D01*
X102658620Y-46454660D01*
X102640840Y-46876300D01*
X102516380Y-47280160D01*
X102295400Y-47640840D01*
X101985520Y-47938020D01*
X101947420Y-47965960D01*
X101802640Y-48072640D01*
X101708660Y-48146300D01*
X101632460Y-48207260D01*
X102168400Y-49500120D01*
X102254760Y-49705860D01*
X102402080Y-50056380D01*
X102531620Y-50361180D01*
X102635760Y-50605020D01*
X102706880Y-50765040D01*
X102737360Y-50831080D01*
X102742440Y-50833620D01*
X102788160Y-50841240D01*
X102887220Y-50805680D01*
X103067560Y-50719320D01*
X103186940Y-50658360D01*
X103324100Y-50592320D01*
X103385060Y-50566920D01*
X103438400Y-50594860D01*
X103570480Y-50681220D01*
X103760980Y-50810760D01*
X103992120Y-50965700D01*
X104213100Y-51115560D01*
X104416300Y-51250180D01*
X104563620Y-51344160D01*
X104634740Y-51382260D01*
X104644900Y-51382260D01*
X104708400Y-51346700D01*
X104825240Y-51250180D01*
X105000500Y-51082540D01*
X105249420Y-50838700D01*
X105287520Y-50800600D01*
X105493260Y-50592320D01*
X105658360Y-50417060D01*
X105770120Y-50292600D01*
X105810760Y-50236720D01*
X105810760Y-50236720D01*
X105772660Y-50165600D01*
X105681220Y-50018280D01*
X105546600Y-49815080D01*
X105384040Y-49573780D01*
X104954780Y-48954020D01*
X105191000Y-48367280D01*
X105262120Y-48186940D01*
X105353560Y-47968500D01*
X105422140Y-47813560D01*
X105457700Y-47744980D01*
X105521200Y-47722120D01*
X105681220Y-47684020D01*
X105914900Y-47635760D01*
X106191760Y-47584960D01*
X106455920Y-47536700D01*
X106694680Y-47490980D01*
X106867400Y-47457960D01*
X106946140Y-47442720D01*
X106963920Y-47430020D01*
X106979160Y-47391920D01*
X106989320Y-47310640D01*
X106994400Y-47165860D01*
X106999480Y-46937260D01*
X106999480Y-46607060D01*
X106999480Y-46571500D01*
X106994400Y-46256540D01*
X106989320Y-46005080D01*
X106981700Y-45839980D01*
X106969000Y-45773940D01*
X106969000Y-45773940D01*
X106895340Y-45756160D01*
X106725160Y-45720600D01*
X106486400Y-45672340D01*
X106201920Y-45619000D01*
X106184140Y-45616460D01*
X105899660Y-45560580D01*
X105663440Y-45512320D01*
X105495800Y-45474220D01*
X105427220Y-45451360D01*
X105411980Y-45431040D01*
X105353560Y-45319280D01*
X105272280Y-45144020D01*
X105178300Y-44930660D01*
X105086860Y-44707140D01*
X105005580Y-44506480D01*
X104952240Y-44356620D01*
X104937000Y-44288040D01*
X104937000Y-44288040D01*
X104980180Y-44219460D01*
X105076700Y-44072140D01*
X105216400Y-43868940D01*
X105381500Y-43627640D01*
X105394200Y-43607320D01*
X105556760Y-43368560D01*
X105688840Y-43165360D01*
X105777740Y-43020580D01*
X105810760Y-42957080D01*
X105810760Y-42952000D01*
X105754880Y-42880880D01*
X105632960Y-42743720D01*
X105457700Y-42560840D01*
X105249420Y-42350020D01*
X105180840Y-42283980D01*
X104949700Y-42055380D01*
X104787140Y-41908060D01*
X104685540Y-41826780D01*
X104637280Y-41809000D01*
X104634740Y-41811540D01*
X104563620Y-41854720D01*
X104411220Y-41953780D01*
X104205480Y-42093480D01*
X103961640Y-42258580D01*
X103946400Y-42268740D01*
X103705100Y-42431300D01*
X103506980Y-42568460D01*
X103364740Y-42662440D01*
X103301240Y-42698000D01*
X103291080Y-42698000D01*
X103194560Y-42670060D01*
X103024380Y-42611640D01*
X102813560Y-42530360D01*
X102592580Y-42441460D01*
X102389380Y-42355100D01*
X102239520Y-42286520D01*
X102168400Y-42245880D01*
X102165860Y-42243340D01*
X102140460Y-42156980D01*
X102099820Y-41976640D01*
X102046480Y-41730260D01*
X101993140Y-41435620D01*
X101982980Y-41389900D01*
X101929640Y-41102880D01*
X101883920Y-40866660D01*
X101848360Y-40704100D01*
X101833120Y-40635520D01*
X101792480Y-40627900D01*
X101652780Y-40617740D01*
X101439420Y-40610120D01*
X101180340Y-40607580D01*
X100908560Y-40610120D01*
X100644400Y-40615200D01*
X100418340Y-40622820D01*
X100255780Y-40635520D01*
X100187200Y-40648220D01*
X100184660Y-40653300D01*
X100161800Y-40742200D01*
X100121160Y-40920000D01*
X100070360Y-41168920D01*
X100014480Y-41463560D01*
X100004320Y-41516900D01*
X99950980Y-41801380D01*
X99902720Y-42035060D01*
X99867160Y-42195080D01*
X99849380Y-42258580D01*
X99823980Y-42271280D01*
X99707140Y-42324620D01*
X99516640Y-42403360D01*
X99277880Y-42499880D01*
X98729240Y-42720860D01*
X98056140Y-42258580D01*
X97995180Y-42217940D01*
X97751340Y-42052840D01*
X97553220Y-41920760D01*
X97413520Y-41831860D01*
X97357640Y-41798840D01*
X97352560Y-41801380D01*
X97283980Y-41859800D01*
X97151900Y-41984260D01*
X96969020Y-42162060D01*
X96758200Y-42372880D01*
X96600720Y-42530360D01*
X96415300Y-42718320D01*
X96298460Y-42845320D01*
X96232420Y-42926600D01*
X96209560Y-42977400D01*
X96217180Y-43010420D01*
X96260360Y-43079000D01*
X96359420Y-43226320D01*
X96496580Y-43432060D01*
X96661680Y-43668280D01*
X96796300Y-43868940D01*
X96943620Y-44095000D01*
X97037600Y-44255020D01*
X97070620Y-44333760D01*
X97063000Y-44366780D01*
X97014740Y-44498860D01*
X96936000Y-44699520D01*
X96834400Y-44935740D01*
X96600720Y-45469140D01*
X96250200Y-45535180D01*
X96039380Y-45575820D01*
X95742200Y-45634240D01*
X95457720Y-45687580D01*
X95015760Y-45773940D01*
X95000520Y-47399540D01*
X95069100Y-47430020D01*
X95135140Y-47447800D01*
X95297700Y-47483360D01*
X95531380Y-47529080D01*
X95808240Y-47582420D01*
X96044460Y-47625600D01*
X96280680Y-47671320D01*
X96450860Y-47704340D01*
X96527060Y-47719580D01*
X96544840Y-47744980D01*
X96605800Y-47861820D01*
X96689620Y-48042160D01*
X96783600Y-48263140D01*
X96877580Y-48489200D01*
X96961400Y-48700020D01*
X97019820Y-48860040D01*
X97042680Y-48943860D01*
X97009660Y-49004820D01*
X96920760Y-49144520D01*
X96788680Y-49342640D01*
X96628660Y-49578860D01*
X96466100Y-49815080D01*
X96331480Y-50015740D01*
X96234960Y-50160520D01*
X96196860Y-50226560D01*
X96217180Y-50272280D01*
X96311160Y-50386580D01*
X96488960Y-50569460D01*
X96753120Y-50831080D01*
X96796300Y-50874260D01*
X97007120Y-51074920D01*
X97184920Y-51240020D01*
X97306840Y-51349240D01*
X97362720Y-51389880D01*
D19*
G36*
X153421527Y-70789904D02*
X153424622Y-70916783D01*
X153026492Y-71254283D01*
X152937110Y-71324669D01*
X152493574Y-71768449D01*
X152285239Y-72316076D01*
X152232642Y-73178658D01*
X152232632Y-73196248D01*
X152232632Y-74513685D01*
X156253346Y-74513685D01*
X156073250Y-73796125D01*
X155979806Y-73319159D01*
X156094492Y-73281620D01*
X156307462Y-73461915D01*
X156582976Y-73864680D01*
X156580478Y-74077974D01*
X156677733Y-74375735D01*
X157082445Y-74877382D01*
X157410646Y-75200658D01*
X158087323Y-75971049D01*
X158377027Y-76651993D01*
X158382106Y-76736323D01*
X158586626Y-77336449D01*
X159239124Y-77969785D01*
X159456422Y-78126514D01*
X160230227Y-78603924D01*
X160643528Y-78705351D01*
X160683735Y-78552287D01*
X161469351Y-78552287D01*
X161525197Y-79280896D01*
X161641103Y-80223488D01*
X161794179Y-81224977D01*
X161961536Y-82130275D01*
X162120284Y-82784295D01*
X162205601Y-82997545D01*
X162479606Y-83032028D01*
X162910743Y-82734362D01*
X163383145Y-82232196D01*
X163780947Y-81653180D01*
X163988280Y-81124965D01*
X163996842Y-81024138D01*
X163849836Y-80436372D01*
X163472055Y-79747756D01*
X162958356Y-79065703D01*
X162403595Y-78497626D01*
X161902628Y-78150940D01*
X161550313Y-78133057D01*
X161496455Y-78192749D01*
X161469351Y-78552287D01*
X160683735Y-78552287D01*
X160715499Y-78431365D01*
X160632425Y-78161426D01*
X160262348Y-77819668D01*
X159824026Y-77722106D01*
X159335412Y-77626868D01*
X159184211Y-77454737D01*
X159397784Y-77203505D01*
X159959048Y-77187774D01*
X160748824Y-77382328D01*
X161647929Y-77761952D01*
X162244118Y-78102135D01*
X163092151Y-78716895D01*
X163663206Y-79360973D01*
X164027462Y-80172165D01*
X164255094Y-81288269D01*
X164365376Y-82267369D01*
X164416243Y-82963049D01*
X164408808Y-83284822D01*
X164357925Y-83203158D01*
X164118513Y-82610805D01*
X163795334Y-82488847D01*
X163302653Y-82829008D01*
X163053587Y-83077267D01*
X162585872Y-83592553D01*
X162467657Y-83856557D01*
X162666440Y-83992190D01*
X162801349Y-84031137D01*
X163092760Y-84185618D01*
X163265118Y-84538376D01*
X163357263Y-85214272D01*
X163394522Y-85938130D01*
X163487015Y-86979301D01*
X163659859Y-87780245D01*
X163826245Y-88127602D01*
X164134814Y-88674320D01*
X164326033Y-89363395D01*
X164379022Y-90018443D01*
X164272898Y-90463087D01*
X164113717Y-90555790D01*
X163777765Y-90771465D01*
X163729474Y-90973649D01*
X163932177Y-91290575D01*
X164331053Y-91307859D01*
X164701728Y-91309113D01*
X164878019Y-91537049D01*
X164930473Y-92122953D01*
X164932632Y-92427369D01*
X164932632Y-93630527D01*
X163595790Y-93666314D01*
X162791113Y-93664144D01*
X162328937Y-93530846D01*
X162017587Y-93159746D01*
X161851863Y-92828421D01*
X163194737Y-92828421D01*
X163427161Y-93150979D01*
X163863158Y-93229474D01*
X164400754Y-93090020D01*
X164531579Y-92828421D01*
X164299155Y-92505864D01*
X163863158Y-92427369D01*
X163325563Y-92566823D01*
X163194737Y-92828421D01*
X161851863Y-92828421D01*
X161759906Y-92644577D01*
X161532001Y-92104725D01*
X161410411Y-91590053D01*
X161397543Y-91224211D01*
X162392632Y-91224211D01*
X162606651Y-91578680D01*
X162793685Y-91625263D01*
X163148153Y-91411244D01*
X163194737Y-91224211D01*
X162980718Y-90869742D01*
X162793685Y-90823158D01*
X162439216Y-91037178D01*
X162392632Y-91224211D01*
X161397543Y-91224211D01*
X161388115Y-90956198D01*
X161458090Y-90058800D01*
X161481330Y-89861026D01*
X162453868Y-89861026D01*
X162764571Y-90011152D01*
X163029869Y-90021053D01*
X163528426Y-89940505D01*
X163711342Y-89589014D01*
X163729474Y-89218948D01*
X163645441Y-88631832D01*
X163332773Y-88425117D01*
X163194737Y-88416842D01*
X162758127Y-88501137D01*
X162656349Y-88617369D01*
X162590365Y-89011630D01*
X162491482Y-89419474D01*
X162453868Y-89861026D01*
X161481330Y-89861026D01*
X161582591Y-88999316D01*
X161746091Y-87832972D01*
X161920025Y-86833335D01*
X162077877Y-86143407D01*
X162148475Y-85947312D01*
X162170215Y-85876842D01*
X162712123Y-85876842D01*
X162741023Y-86333461D01*
X162824722Y-86373662D01*
X162835377Y-86349826D01*
X162888268Y-85819050D01*
X162845284Y-85547720D01*
X162760176Y-85438687D01*
X162713887Y-85793814D01*
X162712123Y-85876842D01*
X162170215Y-85876842D01*
X162367577Y-85237122D01*
X162328462Y-84588651D01*
X162107475Y-84261638D01*
X161721755Y-84211869D01*
X161507922Y-84660098D01*
X161491903Y-84755897D01*
X161276374Y-85315355D01*
X161141787Y-85515659D01*
X160884806Y-86020137D01*
X160665030Y-86742535D01*
X160658590Y-86772094D01*
X160467011Y-87667345D01*
X159972059Y-86853463D01*
X159125638Y-85871483D01*
X158029762Y-85349330D01*
X157245790Y-85240166D01*
X156558949Y-85264363D01*
X156273082Y-85457745D01*
X156243158Y-85631445D01*
X156372867Y-85932253D01*
X156844249Y-85978261D01*
X157050338Y-85952750D01*
X157744945Y-85972768D01*
X158141119Y-86176000D01*
X158266253Y-86567384D01*
X158391864Y-87372154D01*
X158502594Y-88469192D01*
X158577275Y-89615280D01*
X158655893Y-90847497D01*
X158755121Y-91872692D01*
X158861879Y-92579341D01*
X158957020Y-92853253D01*
X159207642Y-93110449D01*
X158971688Y-93249705D01*
X158286272Y-93261221D01*
X157646842Y-93199282D01*
X156643853Y-93107074D01*
X155346119Y-93032829D01*
X153993609Y-92989430D01*
X153649602Y-92984667D01*
X152451734Y-92988709D01*
X151678588Y-93039244D01*
X151220917Y-93154075D01*
X150969478Y-93351008D01*
X150917206Y-93430000D01*
X150697076Y-93689125D01*
X150636552Y-93539700D01*
X150818085Y-93107676D01*
X151154792Y-92737594D01*
X151401580Y-92460809D01*
X151561877Y-92055569D01*
X151656313Y-91408355D01*
X151667431Y-91181795D01*
X152500000Y-91181795D01*
X152601356Y-91405116D01*
X152969846Y-91551202D01*
X153702100Y-91643933D01*
X154572106Y-91693895D01*
X155653423Y-91744905D01*
X156590497Y-91795237D01*
X157200189Y-91834963D01*
X157245790Y-91838826D01*
X157740995Y-91736779D01*
X157847369Y-91491579D01*
X157624465Y-91164964D01*
X157312632Y-91090527D01*
X156877145Y-90923349D01*
X156777895Y-90689474D01*
X156654194Y-90456071D01*
X156215931Y-90331057D01*
X155362365Y-90289115D01*
X155182076Y-90288421D01*
X154276135Y-90315599D01*
X153814990Y-90411904D01*
X153710768Y-90599499D01*
X153727066Y-90655364D01*
X153694978Y-90905129D01*
X153254007Y-90904328D01*
X153183937Y-90891563D01*
X152656139Y-90884980D01*
X152500011Y-91177683D01*
X152500000Y-91181795D01*
X151667431Y-91181795D01*
X151705521Y-90405649D01*
X151721416Y-89620000D01*
X152767369Y-89620000D01*
X152853436Y-89803143D01*
X153169186Y-89922282D01*
X153800942Y-89989750D01*
X154835024Y-90017879D01*
X155574737Y-90021053D01*
X156856736Y-90008758D01*
X157690712Y-89963650D01*
X158162987Y-89873400D01*
X158359885Y-89725674D01*
X158382106Y-89620000D01*
X158296038Y-89436858D01*
X157980288Y-89317718D01*
X157348532Y-89250250D01*
X156314450Y-89222122D01*
X155574737Y-89218948D01*
X154292739Y-89231243D01*
X153458763Y-89276350D01*
X152986487Y-89366601D01*
X152789589Y-89514327D01*
X152767369Y-89620000D01*
X151721416Y-89620000D01*
X151744751Y-88070004D01*
X152792656Y-88070004D01*
X152858992Y-88308906D01*
X153152681Y-88550527D01*
X153855545Y-88824516D01*
X155041210Y-88945748D01*
X155441053Y-88951579D01*
X156752012Y-88872633D01*
X157588628Y-88639446D01*
X157729425Y-88550527D01*
X158089449Y-88228944D01*
X158023114Y-87990042D01*
X157729425Y-87748421D01*
X157026561Y-87474431D01*
X155840896Y-87353200D01*
X155441053Y-87347369D01*
X154130094Y-87426315D01*
X153293478Y-87659502D01*
X153152681Y-87748421D01*
X152792656Y-88070004D01*
X151744751Y-88070004D01*
X151761669Y-86946316D01*
X151093351Y-87018263D01*
X150707224Y-87009619D01*
X150451339Y-86803065D01*
X150243393Y-86282265D01*
X150052997Y-85547737D01*
X149753790Y-84566233D01*
X149457738Y-84112470D01*
X149320298Y-84082868D01*
X148872683Y-84047634D01*
X148128763Y-83871921D01*
X147645137Y-83723868D01*
X146823676Y-83498939D01*
X146177359Y-83406609D01*
X145963631Y-83428097D01*
X145675446Y-83767100D01*
X145362931Y-84480714D01*
X145073045Y-85413587D01*
X144852746Y-86410368D01*
X144748991Y-87315704D01*
X144746316Y-87455361D01*
X144680409Y-88077909D01*
X144404834Y-88396398D01*
X143802808Y-88482911D01*
X143142106Y-88445564D01*
X143098750Y-88541096D01*
X143442257Y-88822921D01*
X143743061Y-89015464D01*
X144435890Y-89546011D01*
X144602076Y-89983914D01*
X144590335Y-90021053D01*
X144465388Y-90491172D01*
X144301788Y-91293717D01*
X144174393Y-92019549D01*
X143989743Y-93019861D01*
X143835764Y-93609433D01*
X143727042Y-93751103D01*
X143678162Y-93407705D01*
X143676842Y-93287321D01*
X143473354Y-92702498D01*
X143208948Y-92448785D01*
X142918802Y-92243101D01*
X143108406Y-92175038D01*
X143342632Y-92168131D01*
X143827942Y-92008943D01*
X143944211Y-91758948D01*
X143711787Y-91436390D01*
X143275790Y-91357895D01*
X142728352Y-91505070D01*
X142607369Y-91793720D01*
X142514103Y-92056599D01*
X142149625Y-92145452D01*
X141404211Y-92093931D01*
X140624739Y-92049088D01*
X140261707Y-92157864D01*
X140201053Y-92326527D01*
X140437617Y-92614102D01*
X140936316Y-92713529D01*
X141411897Y-92746024D01*
X141395100Y-92840826D01*
X141136842Y-92962106D01*
X140587583Y-93165845D01*
X140237003Y-93155392D01*
X140040755Y-92853431D01*
X139954490Y-92182649D01*
X139942254Y-91520185D01*
X140735790Y-91520185D01*
X140895244Y-91822158D01*
X141158710Y-91787553D01*
X141761009Y-91640521D01*
X141960815Y-91625263D01*
X142289774Y-91408642D01*
X142340000Y-91195605D01*
X142180546Y-90893632D01*
X141917080Y-90928237D01*
X141314781Y-91075269D01*
X141114975Y-91090527D01*
X140786016Y-91307148D01*
X140735790Y-91520185D01*
X139942254Y-91520185D01*
X139933860Y-91065732D01*
X139933685Y-90864597D01*
X139941427Y-90314981D01*
X141366491Y-90314981D01*
X141483576Y-90650857D01*
X141822274Y-90633638D01*
X141962751Y-90536035D01*
X142282501Y-90098526D01*
X143229602Y-90098526D01*
X143424613Y-90471212D01*
X143676842Y-90555790D01*
X144019753Y-90361029D01*
X144092293Y-90265125D01*
X144123527Y-89857368D01*
X143840645Y-89583800D01*
X143452639Y-89616833D01*
X143379297Y-89676914D01*
X143229602Y-90098526D01*
X142282501Y-90098526D01*
X142288589Y-90090197D01*
X142340000Y-89870410D01*
X142188287Y-89429575D01*
X141849634Y-89408505D01*
X141538946Y-89751722D01*
X141366491Y-90314981D01*
X139941427Y-90314981D01*
X139950306Y-89684745D01*
X140015909Y-88913253D01*
X140154103Y-88424347D01*
X140285205Y-88238597D01*
X142161755Y-88238597D01*
X142198456Y-88397547D01*
X142340000Y-88416842D01*
X142560075Y-88319016D01*
X142518246Y-88238597D01*
X142200942Y-88206598D01*
X142161755Y-88238597D01*
X140285205Y-88238597D01*
X140388495Y-88092253D01*
X140468421Y-88015790D01*
X140869676Y-87540589D01*
X141003158Y-87202996D01*
X141024892Y-87162896D01*
X141805263Y-87162896D01*
X142057106Y-87580595D01*
X142811124Y-87819629D01*
X143075263Y-87851090D01*
X143238828Y-87748421D01*
X143944211Y-87748421D01*
X144088582Y-88104227D01*
X144211579Y-88149474D01*
X144448783Y-87932917D01*
X144478948Y-87748421D01*
X144334576Y-87392616D01*
X144211579Y-87347369D01*
X143974376Y-87563926D01*
X143944211Y-87748421D01*
X143238828Y-87748421D01*
X143369873Y-87666165D01*
X143409474Y-87481053D01*
X143300547Y-87122589D01*
X143208948Y-87076349D01*
X142814687Y-87010365D01*
X142406842Y-86911482D01*
X141929949Y-86888225D01*
X141805263Y-87162896D01*
X141024892Y-87162896D01*
X141206370Y-86828068D01*
X141630529Y-86463063D01*
X142164091Y-85838739D01*
X142299810Y-85508777D01*
X143159244Y-85508777D01*
X143243140Y-85737245D01*
X143627738Y-85941355D01*
X143990765Y-85709555D01*
X144374133Y-85003711D01*
X144556712Y-84542159D01*
X144829257Y-83653085D01*
X144816584Y-83118443D01*
X144501210Y-82829782D01*
X144268518Y-82754361D01*
X143984983Y-82927492D01*
X143674030Y-83458976D01*
X143393917Y-84179335D01*
X143202903Y-84919094D01*
X143159244Y-85508777D01*
X142299810Y-85508777D01*
X142631927Y-84701335D01*
X142726632Y-84381444D01*
X143195365Y-82710895D01*
X142599368Y-82261333D01*
X142264422Y-81979813D01*
X142138181Y-81692901D01*
X142207933Y-81233393D01*
X142460541Y-80435360D01*
X142734985Y-79674815D01*
X142957227Y-79174938D01*
X143047926Y-79058948D01*
X143076253Y-79272921D01*
X142978364Y-79660527D01*
X142800987Y-80405349D01*
X142718830Y-81008651D01*
X142753115Y-81493665D01*
X142939055Y-81535952D01*
X143227426Y-81188355D01*
X143569006Y-80503718D01*
X143823114Y-79823155D01*
X144087617Y-79099852D01*
X144295267Y-78662490D01*
X144373196Y-78596705D01*
X144349318Y-78884754D01*
X144180167Y-79527860D01*
X143941929Y-80268736D01*
X143690371Y-81115209D01*
X143574399Y-81752416D01*
X143607027Y-82015967D01*
X143935169Y-82173936D01*
X144650489Y-82449236D01*
X145630867Y-82796219D01*
X146270382Y-83011523D01*
X147531478Y-83404729D01*
X148383918Y-83586087D01*
X148916136Y-83540835D01*
X149216567Y-83254212D01*
X149373647Y-82711457D01*
X149407188Y-82487939D01*
X149550647Y-81883457D01*
X149799753Y-81190071D01*
X150088982Y-80549686D01*
X150352809Y-80104207D01*
X150525710Y-79995538D01*
X150543634Y-80026769D01*
X150525523Y-80442760D01*
X150356660Y-81146189D01*
X150243984Y-81497295D01*
X150023994Y-82298928D01*
X149972849Y-83085992D01*
X150081549Y-84093323D01*
X150132514Y-84406316D01*
X150351928Y-85561677D01*
X150582824Y-86256412D01*
X150900106Y-86560859D01*
X151378681Y-86545354D01*
X152093452Y-86280234D01*
X152117279Y-86270037D01*
X152836917Y-85987454D01*
X153193624Y-85937160D01*
X153300600Y-86108040D01*
X153302106Y-86153712D01*
X153526262Y-86423152D01*
X154064565Y-86550936D01*
X154715761Y-86537920D01*
X155278601Y-86384960D01*
X155537740Y-86144211D01*
X155524987Y-85884459D01*
X155158148Y-85759933D01*
X154563714Y-85729381D01*
X153435790Y-85715604D01*
X154371579Y-85354632D01*
X155128347Y-85070326D01*
X155736061Y-84854498D01*
X155784869Y-84838378D01*
X155992656Y-84698862D01*
X155917700Y-84439461D01*
X155512532Y-83973688D01*
X155073357Y-83542074D01*
X154856142Y-83273823D01*
X156376117Y-83273823D01*
X156696227Y-83574498D01*
X157416730Y-83834717D01*
X158021915Y-83784060D01*
X158255660Y-83592499D01*
X158254698Y-83172515D01*
X157914334Y-82759920D01*
X157399528Y-82539745D01*
X157312632Y-82534737D01*
X156744431Y-82727562D01*
X156528439Y-82914207D01*
X156376117Y-83273823D01*
X154856142Y-83273823D01*
X154091498Y-82329525D01*
X153628569Y-81052082D01*
X153628779Y-81044860D01*
X154467379Y-81044860D01*
X154678322Y-81767713D01*
X154759883Y-81952497D01*
X155068146Y-82554062D01*
X155275661Y-82730178D01*
X155501104Y-82543037D01*
X155610010Y-82398030D01*
X155885726Y-81781424D01*
X155919038Y-81364160D01*
X155648443Y-80838486D01*
X155243812Y-80462842D01*
X154792000Y-80214525D01*
X154568162Y-80311916D01*
X154470618Y-80523346D01*
X154467379Y-81044860D01*
X153628779Y-81044860D01*
X153658637Y-80018420D01*
X155516439Y-80018420D01*
X155815484Y-80366373D01*
X156178856Y-81081834D01*
X156187293Y-81548870D01*
X156156791Y-81961245D01*
X156371548Y-82123339D01*
X156966183Y-82121563D01*
X157068472Y-82114512D01*
X157866902Y-82159257D01*
X158502447Y-82362805D01*
X158560224Y-82400482D01*
X159122106Y-82584244D01*
X159541545Y-82305775D01*
X159718252Y-81635917D01*
X159718948Y-81581989D01*
X159597936Y-80965510D01*
X159286969Y-80815613D01*
X158864150Y-81164789D01*
X158829985Y-81212177D01*
X158490756Y-81508129D01*
X158283927Y-81387401D01*
X158285522Y-80965068D01*
X158425619Y-80600096D01*
X158490777Y-80241860D01*
X158179118Y-79955364D01*
X157787911Y-79774593D01*
X157188662Y-79562600D01*
X156911292Y-79597922D01*
X156820712Y-79793768D01*
X156565239Y-80048067D01*
X156025867Y-79997644D01*
X155541862Y-79895877D01*
X155516439Y-80018420D01*
X153658637Y-80018420D01*
X153669021Y-79661463D01*
X153732687Y-79379065D01*
X154115536Y-78498879D01*
X154674848Y-78058455D01*
X155312068Y-78087965D01*
X155633659Y-78253979D01*
X155531256Y-78458709D01*
X155281567Y-78656749D01*
X154981278Y-78918587D01*
X155084539Y-79025748D01*
X155641579Y-79050444D01*
X156308989Y-78968991D01*
X156479336Y-78695755D01*
X156160699Y-78214392D01*
X156090376Y-78142256D01*
X155813300Y-77822006D01*
X155938425Y-77726777D01*
X156103654Y-77722106D01*
X156802776Y-77891526D01*
X157696754Y-78332126D01*
X158596962Y-78942408D01*
X158980355Y-79269988D01*
X159662886Y-80246103D01*
X159942640Y-81414289D01*
X159820381Y-82615763D01*
X159296872Y-83691741D01*
X158957271Y-84068274D01*
X158255982Y-84718207D01*
X159185828Y-85477110D01*
X159910194Y-85959876D01*
X160369184Y-86017933D01*
X160412907Y-85989332D01*
X160650789Y-85545905D01*
X160862901Y-84725439D01*
X161028388Y-83685607D01*
X161126393Y-82584085D01*
X161136060Y-81578547D01*
X161074219Y-80989700D01*
X160619366Y-79708382D01*
X159772640Y-78763301D01*
X159127825Y-78361368D01*
X158454530Y-77732851D01*
X158114737Y-76920000D01*
X157780825Y-76119255D01*
X157229468Y-75577666D01*
X156373255Y-75252707D01*
X155124774Y-75101853D01*
X154329453Y-75078459D01*
X153117419Y-75104819D01*
X152357299Y-75221828D01*
X151974686Y-75438120D01*
X151528888Y-75692094D01*
X151279548Y-75673209D01*
X150905153Y-75744782D01*
X150684931Y-76128961D01*
X150735491Y-76604936D01*
X150762216Y-76652811D01*
X151077913Y-76791991D01*
X151253803Y-76690360D01*
X151769129Y-76601089D01*
X152366316Y-76789346D01*
X153168421Y-77143938D01*
X152165790Y-77165653D01*
X151508920Y-77215938D01*
X151227871Y-77425528D01*
X151163881Y-77940856D01*
X151163158Y-78090420D01*
X151050813Y-78808897D01*
X150778768Y-79311712D01*
X150762106Y-79326316D01*
X150540184Y-79446162D01*
X150418552Y-79277905D01*
X150368633Y-78730953D01*
X150361053Y-78054950D01*
X150304514Y-77051132D01*
X150150227Y-76376591D01*
X150026842Y-76188255D01*
X149291019Y-75863499D01*
X148296487Y-75729655D01*
X147294078Y-75815421D01*
X147130525Y-75856867D01*
X146349356Y-76214155D01*
X145585478Y-76771948D01*
X144993337Y-77394390D01*
X144727380Y-77945625D01*
X144725208Y-77972654D01*
X144659414Y-78201802D01*
X144569243Y-78056316D01*
X144244624Y-77742748D01*
X143832017Y-77839648D01*
X143536763Y-78276991D01*
X143353240Y-78665340D01*
X143239918Y-78711146D01*
X143266250Y-78417902D01*
X143481337Y-77838319D01*
X143567276Y-77650761D01*
X144184370Y-76821290D01*
X145093235Y-76116079D01*
X146091372Y-75670171D01*
X146667667Y-75583158D01*
X147300808Y-75461050D01*
X147625314Y-75270898D01*
X147987427Y-75098077D01*
X148595254Y-75165678D01*
X148979807Y-75270898D01*
X149866308Y-75510334D01*
X150359711Y-75503698D01*
X150575043Y-75171501D01*
X150627331Y-74434258D01*
X150628421Y-74131669D01*
X150643868Y-73805929D01*
X151191099Y-73805929D01*
X151200320Y-74525766D01*
X151288740Y-74990034D01*
X151506744Y-75287556D01*
X151712501Y-75143970D01*
X151865685Y-74652164D01*
X151925972Y-73905029D01*
X151914594Y-73548354D01*
X151817613Y-72795226D01*
X151662208Y-72322750D01*
X151564211Y-72241053D01*
X151391732Y-72477089D01*
X151261132Y-73060876D01*
X151191099Y-73805929D01*
X150643868Y-73805929D01*
X150672072Y-73211178D01*
X150864733Y-72575088D01*
X151298972Y-71976049D01*
X151528939Y-71725353D01*
X152219496Y-71125992D01*
X152853741Y-70798848D01*
X153035522Y-70770527D01*
X153421527Y-70789904D01*
X153421527Y-70789904D01*
G37*
X153421527Y-70789904D02*
X153424622Y-70916783D01*
X153026492Y-71254283D01*
X152937110Y-71324669D01*
X152493574Y-71768449D01*
X152285239Y-72316076D01*
X152232642Y-73178658D01*
X152232632Y-73196248D01*
X152232632Y-74513685D01*
X156253346Y-74513685D01*
X156073250Y-73796125D01*
X155979806Y-73319159D01*
X156094492Y-73281620D01*
X156307462Y-73461915D01*
X156582976Y-73864680D01*
X156580478Y-74077974D01*
X156677733Y-74375735D01*
X157082445Y-74877382D01*
X157410646Y-75200658D01*
X158087323Y-75971049D01*
X158377027Y-76651993D01*
X158382106Y-76736323D01*
X158586626Y-77336449D01*
X159239124Y-77969785D01*
X159456422Y-78126514D01*
X160230227Y-78603924D01*
X160643528Y-78705351D01*
X160683735Y-78552287D01*
X161469351Y-78552287D01*
X161525197Y-79280896D01*
X161641103Y-80223488D01*
X161794179Y-81224977D01*
X161961536Y-82130275D01*
X162120284Y-82784295D01*
X162205601Y-82997545D01*
X162479606Y-83032028D01*
X162910743Y-82734362D01*
X163383145Y-82232196D01*
X163780947Y-81653180D01*
X163988280Y-81124965D01*
X163996842Y-81024138D01*
X163849836Y-80436372D01*
X163472055Y-79747756D01*
X162958356Y-79065703D01*
X162403595Y-78497626D01*
X161902628Y-78150940D01*
X161550313Y-78133057D01*
X161496455Y-78192749D01*
X161469351Y-78552287D01*
X160683735Y-78552287D01*
X160715499Y-78431365D01*
X160632425Y-78161426D01*
X160262348Y-77819668D01*
X159824026Y-77722106D01*
X159335412Y-77626868D01*
X159184211Y-77454737D01*
X159397784Y-77203505D01*
X159959048Y-77187774D01*
X160748824Y-77382328D01*
X161647929Y-77761952D01*
X162244118Y-78102135D01*
X163092151Y-78716895D01*
X163663206Y-79360973D01*
X164027462Y-80172165D01*
X164255094Y-81288269D01*
X164365376Y-82267369D01*
X164416243Y-82963049D01*
X164408808Y-83284822D01*
X164357925Y-83203158D01*
X164118513Y-82610805D01*
X163795334Y-82488847D01*
X163302653Y-82829008D01*
X163053587Y-83077267D01*
X162585872Y-83592553D01*
X162467657Y-83856557D01*
X162666440Y-83992190D01*
X162801349Y-84031137D01*
X163092760Y-84185618D01*
X163265118Y-84538376D01*
X163357263Y-85214272D01*
X163394522Y-85938130D01*
X163487015Y-86979301D01*
X163659859Y-87780245D01*
X163826245Y-88127602D01*
X164134814Y-88674320D01*
X164326033Y-89363395D01*
X164379022Y-90018443D01*
X164272898Y-90463087D01*
X164113717Y-90555790D01*
X163777765Y-90771465D01*
X163729474Y-90973649D01*
X163932177Y-91290575D01*
X164331053Y-91307859D01*
X164701728Y-91309113D01*
X164878019Y-91537049D01*
X164930473Y-92122953D01*
X164932632Y-92427369D01*
X164932632Y-93630527D01*
X163595790Y-93666314D01*
X162791113Y-93664144D01*
X162328937Y-93530846D01*
X162017587Y-93159746D01*
X161851863Y-92828421D01*
X163194737Y-92828421D01*
X163427161Y-93150979D01*
X163863158Y-93229474D01*
X164400754Y-93090020D01*
X164531579Y-92828421D01*
X164299155Y-92505864D01*
X163863158Y-92427369D01*
X163325563Y-92566823D01*
X163194737Y-92828421D01*
X161851863Y-92828421D01*
X161759906Y-92644577D01*
X161532001Y-92104725D01*
X161410411Y-91590053D01*
X161397543Y-91224211D01*
X162392632Y-91224211D01*
X162606651Y-91578680D01*
X162793685Y-91625263D01*
X163148153Y-91411244D01*
X163194737Y-91224211D01*
X162980718Y-90869742D01*
X162793685Y-90823158D01*
X162439216Y-91037178D01*
X162392632Y-91224211D01*
X161397543Y-91224211D01*
X161388115Y-90956198D01*
X161458090Y-90058800D01*
X161481330Y-89861026D01*
X162453868Y-89861026D01*
X162764571Y-90011152D01*
X163029869Y-90021053D01*
X163528426Y-89940505D01*
X163711342Y-89589014D01*
X163729474Y-89218948D01*
X163645441Y-88631832D01*
X163332773Y-88425117D01*
X163194737Y-88416842D01*
X162758127Y-88501137D01*
X162656349Y-88617369D01*
X162590365Y-89011630D01*
X162491482Y-89419474D01*
X162453868Y-89861026D01*
X161481330Y-89861026D01*
X161582591Y-88999316D01*
X161746091Y-87832972D01*
X161920025Y-86833335D01*
X162077877Y-86143407D01*
X162148475Y-85947312D01*
X162170215Y-85876842D01*
X162712123Y-85876842D01*
X162741023Y-86333461D01*
X162824722Y-86373662D01*
X162835377Y-86349826D01*
X162888268Y-85819050D01*
X162845284Y-85547720D01*
X162760176Y-85438687D01*
X162713887Y-85793814D01*
X162712123Y-85876842D01*
X162170215Y-85876842D01*
X162367577Y-85237122D01*
X162328462Y-84588651D01*
X162107475Y-84261638D01*
X161721755Y-84211869D01*
X161507922Y-84660098D01*
X161491903Y-84755897D01*
X161276374Y-85315355D01*
X161141787Y-85515659D01*
X160884806Y-86020137D01*
X160665030Y-86742535D01*
X160658590Y-86772094D01*
X160467011Y-87667345D01*
X159972059Y-86853463D01*
X159125638Y-85871483D01*
X158029762Y-85349330D01*
X157245790Y-85240166D01*
X156558949Y-85264363D01*
X156273082Y-85457745D01*
X156243158Y-85631445D01*
X156372867Y-85932253D01*
X156844249Y-85978261D01*
X157050338Y-85952750D01*
X157744945Y-85972768D01*
X158141119Y-86176000D01*
X158266253Y-86567384D01*
X158391864Y-87372154D01*
X158502594Y-88469192D01*
X158577275Y-89615280D01*
X158655893Y-90847497D01*
X158755121Y-91872692D01*
X158861879Y-92579341D01*
X158957020Y-92853253D01*
X159207642Y-93110449D01*
X158971688Y-93249705D01*
X158286272Y-93261221D01*
X157646842Y-93199282D01*
X156643853Y-93107074D01*
X155346119Y-93032829D01*
X153993609Y-92989430D01*
X153649602Y-92984667D01*
X152451734Y-92988709D01*
X151678588Y-93039244D01*
X151220917Y-93154075D01*
X150969478Y-93351008D01*
X150917206Y-93430000D01*
X150697076Y-93689125D01*
X150636552Y-93539700D01*
X150818085Y-93107676D01*
X151154792Y-92737594D01*
X151401580Y-92460809D01*
X151561877Y-92055569D01*
X151656313Y-91408355D01*
X151667431Y-91181795D01*
X152500000Y-91181795D01*
X152601356Y-91405116D01*
X152969846Y-91551202D01*
X153702100Y-91643933D01*
X154572106Y-91693895D01*
X155653423Y-91744905D01*
X156590497Y-91795237D01*
X157200189Y-91834963D01*
X157245790Y-91838826D01*
X157740995Y-91736779D01*
X157847369Y-91491579D01*
X157624465Y-91164964D01*
X157312632Y-91090527D01*
X156877145Y-90923349D01*
X156777895Y-90689474D01*
X156654194Y-90456071D01*
X156215931Y-90331057D01*
X155362365Y-90289115D01*
X155182076Y-90288421D01*
X154276135Y-90315599D01*
X153814990Y-90411904D01*
X153710768Y-90599499D01*
X153727066Y-90655364D01*
X153694978Y-90905129D01*
X153254007Y-90904328D01*
X153183937Y-90891563D01*
X152656139Y-90884980D01*
X152500011Y-91177683D01*
X152500000Y-91181795D01*
X151667431Y-91181795D01*
X151705521Y-90405649D01*
X151721416Y-89620000D01*
X152767369Y-89620000D01*
X152853436Y-89803143D01*
X153169186Y-89922282D01*
X153800942Y-89989750D01*
X154835024Y-90017879D01*
X155574737Y-90021053D01*
X156856736Y-90008758D01*
X157690712Y-89963650D01*
X158162987Y-89873400D01*
X158359885Y-89725674D01*
X158382106Y-89620000D01*
X158296038Y-89436858D01*
X157980288Y-89317718D01*
X157348532Y-89250250D01*
X156314450Y-89222122D01*
X155574737Y-89218948D01*
X154292739Y-89231243D01*
X153458763Y-89276350D01*
X152986487Y-89366601D01*
X152789589Y-89514327D01*
X152767369Y-89620000D01*
X151721416Y-89620000D01*
X151744751Y-88070004D01*
X152792656Y-88070004D01*
X152858992Y-88308906D01*
X153152681Y-88550527D01*
X153855545Y-88824516D01*
X155041210Y-88945748D01*
X155441053Y-88951579D01*
X156752012Y-88872633D01*
X157588628Y-88639446D01*
X157729425Y-88550527D01*
X158089449Y-88228944D01*
X158023114Y-87990042D01*
X157729425Y-87748421D01*
X157026561Y-87474431D01*
X155840896Y-87353200D01*
X155441053Y-87347369D01*
X154130094Y-87426315D01*
X153293478Y-87659502D01*
X153152681Y-87748421D01*
X152792656Y-88070004D01*
X151744751Y-88070004D01*
X151761669Y-86946316D01*
X151093351Y-87018263D01*
X150707224Y-87009619D01*
X150451339Y-86803065D01*
X150243393Y-86282265D01*
X150052997Y-85547737D01*
X149753790Y-84566233D01*
X149457738Y-84112470D01*
X149320298Y-84082868D01*
X148872683Y-84047634D01*
X148128763Y-83871921D01*
X147645137Y-83723868D01*
X146823676Y-83498939D01*
X146177359Y-83406609D01*
X145963631Y-83428097D01*
X145675446Y-83767100D01*
X145362931Y-84480714D01*
X145073045Y-85413587D01*
X144852746Y-86410368D01*
X144748991Y-87315704D01*
X144746316Y-87455361D01*
X144680409Y-88077909D01*
X144404834Y-88396398D01*
X143802808Y-88482911D01*
X143142106Y-88445564D01*
X143098750Y-88541096D01*
X143442257Y-88822921D01*
X143743061Y-89015464D01*
X144435890Y-89546011D01*
X144602076Y-89983914D01*
X144590335Y-90021053D01*
X144465388Y-90491172D01*
X144301788Y-91293717D01*
X144174393Y-92019549D01*
X143989743Y-93019861D01*
X143835764Y-93609433D01*
X143727042Y-93751103D01*
X143678162Y-93407705D01*
X143676842Y-93287321D01*
X143473354Y-92702498D01*
X143208948Y-92448785D01*
X142918802Y-92243101D01*
X143108406Y-92175038D01*
X143342632Y-92168131D01*
X143827942Y-92008943D01*
X143944211Y-91758948D01*
X143711787Y-91436390D01*
X143275790Y-91357895D01*
X142728352Y-91505070D01*
X142607369Y-91793720D01*
X142514103Y-92056599D01*
X142149625Y-92145452D01*
X141404211Y-92093931D01*
X140624739Y-92049088D01*
X140261707Y-92157864D01*
X140201053Y-92326527D01*
X140437617Y-92614102D01*
X140936316Y-92713529D01*
X141411897Y-92746024D01*
X141395100Y-92840826D01*
X141136842Y-92962106D01*
X140587583Y-93165845D01*
X140237003Y-93155392D01*
X140040755Y-92853431D01*
X139954490Y-92182649D01*
X139942254Y-91520185D01*
X140735790Y-91520185D01*
X140895244Y-91822158D01*
X141158710Y-91787553D01*
X141761009Y-91640521D01*
X141960815Y-91625263D01*
X142289774Y-91408642D01*
X142340000Y-91195605D01*
X142180546Y-90893632D01*
X141917080Y-90928237D01*
X141314781Y-91075269D01*
X141114975Y-91090527D01*
X140786016Y-91307148D01*
X140735790Y-91520185D01*
X139942254Y-91520185D01*
X139933860Y-91065732D01*
X139933685Y-90864597D01*
X139941427Y-90314981D01*
X141366491Y-90314981D01*
X141483576Y-90650857D01*
X141822274Y-90633638D01*
X141962751Y-90536035D01*
X142282501Y-90098526D01*
X143229602Y-90098526D01*
X143424613Y-90471212D01*
X143676842Y-90555790D01*
X144019753Y-90361029D01*
X144092293Y-90265125D01*
X144123527Y-89857368D01*
X143840645Y-89583800D01*
X143452639Y-89616833D01*
X143379297Y-89676914D01*
X143229602Y-90098526D01*
X142282501Y-90098526D01*
X142288589Y-90090197D01*
X142340000Y-89870410D01*
X142188287Y-89429575D01*
X141849634Y-89408505D01*
X141538946Y-89751722D01*
X141366491Y-90314981D01*
X139941427Y-90314981D01*
X139950306Y-89684745D01*
X140015909Y-88913253D01*
X140154103Y-88424347D01*
X140285205Y-88238597D01*
X142161755Y-88238597D01*
X142198456Y-88397547D01*
X142340000Y-88416842D01*
X142560075Y-88319016D01*
X142518246Y-88238597D01*
X142200942Y-88206598D01*
X142161755Y-88238597D01*
X140285205Y-88238597D01*
X140388495Y-88092253D01*
X140468421Y-88015790D01*
X140869676Y-87540589D01*
X141003158Y-87202996D01*
X141024892Y-87162896D01*
X141805263Y-87162896D01*
X142057106Y-87580595D01*
X142811124Y-87819629D01*
X143075263Y-87851090D01*
X143238828Y-87748421D01*
X143944211Y-87748421D01*
X144088582Y-88104227D01*
X144211579Y-88149474D01*
X144448783Y-87932917D01*
X144478948Y-87748421D01*
X144334576Y-87392616D01*
X144211579Y-87347369D01*
X143974376Y-87563926D01*
X143944211Y-87748421D01*
X143238828Y-87748421D01*
X143369873Y-87666165D01*
X143409474Y-87481053D01*
X143300547Y-87122589D01*
X143208948Y-87076349D01*
X142814687Y-87010365D01*
X142406842Y-86911482D01*
X141929949Y-86888225D01*
X141805263Y-87162896D01*
X141024892Y-87162896D01*
X141206370Y-86828068D01*
X141630529Y-86463063D01*
X142164091Y-85838739D01*
X142299810Y-85508777D01*
X143159244Y-85508777D01*
X143243140Y-85737245D01*
X143627738Y-85941355D01*
X143990765Y-85709555D01*
X144374133Y-85003711D01*
X144556712Y-84542159D01*
X144829257Y-83653085D01*
X144816584Y-83118443D01*
X144501210Y-82829782D01*
X144268518Y-82754361D01*
X143984983Y-82927492D01*
X143674030Y-83458976D01*
X143393917Y-84179335D01*
X143202903Y-84919094D01*
X143159244Y-85508777D01*
X142299810Y-85508777D01*
X142631927Y-84701335D01*
X142726632Y-84381444D01*
X143195365Y-82710895D01*
X142599368Y-82261333D01*
X142264422Y-81979813D01*
X142138181Y-81692901D01*
X142207933Y-81233393D01*
X142460541Y-80435360D01*
X142734985Y-79674815D01*
X142957227Y-79174938D01*
X143047926Y-79058948D01*
X143076253Y-79272921D01*
X142978364Y-79660527D01*
X142800987Y-80405349D01*
X142718830Y-81008651D01*
X142753115Y-81493665D01*
X142939055Y-81535952D01*
X143227426Y-81188355D01*
X143569006Y-80503718D01*
X143823114Y-79823155D01*
X144087617Y-79099852D01*
X144295267Y-78662490D01*
X144373196Y-78596705D01*
X144349318Y-78884754D01*
X144180167Y-79527860D01*
X143941929Y-80268736D01*
X143690371Y-81115209D01*
X143574399Y-81752416D01*
X143607027Y-82015967D01*
X143935169Y-82173936D01*
X144650489Y-82449236D01*
X145630867Y-82796219D01*
X146270382Y-83011523D01*
X147531478Y-83404729D01*
X148383918Y-83586087D01*
X148916136Y-83540835D01*
X149216567Y-83254212D01*
X149373647Y-82711457D01*
X149407188Y-82487939D01*
X149550647Y-81883457D01*
X149799753Y-81190071D01*
X150088982Y-80549686D01*
X150352809Y-80104207D01*
X150525710Y-79995538D01*
X150543634Y-80026769D01*
X150525523Y-80442760D01*
X150356660Y-81146189D01*
X150243984Y-81497295D01*
X150023994Y-82298928D01*
X149972849Y-83085992D01*
X150081549Y-84093323D01*
X150132514Y-84406316D01*
X150351928Y-85561677D01*
X150582824Y-86256412D01*
X150900106Y-86560859D01*
X151378681Y-86545354D01*
X152093452Y-86280234D01*
X152117279Y-86270037D01*
X152836917Y-85987454D01*
X153193624Y-85937160D01*
X153300600Y-86108040D01*
X153302106Y-86153712D01*
X153526262Y-86423152D01*
X154064565Y-86550936D01*
X154715761Y-86537920D01*
X155278601Y-86384960D01*
X155537740Y-86144211D01*
X155524987Y-85884459D01*
X155158148Y-85759933D01*
X154563714Y-85729381D01*
X153435790Y-85715604D01*
X154371579Y-85354632D01*
X155128347Y-85070326D01*
X155736061Y-84854498D01*
X155784869Y-84838378D01*
X155992656Y-84698862D01*
X155917700Y-84439461D01*
X155512532Y-83973688D01*
X155073357Y-83542074D01*
X154856142Y-83273823D01*
X156376117Y-83273823D01*
X156696227Y-83574498D01*
X157416730Y-83834717D01*
X158021915Y-83784060D01*
X158255660Y-83592499D01*
X158254698Y-83172515D01*
X157914334Y-82759920D01*
X157399528Y-82539745D01*
X157312632Y-82534737D01*
X156744431Y-82727562D01*
X156528439Y-82914207D01*
X156376117Y-83273823D01*
X154856142Y-83273823D01*
X154091498Y-82329525D01*
X153628569Y-81052082D01*
X153628779Y-81044860D01*
X154467379Y-81044860D01*
X154678322Y-81767713D01*
X154759883Y-81952497D01*
X155068146Y-82554062D01*
X155275661Y-82730178D01*
X155501104Y-82543037D01*
X155610010Y-82398030D01*
X155885726Y-81781424D01*
X155919038Y-81364160D01*
X155648443Y-80838486D01*
X155243812Y-80462842D01*
X154792000Y-80214525D01*
X154568162Y-80311916D01*
X154470618Y-80523346D01*
X154467379Y-81044860D01*
X153628779Y-81044860D01*
X153658637Y-80018420D01*
X155516439Y-80018420D01*
X155815484Y-80366373D01*
X156178856Y-81081834D01*
X156187293Y-81548870D01*
X156156791Y-81961245D01*
X156371548Y-82123339D01*
X156966183Y-82121563D01*
X157068472Y-82114512D01*
X157866902Y-82159257D01*
X158502447Y-82362805D01*
X158560224Y-82400482D01*
X159122106Y-82584244D01*
X159541545Y-82305775D01*
X159718252Y-81635917D01*
X159718948Y-81581989D01*
X159597936Y-80965510D01*
X159286969Y-80815613D01*
X158864150Y-81164789D01*
X158829985Y-81212177D01*
X158490756Y-81508129D01*
X158283927Y-81387401D01*
X158285522Y-80965068D01*
X158425619Y-80600096D01*
X158490777Y-80241860D01*
X158179118Y-79955364D01*
X157787911Y-79774593D01*
X157188662Y-79562600D01*
X156911292Y-79597922D01*
X156820712Y-79793768D01*
X156565239Y-80048067D01*
X156025867Y-79997644D01*
X155541862Y-79895877D01*
X155516439Y-80018420D01*
X153658637Y-80018420D01*
X153669021Y-79661463D01*
X153732687Y-79379065D01*
X154115536Y-78498879D01*
X154674848Y-78058455D01*
X155312068Y-78087965D01*
X155633659Y-78253979D01*
X155531256Y-78458709D01*
X155281567Y-78656749D01*
X154981278Y-78918587D01*
X155084539Y-79025748D01*
X155641579Y-79050444D01*
X156308989Y-78968991D01*
X156479336Y-78695755D01*
X156160699Y-78214392D01*
X156090376Y-78142256D01*
X155813300Y-77822006D01*
X155938425Y-77726777D01*
X156103654Y-77722106D01*
X156802776Y-77891526D01*
X157696754Y-78332126D01*
X158596962Y-78942408D01*
X158980355Y-79269988D01*
X159662886Y-80246103D01*
X159942640Y-81414289D01*
X159820381Y-82615763D01*
X159296872Y-83691741D01*
X158957271Y-84068274D01*
X158255982Y-84718207D01*
X159185828Y-85477110D01*
X159910194Y-85959876D01*
X160369184Y-86017933D01*
X160412907Y-85989332D01*
X160650789Y-85545905D01*
X160862901Y-84725439D01*
X161028388Y-83685607D01*
X161126393Y-82584085D01*
X161136060Y-81578547D01*
X161074219Y-80989700D01*
X160619366Y-79708382D01*
X159772640Y-78763301D01*
X159127825Y-78361368D01*
X158454530Y-77732851D01*
X158114737Y-76920000D01*
X157780825Y-76119255D01*
X157229468Y-75577666D01*
X156373255Y-75252707D01*
X155124774Y-75101853D01*
X154329453Y-75078459D01*
X153117419Y-75104819D01*
X152357299Y-75221828D01*
X151974686Y-75438120D01*
X151528888Y-75692094D01*
X151279548Y-75673209D01*
X150905153Y-75744782D01*
X150684931Y-76128961D01*
X150735491Y-76604936D01*
X150762216Y-76652811D01*
X151077913Y-76791991D01*
X151253803Y-76690360D01*
X151769129Y-76601089D01*
X152366316Y-76789346D01*
X153168421Y-77143938D01*
X152165790Y-77165653D01*
X151508920Y-77215938D01*
X151227871Y-77425528D01*
X151163881Y-77940856D01*
X151163158Y-78090420D01*
X151050813Y-78808897D01*
X150778768Y-79311712D01*
X150762106Y-79326316D01*
X150540184Y-79446162D01*
X150418552Y-79277905D01*
X150368633Y-78730953D01*
X150361053Y-78054950D01*
X150304514Y-77051132D01*
X150150227Y-76376591D01*
X150026842Y-76188255D01*
X149291019Y-75863499D01*
X148296487Y-75729655D01*
X147294078Y-75815421D01*
X147130525Y-75856867D01*
X146349356Y-76214155D01*
X145585478Y-76771948D01*
X144993337Y-77394390D01*
X144727380Y-77945625D01*
X144725208Y-77972654D01*
X144659414Y-78201802D01*
X144569243Y-78056316D01*
X144244624Y-77742748D01*
X143832017Y-77839648D01*
X143536763Y-78276991D01*
X143353240Y-78665340D01*
X143239918Y-78711146D01*
X143266250Y-78417902D01*
X143481337Y-77838319D01*
X143567276Y-77650761D01*
X144184370Y-76821290D01*
X145093235Y-76116079D01*
X146091372Y-75670171D01*
X146667667Y-75583158D01*
X147300808Y-75461050D01*
X147625314Y-75270898D01*
X147987427Y-75098077D01*
X148595254Y-75165678D01*
X148979807Y-75270898D01*
X149866308Y-75510334D01*
X150359711Y-75503698D01*
X150575043Y-75171501D01*
X150627331Y-74434258D01*
X150628421Y-74131669D01*
X150643868Y-73805929D01*
X151191099Y-73805929D01*
X151200320Y-74525766D01*
X151288740Y-74990034D01*
X151506744Y-75287556D01*
X151712501Y-75143970D01*
X151865685Y-74652164D01*
X151925972Y-73905029D01*
X151914594Y-73548354D01*
X151817613Y-72795226D01*
X151662208Y-72322750D01*
X151564211Y-72241053D01*
X151391732Y-72477089D01*
X151261132Y-73060876D01*
X151191099Y-73805929D01*
X150643868Y-73805929D01*
X150672072Y-73211178D01*
X150864733Y-72575088D01*
X151298972Y-71976049D01*
X151528939Y-71725353D01*
X152219496Y-71125992D01*
X152853741Y-70798848D01*
X153035522Y-70770527D01*
X153421527Y-70789904D01*
G36*
X164531579Y-84147339D02*
X164314894Y-84377141D01*
X164130527Y-84406316D01*
X163773801Y-84349112D01*
X163729474Y-84301237D01*
X163938544Y-84128837D01*
X164130527Y-84042260D01*
X164474805Y-84036703D01*
X164531579Y-84147339D01*
X164531579Y-84147339D01*
G37*
X164531579Y-84147339D02*
X164314894Y-84377141D01*
X164130527Y-84406316D01*
X163773801Y-84349112D01*
X163729474Y-84301237D01*
X163938544Y-84128837D01*
X164130527Y-84042260D01*
X164474805Y-84036703D01*
X164531579Y-84147339D01*
G36*
X152221751Y-82194086D02*
X152232632Y-82267369D01*
X152141410Y-82527786D01*
X152114727Y-82534737D01*
X151886456Y-82347382D01*
X151831579Y-82267369D01*
X151852778Y-82020993D01*
X151949484Y-82000000D01*
X152221751Y-82194086D01*
X152221751Y-82194086D01*
G37*
X152221751Y-82194086D02*
X152232632Y-82267369D01*
X152141410Y-82527786D01*
X152114727Y-82534737D01*
X151886456Y-82347382D01*
X151831579Y-82267369D01*
X151852778Y-82020993D01*
X151949484Y-82000000D01*
X152221751Y-82194086D01*
G36*
X149021145Y-81137387D02*
X149024211Y-81197895D01*
X148818671Y-81454989D01*
X148741063Y-81465263D01*
X148581381Y-81301463D01*
X148623158Y-81197895D01*
X148863417Y-80942830D01*
X148906306Y-80930527D01*
X149021145Y-81137387D01*
X149021145Y-81137387D01*
G37*
X149021145Y-81137387D02*
X149024211Y-81197895D01*
X148818671Y-81454989D01*
X148741063Y-81465263D01*
X148581381Y-81301463D01*
X148623158Y-81197895D01*
X148863417Y-80942830D01*
X148906306Y-80930527D01*
X149021145Y-81137387D01*
G36*
X147684303Y-76859493D02*
X147687369Y-76920000D01*
X147481829Y-77177094D01*
X147404221Y-77187369D01*
X147244539Y-77023569D01*
X147286316Y-76920000D01*
X147526575Y-76664935D01*
X147569464Y-76652632D01*
X147684303Y-76859493D01*
X147684303Y-76859493D01*
G37*
X147684303Y-76859493D02*
X147687369Y-76920000D01*
X147481829Y-77177094D01*
X147404221Y-77187369D01*
X147244539Y-77023569D01*
X147286316Y-76920000D01*
X147526575Y-76664935D01*
X147569464Y-76652632D01*
X147684303Y-76859493D01*
G36*
X155089801Y-75755864D02*
X155040000Y-75850527D01*
X154788082Y-76105864D01*
X154741073Y-76117895D01*
X154722831Y-75945189D01*
X154772632Y-75850527D01*
X155024550Y-75595189D01*
X155071559Y-75583158D01*
X155089801Y-75755864D01*
X155089801Y-75755864D01*
G37*
X155089801Y-75755864D02*
X155040000Y-75850527D01*
X154788082Y-76105864D01*
X154741073Y-76117895D01*
X154722831Y-75945189D01*
X154772632Y-75850527D01*
X155024550Y-75595189D01*
X155071559Y-75583158D01*
X155089801Y-75755864D01*
G36*
X154780818Y-70959786D02*
X155435774Y-71411770D01*
X156151045Y-72020277D01*
X156789776Y-72662157D01*
X157215114Y-73214260D01*
X157312632Y-73477684D01*
X157205243Y-73706426D01*
X156980767Y-73525846D01*
X156874583Y-73310527D01*
X156565970Y-72955706D01*
X156398518Y-72909474D01*
X156042756Y-72711639D01*
X155572808Y-72222745D01*
X155471548Y-72091434D01*
X154913898Y-71481098D01*
X154347455Y-71067088D01*
X154284952Y-71038908D01*
X153703158Y-70804422D01*
X154323032Y-70787474D01*
X154780818Y-70959786D01*
X154780818Y-70959786D01*
G37*
X154780818Y-70959786D02*
X155435774Y-71411770D01*
X156151045Y-72020277D01*
X156789776Y-72662157D01*
X157215114Y-73214260D01*
X157312632Y-73477684D01*
X157205243Y-73706426D01*
X156980767Y-73525846D01*
X156874583Y-73310527D01*
X156565970Y-72955706D01*
X156398518Y-72909474D01*
X156042756Y-72711639D01*
X155572808Y-72222745D01*
X155471548Y-72091434D01*
X154913898Y-71481098D01*
X154347455Y-71067088D01*
X154284952Y-71038908D01*
X153703158Y-70804422D01*
X154323032Y-70787474D01*
X154780818Y-70959786D01*
G36*
X154852842Y-72428211D02*
X155151158Y-72931135D01*
X155050395Y-73320705D01*
X154683509Y-73444211D01*
X154175128Y-73356921D01*
X154015088Y-73265965D01*
X153861964Y-72872795D01*
X153836842Y-72597544D01*
X154012221Y-72186178D01*
X154432506Y-72151965D01*
X154852842Y-72428211D01*
X154852842Y-72428211D01*
G37*
X154852842Y-72428211D02*
X155151158Y-72931135D01*
X155050395Y-73320705D01*
X154683509Y-73444211D01*
X154175128Y-73356921D01*
X154015088Y-73265965D01*
X153861964Y-72872795D01*
X153836842Y-72597544D01*
X154012221Y-72186178D01*
X154432506Y-72151965D01*
X154852842Y-72428211D01*
G36*
X156147680Y-87945169D02*
X156597727Y-88101515D01*
X156644211Y-88149474D01*
X156511008Y-88313767D01*
X155913607Y-88404079D01*
X155441053Y-88416842D01*
X154628544Y-88370977D01*
X154245201Y-88243346D01*
X154237895Y-88149474D01*
X154589001Y-87977486D01*
X155252195Y-87886444D01*
X155441053Y-87882106D01*
X156147680Y-87945169D01*
X156147680Y-87945169D01*
G37*
X156147680Y-87945169D02*
X156597727Y-88101515D01*
X156644211Y-88149474D01*
X156511008Y-88313767D01*
X155913607Y-88404079D01*
X155441053Y-88416842D01*
X154628544Y-88370977D01*
X154245201Y-88243346D01*
X154237895Y-88149474D01*
X154589001Y-87977486D01*
X155252195Y-87886444D01*
X155441053Y-87882106D01*
X156147680Y-87945169D01*
D20*
X153952000Y-67548000D02*
X153952000Y-61452000D01*
X153952000Y-61452000D02*
X160048000Y-61452000D01*
X160048000Y-61452000D02*
X160048000Y-67548000D01*
X160048000Y-67548000D02*
X153952000Y-67548000D01*
D21*
X157803219Y-64500000D02*
G75*
G03X157803219Y-64500000I-803219J0D01*
G01*
D12*
X31261905Y-23953281D02*
X31261905Y-22953281D01*
X31500000Y-22953281D01*
X31642858Y-23000900D01*
X31738096Y-23096138D01*
X31785715Y-23191376D01*
X31833334Y-23381852D01*
X31833334Y-23524710D01*
X31785715Y-23715186D01*
X31738096Y-23810424D01*
X31642858Y-23905662D01*
X31500000Y-23953281D01*
X31261905Y-23953281D01*
X32833334Y-23953281D02*
X32500000Y-23477090D01*
X32261905Y-23953281D02*
X32261905Y-22953281D01*
X32642858Y-22953281D01*
X32738096Y-23000900D01*
X32785715Y-23048519D01*
X32833334Y-23143757D01*
X32833334Y-23286614D01*
X32785715Y-23381852D01*
X32738096Y-23429471D01*
X32642858Y-23477090D01*
X32261905Y-23477090D01*
X33785715Y-23953281D02*
X33214286Y-23953281D01*
X33500000Y-23953281D02*
X33500000Y-22953281D01*
X33404762Y-23096138D01*
X33309524Y-23191376D01*
X33214286Y-23238995D01*
X30761905Y-86953281D02*
X30761905Y-85953281D01*
X31000000Y-85953281D01*
X31142858Y-86000900D01*
X31238096Y-86096138D01*
X31285715Y-86191376D01*
X31333334Y-86381852D01*
X31333334Y-86524710D01*
X31285715Y-86715186D01*
X31238096Y-86810424D01*
X31142858Y-86905662D01*
X31000000Y-86953281D01*
X30761905Y-86953281D01*
X32333334Y-86953281D02*
X32000000Y-86477090D01*
X31761905Y-86953281D02*
X31761905Y-85953281D01*
X32142858Y-85953281D01*
X32238096Y-86000900D01*
X32285715Y-86048519D01*
X32333334Y-86143757D01*
X32333334Y-86286614D01*
X32285715Y-86381852D01*
X32238096Y-86429471D01*
X32142858Y-86477090D01*
X31761905Y-86477090D01*
X32714286Y-86048519D02*
X32761905Y-86000900D01*
X32857143Y-85953281D01*
X33095239Y-85953281D01*
X33190477Y-86000900D01*
X33238096Y-86048519D01*
X33285715Y-86143757D01*
X33285715Y-86238995D01*
X33238096Y-86381852D01*
X32666667Y-86953281D01*
X33285715Y-86953281D01*
X205261905Y-22953281D02*
X205261905Y-21953281D01*
X205500000Y-21953281D01*
X205642858Y-22000900D01*
X205738096Y-22096138D01*
X205785715Y-22191376D01*
X205833334Y-22381852D01*
X205833334Y-22524710D01*
X205785715Y-22715186D01*
X205738096Y-22810424D01*
X205642858Y-22905662D01*
X205500000Y-22953281D01*
X205261905Y-22953281D01*
X206833334Y-22953281D02*
X206500000Y-22477090D01*
X206261905Y-22953281D02*
X206261905Y-21953281D01*
X206642858Y-21953281D01*
X206738096Y-22000900D01*
X206785715Y-22048519D01*
X206833334Y-22143757D01*
X206833334Y-22286614D01*
X206785715Y-22381852D01*
X206738096Y-22429471D01*
X206642858Y-22477090D01*
X206261905Y-22477090D01*
X207166667Y-21953281D02*
X207785715Y-21953281D01*
X207452381Y-22334233D01*
X207595239Y-22334233D01*
X207690477Y-22381852D01*
X207738096Y-22429471D01*
X207785715Y-22524710D01*
X207785715Y-22762805D01*
X207738096Y-22858043D01*
X207690477Y-22905662D01*
X207595239Y-22953281D01*
X207309524Y-22953281D01*
X207214286Y-22905662D01*
X207166667Y-22858043D01*
X205761905Y-85453281D02*
X205761905Y-84453281D01*
X206000000Y-84453281D01*
X206142858Y-84500900D01*
X206238096Y-84596138D01*
X206285715Y-84691376D01*
X206333334Y-84881852D01*
X206333334Y-85024710D01*
X206285715Y-85215186D01*
X206238096Y-85310424D01*
X206142858Y-85405662D01*
X206000000Y-85453281D01*
X205761905Y-85453281D01*
X207333334Y-85453281D02*
X207000000Y-84977090D01*
X206761905Y-85453281D02*
X206761905Y-84453281D01*
X207142858Y-84453281D01*
X207238096Y-84500900D01*
X207285715Y-84548519D01*
X207333334Y-84643757D01*
X207333334Y-84786614D01*
X207285715Y-84881852D01*
X207238096Y-84929471D01*
X207142858Y-84977090D01*
X206761905Y-84977090D01*
X208190477Y-84786614D02*
X208190477Y-85453281D01*
X207952381Y-84405662D02*
X207714286Y-85119948D01*
X208333334Y-85119948D01*
D22*
X101384215Y-90090229D02*
X101384215Y-88566229D01*
X102581644Y-89945086D02*
X102527215Y-90017657D01*
X102363929Y-90090229D01*
X102255072Y-90090229D01*
X102091787Y-90017657D01*
X101982929Y-89872514D01*
X101928501Y-89727371D01*
X101874072Y-89437086D01*
X101874072Y-89219371D01*
X101928501Y-88929086D01*
X101982929Y-88783943D01*
X102091787Y-88638800D01*
X102255072Y-88566229D01*
X102363929Y-88566229D01*
X102527215Y-88638800D01*
X102581644Y-88711371D01*
X103670215Y-90090229D02*
X103017072Y-90090229D01*
X103343644Y-90090229D02*
X103343644Y-88566229D01*
X103234787Y-88783943D01*
X103125929Y-88929086D01*
X103017072Y-89001657D01*
D23*
D22*
X99452001Y-77288629D02*
X99452001Y-75764629D01*
X99833001Y-76853200D01*
X100214001Y-75764629D01*
X100214001Y-77288629D01*
X100703858Y-76853200D02*
X101248144Y-76853200D01*
X100595001Y-77288629D02*
X100976001Y-75764629D01*
X101357001Y-77288629D01*
X101629144Y-75764629D02*
X102391144Y-77288629D01*
X102391144Y-75764629D02*
X101629144Y-77288629D01*
X103316429Y-76272629D02*
X103316429Y-77288629D01*
X103044286Y-75692057D02*
X102772143Y-76780629D01*
X103479715Y-76780629D01*
X104078429Y-76417771D02*
X103969571Y-76345200D01*
X103915143Y-76272629D01*
X103860714Y-76127486D01*
X103860714Y-76054914D01*
X103915143Y-75909771D01*
X103969571Y-75837200D01*
X104078429Y-75764629D01*
X104296143Y-75764629D01*
X104405000Y-75837200D01*
X104459429Y-75909771D01*
X104513857Y-76054914D01*
X104513857Y-76127486D01*
X104459429Y-76272629D01*
X104405000Y-76345200D01*
X104296143Y-76417771D01*
X104078429Y-76417771D01*
X103969571Y-76490343D01*
X103915143Y-76562914D01*
X103860714Y-76708057D01*
X103860714Y-76998343D01*
X103915143Y-77143486D01*
X103969571Y-77216057D01*
X104078429Y-77288629D01*
X104296143Y-77288629D01*
X104405000Y-77216057D01*
X104459429Y-77143486D01*
X104513857Y-76998343D01*
X104513857Y-76708057D01*
X104459429Y-76562914D01*
X104405000Y-76490343D01*
X104296143Y-76417771D01*
X104894857Y-75764629D02*
X105656857Y-75764629D01*
X105167000Y-77288629D01*
D23*
D24*
X45943619Y-84338667D02*
X46669333Y-84338667D01*
X46814476Y-84387047D01*
X46911238Y-84483809D01*
X46959619Y-84628952D01*
X46959619Y-84725714D01*
X46959619Y-83322667D02*
X46959619Y-83903238D01*
X46959619Y-83612952D02*
X45943619Y-83612952D01*
X46088762Y-83709714D01*
X46185524Y-83806476D01*
X46233905Y-83903238D01*
X64036169Y-89169333D02*
X64459503Y-89169333D01*
X63951503Y-89459619D02*
X64247836Y-88443619D01*
X64544169Y-89459619D01*
X64840503Y-89459619D02*
X64840503Y-88782286D01*
X64840503Y-88975810D02*
X64882836Y-88879048D01*
X64925169Y-88830667D01*
X65009836Y-88782286D01*
X65094503Y-88782286D01*
X65771836Y-89459619D02*
X65771836Y-88443619D01*
X65771836Y-89411238D02*
X65687169Y-89459619D01*
X65517836Y-89459619D01*
X65433169Y-89411238D01*
X65390836Y-89362857D01*
X65348502Y-89266095D01*
X65348502Y-88975810D01*
X65390836Y-88879048D01*
X65433169Y-88830667D01*
X65517836Y-88782286D01*
X65687169Y-88782286D01*
X65771836Y-88830667D01*
X66576169Y-88782286D02*
X66576169Y-89459619D01*
X66195169Y-88782286D02*
X66195169Y-89314476D01*
X66237502Y-89411238D01*
X66322169Y-89459619D01*
X66449169Y-89459619D01*
X66533835Y-89411238D01*
X66576169Y-89362857D01*
X66999502Y-89459619D02*
X66999502Y-88782286D01*
X66999502Y-88443619D02*
X66957168Y-88492000D01*
X66999502Y-88540381D01*
X67041835Y-88492000D01*
X66999502Y-88443619D01*
X66999502Y-88540381D01*
X67422835Y-88782286D02*
X67422835Y-89459619D01*
X67422835Y-88879048D02*
X67465168Y-88830667D01*
X67549835Y-88782286D01*
X67676835Y-88782286D01*
X67761501Y-88830667D01*
X67803835Y-88927429D01*
X67803835Y-89459619D01*
X68354168Y-89459619D02*
X68269501Y-89411238D01*
X68227168Y-89362857D01*
X68184834Y-89266095D01*
X68184834Y-88975810D01*
X68227168Y-88879048D01*
X68269501Y-88830667D01*
X68354168Y-88782286D01*
X68481168Y-88782286D01*
X68565834Y-88830667D01*
X68608168Y-88879048D01*
X68650501Y-88975810D01*
X68650501Y-89266095D01*
X68608168Y-89362857D01*
X68565834Y-89411238D01*
X68481168Y-89459619D01*
X68354168Y-89459619D01*
X68819834Y-89556381D02*
X69497167Y-89556381D01*
X69708834Y-89459619D02*
X69708834Y-88443619D01*
X70216834Y-89459619D01*
X70216834Y-88443619D01*
X71021167Y-89459619D02*
X71021167Y-88927429D01*
X70978833Y-88830667D01*
X70894167Y-88782286D01*
X70724833Y-88782286D01*
X70640167Y-88830667D01*
X71021167Y-89411238D02*
X70936500Y-89459619D01*
X70724833Y-89459619D01*
X70640167Y-89411238D01*
X70597833Y-89314476D01*
X70597833Y-89217714D01*
X70640167Y-89120952D01*
X70724833Y-89072571D01*
X70936500Y-89072571D01*
X71021167Y-89024190D01*
X71444500Y-88782286D02*
X71444500Y-89459619D01*
X71444500Y-88879048D02*
X71486833Y-88830667D01*
X71571500Y-88782286D01*
X71698500Y-88782286D01*
X71783166Y-88830667D01*
X71825500Y-88927429D01*
X71825500Y-89459619D01*
X72375833Y-89459619D02*
X72291166Y-89411238D01*
X72248833Y-89362857D01*
X72206499Y-89266095D01*
X72206499Y-88975810D01*
X72248833Y-88879048D01*
X72291166Y-88830667D01*
X72375833Y-88782286D01*
X72502833Y-88782286D01*
X72587499Y-88830667D01*
X72629833Y-88879048D01*
X72672166Y-88975810D01*
X72672166Y-89266095D01*
X72629833Y-89362857D01*
X72587499Y-89411238D01*
X72502833Y-89459619D01*
X72375833Y-89459619D01*
X72841499Y-89556381D02*
X73518832Y-89556381D01*
X73730499Y-89459619D02*
X73730499Y-88443619D01*
X73730499Y-88927429D02*
X74238499Y-88927429D01*
X74238499Y-89459619D02*
X74238499Y-88443619D01*
X75000498Y-89411238D02*
X74915832Y-89459619D01*
X74746498Y-89459619D01*
X74661832Y-89411238D01*
X74619498Y-89314476D01*
X74619498Y-88927429D01*
X74661832Y-88830667D01*
X74746498Y-88782286D01*
X74915832Y-88782286D01*
X75000498Y-88830667D01*
X75042832Y-88927429D01*
X75042832Y-89024190D01*
X74619498Y-89120952D01*
X75804832Y-89459619D02*
X75804832Y-88927429D01*
X75762498Y-88830667D01*
X75677832Y-88782286D01*
X75508498Y-88782286D01*
X75423832Y-88830667D01*
X75804832Y-89411238D02*
X75720165Y-89459619D01*
X75508498Y-89459619D01*
X75423832Y-89411238D01*
X75381498Y-89314476D01*
X75381498Y-89217714D01*
X75423832Y-89120952D01*
X75508498Y-89072571D01*
X75720165Y-89072571D01*
X75804832Y-89024190D01*
X76609165Y-89459619D02*
X76609165Y-88443619D01*
X76609165Y-89411238D02*
X76524498Y-89459619D01*
X76355165Y-89459619D01*
X76270498Y-89411238D01*
X76228165Y-89362857D01*
X76185831Y-89266095D01*
X76185831Y-88975810D01*
X76228165Y-88879048D01*
X76270498Y-88830667D01*
X76355165Y-88782286D01*
X76524498Y-88782286D01*
X76609165Y-88830667D01*
X77371164Y-89411238D02*
X77286498Y-89459619D01*
X77117164Y-89459619D01*
X77032498Y-89411238D01*
X76990164Y-89314476D01*
X76990164Y-88927429D01*
X77032498Y-88830667D01*
X77117164Y-88782286D01*
X77286498Y-88782286D01*
X77371164Y-88830667D01*
X77413498Y-88927429D01*
X77413498Y-89024190D01*
X76990164Y-89120952D01*
X77794498Y-89459619D02*
X77794498Y-88782286D01*
X77794498Y-88975810D02*
X77836831Y-88879048D01*
X77879164Y-88830667D01*
X77963831Y-88782286D01*
X78048498Y-88782286D01*
D12*
X154904762Y-35452381D02*
X154571428Y-34976190D01*
X154333333Y-35452381D02*
X154333333Y-34452381D01*
X154714286Y-34452381D01*
X154809524Y-34500000D01*
X154857143Y-34547619D01*
X154904762Y-34642857D01*
X154904762Y-34785714D01*
X154857143Y-34880952D01*
X154809524Y-34928571D01*
X154714286Y-34976190D01*
X154333333Y-34976190D01*
X155190476Y-34452381D02*
X155523809Y-35452381D01*
X155857143Y-34452381D01*
X156714286Y-35452381D02*
X156142857Y-35452381D01*
X156428571Y-35452381D02*
X156428571Y-34452381D01*
X156333333Y-34595238D01*
X156238095Y-34690476D01*
X156142857Y-34738095D01*
X189904762Y-34952381D02*
X189571428Y-34476190D01*
X189333333Y-34952381D02*
X189333333Y-33952381D01*
X189714286Y-33952381D01*
X189809524Y-34000000D01*
X189857143Y-34047619D01*
X189904762Y-34142857D01*
X189904762Y-34285714D01*
X189857143Y-34380952D01*
X189809524Y-34428571D01*
X189714286Y-34476190D01*
X189333333Y-34476190D01*
X190190476Y-33952381D02*
X190523809Y-34952381D01*
X190857143Y-33952381D01*
X191142857Y-34047619D02*
X191190476Y-34000000D01*
X191285714Y-33952381D01*
X191523810Y-33952381D01*
X191619048Y-34000000D01*
X191666667Y-34047619D01*
X191714286Y-34142857D01*
X191714286Y-34238095D01*
X191666667Y-34380952D01*
X191095238Y-34952381D01*
X191714286Y-34952381D01*
D20*
X47968000Y-60717197D02*
X48185714Y-60789769D01*
X48548571Y-60789769D01*
X48693714Y-60717197D01*
X48766285Y-60644626D01*
X48838857Y-60499483D01*
X48838857Y-60354340D01*
X48766285Y-60209197D01*
X48693714Y-60136626D01*
X48548571Y-60064054D01*
X48258285Y-59991483D01*
X48113143Y-59918911D01*
X48040571Y-59846340D01*
X47968000Y-59701197D01*
X47968000Y-59556054D01*
X48040571Y-59410911D01*
X48113143Y-59338340D01*
X48258285Y-59265769D01*
X48621143Y-59265769D01*
X48838857Y-59338340D01*
X49346857Y-59265769D02*
X49709714Y-60789769D01*
X50000000Y-59701197D01*
X50290286Y-60789769D01*
X50653143Y-59265769D01*
X52032000Y-60789769D02*
X51161143Y-60789769D01*
X51596571Y-60789769D02*
X51596571Y-59265769D01*
X51451428Y-59483483D01*
X51306286Y-59628626D01*
X51161143Y-59701197D01*
X39477143Y-70589089D02*
X39477143Y-69065089D01*
X39477143Y-69790803D02*
X40348000Y-69790803D01*
X40348000Y-70589089D02*
X40348000Y-69065089D01*
X41726857Y-70589089D02*
X41726857Y-69790803D01*
X41654286Y-69645660D01*
X41509143Y-69573089D01*
X41218857Y-69573089D01*
X41073714Y-69645660D01*
X41726857Y-70516517D02*
X41581714Y-70589089D01*
X41218857Y-70589089D01*
X41073714Y-70516517D01*
X41001143Y-70371374D01*
X41001143Y-70226231D01*
X41073714Y-70081089D01*
X41218857Y-70008517D01*
X41581714Y-70008517D01*
X41726857Y-69935946D01*
X43105714Y-70516517D02*
X42960571Y-70589089D01*
X42670285Y-70589089D01*
X42525143Y-70516517D01*
X42452571Y-70443946D01*
X42380000Y-70298803D01*
X42380000Y-69863374D01*
X42452571Y-69718231D01*
X42525143Y-69645660D01*
X42670285Y-69573089D01*
X42960571Y-69573089D01*
X43105714Y-69645660D01*
X43976571Y-70589089D02*
X43831429Y-70516517D01*
X43758857Y-70443946D01*
X43686286Y-70298803D01*
X43686286Y-69863374D01*
X43758857Y-69718231D01*
X43831429Y-69645660D01*
X43976571Y-69573089D01*
X44194286Y-69573089D01*
X44339429Y-69645660D01*
X44412000Y-69718231D01*
X44484571Y-69863374D01*
X44484571Y-70298803D01*
X44412000Y-70443946D01*
X44339429Y-70516517D01*
X44194286Y-70589089D01*
X43976571Y-70589089D01*
X45790857Y-70516517D02*
X45645714Y-70589089D01*
X45355428Y-70589089D01*
X45210286Y-70516517D01*
X45137714Y-70443946D01*
X45065143Y-70298803D01*
X45065143Y-69863374D01*
X45137714Y-69718231D01*
X45210286Y-69645660D01*
X45355428Y-69573089D01*
X45645714Y-69573089D01*
X45790857Y-69645660D01*
X47460000Y-69065089D02*
X48403429Y-69065089D01*
X47895429Y-69645660D01*
X48113143Y-69645660D01*
X48258286Y-69718231D01*
X48330857Y-69790803D01*
X48403429Y-69935946D01*
X48403429Y-70298803D01*
X48330857Y-70443946D01*
X48258286Y-70516517D01*
X48113143Y-70589089D01*
X47677715Y-70589089D01*
X47532572Y-70516517D01*
X47460000Y-70443946D01*
X50217715Y-70589089D02*
X50217715Y-69573089D01*
X50798287Y-69573089D01*
X51306286Y-69573089D02*
X51306286Y-71097089D01*
X51306286Y-69645660D02*
X51451429Y-69573089D01*
X51741715Y-69573089D01*
X51886858Y-69645660D01*
X51959429Y-69718231D01*
X52032000Y-69863374D01*
X52032000Y-70298803D01*
X51959429Y-70443946D01*
X51886858Y-70516517D01*
X51741715Y-70589089D01*
X51451429Y-70589089D01*
X51306286Y-70516517D01*
X52685143Y-70443946D02*
X52757715Y-70516517D01*
X52685143Y-70589089D01*
X52612572Y-70516517D01*
X52685143Y-70443946D01*
X52685143Y-70589089D01*
X55297714Y-68992517D02*
X55225143Y-69065089D01*
X55080000Y-69137660D01*
X54789714Y-69137660D01*
X54644572Y-69210231D01*
X54572000Y-69282803D01*
X54499429Y-69427946D01*
X54499429Y-70298803D01*
X54572000Y-70443946D01*
X54644572Y-70516517D01*
X54789714Y-70589089D01*
X55007429Y-70589089D01*
X55152572Y-70516517D01*
X55225143Y-70443946D01*
X55297714Y-70298803D01*
X55297714Y-69863374D01*
X55225143Y-69718231D01*
X55152572Y-69645660D01*
X55007429Y-69573089D01*
X54717143Y-69573089D01*
X54572000Y-69645660D01*
X54499429Y-69718231D01*
X56604000Y-70589089D02*
X56604000Y-69790803D01*
X56531429Y-69645660D01*
X56386286Y-69573089D01*
X56096000Y-69573089D01*
X55950857Y-69645660D01*
X56604000Y-70516517D02*
X56458857Y-70589089D01*
X56096000Y-70589089D01*
X55950857Y-70516517D01*
X55878286Y-70371374D01*
X55878286Y-70226231D01*
X55950857Y-70081089D01*
X56096000Y-70008517D01*
X56458857Y-70008517D01*
X56604000Y-69935946D01*
X57329714Y-69573089D02*
X57329714Y-70589089D01*
X57474857Y-70008517D02*
X57910286Y-70589089D01*
X57910286Y-69573089D02*
X57329714Y-70153660D01*
X58781142Y-70589089D02*
X58636000Y-70516517D01*
X58563428Y-70443946D01*
X58490857Y-70298803D01*
X58490857Y-69863374D01*
X58563428Y-69718231D01*
X58636000Y-69645660D01*
X58781142Y-69573089D01*
X58998857Y-69573089D01*
X59144000Y-69645660D01*
X59216571Y-69718231D01*
X59289142Y-69863374D01*
X59289142Y-70298803D01*
X59216571Y-70443946D01*
X59144000Y-70516517D01*
X58998857Y-70589089D01*
X58781142Y-70589089D01*
X60305142Y-70081089D02*
X60522857Y-70153660D01*
X60595428Y-70298803D01*
X60595428Y-70371374D01*
X60522857Y-70516517D01*
X60377714Y-70589089D01*
X59942285Y-70589089D01*
X59942285Y-69573089D01*
X60305142Y-69573089D01*
X60450285Y-69645660D01*
X60522857Y-69790803D01*
X60522857Y-69863374D01*
X60450285Y-70008517D01*
X60305142Y-70081089D01*
X59942285Y-70081089D01*
X47468000Y-41717197D02*
X47685714Y-41789769D01*
X48048571Y-41789769D01*
X48193714Y-41717197D01*
X48266285Y-41644626D01*
X48338857Y-41499483D01*
X48338857Y-41354340D01*
X48266285Y-41209197D01*
X48193714Y-41136626D01*
X48048571Y-41064054D01*
X47758285Y-40991483D01*
X47613143Y-40918911D01*
X47540571Y-40846340D01*
X47468000Y-40701197D01*
X47468000Y-40556054D01*
X47540571Y-40410911D01*
X47613143Y-40338340D01*
X47758285Y-40265769D01*
X48121143Y-40265769D01*
X48338857Y-40338340D01*
X48846857Y-40265769D02*
X49209714Y-41789769D01*
X49500000Y-40701197D01*
X49790286Y-41789769D01*
X50153143Y-40265769D01*
X50661143Y-40410911D02*
X50733714Y-40338340D01*
X50878857Y-40265769D01*
X51241714Y-40265769D01*
X51386857Y-40338340D01*
X51459428Y-40410911D01*
X51532000Y-40556054D01*
X51532000Y-40701197D01*
X51459428Y-40918911D01*
X50588571Y-41789769D01*
X51532000Y-41789769D01*
X41444572Y-51589089D02*
X41444572Y-50065089D01*
X42025144Y-50065089D01*
X42170286Y-50137660D01*
X42242858Y-50210231D01*
X42315429Y-50355374D01*
X42315429Y-50573089D01*
X42242858Y-50718231D01*
X42170286Y-50790803D01*
X42025144Y-50863374D01*
X41444572Y-50863374D01*
X43621715Y-51589089D02*
X43621715Y-50790803D01*
X43549144Y-50645660D01*
X43404001Y-50573089D01*
X43113715Y-50573089D01*
X42968572Y-50645660D01*
X43621715Y-51516517D02*
X43476572Y-51589089D01*
X43113715Y-51589089D01*
X42968572Y-51516517D01*
X42896001Y-51371374D01*
X42896001Y-51226231D01*
X42968572Y-51081089D01*
X43113715Y-51008517D01*
X43476572Y-51008517D01*
X43621715Y-50935946D01*
X45000572Y-51516517D02*
X44855429Y-51589089D01*
X44565143Y-51589089D01*
X44420001Y-51516517D01*
X44347429Y-51443946D01*
X44274858Y-51298803D01*
X44274858Y-50863374D01*
X44347429Y-50718231D01*
X44420001Y-50645660D01*
X44565143Y-50573089D01*
X44855429Y-50573089D01*
X45000572Y-50645660D01*
X45508572Y-51589089D02*
X46306858Y-50573089D01*
X45508572Y-50573089D02*
X46306858Y-51589089D01*
X47105143Y-51589089D02*
X46960001Y-51516517D01*
X46887429Y-51443946D01*
X46814858Y-51298803D01*
X46814858Y-50863374D01*
X46887429Y-50718231D01*
X46960001Y-50645660D01*
X47105143Y-50573089D01*
X47322858Y-50573089D01*
X47468001Y-50645660D01*
X47540572Y-50718231D01*
X47613143Y-50863374D01*
X47613143Y-51298803D01*
X47540572Y-51443946D01*
X47468001Y-51516517D01*
X47322858Y-51589089D01*
X47105143Y-51589089D01*
X48992000Y-50718231D02*
X48919429Y-50645660D01*
X48774286Y-50573089D01*
X48484000Y-50573089D01*
X48338858Y-50645660D01*
X48266286Y-50718231D01*
X48193715Y-50863374D01*
X48193715Y-51298803D01*
X48266286Y-51443946D01*
X48338858Y-51516517D01*
X48484000Y-51589089D01*
X48701715Y-51589089D01*
X48846858Y-51516517D01*
X48919429Y-51443946D01*
X48992000Y-51298803D01*
X48992000Y-50355374D01*
X48919429Y-50210231D01*
X48846858Y-50137660D01*
X48701715Y-50065089D01*
X48411429Y-50065089D01*
X48266286Y-50137660D01*
X49645143Y-51443946D02*
X49717715Y-51516517D01*
X49645143Y-51589089D01*
X49572572Y-51516517D01*
X49645143Y-51443946D01*
X49645143Y-51589089D01*
X51532000Y-51081089D02*
X52185143Y-51081089D01*
X51532000Y-50573089D02*
X51532000Y-51589089D01*
X52185143Y-50573089D02*
X52185143Y-51589089D01*
X53564000Y-51589089D02*
X53564000Y-50790803D01*
X53491429Y-50645660D01*
X53346286Y-50573089D01*
X53056000Y-50573089D01*
X52910857Y-50645660D01*
X53564000Y-51516517D02*
X53418857Y-51589089D01*
X53056000Y-51589089D01*
X52910857Y-51516517D01*
X52838286Y-51371374D01*
X52838286Y-51226231D01*
X52910857Y-51081089D01*
X53056000Y-51008517D01*
X53418857Y-51008517D01*
X53564000Y-50935946D01*
X54942857Y-51516517D02*
X54797714Y-51589089D01*
X54507428Y-51589089D01*
X54362286Y-51516517D01*
X54289714Y-51443946D01*
X54217143Y-51298803D01*
X54217143Y-50863374D01*
X54289714Y-50718231D01*
X54362286Y-50645660D01*
X54507428Y-50573089D01*
X54797714Y-50573089D01*
X54942857Y-50645660D01*
X55813714Y-51589089D02*
X55668572Y-51516517D01*
X55596000Y-51443946D01*
X55523429Y-51298803D01*
X55523429Y-50863374D01*
X55596000Y-50718231D01*
X55668572Y-50645660D01*
X55813714Y-50573089D01*
X56031429Y-50573089D01*
X56176572Y-50645660D01*
X56249143Y-50718231D01*
X56321714Y-50863374D01*
X56321714Y-51298803D01*
X56249143Y-51443946D01*
X56176572Y-51516517D01*
X56031429Y-51589089D01*
X55813714Y-51589089D01*
X57628000Y-51516517D02*
X57482857Y-51589089D01*
X57192571Y-51589089D01*
X57047429Y-51516517D01*
X56974857Y-51443946D01*
X56902286Y-51298803D01*
X56902286Y-50863374D01*
X56974857Y-50718231D01*
X57047429Y-50645660D01*
X57192571Y-50573089D01*
X57482857Y-50573089D01*
X57628000Y-50645660D01*
X47468000Y-24217197D02*
X47685714Y-24289769D01*
X48048571Y-24289769D01*
X48193714Y-24217197D01*
X48266285Y-24144626D01*
X48338857Y-23999483D01*
X48338857Y-23854340D01*
X48266285Y-23709197D01*
X48193714Y-23636626D01*
X48048571Y-23564054D01*
X47758285Y-23491483D01*
X47613143Y-23418911D01*
X47540571Y-23346340D01*
X47468000Y-23201197D01*
X47468000Y-23056054D01*
X47540571Y-22910911D01*
X47613143Y-22838340D01*
X47758285Y-22765769D01*
X48121143Y-22765769D01*
X48338857Y-22838340D01*
X48846857Y-22765769D02*
X49209714Y-24289769D01*
X49500000Y-23201197D01*
X49790286Y-24289769D01*
X50153143Y-22765769D01*
X50588571Y-22765769D02*
X51532000Y-22765769D01*
X51024000Y-23346340D01*
X51241714Y-23346340D01*
X51386857Y-23418911D01*
X51459428Y-23491483D01*
X51532000Y-23636626D01*
X51532000Y-23999483D01*
X51459428Y-24144626D01*
X51386857Y-24217197D01*
X51241714Y-24289769D01*
X50806286Y-24289769D01*
X50661143Y-24217197D01*
X50588571Y-24144626D01*
X38977143Y-34089089D02*
X38977143Y-32565089D01*
X38977143Y-33290803D02*
X39848000Y-33290803D01*
X39848000Y-34089089D02*
X39848000Y-32565089D01*
X41226857Y-34089089D02*
X41226857Y-33290803D01*
X41154286Y-33145660D01*
X41009143Y-33073089D01*
X40718857Y-33073089D01*
X40573714Y-33145660D01*
X41226857Y-34016517D02*
X41081714Y-34089089D01*
X40718857Y-34089089D01*
X40573714Y-34016517D01*
X40501143Y-33871374D01*
X40501143Y-33726231D01*
X40573714Y-33581089D01*
X40718857Y-33508517D01*
X41081714Y-33508517D01*
X41226857Y-33435946D01*
X42605714Y-34016517D02*
X42460571Y-34089089D01*
X42170285Y-34089089D01*
X42025143Y-34016517D01*
X41952571Y-33943946D01*
X41880000Y-33798803D01*
X41880000Y-33363374D01*
X41952571Y-33218231D01*
X42025143Y-33145660D01*
X42170285Y-33073089D01*
X42460571Y-33073089D01*
X42605714Y-33145660D01*
X43476571Y-34089089D02*
X43331429Y-34016517D01*
X43258857Y-33943946D01*
X43186286Y-33798803D01*
X43186286Y-33363374D01*
X43258857Y-33218231D01*
X43331429Y-33145660D01*
X43476571Y-33073089D01*
X43694286Y-33073089D01*
X43839429Y-33145660D01*
X43912000Y-33218231D01*
X43984571Y-33363374D01*
X43984571Y-33798803D01*
X43912000Y-33943946D01*
X43839429Y-34016517D01*
X43694286Y-34089089D01*
X43476571Y-34089089D01*
X45290857Y-34016517D02*
X45145714Y-34089089D01*
X44855428Y-34089089D01*
X44710286Y-34016517D01*
X44637714Y-33943946D01*
X44565143Y-33798803D01*
X44565143Y-33363374D01*
X44637714Y-33218231D01*
X44710286Y-33145660D01*
X44855428Y-33073089D01*
X45145714Y-33073089D01*
X45290857Y-33145660D01*
X47903429Y-34089089D02*
X47032572Y-34089089D01*
X47468000Y-34089089D02*
X47468000Y-32565089D01*
X47322857Y-32782803D01*
X47177715Y-32927946D01*
X47032572Y-33000517D01*
X49717715Y-34089089D02*
X49717715Y-33073089D01*
X50298287Y-33073089D01*
X50806286Y-33073089D02*
X50806286Y-34597089D01*
X50806286Y-33145660D02*
X50951429Y-33073089D01*
X51241715Y-33073089D01*
X51386858Y-33145660D01*
X51459429Y-33218231D01*
X51532000Y-33363374D01*
X51532000Y-33798803D01*
X51459429Y-33943946D01*
X51386858Y-34016517D01*
X51241715Y-34089089D01*
X50951429Y-34089089D01*
X50806286Y-34016517D01*
X52185143Y-33943946D02*
X52257715Y-34016517D01*
X52185143Y-34089089D01*
X52112572Y-34016517D01*
X52185143Y-33943946D01*
X52185143Y-34089089D01*
X54797714Y-32492517D02*
X54725143Y-32565089D01*
X54580000Y-32637660D01*
X54289714Y-32637660D01*
X54144572Y-32710231D01*
X54072000Y-32782803D01*
X53999429Y-32927946D01*
X53999429Y-33798803D01*
X54072000Y-33943946D01*
X54144572Y-34016517D01*
X54289714Y-34089089D01*
X54507429Y-34089089D01*
X54652572Y-34016517D01*
X54725143Y-33943946D01*
X54797714Y-33798803D01*
X54797714Y-33363374D01*
X54725143Y-33218231D01*
X54652572Y-33145660D01*
X54507429Y-33073089D01*
X54217143Y-33073089D01*
X54072000Y-33145660D01*
X53999429Y-33218231D01*
X56104000Y-34089089D02*
X56104000Y-33290803D01*
X56031429Y-33145660D01*
X55886286Y-33073089D01*
X55596000Y-33073089D01*
X55450857Y-33145660D01*
X56104000Y-34016517D02*
X55958857Y-34089089D01*
X55596000Y-34089089D01*
X55450857Y-34016517D01*
X55378286Y-33871374D01*
X55378286Y-33726231D01*
X55450857Y-33581089D01*
X55596000Y-33508517D01*
X55958857Y-33508517D01*
X56104000Y-33435946D01*
X56829714Y-33073089D02*
X56829714Y-34089089D01*
X56974857Y-33508517D02*
X57410286Y-34089089D01*
X57410286Y-33073089D02*
X56829714Y-33653660D01*
X58281142Y-34089089D02*
X58136000Y-34016517D01*
X58063428Y-33943946D01*
X57990857Y-33798803D01*
X57990857Y-33363374D01*
X58063428Y-33218231D01*
X58136000Y-33145660D01*
X58281142Y-33073089D01*
X58498857Y-33073089D01*
X58644000Y-33145660D01*
X58716571Y-33218231D01*
X58789142Y-33363374D01*
X58789142Y-33798803D01*
X58716571Y-33943946D01*
X58644000Y-34016517D01*
X58498857Y-34089089D01*
X58281142Y-34089089D01*
X59805142Y-33581089D02*
X60022857Y-33653660D01*
X60095428Y-33798803D01*
X60095428Y-33871374D01*
X60022857Y-34016517D01*
X59877714Y-34089089D01*
X59442285Y-34089089D01*
X59442285Y-33073089D01*
X59805142Y-33073089D01*
X59950285Y-33145660D01*
X60022857Y-33290803D01*
X60022857Y-33363374D01*
X59950285Y-33508517D01*
X59805142Y-33581089D01*
X59442285Y-33581089D01*
X75468000Y-24217197D02*
X75685714Y-24289769D01*
X76048571Y-24289769D01*
X76193714Y-24217197D01*
X76266285Y-24144626D01*
X76338857Y-23999483D01*
X76338857Y-23854340D01*
X76266285Y-23709197D01*
X76193714Y-23636626D01*
X76048571Y-23564054D01*
X75758285Y-23491483D01*
X75613143Y-23418911D01*
X75540571Y-23346340D01*
X75468000Y-23201197D01*
X75468000Y-23056054D01*
X75540571Y-22910911D01*
X75613143Y-22838340D01*
X75758285Y-22765769D01*
X76121143Y-22765769D01*
X76338857Y-22838340D01*
X76846857Y-22765769D02*
X77209714Y-24289769D01*
X77500000Y-23201197D01*
X77790286Y-24289769D01*
X78153143Y-22765769D01*
X79386857Y-23273769D02*
X79386857Y-24289769D01*
X79024000Y-22693197D02*
X78661143Y-23781769D01*
X79604571Y-23781769D01*
X72311144Y-34089089D02*
X72311144Y-32565089D01*
X73182001Y-34089089D01*
X73182001Y-32565089D01*
X74198001Y-32565089D02*
X74488287Y-32565089D01*
X74633429Y-32637660D01*
X74778572Y-32782803D01*
X74851144Y-33073089D01*
X74851144Y-33581089D01*
X74778572Y-33871374D01*
X74633429Y-34016517D01*
X74488287Y-34089089D01*
X74198001Y-34089089D01*
X74052858Y-34016517D01*
X73907715Y-33871374D01*
X73835144Y-33581089D01*
X73835144Y-33073089D01*
X73907715Y-32782803D01*
X74052858Y-32637660D01*
X74198001Y-32565089D01*
X75794572Y-32565089D02*
X76084858Y-32565089D01*
X76230000Y-32637660D01*
X76375143Y-32782803D01*
X76447715Y-33073089D01*
X76447715Y-33581089D01*
X76375143Y-33871374D01*
X76230000Y-34016517D01*
X76084858Y-34089089D01*
X75794572Y-34089089D01*
X75649429Y-34016517D01*
X75504286Y-33871374D01*
X75431715Y-33581089D01*
X75431715Y-33073089D01*
X75504286Y-32782803D01*
X75649429Y-32637660D01*
X75794572Y-32565089D01*
X77100857Y-34089089D02*
X77100857Y-32565089D01*
X77463714Y-32565089D01*
X77681429Y-32637660D01*
X77826571Y-32782803D01*
X77899143Y-32927946D01*
X77971714Y-33218231D01*
X77971714Y-33435946D01*
X77899143Y-33726231D01*
X77826571Y-33871374D01*
X77681429Y-34016517D01*
X77463714Y-34089089D01*
X77100857Y-34089089D01*
X78262000Y-34234231D02*
X79423143Y-34234231D01*
X79786000Y-34089089D02*
X79786000Y-32565089D01*
X80511714Y-34089089D02*
X80511714Y-32565089D01*
X81382571Y-34089089D01*
X81382571Y-32565089D01*
X81890571Y-32565089D02*
X82398571Y-34089089D01*
X82906571Y-32565089D01*
X75468000Y-42217197D02*
X75685714Y-42289769D01*
X76048571Y-42289769D01*
X76193714Y-42217197D01*
X76266285Y-42144626D01*
X76338857Y-41999483D01*
X76338857Y-41854340D01*
X76266285Y-41709197D01*
X76193714Y-41636626D01*
X76048571Y-41564054D01*
X75758285Y-41491483D01*
X75613143Y-41418911D01*
X75540571Y-41346340D01*
X75468000Y-41201197D01*
X75468000Y-41056054D01*
X75540571Y-40910911D01*
X75613143Y-40838340D01*
X75758285Y-40765769D01*
X76121143Y-40765769D01*
X76338857Y-40838340D01*
X76846857Y-40765769D02*
X77209714Y-42289769D01*
X77500000Y-41201197D01*
X77790286Y-42289769D01*
X78153143Y-40765769D01*
X79459428Y-40765769D02*
X78733714Y-40765769D01*
X78661143Y-41491483D01*
X78733714Y-41418911D01*
X78878857Y-41346340D01*
X79241714Y-41346340D01*
X79386857Y-41418911D01*
X79459428Y-41491483D01*
X79532000Y-41636626D01*
X79532000Y-41999483D01*
X79459428Y-42144626D01*
X79386857Y-42217197D01*
X79241714Y-42289769D01*
X78878857Y-42289769D01*
X78733714Y-42217197D01*
X78661143Y-42144626D01*
X76592857Y-51943946D02*
X76520286Y-52016517D01*
X76302572Y-52089089D01*
X76157429Y-52089089D01*
X75939714Y-52016517D01*
X75794572Y-51871374D01*
X75722000Y-51726231D01*
X75649429Y-51435946D01*
X75649429Y-51218231D01*
X75722000Y-50927946D01*
X75794572Y-50782803D01*
X75939714Y-50637660D01*
X76157429Y-50565089D01*
X76302572Y-50565089D01*
X76520286Y-50637660D01*
X76592857Y-50710231D01*
X77173429Y-51653660D02*
X77899143Y-51653660D01*
X77028286Y-52089089D02*
X77536286Y-50565089D01*
X78044286Y-52089089D01*
X78479715Y-50565089D02*
X78987715Y-51581089D01*
X79495715Y-50565089D02*
X78842572Y-51871374D01*
X78697429Y-52016517D01*
X78552286Y-52089089D01*
X78479715Y-52089089D01*
X75968000Y-60717197D02*
X76185714Y-60789769D01*
X76548571Y-60789769D01*
X76693714Y-60717197D01*
X76766285Y-60644626D01*
X76838857Y-60499483D01*
X76838857Y-60354340D01*
X76766285Y-60209197D01*
X76693714Y-60136626D01*
X76548571Y-60064054D01*
X76258285Y-59991483D01*
X76113143Y-59918911D01*
X76040571Y-59846340D01*
X75968000Y-59701197D01*
X75968000Y-59556054D01*
X76040571Y-59410911D01*
X76113143Y-59338340D01*
X76258285Y-59265769D01*
X76621143Y-59265769D01*
X76838857Y-59338340D01*
X77346857Y-59265769D02*
X77709714Y-60789769D01*
X78000000Y-59701197D01*
X78290286Y-60789769D01*
X78653143Y-59265769D01*
X79886857Y-59265769D02*
X79596571Y-59265769D01*
X79451428Y-59338340D01*
X79378857Y-59410911D01*
X79233714Y-59628626D01*
X79161143Y-59918911D01*
X79161143Y-60499483D01*
X79233714Y-60644626D01*
X79306286Y-60717197D01*
X79451428Y-60789769D01*
X79741714Y-60789769D01*
X79886857Y-60717197D01*
X79959428Y-60644626D01*
X80032000Y-60499483D01*
X80032000Y-60136626D01*
X79959428Y-59991483D01*
X79886857Y-59918911D01*
X79741714Y-59846340D01*
X79451428Y-59846340D01*
X79306286Y-59918911D01*
X79233714Y-59991483D01*
X79161143Y-60136626D01*
X76004286Y-70589089D02*
X76004286Y-69065089D01*
X76875143Y-70589089D02*
X76222000Y-69718231D01*
X76875143Y-69065089D02*
X76004286Y-69935946D01*
X77528286Y-70589089D02*
X77528286Y-69065089D01*
X78399143Y-69065089D01*
X78399143Y-70589089D01*
X79124857Y-70589089D02*
X79124857Y-69065089D01*
X79995714Y-69065089D01*
X79995714Y-70589089D01*
X99968000Y-24217197D02*
X100185714Y-24289769D01*
X100548571Y-24289769D01*
X100693714Y-24217197D01*
X100766285Y-24144626D01*
X100838857Y-23999483D01*
X100838857Y-23854340D01*
X100766285Y-23709197D01*
X100693714Y-23636626D01*
X100548571Y-23564054D01*
X100258285Y-23491483D01*
X100113143Y-23418911D01*
X100040571Y-23346340D01*
X99968000Y-23201197D01*
X99968000Y-23056054D01*
X100040571Y-22910911D01*
X100113143Y-22838340D01*
X100258285Y-22765769D01*
X100621143Y-22765769D01*
X100838857Y-22838340D01*
X101346857Y-22765769D02*
X101709714Y-24289769D01*
X102000000Y-23201197D01*
X102290286Y-24289769D01*
X102653143Y-22765769D01*
X103088571Y-22765769D02*
X104104571Y-22765769D01*
X103451428Y-24289769D01*
X96448286Y-34089089D02*
X96448286Y-32565089D01*
X97246572Y-32565089D01*
X98335144Y-34016517D02*
X98190001Y-34089089D01*
X97899715Y-34089089D01*
X97754572Y-34016517D01*
X97682001Y-33871374D01*
X97682001Y-33290803D01*
X97754572Y-33145660D01*
X97899715Y-33073089D01*
X98190001Y-33073089D01*
X98335144Y-33145660D01*
X98407715Y-33290803D01*
X98407715Y-33435946D01*
X97682001Y-33581089D01*
X99060858Y-33581089D02*
X99714001Y-33581089D01*
X99060858Y-33073089D02*
X99060858Y-34089089D01*
X99714001Y-33073089D02*
X99714001Y-34089089D01*
X101020287Y-34016517D02*
X100875144Y-34089089D01*
X100584858Y-34089089D01*
X100439715Y-34016517D01*
X100367144Y-33871374D01*
X100367144Y-33290803D01*
X100439715Y-33145660D01*
X100584858Y-33073089D01*
X100875144Y-33073089D01*
X101020287Y-33145660D01*
X101092858Y-33290803D01*
X101092858Y-33435946D01*
X100367144Y-33581089D01*
X101746001Y-33073089D02*
X101746001Y-34597089D01*
X101746001Y-33145660D02*
X101891144Y-33073089D01*
X102181430Y-33073089D01*
X102326573Y-33145660D01*
X102399144Y-33218231D01*
X102471715Y-33363374D01*
X102471715Y-33798803D01*
X102399144Y-33943946D01*
X102326573Y-34016517D01*
X102181430Y-34089089D01*
X101891144Y-34089089D01*
X101746001Y-34016517D01*
X103778001Y-34089089D02*
X103778001Y-33290803D01*
X103705430Y-33145660D01*
X103560287Y-33073089D01*
X103270001Y-33073089D01*
X103124858Y-33145660D01*
X103778001Y-34016517D02*
X103632858Y-34089089D01*
X103270001Y-34089089D01*
X103124858Y-34016517D01*
X103052287Y-33871374D01*
X103052287Y-33726231D01*
X103124858Y-33581089D01*
X103270001Y-33508517D01*
X103632858Y-33508517D01*
X103778001Y-33435946D01*
X104286001Y-33073089D02*
X105011715Y-33073089D01*
X104648858Y-33073089D02*
X104648858Y-34089089D01*
X105737429Y-34089089D02*
X105592287Y-34016517D01*
X105519715Y-33943946D01*
X105447144Y-33798803D01*
X105447144Y-33363374D01*
X105519715Y-33218231D01*
X105592287Y-33145660D01*
X105737429Y-33073089D01*
X105955144Y-33073089D01*
X106100287Y-33145660D01*
X106172858Y-33218231D01*
X106245429Y-33363374D01*
X106245429Y-33798803D01*
X106172858Y-33943946D01*
X106100287Y-34016517D01*
X105955144Y-34089089D01*
X105737429Y-34089089D01*
X106898572Y-33073089D02*
X106898572Y-34597089D01*
X106898572Y-33145660D02*
X107043715Y-33073089D01*
X107334001Y-33073089D01*
X107479144Y-33145660D01*
X107551715Y-33218231D01*
X107624286Y-33363374D01*
X107624286Y-33798803D01*
X107551715Y-33943946D01*
X107479144Y-34016517D01*
X107334001Y-34089089D01*
X107043715Y-34089089D01*
X106898572Y-34016517D01*
X100468000Y-60717197D02*
X100685714Y-60789769D01*
X101048571Y-60789769D01*
X101193714Y-60717197D01*
X101266285Y-60644626D01*
X101338857Y-60499483D01*
X101338857Y-60354340D01*
X101266285Y-60209197D01*
X101193714Y-60136626D01*
X101048571Y-60064054D01*
X100758285Y-59991483D01*
X100613143Y-59918911D01*
X100540571Y-59846340D01*
X100468000Y-59701197D01*
X100468000Y-59556054D01*
X100540571Y-59410911D01*
X100613143Y-59338340D01*
X100758285Y-59265769D01*
X101121143Y-59265769D01*
X101338857Y-59338340D01*
X101846857Y-59265769D02*
X102209714Y-60789769D01*
X102500000Y-59701197D01*
X102790286Y-60789769D01*
X103153143Y-59265769D01*
X103951428Y-59918911D02*
X103806286Y-59846340D01*
X103733714Y-59773769D01*
X103661143Y-59628626D01*
X103661143Y-59556054D01*
X103733714Y-59410911D01*
X103806286Y-59338340D01*
X103951428Y-59265769D01*
X104241714Y-59265769D01*
X104386857Y-59338340D01*
X104459428Y-59410911D01*
X104532000Y-59556054D01*
X104532000Y-59628626D01*
X104459428Y-59773769D01*
X104386857Y-59846340D01*
X104241714Y-59918911D01*
X103951428Y-59918911D01*
X103806286Y-59991483D01*
X103733714Y-60064054D01*
X103661143Y-60209197D01*
X103661143Y-60499483D01*
X103733714Y-60644626D01*
X103806286Y-60717197D01*
X103951428Y-60789769D01*
X104241714Y-60789769D01*
X104386857Y-60717197D01*
X104459428Y-60644626D01*
X104532000Y-60499483D01*
X104532000Y-60209197D01*
X104459428Y-60064054D01*
X104386857Y-59991483D01*
X104241714Y-59918911D01*
X99016572Y-70153660D02*
X99742286Y-70153660D01*
X98871429Y-70589089D02*
X99379429Y-69065089D01*
X99887429Y-70589089D01*
X100395429Y-70589089D02*
X100395429Y-69065089D01*
X101266286Y-70589089D02*
X100613143Y-69718231D01*
X101266286Y-69065089D02*
X100395429Y-69935946D01*
X101919429Y-70589089D02*
X101919429Y-69065089D01*
X102790286Y-70589089D02*
X102137143Y-69718231D01*
X102790286Y-69065089D02*
X101919429Y-69935946D01*
X103370858Y-69065089D02*
X103878858Y-70081089D01*
X104386858Y-69065089D02*
X103733715Y-70371374D01*
X103588572Y-70516517D01*
X103443429Y-70589089D01*
X103370858Y-70589089D01*
X104894858Y-70589089D02*
X104894858Y-69065089D01*
X105402858Y-70153660D01*
X105910858Y-69065089D01*
X105910858Y-70589089D01*
X124242286Y-24217197D02*
X124460000Y-24289769D01*
X124822857Y-24289769D01*
X124968000Y-24217197D01*
X125040571Y-24144626D01*
X125113143Y-23999483D01*
X125113143Y-23854340D01*
X125040571Y-23709197D01*
X124968000Y-23636626D01*
X124822857Y-23564054D01*
X124532571Y-23491483D01*
X124387429Y-23418911D01*
X124314857Y-23346340D01*
X124242286Y-23201197D01*
X124242286Y-23056054D01*
X124314857Y-22910911D01*
X124387429Y-22838340D01*
X124532571Y-22765769D01*
X124895429Y-22765769D01*
X125113143Y-22838340D01*
X125621143Y-22765769D02*
X125984000Y-24289769D01*
X126274286Y-23201197D01*
X126564572Y-24289769D01*
X126927429Y-22765769D01*
X128306286Y-24289769D02*
X127435429Y-24289769D01*
X127870857Y-24289769D02*
X127870857Y-22765769D01*
X127725714Y-22983483D01*
X127580572Y-23128626D01*
X127435429Y-23201197D01*
X129249715Y-22765769D02*
X129394858Y-22765769D01*
X129540001Y-22838340D01*
X129612572Y-22910911D01*
X129685143Y-23056054D01*
X129757715Y-23346340D01*
X129757715Y-23709197D01*
X129685143Y-23999483D01*
X129612572Y-24144626D01*
X129540001Y-24217197D01*
X129394858Y-24289769D01*
X129249715Y-24289769D01*
X129104572Y-24217197D01*
X129032001Y-24144626D01*
X128959429Y-23999483D01*
X128886858Y-23709197D01*
X128886858Y-23346340D01*
X128959429Y-23056054D01*
X129032001Y-22910911D01*
X129104572Y-22838340D01*
X129249715Y-22765769D01*
X121920000Y-32637660D02*
X121774857Y-32565089D01*
X121557143Y-32565089D01*
X121339428Y-32637660D01*
X121194286Y-32782803D01*
X121121714Y-32927946D01*
X121049143Y-33218231D01*
X121049143Y-33435946D01*
X121121714Y-33726231D01*
X121194286Y-33871374D01*
X121339428Y-34016517D01*
X121557143Y-34089089D01*
X121702286Y-34089089D01*
X121920000Y-34016517D01*
X121992571Y-33943946D01*
X121992571Y-33435946D01*
X121702286Y-33435946D01*
X123226286Y-34016517D02*
X123081143Y-34089089D01*
X122790857Y-34089089D01*
X122645714Y-34016517D01*
X122573143Y-33871374D01*
X122573143Y-33290803D01*
X122645714Y-33145660D01*
X122790857Y-33073089D01*
X123081143Y-33073089D01*
X123226286Y-33145660D01*
X123298857Y-33290803D01*
X123298857Y-33435946D01*
X122573143Y-33581089D01*
X123952000Y-33073089D02*
X123952000Y-34089089D01*
X123952000Y-33218231D02*
X124024572Y-33145660D01*
X124169714Y-33073089D01*
X124387429Y-33073089D01*
X124532572Y-33145660D01*
X124605143Y-33290803D01*
X124605143Y-34089089D01*
X125330857Y-33943946D02*
X125403429Y-34016517D01*
X125330857Y-34089089D01*
X125258286Y-34016517D01*
X125330857Y-33943946D01*
X125330857Y-34089089D01*
X127870857Y-34089089D02*
X127870857Y-33290803D01*
X127798286Y-33145660D01*
X127653143Y-33073089D01*
X127362857Y-33073089D01*
X127217714Y-33145660D01*
X127870857Y-34016517D02*
X127725714Y-34089089D01*
X127362857Y-34089089D01*
X127217714Y-34016517D01*
X127145143Y-33871374D01*
X127145143Y-33726231D01*
X127217714Y-33581089D01*
X127362857Y-33508517D01*
X127725714Y-33508517D01*
X127870857Y-33435946D01*
X129177143Y-34016517D02*
X129032000Y-34089089D01*
X128741714Y-34089089D01*
X128596571Y-34016517D01*
X128524000Y-33871374D01*
X128524000Y-33290803D01*
X128596571Y-33145660D01*
X128741714Y-33073089D01*
X129032000Y-33073089D01*
X129177143Y-33145660D01*
X129249714Y-33290803D01*
X129249714Y-33435946D01*
X128524000Y-33581089D01*
X129902857Y-34089089D02*
X129902857Y-33073089D01*
X129902857Y-33363374D02*
X129975429Y-33218231D01*
X130048000Y-33145660D01*
X130193143Y-33073089D01*
X130338286Y-33073089D01*
X131064000Y-34089089D02*
X130918858Y-34016517D01*
X130846286Y-33943946D01*
X130773715Y-33798803D01*
X130773715Y-33363374D01*
X130846286Y-33218231D01*
X130918858Y-33145660D01*
X131064000Y-33073089D01*
X131281715Y-33073089D01*
X131426858Y-33145660D01*
X131499429Y-33218231D01*
X131572000Y-33363374D01*
X131572000Y-33798803D01*
X131499429Y-33943946D01*
X131426858Y-34016517D01*
X131281715Y-34089089D01*
X131064000Y-34089089D01*
X132878286Y-34089089D02*
X132878286Y-32565089D01*
X132878286Y-34016517D02*
X132733143Y-34089089D01*
X132442857Y-34089089D01*
X132297715Y-34016517D01*
X132225143Y-33943946D01*
X132152572Y-33798803D01*
X132152572Y-33363374D01*
X132225143Y-33218231D01*
X132297715Y-33145660D01*
X132442857Y-33073089D01*
X132733143Y-33073089D01*
X132878286Y-33145660D01*
X124242286Y-41717197D02*
X124460000Y-41789769D01*
X124822857Y-41789769D01*
X124968000Y-41717197D01*
X125040571Y-41644626D01*
X125113143Y-41499483D01*
X125113143Y-41354340D01*
X125040571Y-41209197D01*
X124968000Y-41136626D01*
X124822857Y-41064054D01*
X124532571Y-40991483D01*
X124387429Y-40918911D01*
X124314857Y-40846340D01*
X124242286Y-40701197D01*
X124242286Y-40556054D01*
X124314857Y-40410911D01*
X124387429Y-40338340D01*
X124532571Y-40265769D01*
X124895429Y-40265769D01*
X125113143Y-40338340D01*
X125621143Y-40265769D02*
X125984000Y-41789769D01*
X126274286Y-40701197D01*
X126564572Y-41789769D01*
X126927429Y-40265769D01*
X128306286Y-41789769D02*
X127435429Y-41789769D01*
X127870857Y-41789769D02*
X127870857Y-40265769D01*
X127725714Y-40483483D01*
X127580572Y-40628626D01*
X127435429Y-40701197D01*
X129757715Y-41789769D02*
X128886858Y-41789769D01*
X129322286Y-41789769D02*
X129322286Y-40265769D01*
X129177143Y-40483483D01*
X129032001Y-40628626D01*
X128886858Y-40701197D01*
X120795143Y-51516517D02*
X121012857Y-51589089D01*
X121375714Y-51589089D01*
X121520857Y-51516517D01*
X121593428Y-51443946D01*
X121666000Y-51298803D01*
X121666000Y-51153660D01*
X121593428Y-51008517D01*
X121520857Y-50935946D01*
X121375714Y-50863374D01*
X121085428Y-50790803D01*
X120940286Y-50718231D01*
X120867714Y-50645660D01*
X120795143Y-50500517D01*
X120795143Y-50355374D01*
X120867714Y-50210231D01*
X120940286Y-50137660D01*
X121085428Y-50065089D01*
X121448286Y-50065089D01*
X121666000Y-50137660D01*
X122319143Y-51589089D02*
X122319143Y-50065089D01*
X122899715Y-50065089D01*
X123044857Y-50137660D01*
X123117429Y-50210231D01*
X123190000Y-50355374D01*
X123190000Y-50573089D01*
X123117429Y-50718231D01*
X123044857Y-50790803D01*
X122899715Y-50863374D01*
X122319143Y-50863374D01*
X124714000Y-51589089D02*
X124206000Y-50863374D01*
X123843143Y-51589089D02*
X123843143Y-50065089D01*
X124423715Y-50065089D01*
X124568857Y-50137660D01*
X124641429Y-50210231D01*
X124714000Y-50355374D01*
X124714000Y-50573089D01*
X124641429Y-50718231D01*
X124568857Y-50790803D01*
X124423715Y-50863374D01*
X123843143Y-50863374D01*
X125367143Y-51589089D02*
X125367143Y-50065089D01*
X125730000Y-50065089D01*
X125947715Y-50137660D01*
X126092857Y-50282803D01*
X126165429Y-50427946D01*
X126238000Y-50718231D01*
X126238000Y-50935946D01*
X126165429Y-51226231D01*
X126092857Y-51371374D01*
X125947715Y-51516517D01*
X125730000Y-51589089D01*
X125367143Y-51589089D01*
X126891143Y-51008517D02*
X128052286Y-51008517D01*
X129431143Y-51589089D02*
X129431143Y-50065089D01*
X129431143Y-51516517D02*
X129286000Y-51589089D01*
X128995714Y-51589089D01*
X128850572Y-51516517D01*
X128778000Y-51443946D01*
X128705429Y-51298803D01*
X128705429Y-50863374D01*
X128778000Y-50718231D01*
X128850572Y-50645660D01*
X128995714Y-50573089D01*
X129286000Y-50573089D01*
X129431143Y-50645660D01*
X130156857Y-51589089D02*
X130156857Y-50573089D01*
X130156857Y-50863374D02*
X130229429Y-50718231D01*
X130302000Y-50645660D01*
X130447143Y-50573089D01*
X130592286Y-50573089D01*
X131318000Y-51589089D02*
X131172858Y-51516517D01*
X131100286Y-51443946D01*
X131027715Y-51298803D01*
X131027715Y-50863374D01*
X131100286Y-50718231D01*
X131172858Y-50645660D01*
X131318000Y-50573089D01*
X131535715Y-50573089D01*
X131680858Y-50645660D01*
X131753429Y-50718231D01*
X131826000Y-50863374D01*
X131826000Y-51298803D01*
X131753429Y-51443946D01*
X131680858Y-51516517D01*
X131535715Y-51589089D01*
X131318000Y-51589089D01*
X132479143Y-50573089D02*
X132479143Y-52097089D01*
X132479143Y-50645660D02*
X132624286Y-50573089D01*
X132914572Y-50573089D01*
X133059715Y-50645660D01*
X133132286Y-50718231D01*
X133204857Y-50863374D01*
X133204857Y-51298803D01*
X133132286Y-51443946D01*
X133059715Y-51516517D01*
X132914572Y-51589089D01*
X132624286Y-51589089D01*
X132479143Y-51516517D01*
X124742286Y-60717197D02*
X124960000Y-60789769D01*
X125322857Y-60789769D01*
X125468000Y-60717197D01*
X125540571Y-60644626D01*
X125613143Y-60499483D01*
X125613143Y-60354340D01*
X125540571Y-60209197D01*
X125468000Y-60136626D01*
X125322857Y-60064054D01*
X125032571Y-59991483D01*
X124887429Y-59918911D01*
X124814857Y-59846340D01*
X124742286Y-59701197D01*
X124742286Y-59556054D01*
X124814857Y-59410911D01*
X124887429Y-59338340D01*
X125032571Y-59265769D01*
X125395429Y-59265769D01*
X125613143Y-59338340D01*
X126121143Y-59265769D02*
X126484000Y-60789769D01*
X126774286Y-59701197D01*
X127064572Y-60789769D01*
X127427429Y-59265769D01*
X128806286Y-60789769D02*
X127935429Y-60789769D01*
X128370857Y-60789769D02*
X128370857Y-59265769D01*
X128225714Y-59483483D01*
X128080572Y-59628626D01*
X127935429Y-59701197D01*
X129386858Y-59410911D02*
X129459429Y-59338340D01*
X129604572Y-59265769D01*
X129967429Y-59265769D01*
X130112572Y-59338340D01*
X130185143Y-59410911D01*
X130257715Y-59556054D01*
X130257715Y-59701197D01*
X130185143Y-59918911D01*
X129314286Y-60789769D01*
X130257715Y-60789769D01*
X124778572Y-70516517D02*
X124996286Y-70589089D01*
X125359143Y-70589089D01*
X125504286Y-70516517D01*
X125576857Y-70443946D01*
X125649429Y-70298803D01*
X125649429Y-70153660D01*
X125576857Y-70008517D01*
X125504286Y-69935946D01*
X125359143Y-69863374D01*
X125068857Y-69790803D01*
X124923715Y-69718231D01*
X124851143Y-69645660D01*
X124778572Y-69500517D01*
X124778572Y-69355374D01*
X124851143Y-69210231D01*
X124923715Y-69137660D01*
X125068857Y-69065089D01*
X125431715Y-69065089D01*
X125649429Y-69137660D01*
X126302572Y-70589089D02*
X126302572Y-69065089D01*
X126883144Y-69065089D01*
X127028286Y-69137660D01*
X127100858Y-69210231D01*
X127173429Y-69355374D01*
X127173429Y-69573089D01*
X127100858Y-69718231D01*
X127028286Y-69790803D01*
X126883144Y-69863374D01*
X126302572Y-69863374D01*
X128697429Y-70589089D02*
X128189429Y-69863374D01*
X127826572Y-70589089D02*
X127826572Y-69065089D01*
X128407144Y-69065089D01*
X128552286Y-69137660D01*
X128624858Y-69210231D01*
X128697429Y-69355374D01*
X128697429Y-69573089D01*
X128624858Y-69718231D01*
X128552286Y-69790803D01*
X128407144Y-69863374D01*
X127826572Y-69863374D01*
X129350572Y-70589089D02*
X129350572Y-69065089D01*
X129713429Y-69065089D01*
X129931144Y-69137660D01*
X130076286Y-69282803D01*
X130148858Y-69427946D01*
X130221429Y-69718231D01*
X130221429Y-69935946D01*
X130148858Y-70226231D01*
X130076286Y-70371374D01*
X129931144Y-70516517D01*
X129713429Y-70589089D01*
X129350572Y-70589089D01*
D12*
X32166667Y-34452381D02*
X32166667Y-35166667D01*
X32119047Y-35309524D01*
X32023809Y-35404762D01*
X31880952Y-35452381D01*
X31785714Y-35452381D01*
X32595238Y-34547619D02*
X32642857Y-34500000D01*
X32738095Y-34452381D01*
X32976191Y-34452381D01*
X33071429Y-34500000D01*
X33119048Y-34547619D01*
X33166667Y-34642857D01*
X33166667Y-34738095D01*
X33119048Y-34880952D01*
X32547619Y-35452381D01*
X33166667Y-35452381D01*
X34166667Y-53952381D02*
X34166667Y-54666667D01*
X34119047Y-54809524D01*
X34023809Y-54904762D01*
X33880952Y-54952381D01*
X33785714Y-54952381D01*
X34547619Y-53952381D02*
X35166667Y-53952381D01*
X34833333Y-54333333D01*
X34976191Y-54333333D01*
X35071429Y-54380952D01*
X35119048Y-54428571D01*
X35166667Y-54523810D01*
X35166667Y-54761905D01*
X35119048Y-54857143D01*
X35071429Y-54904762D01*
X34976191Y-54952381D01*
X34690476Y-54952381D01*
X34595238Y-54904762D01*
X34547619Y-54857143D01*
X127166667Y-76952381D02*
X127166667Y-77666667D01*
X127119047Y-77809524D01*
X127023809Y-77904762D01*
X126880952Y-77952381D01*
X126785714Y-77952381D01*
X128071429Y-77285714D02*
X128071429Y-77952381D01*
X127833333Y-76904762D02*
X127595238Y-77619048D01*
X128214286Y-77619048D01*
D25*
X145956859Y-96116857D02*
X146102002Y-96189429D01*
X146392287Y-96189429D01*
X146537430Y-96116857D01*
X146610002Y-95971714D01*
X146610002Y-95899143D01*
X146537430Y-95754000D01*
X146392287Y-95681429D01*
X146174573Y-95681429D01*
X146029430Y-95608857D01*
X145956859Y-95463714D01*
X145956859Y-95391143D01*
X146029430Y-95246000D01*
X146174573Y-95173429D01*
X146392287Y-95173429D01*
X146537430Y-95246000D01*
X147480858Y-96189429D02*
X147335716Y-96116857D01*
X147263144Y-96044286D01*
X147190573Y-95899143D01*
X147190573Y-95463714D01*
X147263144Y-95318571D01*
X147335716Y-95246000D01*
X147480858Y-95173429D01*
X147698573Y-95173429D01*
X147843716Y-95246000D01*
X147916287Y-95318571D01*
X147988858Y-95463714D01*
X147988858Y-95899143D01*
X147916287Y-96044286D01*
X147843716Y-96116857D01*
X147698573Y-96189429D01*
X147480858Y-96189429D01*
X148496858Y-95173429D02*
X148859715Y-96189429D01*
X149222573Y-95173429D01*
X149803144Y-95173429D02*
X149803144Y-96479714D01*
X149730573Y-96624857D01*
X149585430Y-96697429D01*
X149512858Y-96697429D01*
X149803144Y-94665429D02*
X149730573Y-94738000D01*
X149803144Y-94810571D01*
X149875716Y-94738000D01*
X149803144Y-94665429D01*
X149803144Y-94810571D01*
X151109430Y-96116857D02*
X150964287Y-96189429D01*
X150674001Y-96189429D01*
X150528858Y-96116857D01*
X150456287Y-95971714D01*
X150456287Y-95391143D01*
X150528858Y-95246000D01*
X150674001Y-95173429D01*
X150964287Y-95173429D01*
X151109430Y-95246000D01*
X151182001Y-95391143D01*
X151182001Y-95536286D01*
X150456287Y-95681429D01*
X151617430Y-95173429D02*
X152198001Y-95173429D01*
X151835144Y-94665429D02*
X151835144Y-95971714D01*
X151907716Y-96116857D01*
X152052858Y-96189429D01*
X152198001Y-96189429D01*
X152706001Y-95608857D02*
X153867144Y-95608857D01*
X154520287Y-96116857D02*
X154665430Y-96189429D01*
X154955715Y-96189429D01*
X155100858Y-96116857D01*
X155173430Y-95971714D01*
X155173430Y-95899143D01*
X155100858Y-95754000D01*
X154955715Y-95681429D01*
X154738001Y-95681429D01*
X154592858Y-95608857D01*
X154520287Y-95463714D01*
X154520287Y-95391143D01*
X154592858Y-95246000D01*
X154738001Y-95173429D01*
X154955715Y-95173429D01*
X155100858Y-95246000D01*
X155826572Y-96189429D02*
X155826572Y-95173429D01*
X155826572Y-94665429D02*
X155754001Y-94738000D01*
X155826572Y-94810571D01*
X155899144Y-94738000D01*
X155826572Y-94665429D01*
X155826572Y-94810571D01*
X156552286Y-96189429D02*
X156552286Y-95173429D01*
X156552286Y-95318571D02*
X156624858Y-95246000D01*
X156770000Y-95173429D01*
X156987715Y-95173429D01*
X157132858Y-95246000D01*
X157205429Y-95391143D01*
X157205429Y-96189429D01*
X157205429Y-95391143D02*
X157278000Y-95246000D01*
X157423143Y-95173429D01*
X157640858Y-95173429D01*
X157786000Y-95246000D01*
X157858572Y-95391143D01*
X157858572Y-96189429D01*
X158584286Y-95173429D02*
X158584286Y-96697429D01*
X158584286Y-95246000D02*
X158729429Y-95173429D01*
X159019715Y-95173429D01*
X159164858Y-95246000D01*
X159237429Y-95318571D01*
X159310000Y-95463714D01*
X159310000Y-95899143D01*
X159237429Y-96044286D01*
X159164858Y-96116857D01*
X159019715Y-96189429D01*
X158729429Y-96189429D01*
X158584286Y-96116857D01*
X159963143Y-96189429D02*
X159963143Y-95173429D01*
X159963143Y-94665429D02*
X159890572Y-94738000D01*
X159963143Y-94810571D01*
X160035715Y-94738000D01*
X159963143Y-94665429D01*
X159963143Y-94810571D01*
X160471143Y-95173429D02*
X161051714Y-95173429D01*
X160688857Y-94665429D02*
X160688857Y-95971714D01*
X160761429Y-96116857D01*
X160906571Y-96189429D01*
X161051714Y-96189429D01*
X161487143Y-96116857D02*
X161632286Y-96189429D01*
X161922571Y-96189429D01*
X162067714Y-96116857D01*
X162140286Y-95971714D01*
X162140286Y-95899143D01*
X162067714Y-95754000D01*
X161922571Y-95681429D01*
X161704857Y-95681429D01*
X161559714Y-95608857D01*
X161487143Y-95463714D01*
X161487143Y-95391143D01*
X161559714Y-95246000D01*
X161704857Y-95173429D01*
X161922571Y-95173429D01*
X162067714Y-95246000D01*
X162793428Y-96044286D02*
X162866000Y-96116857D01*
X162793428Y-96189429D01*
X162720857Y-96116857D01*
X162793428Y-96044286D01*
X162793428Y-96189429D01*
X163519142Y-95173429D02*
X163519142Y-96189429D01*
X163519142Y-95318571D02*
X163591714Y-95246000D01*
X163736856Y-95173429D01*
X163954571Y-95173429D01*
X164099714Y-95246000D01*
X164172285Y-95391143D01*
X164172285Y-96189429D01*
X165115713Y-96189429D02*
X164970571Y-96116857D01*
X164897999Y-95971714D01*
X164897999Y-94665429D01*
D26*
X152434048Y-66193333D02*
X152494524Y-66011905D01*
X152494524Y-65709524D01*
X152434048Y-65588571D01*
X152373571Y-65528095D01*
X152252619Y-65467619D01*
X152131667Y-65467619D01*
X152010714Y-65528095D01*
X151950238Y-65588571D01*
X151889762Y-65709524D01*
X151829286Y-65951428D01*
X151768810Y-66072381D01*
X151708333Y-66132857D01*
X151587381Y-66193333D01*
X151466429Y-66193333D01*
X151345476Y-66132857D01*
X151285000Y-66072381D01*
X151224524Y-65951428D01*
X151224524Y-65649048D01*
X151285000Y-65467619D01*
X151224524Y-65044285D02*
X152494524Y-64741904D01*
X151587381Y-64500000D01*
X152494524Y-64258095D01*
X151224524Y-63955714D01*
X152494524Y-63411428D02*
X152494524Y-63169523D01*
X152434048Y-63048571D01*
X152373571Y-62988095D01*
X152192143Y-62867142D01*
X151950238Y-62806666D01*
X151466429Y-62806666D01*
X151345476Y-62867142D01*
X151285000Y-62927618D01*
X151224524Y-63048571D01*
X151224524Y-63290475D01*
X151285000Y-63411428D01*
X151345476Y-63471904D01*
X151466429Y-63532380D01*
X151768810Y-63532380D01*
X151889762Y-63471904D01*
X151950238Y-63411428D01*
X152010714Y-63290475D01*
X152010714Y-63048571D01*
X151950238Y-62927618D01*
X151889762Y-62867142D01*
X151768810Y-62806666D01*
D27*
X163162524Y-69368334D02*
X161892524Y-69368334D01*
X163162524Y-68642620D02*
X162436810Y-69186905D01*
X161892524Y-68642620D02*
X162618238Y-69368334D01*
X162315857Y-68098334D02*
X163162524Y-68098334D01*
X162436810Y-68098334D02*
X162376333Y-68037858D01*
X162315857Y-67916905D01*
X162315857Y-67735477D01*
X162376333Y-67614525D01*
X162497286Y-67554048D01*
X163162524Y-67554048D01*
X163162524Y-66767857D02*
X163102048Y-66888810D01*
X163041571Y-66949286D01*
X162920619Y-67009762D01*
X162557762Y-67009762D01*
X162436810Y-66949286D01*
X162376333Y-66888810D01*
X162315857Y-66767857D01*
X162315857Y-66586429D01*
X162376333Y-66465477D01*
X162436810Y-66405000D01*
X162557762Y-66344524D01*
X162920619Y-66344524D01*
X163041571Y-66405000D01*
X163102048Y-66465477D01*
X163162524Y-66586429D01*
X163162524Y-66767857D01*
X162315857Y-65800238D02*
X163585857Y-65800238D01*
X162376333Y-65800238D02*
X162315857Y-65679286D01*
X162315857Y-65437381D01*
X162376333Y-65316429D01*
X162436810Y-65255952D01*
X162557762Y-65195476D01*
X162920619Y-65195476D01*
X163041571Y-65255952D01*
X163102048Y-65316429D01*
X163162524Y-65437381D01*
X163162524Y-65679286D01*
X163102048Y-65800238D01*
X162315857Y-64651190D02*
X163585857Y-64651190D01*
X162376333Y-64651190D02*
X162315857Y-64530238D01*
X162315857Y-64288333D01*
X162376333Y-64167381D01*
X162436810Y-64106904D01*
X162557762Y-64046428D01*
X162920619Y-64046428D01*
X163041571Y-64106904D01*
X163102048Y-64167381D01*
X163162524Y-64288333D01*
X163162524Y-64530238D01*
X163102048Y-64651190D01*
X163162524Y-63502142D02*
X162315857Y-63502142D01*
X161892524Y-63502142D02*
X161953000Y-63562618D01*
X162013476Y-63502142D01*
X161953000Y-63441666D01*
X161892524Y-63502142D01*
X162013476Y-63502142D01*
X163102048Y-62413571D02*
X163162524Y-62534523D01*
X163162524Y-62776428D01*
X163102048Y-62897380D01*
X162981095Y-62957856D01*
X162497286Y-62957856D01*
X162376333Y-62897380D01*
X162315857Y-62776428D01*
X162315857Y-62534523D01*
X162376333Y-62413571D01*
X162497286Y-62353094D01*
X162618238Y-62353094D01*
X162739190Y-62957856D01*
X162678714Y-61808809D02*
X162678714Y-60841190D01*
X163162524Y-59571190D02*
X163162524Y-60296904D01*
X163162524Y-59934047D02*
X161892524Y-59934047D01*
X162073952Y-60054999D01*
X162194905Y-60175952D01*
X162255381Y-60296904D01*
M02*
