<?xml version="1.0" encoding="UTF-8" standalone="no"?>
<!-- Created with Inkscape (http://www.inkscape.org/) -->

<svg
   xmlns:dc="http://purl.org/dc/elements/1.1/"
   xmlns:cc="http://creativecommons.org/ns#"
   xmlns:rdf="http://www.w3.org/1999/02/22-rdf-syntax-ns#"
   xmlns:svg="http://www.w3.org/2000/svg"
   xmlns="http://www.w3.org/2000/svg"
   xmlns:sodipodi="http://sodipodi.sourceforge.net/DTD/sodipodi-0.dtd"
   xmlns:inkscape="http://www.inkscape.org/namespaces/inkscape"
   width="26.540001mm"
   height="26.274605mm"
   viewBox="0 0 94.03937 93.098993"
   id="svg2"
   version="1.1"
   inkscape:version="0.91 r13725"
   sodipodi:docname="Sovjet-simpits logo_7mm_X_5mm.svg">
  <defs
     id="defs4" />
  <sodipodi:namedview
     id="base"
     pagecolor="#ffffff"
     bordercolor="#666666"
     borderopacity="1.0"
     inkscape:pageopacity="0.0"
     inkscape:pageshadow="2"
     inkscape:zoom="1.979899"
     inkscape:cx="38.763339"
     inkscape:cy="103.26313"
     inkscape:document-units="px"
     inkscape:current-layer="layer1"
     showgrid="false"
     fit-margin-top="0"
     fit-margin-left="0"
     fit-margin-right="0"
     fit-margin-bottom="0"
     inkscape:window-width="1415"
     inkscape:window-height="848"
     inkscape:window-x="130"
     inkscape:window-y="130"
     inkscape:window-maximized="0" />
  <metadata
     id="metadata7">
    <rdf:RDF>
      <cc:Work
         rdf:about="">
        <dc:format>image/svg+xml</dc:format>
        <dc:type
           rdf:resource="http://purl.org/dc/dcmitype/StillImage" />
        <dc:title></dc:title>
      </cc:Work>
    </rdf:RDF>
  </metadata>
  <g
     inkscape:label="Laag 1"
     inkscape:groupmode="layer"
     id="layer1"
     transform="translate(5.8705444,-106.76766)">
    <path
       style="fill:#000000"
       d="m -5.8705444,153.31714 0,-46.54948 47.0196854,0 47.019685,0 0,46.54948 0,46.54951 -47.019685,0 -47.0196854,0 0,-46.54951 z m 7.8757968,45.49156 c -0.1077538,-0.32323 -0.6896218,-0.58774 -1.29304101,-0.58774 -0.60341917,0 -1.18528796,0.26442 -1.29304144,0.58774 -0.12923646,0.38771 0.31085137,0.58774 1.29304144,0.58774 0.98218891,0 1.42227671,-0.19994 1.29304101,-0.58774 z m 2.9387303,-0.17236 c 0,-0.099 -0.4231772,-0.18007 -0.9403936,-0.18007 -0.5172163,0 -0.9403936,0.19183 -0.9403936,0.42616 0,0.23442 0.4231773,0.31553 0.9403936,0.18007 0.5172164,-0.13546 0.9403936,-0.32689 0.9403936,-0.42616 z m 30.2773903,0.0162 c 0.156952,-0.40905 0.285393,-1.28725 0.285393,-1.95148 l 0,-1.20776 13.51816,0.30092 c 7.434987,0.16547 14.100028,0.43347 14.811202,0.59573 1.043426,0.23807 1.293041,0.55672 1.293041,1.65076 0,1.04234 0.217418,1.3558 0.940391,1.3558 0.81223,0 0.940396,-0.3135 0.940396,-2.30002 0,-2.06119 -0.122036,-2.33065 -1.175492,-2.59504 -1.157039,-0.29038 -1.17567,-0.37068 -1.186984,-5.10558 -0.0154,-6.45347 -0.478404,-19.23481 -0.724626,-20.0042 -0.108692,-0.33986 -0.414164,-0.48375 -0.678823,-0.31999 -0.26467,0.16344 -0.339249,0.52703 -0.165753,0.80772 0.188261,0.30457 0.09657,0.37514 -0.227437,0.17479 -0.298578,-0.18453 -0.54285,-0.63044 -0.54285,-0.99095 0,-0.89909 -2.730637,-1.59049 -7.724081,-1.95578 -2.88503,-0.2113 -3.881996,-0.42385 -3.188294,-0.68049 0.57364,-0.21211 2.866397,-0.073 5.311603,0.32242 3.11561,0.50391 4.472052,0.55493 4.917758,0.18493 1.406032,-1.16692 7.017703,3.62529 7.546604,6.44455 0.349878,1.86498 1.46563,2.55996 2.293098,1.42831 0.306447,-0.41906 1.036001,-3.07339 1.621249,-5.89845 0.9474,-4.5732 1.162445,-5.11078 1.960932,-4.90196 0.6092,0.15939 0.89684,-0.008 0.89684,-0.52561 0,-0.41809 -0.317396,-0.76014 -0.705294,-0.76014 -0.412083,0 -0.705295,-0.42779 -0.705295,-1.02904 l 0,-1.02907 0.958708,1.02907 c 0.527293,0.56597 1.186071,1.02904 1.46396,1.02904 0.31735,0 0.395054,0.56835 0.208944,1.52816 -0.370158,1.90902 -0.374617,2.14526 -0.07316,3.87912 0.178207,1.02498 0.151273,1.11379 -0.09863,0.32485 -0.189156,-0.59715 -0.502606,-1.0732 -0.696563,-1.05795 -0.193941,0.0162 -0.596386,0.0284 -0.894297,0.0284 -0.393355,0 -0.459352,1.34509 -0.241067,4.91298 0.20469,3.34544 0.13696,5.01413 -0.212229,5.22997 -0.338604,0.20927 -0.405439,1.3197 -0.19674,3.26859 0.286004,2.67084 0.234703,2.94496 -0.539154,2.88095 -0.642874,-0.0531 -0.847963,0.25024 -0.825871,1.22233 0.135745,5.97182 0.245851,6.93625 0.793463,6.94757 0.631411,0.0122 1.964285,2.62597 2.512221,4.9249 0.184896,0.77584 0.568112,1.56604 0.85155,1.75605 0.834818,0.55959 1.690844,0.41018 1.690844,-0.29525 0,-0.36014 0.293423,-0.76761 0.652072,-0.90522 0.469177,-0.18007 0.58023,0.0243 0.39595,0.72929 -0.242972,0.92914 -0.12548,0.96381 2.286654,0.6742 1.39854,-0.1679 3.124672,-0.30701 3.835846,-0.30944 1.122338,-0.004 1.293041,-0.19021 1.293041,-1.41468 0,-0.79519 -0.256396,-1.42677 -0.587753,-1.4477 -0.470192,-0.0284 -0.470192,-0.0848 0,-0.27416 0.323276,-0.13059 0.587753,-0.46222 0.587753,-0.73727 0,-0.3354 -1.50823,-0.42102 -4.584423,-0.25997 -3.031725,0.15898 -4.027043,0.10423 -2.938726,-0.16141 0.905125,-0.22103 2.967461,-0.4567 4.582957,-0.52391 l 2.937278,-0.12207 -0.03815,-2.11586 c -0.0672,-3.71961 -0.716004,-7.69717 -1.286586,-7.88737 -0.336009,-0.11194 -0.555891,-1.23012 -0.560265,-2.8488 -0.0081,-3.00919 -0.253641,-3.57451 -1.756037,-4.04334 -0.581872,-0.18169 -1.059552,-0.6862 -1.061514,-1.12133 -0.004,-0.95486 -0.79754,-7.97279 -1.226879,-10.85443 l -0.308387,-2.06995 1.419862,0.28389 c 0.780923,0.15615 1.973518,0.42292 2.650213,0.59277 1.225767,0.30782 1.230341,0.29809 1.230341,-2.5449 0,-4.77493 -0.994845,-12.38868 -1.955241,-14.96383 -0.66318,-1.77827 -1.717299,-3.19146 -3.911644,-5.24417 -3.415118,-3.19465 -6.363521,-4.51151 -11.001486,-4.91367 -2.738604,-0.23725 -3.088528,-0.16182 -4.050589,0.87638 -0.579158,0.62493 -1.170611,1.13622 -1.314329,1.13622 -0.143734,0 -0.40658,-1.35656 -0.584142,-3.01462 -0.422365,-3.94398 -1.552368,-5.73413 -4.427515,-7.01408 -2.656447,-1.18258 -3.376602,-2.94507 -1.766615,-4.32362 1.399936,-1.19864 0.777689,-3.79963 -1.422816,-5.94737 -0.975758,-0.95238 -2.271877,-2.3884 -2.880269,-3.19121 -2.190783,-2.89081 -6.475074,-4.23922 -10.518499,-3.31048 -3.52492,0.80962 -5.566976,2.29309 -7.189639,5.22303 -1.328294,2.39842 -1.400751,2.80576 -1.341089,7.53937 0.06165,4.88913 0.0365,5.01607 -1.095542,5.53187 -0.8951,0.40783 -1.704168,0.36581 -3.557337,-0.18453 -3.016443,-0.89581 -7.058374,-0.91179 -9.95722,-0.0406 -1.229949,0.37028 -2.512593,0.56698 -2.850325,0.4374 -0.814337,-0.31269 -4.220177,1.43358 -6.668982,3.41901 -1.2900007,1.04591 -2.4705642,2.66049 -3.4298039,4.69069 -2.0221495,4.2799 -5.8129875,15.54488 -5.502961,16.35281 0.1400204,0.365 1.0628531,0.92188 2.0507395,1.23777 0.9878862,0.31593 1.9668746,0.73005 2.1755289,0.92038 0.2086538,0.19021 -0.5848027,3.26129 -1.7632385,6.82428 -2.427426,7.33934 -2.3026958,6.82197 -1.6446631,6.82197 0.2738722,0 0.3762118,-0.19711 0.2274272,-0.43773 -0.1487846,-0.2409 -0.035122,-0.58316 0.2525518,-0.76095 0.3294707,-0.2036 0.4595889,0.002 0.3515617,0.55525 -0.09433,0.48319 -0.5907441,0.90007 -1.1031442,0.92646 -0.5123996,0.0243 -1.09032719,0.10586 -1.28428332,0.17643 -0.56433187,0.20562 -1.24831276,0.35892 -1.88088058,0.42227 -0.3233102,0.0325 -0.9881068,1.31147 -1.4773228,2.84255 -0.5702175,1.78459 -1.1910089,2.86265 -1.7295434,3.00351 -0.7341234,0.19183 -0.8386806,0.78963 -0.8291187,4.73956 0.00795,3.29033 0.1587128,4.43134 0.5541446,4.19432 0.3801539,-0.22792 0.3735432,-0.11558 -0.022022,0.37353 -0.370392,0.45808 -0.5579471,2.57447 -0.5441012,6.13981 l 0.02113,5.44082 1.7195937,-0.83797 c 4.11021779,-2.00287 4.09933896,-2.00056 6.6400366,-1.39108 2.4416962,0.58575 3.1804497,0.46863 2.6328002,-0.41749 -0.5106635,-0.82629 -3.638094,-1.45394 -7.258169,-1.4567 -3.0278566,-0.002 -3.3924321,-0.0917 -2.8811571,-0.7079 0.3219395,-0.38772 1.141304,-0.6979 1.8208115,-0.6889 2.50313814,0.0325 8.6208168,1.3498 9.7695078,2.10244 1.102473,0.72239 1.1315603,0.83404 0.4215914,1.61856 -0.6372349,0.70413 -0.6683683,1.04943 -0.1894057,2.10061 0.7483105,1.64237 2.4597755,1.51332 2.5943288,-0.19548 0.4762678,-6.04896 1.1966118,-10.89267 1.7888148,-12.02829 0.647792,-1.24219 1.007899,-3.95841 0.524797,-3.95841 -0.108163,0 -0.566043,-0.14195 -1.017527,-0.31512 -0.603753,-0.23158 -0.719083,-0.15006 -0.436004,0.30782 0.258019,0.41748 0.203389,0.5106 -0.165632,0.28267 -0.302793,-0.18696 -0.455232,-0.49437 -0.338766,-0.68284 0.116477,-0.18859 0.03042,-0.63629 -0.191588,-0.99521 -0.3182446,-0.5149 -0.5475943,-0.53286 -1.0870367,-0.0852 -0.550896,0.45719 -0.7262122,0.40476 -0.9025709,-0.2697 -0.1522891,-0.58242 -1.0635053,-1.0251 -2.996163,-1.45556 -1.5275081,-0.34027 -3.3062597,-0.93032 -3.9527804,-1.3113 l -1.17549198,-0.69274 1.41059038,0.21535 c 0.7758246,0.11842 2.9975048,0.65389 4.9370667,1.18992 1.9395624,0.53603 4.0953819,0.97821 4.7907069,0.98264 1.146131,0.008 1.294952,-0.1967 1.593089,-2.18493 0.193332,-1.28929 0.130145,-2.51116 -0.153343,-2.96511 -0.356935,-0.57156 -0.06465,-2.1088 1.125257,-5.91788 1.986806,-6.36015 2.403135,-8.67226 1.561573,-8.67226 -0.335764,0 -0.482704,-0.12775 -0.326559,-0.2839 0.156183,-0.15614 3.266651,0.71014 6.912194,1.92509 7.022775,2.34054 7.944577,2.34792 8.055503,0.0645 0.06586,-1.35572 0.631262,1.18891 1.606059,7.22805 0.438299,2.71541 0.873427,5.20155 0.966958,5.52482 0.237862,0.82211 1.516434,0.71642 3.782745,-0.31269 l 1.937493,-0.87987 -0.372631,1.65222 c -0.204931,0.9087 -0.412485,4.74759 -0.461194,8.53084 -0.04871,3.78329 -0.143731,7.51345 -0.211176,8.28925 -0.06744,0.77584 -0.149895,1.76813 -0.183273,2.20508 -0.04311,0.56471 -0.570497,0.83664 -1.823871,0.94038 l -1.763239,0.14601 -0.141014,2.70364 c -0.125805,2.41208 -0.0425,2.70364 0.772539,2.70364 0.502456,0 1.041983,-0.33459 1.198956,-0.74377 z m -1.033524,-2.31251 c 0.0097,-0.77584 0.114978,-1.03629 0.234172,-0.57882 0.119236,0.45752 0.111368,1.09226 -0.01744,1.41058 -0.128807,0.31837 -0.226345,-0.0559 -0.216774,-0.83176 z m 49.190843,-1.02636 c 0.339415,-0.13586 0.744962,-0.11923 0.901208,0.0365 0.156224,0.15614 -0.121466,0.26726 -0.617132,0.24698 -0.547754,-0.0243 -0.659166,-0.13383 -0.284093,-0.2843 z m -26.713057,-0.64695 c 0,-0.27376 0.211585,-0.36703 0.470198,-0.20725 0.258626,0.1598 0.470199,0.38408 0.470199,0.49796 0,0.11396 -0.211585,0.20724 -0.470199,0.20724 -0.258625,0 -0.470198,-0.22428 -0.470198,-0.49795 z m -60.2733573,-0.29363 c 0.3394233,-0.13586 0.7449682,-0.11924 0.9012106,0.0365 0.1562429,0.15614 -0.1214659,0.26726 -0.6171332,0.24698 -0.5477525,-0.0244 -0.6591686,-0.13383 -0.2840762,-0.28389 z m 6.5827558,0 c 0.3394235,-0.13586 0.7449682,-0.11924 0.9012109,0.0365 0.1562427,0.15614 -0.1214664,0.26726 -0.6171336,0.24698 -0.5477524,-0.0244 -0.6591689,-0.13383 -0.2840761,-0.28389 z m 41.7260915,-0.1902 c 0.1458,-0.23604 0.605249,-0.42897 1.020999,-0.42897 0.891057,0 0.414639,0.60826 -0.592162,0.75601 -0.381675,0.0559 -0.574637,-0.0913 -0.428837,-0.32689 z m 8.326949,0.17398 c 0.714727,-0.10788 1.772673,-0.10504 2.350981,0.008 0.57832,0.11153 -0.0065,0.19994 -1.299504,0.1967 -1.293042,-0.004 -1.766204,-0.0949 -1.051477,-0.20278 z m 2.382397,-1.04266 c -3.664331,-0.146 -6.83816,-0.45249 -7.052951,-0.68094 -0.57799,-0.61467 13.009738,-0.008 13.626129,0.60822 0.281829,0.28187 0.417209,0.47325 0.300847,0.42539 -0.116356,-0.0478 -3.20968,-0.20643 -6.874013,-0.35283 z m -16.142117,-0.53696 c 0,-0.23888 1.727971,-0.43396 3.839941,-0.43396 2.111961,0 3.751776,0.0771 3.644026,0.17075 -0.472934,0.41257 -7.483967,0.65895 -7.483967,0.26321 z M 6.3545734,192.34328 c -0.4237851,-0.27375 -0.4817796,-0.45865 -0.145301,-0.46299 0.3080002,-0.004 0.6907653,0.20441 0.8505938,0.46299 0.3607844,0.58377 0.1980122,0.58377 -0.705295,0 z m -1.9689492,-0.79137 c 0.3394229,-0.13587 0.7449677,-0.11924 0.901211,0.0365 0.1562427,0.15613 -0.1214659,0.26726 -0.6171337,0.24698 -0.5477528,-0.0243 -0.6591689,-0.13383 -0.2840761,-0.2843 z m 54.4490718,-0.23523 c 0.135779,-0.21981 0.443869,-0.27781 0.684611,-0.12896 0.615193,0.38001 0.545923,0.52848 -0.246907,0.52848 -0.376521,0 -0.573507,-0.17966 -0.437704,-0.39948 z m -61.4138627,-0.38404 -2.5860825,-0.31675 3.2015781,-0.0767 c 2.03266387,-0.0486 3.0954794,0.0949 2.91098092,0.3934 -0.15982805,0.25875 -0.43680157,0.43574 -0.61549561,0.39339 -0.17869483,-0.0422 -1.48863521,-0.21941 -2.91098091,-0.39339 z m 8.6986416,-0.31066 c -1.0344333,-0.39299 -3.7321872,-0.83055 -5.99500971,-0.97246 -2.26282209,-0.14194 -4.11422239,-0.44028 -4.11422239,-0.66306 0,-0.79425 3.93437454,-0.6115 8.3864936,0.38975 2.9630786,0.66622 3.5089945,0.68147 3.8719242,0.10829 0.3097681,-0.4894 0.4244164,-0.32242 0.429697,0.62549 0.00811,1.47305 -0.030013,1.48063 -2.5788827,0.51235 z m 39.9399961,0.35365 c 0.177555,-0.28754 1.685651,-0.51344 3.424228,-0.51344 3.874977,0 3.686829,0.25307 -0.513248,0.69063 -2.289375,0.23847 -3.136023,0.18696 -2.91098,-0.17723 z m -3.141612,-0.37596 c 0.584882,-0.11234 1.431238,-0.10828 1.880787,0.008 0.44955,0.11761 -0.02879,0.20967 -1.063425,0.20441 -1.034431,-0.004 -1.402244,-0.1014 -0.817362,-0.21414 z m 35.84703,-2.94734 c 0,-3.88302 0.325626,-4.10567 0.879573,-0.60145 0.269985,1.70799 0.200595,2.58384 -0.254041,3.2056 -0.541424,0.74044 -0.625543,0.39015 -0.625543,-2.60415 z m -17.867487,2.50942 c -0.387915,-0.10505 -2.715383,-0.3865 -5.172158,-0.62534 l -4.466874,-0.43415 5.15002,0.21088 c 2.832509,0.116 5.360989,0.42199 5.61885,0.67989 0.479248,0.47921 0.180682,0.52378 -1.129838,0.16872 z m -18.906991,-0.98872 c 1.626435,-0.0921 4.165498,-0.0913 5.642362,0.002 1.476859,0.0929 0.146124,0.1683 -2.957158,0.16749 -3.103298,-0.001 -4.311643,-0.0771 -2.685204,-0.16911 z m 33.050998,-0.52063 c -0.279554,-0.52236 -0.506992,-1.22816 -0.505395,-1.56843 0.0011,-0.34026 0.322745,-0.004 0.713706,0.74437 0.39092,0.74965 0.618363,1.45544 0.505394,1.56839 -0.112991,0.11316 -0.434146,-0.22184 -0.713705,-0.74433 z m 11.320866,-0.071 c 0,-0.64655 0.106742,-0.91101 0.237172,-0.58774 0.130431,0.32324 0.130431,0.85221 0,1.17548 -0.13043,0.32324 -0.237172,0.0588 -0.237172,-0.58774 z m -4.510882,-0.13789 c 0.176582,-0.46372 0.43949,-0.72466 0.584262,-0.57992 0.144784,0.14479 2.97e-4,0.52419 -0.321046,0.84313 -0.464376,0.46092 -0.518379,0.40694 -0.26321,-0.26321 z m -21.894382,-0.0471 c 0,-0.44603 1.407481,-0.67084 1.65838,-0.26483 0.152858,0.2474 -0.157763,0.44969 -0.690234,0.44969 -0.532477,0 -0.968146,-0.0831 -0.968146,-0.18494 z m 23.980042,-0.78334 c 0,-0.58425 0.205055,-0.84142 0.517108,-0.64853 0.343104,0.21211 0.327735,-0.0324 -0.04568,-0.73196 -0.456603,-0.85318 -0.443282,-1.01229 0.07065,-0.84337 0.949418,0.31188 1.123547,3.19202 0.193005,3.19202 -0.428643,0 -0.735085,-0.40353 -0.735085,-0.96816 z m -39.496535,0.0284 c 0,-0.25875 0.211582,-0.47017 0.470197,-0.47017 0.258627,0 0.470197,0.21171 0.470197,0.47017 0,0.25875 -0.211582,0.47021 -0.470197,0.47021 -0.258627,0 -0.470197,-0.2117 -0.470197,-0.47021 z m 13.518158,0.15898 c 0.32327,-0.13059 0.852234,-0.13059 1.175493,0 0.323276,0.1306 0.05877,0.23726 -0.587747,0.23726 -0.646523,0 -0.911005,-0.10666 -0.587746,-0.23726 z m 18.546886,-0.86409 c 0.0098,-0.77584 0.114982,-1.03629 0.234173,-0.57882 0.119196,0.45752 0.111372,1.09226 -0.01745,1.41059 -0.128805,0.31836 -0.226343,-0.056 -0.216734,-0.83177 z m -70.3761212,0.25105 c -0.1543489,-0.24983 0.1505492,-1.29923 0.6775461,-2.33223 0.5269975,-1.03301 0.9581761,-2.3098 0.9581761,-2.83732 0,-0.52751 0.2240731,-0.95911 0.4979455,-0.95911 0.2738758,0 0.3789574,0.19264 0.2335628,0.42775 -0.145394,0.23522 -0.1331864,0.76963 0.027173,1.18748 0.2213153,0.57671 0.4436406,0.63349 0.922983,0.23563 0.4999687,-0.41492 0.5919907,-0.31917 0.4419451,0.45999 -0.2937083,1.525 -0.6782504,1.92087 -1.8659558,1.92087 -1.0946598,0 -1.9082169,1.11209 -1.4069211,1.92321 0.1454066,0.23523 0.1585791,0.42775 0.029283,0.42775 -0.1293053,0 -0.3613843,-0.2044 -0.5157297,-0.45407 z m 40.1037002,0.13302 c 0.339414,-0.13586 0.744969,-0.11923 0.901212,0.0365 0.156222,0.15615 -0.121466,0.26727 -0.617132,0.24699 -0.547757,-0.0243 -0.659169,-0.13384 -0.284097,-0.2843 z m 2.791793,0.008 c 0.323274,-0.13059 0.852233,-0.13059 1.175495,0 0.323273,0.13059 0.05877,0.23726 -0.587746,0.23726 -0.646523,0 -0.911006,-0.10667 -0.587749,-0.23726 z M 0.11881857,186.11067 c -0.31222627,-0.82378 1.50674073,-5.4111 2.26027683,-5.70026 0.5158351,-0.19792 0.5191335,0.0612 0.019061,1.49753 -0.3326138,0.95531 -0.5189899,1.98345 -0.4141687,2.28474 0.1048216,0.30133 -0.2721972,0.69473 -0.8378176,0.87427 -0.71982979,0.22833 -0.85361666,0.4344 -0.44588014,0.68641 0.36621064,0.22631 0.40757634,0.46814 0.11139586,0.65117 -0.25911788,0.1602 -0.57090773,0.0284 -0.69286154,-0.29403 z m 2.94437693,-0.0872 c 0,-0.37271 0.1918556,-0.79612 0.4263468,-0.94107 0.2344918,-0.14479 0.3156081,0.1602 0.1802598,0.67757 -0.2871093,1.0979 -0.6066054,1.23668 -0.6066054,0.26362 z m 45.6090945,0.22265 c -7.791356,-0.21292 -8.746613,-0.31349 -6.358399,-0.67068 2.905178,-0.43431 12.981849,-0.0596 16.702724,0.62075 1.83118,0.335 1.894451,0.38124 0.470198,0.34392 -0.905126,-0.0243 -5.771664,-0.15614 -10.814523,-0.29362 z m 32.950902,-0.28957 c 0.0227,-0.54775 0.133954,-0.65916 0.284053,-0.28389 0.135825,0.33945 0.119116,0.74493 -0.0369,0.9012 -0.156263,0.15614 -0.267385,-0.12167 -0.246946,-0.61715 z m -24.297165,-1.20894 c -0.19828,-0.3208 -0.12994,-0.41578 0.167173,-0.23198 0.276474,0.17074 0.609855,0.045 0.740827,-0.27984 0.184571,-0.4578 0.246502,-0.45224 0.275254,0.0243 0.0207,0.34189 0.278419,0.46639 0.579974,0.27983 0.336329,-0.20764 0.415208,-0.12896 0.207364,0.20725 -0.184531,0.29849 -0.62791,0.54284 -0.985299,0.54284 -0.357383,0 -0.800773,-0.24415 -0.985293,-0.54284 z m 3.483218,0.22184 c 0.339415,-0.13586 0.744962,-0.11923 0.901208,0.0365 0.156224,0.15614 -0.121465,0.26726 -0.617132,0.24699 -0.547753,-0.0243 -0.659166,-0.13384 -0.284093,-0.2839 z m -20.688663,-0.47021 c 0.339415,-0.13586 0.744969,-0.11923 0.901212,0.0365 0.156223,0.15614 -0.121466,0.26726 -0.617132,0.24699 -0.547752,-0.0243 -0.659168,-0.13384 -0.284056,-0.2839 z m 4.555033,-0.18128 c -1.294308,-0.29972 -1.245851,-0.33135 0.587745,-0.38245 1.993132,-0.0555 2.524313,0.13708 1.41059,0.51154 -0.323273,0.10869 -1.222511,0.0507 -1.998335,-0.12897 z m 3.093402,-0.24213 c 0.02271,-0.54779 0.133958,-0.6592 0.284056,-0.28389 0.135823,0.33946 0.119114,0.74498 -0.03731,0.9012 -0.156264,0.15615 -0.267387,-0.12126 -0.246947,-0.6171 z m 1.41059,0 c 0.02271,-0.54779 0.133958,-0.6592 0.284057,-0.28389 0.135822,0.33946 0.119113,0.74498 -0.03731,0.9012 -0.156263,0.15615 -0.267387,-0.12126 -0.246947,-0.6171 z m 5.261539,0.41863 c 0.457486,-0.11924 1.092251,-0.11153 1.410588,0.0162 0.318326,0.12897 -0.05594,0.22631 -0.83179,0.21657 -0.775824,-0.008 -1.036284,-0.11518 -0.578798,-0.23401 z m 28.085318,-0.12086 c 0,-0.38812 -0.414347,-0.52415 -1.16127,-0.38123 -0.638688,0.12208 -1.049385,0.041 -0.912642,-0.18048 0.351464,-0.56867 1.957869,-0.50021 2.32834,0.0994 0.170457,0.27578 0.182952,0.62846 0.0276,0.78367 -0.155208,0.15533 -0.282189,0.0121 -0.282189,-0.32121 z m -32.090939,-0.33499 c 0.323273,-0.1306 0.852232,-0.1306 1.175494,0 0.323273,0.13059 0.05877,0.23725 -0.587745,0.23725 -0.646523,0 -0.911007,-0.10666 -0.587749,-0.23725 z M 4.1937875,183.33698 c -0.2144208,-0.34716 -0.1282428,-0.41476 0.2387956,-0.18777 0.3518819,0.21738 0.5405395,0.10909 0.4871355,-0.27984 -0.1647436,-1.2001 0.024778,-2.2806 0.4000429,-2.2806 0.2066784,0 0.2893242,0.74056 0.1836547,1.64569 -0.1946493,1.66731 -0.6985278,2.09161 -1.3096321,1.10285 z m 54.5877315,0.0511 c -1.293041,-0.20157 -6.15958,-0.41542 -10.814527,-0.47556 -8.01162,-0.10342 -8.275239,-0.13546 -4.937064,-0.5935 3.848,-0.52821 16.192751,0.16384 18.337672,1.02773 1.355348,0.54601 0.719329,0.55615 -2.586081,0.0414 z m 18.572776,-0.81186 c 0,-0.60035 4.672266,-1.02137 5.642361,-0.50845 0.490797,0.25956 0.276315,0.3788 -0.705294,0.39259 -0.775825,0.0121 -2.204046,0.15046 -3.173828,0.31106 -1.088893,0.18007 -1.763239,0.10544 -1.763239,-0.19467 z m -80.4025128,-0.10706 c -0.3847489,-1.23749 -0.3454296,-1.94297 0.084337,-1.5132 0.2697801,0.2697 0.377615,0.7735 0.2396346,1.1194 -0.1379804,0.34594 -0.2837679,0.5231 -0.3239713,0.3938 z m 44.1091928,-1.26158 c 0.339416,-0.13586 0.744966,-0.11923 0.901213,0.0365 0.156222,0.15615 -0.121466,0.26727 -0.617133,0.24699 -0.547752,-0.0243 -0.659168,-0.13384 -0.284096,-0.2843 z m 40.995291,-0.82074 c 0,-0.58478 -0.555692,-0.73885 -2.664453,-0.73885 -3.501581,0 -3.070331,-0.3135 0.901214,-0.6549 3.28496,-0.28228 3.851043,0.045 2.468533,1.42733 -0.626929,0.62696 -0.705294,0.62323 -0.705294,-0.0325 z M 59.80636,180.28099 c -0.169083,-0.16912 -4.806386,-0.46266 -10.305154,-0.65243 l -9.997756,-0.34513 9.874133,0.12045 c 5.430777,0.0661 10.508898,0.34148 11.284723,0.612 1.090102,0.38001 1.188027,0.5007 0.431015,0.53193 -0.538766,0.0203 -1.117902,-0.0977 -1.286961,-0.26686 z m -20.185362,-2.35502 c 0.323274,-0.13059 0.852233,-0.13059 1.175494,0 0.323274,0.13059 0.05877,0.23726 -0.587745,0.23726 -0.646523,0 -0.911007,-0.10667 -0.587749,-0.23726 z m 3.112257,-0.25834 c -0.123818,-0.20035 0.315447,-0.31959 0.976152,-0.26484 0.660718,0.0547 1.201308,0.25186 1.201308,0.43785 0,0.44604 -1.88756,0.29606 -2.17746,-0.17318 z m 15.254807,0.24861 c 0.339414,-0.13587 0.744967,-0.11924 0.901213,0.0365 0.156224,0.15614 -0.121465,0.26726 -0.617132,0.24698 -0.547759,-0.0244 -0.659171,-0.13383 -0.284098,-0.2843 z M 8.9213199,177.26575 c -0.1704582,-0.27578 -0.2091083,-0.60234 -0.085817,-0.72559 0.1232502,-0.12329 0.3493917,0.1022 0.5025241,0.50148 0.31792,0.82852 0.046961,0.97428 -0.4166871,0.22428 z m 48.3320621,-0.76306 c 0.45256,-0.11843 1.193125,-0.11843 1.645685,0 0.452566,0.11842 0.08229,0.21495 -0.822843,0.21495 -0.905126,0 -1.275408,-0.0969 -0.822842,-0.21495 z m 5.561937,-0.42032 c 0.0227,-0.54776 0.133955,-0.65921 0.284053,-0.28431 0.135825,0.33946 0.119117,0.74498 -0.0369,0.90121 -0.156263,0.15614 -0.267384,-0.12126 -0.246946,-0.61711 z M 2.6811606,175.56523 c -1.1152482,-0.39461 -1.94464059,-0.80021 -1.8430943,-0.90177 0.10154475,-0.10139 1.3314053,0.22225 2.7330195,0.71992 1.4016142,0.4975 2.2310063,0.90331 1.843094,0.90177 -0.3879122,-10e-4 -1.6177709,-0.32526 -2.7330192,-0.71992 z m 41.4297944,0.44097 c 2.275524,-0.0864 5.87253,-0.086 7.993345,0.001 2.120824,0.0868 0.259033,0.15776 -4.137308,0.15695 -4.39634,-4.8e-4 -6.131554,-0.0718 -3.856037,-0.15817 z m 35.734079,-1.29407 c -0.02555,-0.90457 0.144014,-1.52682 0.377012,-1.38285 0.524282,0.32405 0.565911,3.02753 0.04665,3.02753 -0.207359,0 -0.397975,-0.74011 -0.423625,-1.64468 z m -70.9237141,0.67299 c -0.4498986,-0.72794 -0.1687953,-0.82629 1.5951131,-0.55793 1.107368,0.16831 1.386906,0.35933 0.940394,0.64237 -0.881381,0.55854 -2.1645396,0.51579 -2.5355071,-0.0844 z m -5.0352801,-1.2205 c -1.2283892,-0.37596 -2.2334347,-0.88295 -2.2334347,-1.12653 0,-0.59419 0.2203744,-0.56969 3.132502,0.34838 1.3804227,0.43513 2.50986,0.9641 2.50986,1.17548 0,0.50886 -0.7247023,0.42442 -3.4089273,-0.39704 z m 50.3165422,0.44904 c 0.584883,-0.11234 1.431238,-0.10828 1.880787,0.008 0.449549,0.11761 -0.0288,0.20967 -1.063425,0.20441 -1.034431,-0.004 -1.402243,-0.1014 -0.817362,-0.21414 z m -13.611803,-0.45885 c 0.339415,-0.13587 0.744965,-0.11924 0.901212,0.0365 0.156223,0.15614 -0.121466,0.26727 -0.617132,0.24699 -0.547753,-0.0243 -0.659169,-0.13383 -0.284097,-0.28389 z m 6.582755,0 c 0.339415,-0.13587 0.74497,-0.11924 0.901212,0.0365 0.156223,0.15614 -0.121466,0.26727 -0.617132,0.24699 -0.547756,-0.0243 -0.659168,-0.13383 -0.284096,-0.28389 z m 12.225117,-0.47021 c 0.33942,-0.13586 0.744967,-0.11924 0.901213,0.0365 0.156224,0.15615 -0.121465,0.26727 -0.617132,0.24699 -0.547753,-0.0243 -0.659166,-0.13383 -0.284093,-0.28389 z m -15.898595,-0.73675 c 3.2e-5,-0.19385 2.38044,-0.3208 5.289782,-0.28227 5.778139,0.0771 5.277964,0.28998 -1.175559,0.50059 -2.262859,0.0738 -4.114259,-0.0243 -4.114223,-0.21819 z m 12.113115,0.2551 c 0.584883,-0.11234 1.431238,-0.10828 1.880787,0.008 0.449549,0.11762 -0.0288,0.20968 -1.063425,0.20441 -1.034427,-0.004 -1.40224,-0.1014 -0.817362,-0.21414 z m -57.0504311,-1.13707 c 0,-0.49089 0.2059202,-0.82394 0.45760251,-0.74003 0.73840529,0.24618 0.84459449,1.1329 0.16680778,1.39299 -0.38394589,0.14721 -0.62441149,-0.10424 -0.62441149,-0.65296 z m 59.5134841,0.0592 c -0.423784,-0.27375 -0.48178,-0.45865 -0.145314,-0.46299 0.307981,-0.004 0.690764,0.20441 0.850597,0.46299 0.360788,0.58377 0.197995,0.58377 -0.705294,0 z m 17.941719,-0.94038 c 0,-0.64651 0.106747,-0.91101 0.237177,-0.58774 0.130425,0.32324 0.130425,0.85221 0,1.17548 -0.13043,0.32324 -0.237177,0.0588 -0.237177,-0.58774 z m 3.501666,-0.53972 c -0.602591,-3.85613 -0.800934,-7.92384 -0.386376,-7.92384 0.458805,0 1.288696,8.84402 0.869245,9.2635 -0.130105,0.13018 -0.347404,-0.47273 -0.482875,-1.33966 z m -72.9379207,0.3569 c -0.4911582,-0.35933 -1.219262,-0.5508 -1.6180081,-0.42584 -0.541736,0.16992 -0.5736632,0.11801 -0.1263085,-0.20441 0.857344,-0.61796 3.3979878,-0.146 3.3979878,0.63126 0,0.82755 -0.5209162,0.82722 -1.6536706,-0.001 z m 36.4482397,0.18291 c 1.688384,-0.54074 2.450067,-0.54074 2.115883,0 -0.159831,0.25874 -0.965773,0.44911 -1.790987,0.42332 -1.432864,-0.0446 -1.447488,-0.0637 -0.324896,-0.42332 z m 11.196563,0.14884 c 0.339416,-0.13587 0.744964,-0.11924 0.90121,0.0365 0.156218,0.15614 -0.121466,0.26727 -0.617132,0.24699 -0.547759,-0.0243 -0.659171,-0.13384 -0.284099,-0.2843 z m -20.31122,-3.58521 c -0.879616,-4.05599 -2.183223,-12.2108 -2.137021,-13.36827 0.02879,-0.72008 0.09085,-0.7054 0.47671,0.11233 0.383459,0.81279 0.420337,0.7681 0.271767,-0.32931 -0.103702,-0.76574 0.0803,-1.36626 0.463684,-1.5134 0.723296,-0.2774 0.873751,-1.68398 0.180151,-1.68398 -0.250476,0 -0.326843,-0.33498 -0.169647,-0.74473 0.232062,-0.60473 0.368778,-0.62683 0.727352,-0.11761 0.306239,0.43497 0.378227,0.23077 0.23486,-0.66589 -0.140446,-0.87857 -0.0015,-1.29302 0.433385,-1.29302 0.352068,0 0.64009,-0.30011 0.64009,-0.66686 0,-0.36663 0.141744,-1.03621 0.315001,-1.48772 0.214786,-0.55968 0.139959,-0.7127 -0.235105,-0.48088 -0.302549,0.18696 -0.550101,0.75066 -0.550101,1.25262 0,0.50192 -0.234212,0.91263 -0.520502,0.91263 -0.303523,0 -0.387799,-0.3431 -0.202173,-0.82284 0.175081,-0.45257 0.43664,-1.40913 0.581236,-2.12567 0.310498,-1.53875 1.06158,-2.17645 1.1287,-0.95835 0.03326,0.60255 0.156628,0.5078 0.423326,-0.32485 0.56975,-1.77904 0.532949,-2.47576 -0.117532,-2.22545 -0.766513,0.29485 -0.491919,-4.4364 0.28657,-4.93788 0.294925,-0.19021 1.55603,-0.34878 2.802404,-0.35284 2.079415,-0.008 2.253758,-0.0945 2.115887,-1.06513 -0.09656,-0.67988 -0.52831,-1.11164 -1.208194,-1.20821 -0.91065,-0.12937 -1.057946,-0.43302 -1.057946,-2.18123 l 0,-2.03094 3.026176,-0.81915 c 4.596173,-1.24415 12.276085,-0.82252 15.822867,0.86863 2.875849,1.37121 3.47581,2.24754 3.957026,5.77979 0.497679,3.65306 0.549653,3.72124 4.219729,5.53507 5.003845,2.47304 6.615793,5.18929 7.145675,12.04107 0.212759,2.7513 -0.01055,4.99929 -1.015751,10.22678 -0.708659,3.68515 -1.402839,6.7003 -1.542616,6.7003 -0.1398,0 -1.383804,-1.06838 -2.764499,-2.3742 -1.380685,-1.30579 -3.14649,-2.59593 -3.923997,-2.86697 -1.660022,-0.57869 -1.49022,-1.14705 0.471413,-1.57788 0.772859,-0.16993 1.4052,-0.50342 1.4052,-0.74149 0,-0.23806 0.317391,-0.43282 0.705294,-0.43282 0.387921,0 0.705295,-0.31755 0.705295,-0.70531 0,-0.38771 0.342049,-0.70527 0.760137,-0.70527 0.54606,0 0.685763,-0.2843 0.496059,-1.00985 -0.147504,-0.56397 0.139674,-1.80122 0.650458,-2.80244 1.123411,-2.20207 1.198115,-6.00244 0.176907,-8.99955 -1.334288,-3.9159 -7.985997,-9.28741 -11.500904,-9.28741 -0.510527,0 -0.926984,-0.31675 -0.926984,-0.70532 0,-0.38771 -0.317397,-0.70527 -0.7053,-0.70527 -0.387921,0 -0.705295,0.2117 -0.705295,0.47017 0,0.25875 -0.211578,0.47021 -0.470192,0.47021 -0.258631,0 -0.470199,-0.335 -0.470199,-0.74445 0,-0.86349 -1.017378,-0.67028 -1.324656,0.25145 -0.12394,0.3719 0.0065,0.49121 0.323274,0.29565 0.292167,-0.18047 0.531197,-0.12816 0.531197,0.1164 0,0.64435 -2.996728,0.99521 -3.378347,0.39542 -0.449509,-0.70633 -2.474007,0.44056 -4.15273,2.35255 -2.28944,2.60752 -2.529639,9.35016 -0.501069,14.06571 1.167229,2.71329 4.97638,6.67787 7.751919,8.06821 l 1.835661,0.91958 -2.439592,0.32363 c -1.404576,0.18616 -5.375125,1.63158 -9.35881,3.40657 -3.805569,1.69562 -7.376781,3.26198 -7.936027,3.48086 -0.951271,0.3723 -1.06409,0.18007 -1.750189,-2.98372 z M 40.1239,154.84047 c 0.122195,-0.85647 -0.07535,-1.05312 -1.057942,-1.05312 -0.858122,0 -1.208195,0.24982 -1.208195,0.86202 0,1.82248 2.009213,1.99196 2.266137,0.19102 z m 2.500178,-18.77952 c -0.541138,-0.21536 -0.541138,-0.31797 0,-0.66099 0.501599,-0.31796 0.462057,-0.40767 -0.181895,-0.41327 -0.834668,-0.008 -1.080532,0.51876 -0.509382,1.08991 0.172404,0.17236 0.542683,0.29687 0.822845,0.27619 0.280163,-0.0203 0.220951,-0.15168 -0.131564,-0.29201 z m 7.928999,-5.96822 c 0,-1.37356 -1.32378,-1.98433 -2.263666,-1.04444 -0.954881,0.95485 -0.353894,2.16959 1.073418,2.16959 0.941938,0 1.190248,-0.23482 1.190248,-1.12515 z m -0.558362,40.7707 c 0.339415,-0.13587 0.744969,-0.11924 0.901212,0.0365 0.156223,0.15614 -0.121466,0.26727 -0.617132,0.24699 -0.547757,-0.0243 -0.659168,-0.13384 -0.284096,-0.2839 z m -3.790962,-0.4604 c 0.323274,-0.13059 0.852233,-0.13059 1.175495,0 0.323273,0.1306 0.05877,0.23726 -0.587746,0.23726 -0.646523,0 -0.911006,-0.10666 -0.587749,-0.23726 z m 11.754923,0 c 0.32327,-0.13059 0.852234,-0.13059 1.175493,0 0.323276,0.1306 0.05877,0.23726 -0.587747,0.23726 -0.646523,0 -0.911005,-0.10666 -0.587746,-0.23726 z m -14.103903,-0.81076 c 1.049997,-0.59816 12.042183,-0.2113 12.752045,0.44876 0.09697,0.09 -2.897221,0.12004 -6.653734,0.0661 -4.255886,-0.0608 -6.554252,-0.25509 -6.098311,-0.51478 z m 13.045958,-0.75864 c -0.159833,-0.25875 -0.079,-0.47017 0.179582,-0.47017 0.258631,0 0.60097,0.2117 0.760798,0.47017 0.159833,0.25874 0.079,0.47021 -0.179587,0.47021 -0.258625,0 -0.600959,-0.21171 -0.760793,-0.47021 z m -6.157457,-0.54285 c -0.207851,-0.33621 -0.128969,-0.41521 0.207363,-0.20724 0.298575,0.18453 0.54285,0.11153 0.54285,-0.16263 0,-0.27376 0.38792,-0.49795 0.862027,-0.49795 0.474114,0 0.862027,0.31756 0.862027,0.70531 0,0.83716 -1.97704,0.96694 -2.474251,0.16263 z m 4.746868,0.0726 c -0.159833,-0.25875 -0.06651,-0.47021 0.207365,-0.47021 0.273874,0 0.497947,0.2117 0.497947,0.47021 0,0.25874 -0.09332,0.47017 -0.207364,0.47017 -0.114041,0 -0.338114,-0.21171 -0.497948,-0.47017 z M 7.0598685,167.80954 c -0.5172163,-0.28876 -1.0012126,-0.57249 -1.0755474,-0.63024 -0.1219363,-0.0949 0.1299627,-0.79819 1.3438791,-3.75299 0.2124865,-0.51722 0.7570606,-2.20995 1.210167,-3.7616 0.4531023,-1.55164 0.8455328,-2.8672 0.8720648,-2.92345 0.026363,-0.0564 0.787205,0.12451 1.69038,0.40191 l 1.642138,0.50399 -1.783598,5.24011 c -0.9809788,2.88209 -1.7835988,5.29328 -1.7835988,5.35821 0,0.2989 -1.2676175,0.0365 -2.1158847,-0.43573 z m -3.9894731,-0.73922 c -0.00396,-0.58185 0.2043873,-1.05795 0.4629966,-1.05795 0.5891201,0 0.5891201,0.49901 0,1.41059 -0.3685748,0.57034 -0.4571743,0.50286 -0.4629966,-0.35284 z M 80.682795,166.2083 c 0.0227,-0.54775 0.13396,-0.65916 0.284059,-0.28389 0.135819,0.33945 0.119111,0.74498 -0.0369,0.90124 -0.156263,0.15614 -0.26739,-0.12167 -0.246946,-0.61715 z m -22.371469,-0.19588 c 0.159828,-0.25875 0.502184,-0.47021 0.760787,-0.47021 0.258631,0 0.339414,0.2117 0.179627,0.47021 -0.159833,0.25874 -0.502185,0.4702 -0.760798,0.4702 -0.258626,0 -0.339415,-0.2117 -0.179582,-0.4702 z m 0.617132,-1.26159 c 0.339414,-0.13586 0.744962,-0.11923 0.901208,0.0365 0.156263,0.15614 -0.121466,0.26726 -0.617132,0.24698 -0.547754,-0.0243 -0.659166,-0.13383 -0.284093,-0.28389 z m -27.146137,-0.89349 c 0.02271,-0.54776 0.133958,-0.65916 0.284097,-0.28389 0.135823,0.33945 0.119113,0.74497 -0.03731,0.90119 -0.156223,0.15615 -0.267388,-0.12166 -0.246947,-0.61714 z M 4.2386877,163.66145 c 0.1598279,-0.25875 0.383905,-0.47021 0.4979466,-0.47021 0.1140399,0 0.2073479,0.2117 0.2073479,0.47021 0,0.25875 -0.2240777,0.47017 -0.4979467,0.47017 -0.2738718,0 -0.3671758,-0.21171 -0.2073478,-0.47017 z m 9.4341683,-1.74299 c -0.25518,-0.6701 -0.201159,-0.72413 0.263209,-0.26321 0.321328,0.31918 0.465809,0.69838 0.321044,0.84313 -0.144786,0.14479 -0.407684,-0.11599 -0.584257,-0.57992 z m -8.7288733,-0.13788 c 0,-0.25876 0.2240771,-0.47021 0.4979466,-0.47021 0.2738724,0 0.3671759,0.2117 0.2073479,0.47021 -0.1598279,0.25874 -0.3839056,0.4702 -0.497946,0.4702 -0.1140405,0 -0.2073479,-0.2117 -0.2073479,-0.4702 z m 54.8954803,-0.78161 c 0.323276,-0.13059 0.852234,-0.13059 1.175493,0 0.323276,0.13059 0.05877,0.23726 -0.587746,0.23726 -0.646524,0 -0.911011,-0.10667 -0.587747,-0.23726 z m -7.685372,-1.2166 -0.895721,-1.05795 1.057942,0.89572 c 0.994204,0.84175 1.271998,1.22014 0.895721,1.22014 -0.08922,0 -0.565297,-0.47605 -1.057942,-1.05791 z m 28.609134,0.7088 c -1.886644,-0.0896 -3.40893,-0.37555 -3.40893,-0.63961 0,-0.2624 0.209269,-0.34797 0.464992,-0.18981 0.677625,0.41879 3.76678,-1.16493 3.76678,-1.93116 0,-0.79482 -0.217623,-0.80391 -2.188232,-0.0913 -0.852342,0.30822 -1.658824,0.45126 -1.792186,0.31796 -0.13335,-0.13343 -0.570826,-3.08329 -0.972143,-6.55539 -0.773629,-6.69324 -1.318087,-9.27963 -2.390328,-11.3549 -0.606274,-1.17345 -0.592337,-1.25497 0.166848,-0.97553 4.19888,1.54527 7.990159,5.96991 9.011921,10.51744 0.402114,1.78971 0.32457,2.16027 -0.745709,3.56348 -0.902121,1.18274 -1.116671,1.87621 -0.876505,2.83309 l 0.318001,1.26698 1.127853,-1.37976 1.127853,-1.37977 0.02349,2.11586 c 0.013,1.16376 0.150914,2.59195 0.306853,3.17385 0.155938,0.58186 0.100132,1.01589 -0.123981,0.96451 -0.224113,-0.0515 -1.941503,-0.16628 -3.816417,-0.25591 z m -63.359026,-3.74273 c -5.172164,-1.68244 -9.4547689,-3.10539 -9.5168972,-3.16217 -0.095307,-0.0872 2.1204222,-6.9539 4.9418012,-15.31542 1.651004,-4.89294 6.889045,-7.86851 12.994855,-7.38196 5.019515,0.39988 6.196996,0.9639 7.13359,3.41634 1.010917,2.64706 0.663192,6.12476 -1.294478,12.94664 -1.316999,4.58938 -1.51686,4.97487 -2.521872,4.86456 -0.600333,-0.0657 -1.197593,0.15655 -1.327247,0.4945 -0.295655,0.77049 0.09397,1.17642 1.129243,1.17642 0.729696,0 0.706547,0.26604 -0.254084,2.91895 -0.581309,1.60538 -1.242335,2.95991 -1.468947,3.01 -0.226628,0.0499 -4.643798,-1.28543 -9.815964,-2.96786 z m 10.764303,-5.43507 c 0.584934,-0.92732 0.134038,-1.51059 -0.869891,-1.12535 -0.839404,0.32201 -1.007247,2.36098 -0.171431,2.0824 0.30478,-0.10139 0.773374,-0.53226 1.041313,-0.95705 z m -5.121941,-16.57545 c 0,-0.61053 -0.366304,-0.98596 -1.057942,-1.08419 -0.779121,-0.11072 -1.057945,0.0856 -1.057945,0.74449 0,0.49207 0.148395,1.04311 0.329722,1.22443 0.623735,0.62376 1.786165,0.0479 1.786165,-0.88473 z m 33.289001,24.33045 -1.505566,-0.81497 2.304828,-1.22902 2.304834,-1.22901 1.511674,1.26203 c 0.831425,0.69407 1.556502,1.56737 1.611281,1.94061 0.153623,1.04684 -4.329504,1.09749 -6.227051,0.0706 z m 8.108403,0.3938 c -0.148798,-0.2409 -0.05549,-0.57062 0.207364,-0.73305 0.262846,-0.16263 0.477869,-0.15127 0.477869,0.0243 0,0.17642 0.370277,0.0325 0.822842,-0.31675 0.669864,-0.51871 0.656315,-0.44202 -0.07288,0.41262 -1.016749,1.19171 -1.064423,1.21207 -1.435179,0.61216 z m 2.095799,-0.004 c 0,-0.24333 0.209189,-0.57172 0.464815,-0.72973 0.26654,-0.16465 0.345379,0.0243 0.184776,0.44243 -0.312566,0.81462 -0.649603,0.96362 -0.649603,0.28714 z m -17.602147,-1.77072 c -0.25518,-0.67011 -0.201159,-0.72413 0.26321,-0.26321 0.321327,0.31877 0.465808,0.69833 0.321043,0.84312 -0.144786,0.14479 -0.407684,-0.11599 -0.584257,-0.57991 z m 13.575897,-0.72559 -1.38101,-1.52812 1.443191,1.29962 c 0.793759,0.7148 1.621136,1.13797 1.838622,0.94038 0.217504,-0.19751 0.243217,-0.0949 0.05719,0.22873 -0.446709,0.77625 -0.375917,0.81024 -1.958001,-0.94041 z m 22.908365,0.58778 c 0,-0.64655 0.106747,-0.91101 0.237177,-0.58778 0.130425,0.32323 0.130425,0.85225 0,1.17552 -0.13043,0.32323 -0.237177,0.0588 -0.237177,-0.58774 z m -32.282721,0 c 0.159831,-0.25875 0.502183,-0.47021 0.760794,-0.47021 0.258627,0 0.339415,0.2117 0.179583,0.47021 -0.159832,0.25875 -0.502183,0.47017 -0.760795,0.47017 -0.258626,0 -0.339414,-0.21171 -0.179582,-0.47017 z m -2.586081,-0.94042 c -0.967035,-0.96702 -1.309066,-2.16412 -0.470197,-1.64569 0.258627,0.15979 0.470197,0.51928 0.470197,0.79876 0,0.27943 0.370279,0.78926 0.822841,1.13281 0.452567,0.34351 0.664153,0.63134 0.470197,0.63957 -0.19394,0.008 -0.775825,-0.40824 -1.293038,-0.92545 z m 0.587745,-1.44599 c -0.581869,-0.70885 -1.057942,-1.61313 -1.057942,-2.00956 0,-0.39624 -0.187613,-0.83668 -0.416898,-0.97838 -0.229304,-0.14154 -0.561115,-1.05345 -0.737393,-2.02607 -0.176257,-0.97266 -0.442278,-2.27435 -0.591107,-2.89267 -0.247434,-1.02798 -0.04348,-0.95271 2.383084,0.87934 2.885369,2.17848 3.018978,2.57868 2.056874,6.1613 l -0.578676,2.15483 -1.057942,-1.28879 z m 14.280053,-1.17435 c -0.278903,-2.37303 -0.195679,-2.85678 0.634029,-3.68652 l 0.955058,-0.95506 -0.01665,2.57301 c -0.0094,1.41517 -0.294477,3.07412 -0.634023,3.68656 -0.581091,1.04806 -0.636224,0.95303 -0.938395,-1.61799 z m -59.2980721,1.21509 c -0.164727,-0.26646 0.024008,-0.34554 0.4424476,-0.18494 0.8145773,0.31269 0.9636153,0.64963 0.2872679,0.64963 -0.2433452,0 -0.5717181,-0.20927 -0.7297166,-0.46482 z m 49.4872091,-2.39412 0.713688,-2.83322 -1.357167,-1.44526 c -0.74645,-0.7949 -1.991945,-1.86141 -2.767769,-2.36994 l -1.410591,-0.92469 2.893023,0.26686 c 3.054969,0.28187 3.454637,0.0405 3.454637,-2.09854 0,-1.40852 0.636345,-1.07644 2.206795,1.15155 1.135939,1.61159 1.837676,2.12673 3.260765,2.39367 2.623109,0.49212 2.741347,0.68366 1.330769,2.15598 -1.188312,1.24033 -1.249986,1.508 -0.936199,4.06267 l 0.335924,2.73483 -1.361512,-1.29305 c -1.677535,-1.59317 -2.557649,-1.61572 -5.092139,-0.13059 l -1.983908,1.16262 0.713689,-2.83321 z m 8.615896,2.11444 c 0.0227,-0.54775 0.133955,-0.65916 0.284053,-0.2839 0.135825,0.33946 0.119117,0.74494 -0.0369,0.90121 -0.156264,0.15614 -0.267391,-0.12168 -0.246953,-0.61715 z m -57.6555702,-0.6974 c -0.1704622,-0.27578 -0.2090877,-0.60229 -0.085838,-0.72555 0.1232507,-0.12329 0.3493882,0.10221 0.5025235,0.50148 0.3179405,0.82852 0.04695,0.97428 -0.4166865,0.22427 z M 84.914568,153.0435 c 0.0227,-0.54775 0.133954,-0.65916 0.284053,-0.28389 0.135825,0.33945 0.119116,0.74498 -0.0369,0.9012 -0.156263,0.15614 -0.26739,-0.12167 -0.246946,-0.61715 z M 4.0035891,152.71054 c 0,-0.88599 3.9591555,-12.5479 4.8348415,-14.24128 0.8278746,-1.60092 2.4128484,-3.19324 2.0181104,-2.02741 -0.12183,0.35973 -1.4087243,4.30415 -2.8597369,8.76513 -1.7979841,5.52774 -2.853979,8.11089 -3.3157099,8.11089 -0.372627,0 -0.6775051,-0.27335 -0.6775051,-0.60733 z m 41.8475199,-0.36095 c 0,-0.27376 0.211582,-0.36704 0.470197,-0.20725 0.258627,0.15979 0.470196,0.38407 0.470196,0.49795 0,0.11397 -0.211582,0.20724 -0.470196,0.20724 -0.258628,0 -0.470197,-0.22427 -0.470197,-0.49794 z m 2.208473,-0.15696 c -0.192399,-0.48959 -0.239038,-1.00092 -0.103661,-1.1363 0.428849,-0.42884 0.80618,0.27375 0.626488,1.1668 -0.164699,0.8183 -0.189844,0.81684 -0.522827,-0.0325 z m 19.913376,-1.22573 c -0.0203,-0.90513 -0.229222,-1.94945 -0.464159,-2.32074 -0.371212,-0.58661 -0.539662,-0.58661 -1.285844,0 -0.781345,0.61426 -0.802097,0.60278 -0.230437,-0.12736 0.345538,-0.44125 0.503923,-1.00339 0.351988,-1.24921 -0.155493,-0.25145 0.13278,-0.33986 0.659525,-0.20237 0.514668,0.13464 0.819849,0.43221 0.678196,0.66143 -0.141664,0.22914 0.0017,0.41676 0.318731,0.41676 0.316986,0 0.4427,0.13343 0.279394,0.29687 -0.163323,0.16344 -0.09377,0.67651 0.154518,1.14048 0.282229,0.52735 0.287219,1.25318 0.0134,1.93648 -0.39887,0.99488 -0.441514,0.94524 -0.4752,-0.55271 z m 6.634396,0.47017 c 0,-0.64651 0.106747,-0.91097 0.237172,-0.58774 0.13043,0.32323 0.13043,0.85225 0,1.17552 -0.130425,0.32324 -0.237172,0.0588 -0.237172,-0.58778 z m -29.336657,-1.47815 c -0.118546,-0.80768 -0.06152,-2.12795 0.126738,-2.93392 0.303685,-1.30015 0.34197,-1.21916 0.339333,0.71809 -0.0014,1.20091 0.1327,2.40295 0.298454,2.67115 0.165753,0.26808 0.11007,0.60591 -0.123818,0.75046 -0.233848,0.14437 -0.522198,-0.39826 -0.640744,-1.20578 z m 2.226099,0.0677 c 0.159832,-0.25875 0.383905,-0.47017 0.497949,-0.47017 0.114044,0 0.207364,0.2117 0.207364,0.47017 0,0.25875 -0.224073,0.47021 -0.497949,0.47021 -0.273877,0 -0.367156,-0.21171 -0.207364,-0.47021 z m 6.067885,-1.05791 -0.895721,-1.05795 1.057942,0.89572 c 0.994202,0.84175 1.272,1.22014 0.895723,1.22014 -0.08922,0 -0.565299,-0.47605 -1.057944,-1.05791 z m 21.512871,-0.35284 c 0,-0.64651 0.106701,-0.91097 0.237172,-0.58774 0.13043,0.32323 0.13043,0.85225 0,1.17548 -0.130431,0.32323 -0.237172,0.0588 -0.237172,-0.58774 z m -28.28605,-1.67343 c 0,-0.68245 0.203512,-1.07746 0.470198,-0.91264 0.258627,0.15979 0.470196,0.7013 0.470196,1.20322 0,0.50197 -0.211582,0.91268 -0.470196,0.91268 -0.258628,0 -0.470198,-0.54147 -0.470198,-1.20326 z m 14.540514,-3.81732 -1.139903,-1.25899 1.528138,1.05593 c 1.542137,1.06557 1.851259,1.46205 1.139902,1.46205 -0.213529,0 -0.901191,-0.56653 -1.528137,-1.25899 z m 10.764388,-0.61941 c -0.425347,-0.74113 -1.893031,-1.98697 -3.261512,-2.76857 -2.553508,-1.45837 -2.553753,-1.46465 -0.08391,-2.19272 0.727209,-0.21454 2.79555,2.24232 3.689813,4.38255 0.863468,2.06658 0.683282,2.36937 -0.344405,0.57874 z M 49.84778,142.6732 c 1.184197,-0.93251 3.739848,-2.05076 4.686865,-2.05076 0.486981,0 0.720401,0.45707 0.720401,1.41062 l 0,1.41059 -3.17383,-0.0163 c -2.974095,-0.0121 -3.11465,-0.0616 -2.233436,-0.75548 z m 12.67382,-0.60538 c 0.144339,-0.2336 -0.0034,-0.51956 -0.32822,-0.63556 -0.324856,-0.11599 -0.484546,-0.3285 -0.354829,-0.47191 0.129701,-0.14357 0.612006,0.0122 1.071762,0.35041 0.740628,0.54155 0.751161,0.64375 0.09239,0.89653 -0.408941,0.15696 -0.62543,0.0941 -0.481085,-0.1391 z M 50.431445,141.0074 c 0.321002,-0.38853 0.426813,-0.87971 0.235104,-1.09133 -0.191709,-0.2117 -0.102161,-0.24374 0.19901,-0.0714 0.30117,0.17236 0.623106,0.0868 0.715403,-0.19021 0.09231,-0.277 1.027258,-0.61872 2.077684,-0.75962 1.524171,-0.2044 1.909856,-0.10828 1.909856,0.47516 0,0.56341 -0.197869,0.62538 -0.862031,0.2701 -0.60399,-0.32323 -0.862025,-0.2993 -0.862025,0.0803 0,0.31025 -0.401952,0.43646 -0.940393,0.29565 -0.517214,-0.13505 -0.940394,-0.10504 -0.940394,0.0673 0,0.17237 -0.476073,0.60956 -1.057942,0.97193 -0.933645,0.58142 -0.989369,0.57582 -0.474276,-0.0479 z m 10.261091,-0.0527 c 0.176581,-0.46372 0.439489,-0.7247 0.584256,-0.57992 0.144784,0.14479 3.02e-4,0.52415 -0.321041,0.84313 -0.464381,0.46092 -0.518385,0.4069 -0.26321,-0.26321 z m -1.37679,-0.56479 c 0.148274,-0.3865 0.462477,-0.5834 0.698206,-0.43768 0.493037,0.30457 0.09725,1.14028 -0.540129,1.14028 -0.235222,0 -0.306362,-0.31634 -0.158088,-0.7026 z m -47.318812,-6.11527 c 0.607374,-0.64651 1.210113,-1.17549 1.339419,-1.17549 0.129293,0 -0.261832,0.52898 -0.869222,1.17549 -0.607374,0.64654 -1.210109,1.17552 -1.339414,1.17552 -0.129294,0 0.261831,-0.52898 0.869217,-1.17552 z m 0.940394,0.55817 c 0,-0.0811 0.687663,-0.76858 1.528142,-1.52812 l 1.528139,-1.38102 -1.381013,1.52812 c -1.287295,1.42446 -1.675268,1.74428 -1.675268,1.38102 z m 22.087614,-1.99934 c -0.589825,-1.5514 -0.641571,-1.38702 0.716933,-2.27715 l 1.175494,-0.7702 0,2.12672 c 0,2.44133 -1.109115,2.98089 -1.892427,0.92063 z m -19.266434,-1.79263 c 0,-0.0977 0.370279,-0.46789 0.822846,-0.82284 0.74576,-0.58486 0.762389,-0.56823 0.177515,0.17764 -0.614253,0.78326 -1.000372,1.03231 -1.000372,0.64533 z m 19.543401,-1.84109 c 0.176582,-0.46372 0.439488,-0.72466 0.584257,-0.57991 0.144786,0.14479 2.96e-4,0.52419 -0.321043,0.84312 -0.464373,0.46092 -0.518381,0.4069 -0.26321,-0.26321 z m 1.341466,-2.9604 c -0.446649,-2.38085 0.03366,-6.85331 0.909685,-8.4709 0.726099,-1.34067 0.737608,-1.30794 0.761248,2.16522 0.01338,1.93956 0.151843,4.29945 0.308066,5.24416 0.235428,1.42361 0.117572,1.80686 -0.688288,2.23814 -0.882289,0.47215 -1.001832,0.36298 -1.290707,-1.17662 z m 10.735873,0.41047 c 0.711174,-0.10788 1.87491,-0.10788 2.58608,0 0.711174,0.10788 0.129293,0.19589 -1.293038,0.19589 -1.422348,0 -2.004216,-0.088 -1.293042,-0.19589 z m -6.809157,-3.75701 c -0.263251,-4.10226 0.134079,-6.36964 1.41871,-8.09543 1.984299,-2.66576 5.592303,-2.47214 8.785677,0.47139 1.864276,1.71845 2.033145,2.07254 2.21995,4.65512 0.124671,1.72385 0.506564,3.13155 0.996305,3.6727 1.778239,1.96494 1.172147,2.25087 -4.730698,2.23185 -3.038648,-0.008 -6.185337,0.13018 -6.992646,0.31106 l -1.467835,0.32891 -0.229467,-3.57548 z m 10.265245,-0.49831 c 0.773294,-0.51636 1.598528,-2.26754 1.598528,-3.39221 0,-1.5795 -2.055292,-3.30091 -3.941178,-3.30091 -1.727574,0 -3.581971,1.68264 -3.581971,3.25018 0,2.39748 4.004859,4.7248 5.924621,3.44294 z m -2.797504,-1.27079 c -0.145678,-0.37961 -0.10646,-0.78813 0.0872,-0.90781 0.193615,-0.11964 0.38281,0.19102 0.420442,0.69022 0.08136,1.07986 -0.140284,1.17484 -0.50763,0.21779 z m 1.985069,-3.42396 c -0.584865,-0.74579 -0.568233,-0.76242 0.177515,-0.17764 0.783231,0.61427 1.032306,1.0004 0.645315,1.0004 -0.09762,0 -0.467914,-0.37028 -0.822842,-0.82284 z m 5.739462,8.0717 c 0.0227,-0.54775 0.134,-0.65916 0.284059,-0.2843 0.135819,0.33946 0.11911,0.74498 -0.0369,0.9012 -0.156263,0.15615 -0.26739,-0.12126 -0.246947,-0.6171 z m -16.419772,-3.0171 c 0,-0.64654 0.106745,-0.91101 0.237174,-0.58774 0.130428,0.32324 0.130428,0.85221 0,1.17548 -0.130429,0.32324 -0.237174,0.0588 -0.237174,-0.58774 z m 14.776198,-1.2428 c -0.447972,-1.16737 0.04579,-1.3268 0.644503,-0.20806 0.288844,0.53969 0.328585,0.98065 0.08841,0.98065 -0.240051,0 -0.569843,-0.34756 -0.732904,-0.77259 z m 1.606455,-2.31142 c 0,-0.40313 0.215029,-0.60015 0.477863,-0.43773 0.262805,0.16223 0.356123,0.49232 0.207364,0.73306 -0.403089,0.65218 -0.685215,0.53055 -0.685215,-0.29525 z M 45.03721,111.61397 c 0.457487,-0.11923 1.092252,-0.11153 1.41059,0.0162 0.318326,0.12896 -0.05597,0.2263 -0.831791,0.21657 -0.775825,-0.008 -1.036285,-0.11478 -0.578799,-0.23401 z M -1.756322,198.6021 c -0.4525647,-0.11842 -0.8228447,-0.43374 -0.8228447,-0.70105 0,-0.26726 0.3066092,-0.36825 0.6813496,-0.22468 0.4618155,0.17723 0.5946493,0.0365 0.4122651,-0.43975 -0.3751452,-0.97761 -1.2981418,-0.56049 -1.478965,0.66841 -0.1190894,0.8093 0.075946,1.00977 0.940394,0.96653 0.7966607,-0.0405 0.8688467,-0.11234 0.267801,-0.26969 z m 1.99833658,-28.90645 c 0,-0.21536 -0.31738498,-0.39177 -0.70529519,-0.39177 -0.38791226,0 -0.70529529,0.17641 -0.70529529,0.39177 0,0.21535 0.31738098,0.39177 0.70529529,0.39177 0.38791226,0 0.70529519,-0.17642 0.70529519,-0.39177 z M 76.190048,165.97701 c 0.371982,-1.17195 0.05104,-1.58989 -0.931358,-1.21287 -0.914552,0.3508 -0.958183,2.18873 -0.05195,2.18873 0.370482,0 0.812988,-0.43914 0.983326,-0.97586 z"
       id="path4149"
       inkscape:connector-curvature="0" />
  </g>
</svg>
