G04 #@! TF.FileFunction,Copper,L1,Top,Signal*
%FSLAX46Y46*%
G04 Gerber Fmt 4.6, Leading zero omitted, Abs format (unit mm)*
G04 Created by KiCad (PCBNEW 4.0.0-rc2-stable) date 11-1-2016 16:01:00*
%MOMM*%
G01*
G04 APERTURE LIST*
%ADD10C,0.100000*%
%ADD11C,0.150000*%
%ADD12C,0.002540*%
%ADD13O,1.998980X1.998980*%
%ADD14R,1.998980X1.998980*%
%ADD15C,2.499360*%
%ADD16C,2.997200*%
%ADD17C,2.400000*%
%ADD18R,2.400000X2.400000*%
%ADD19C,5.001260*%
%ADD20C,0.600000*%
%ADD21C,0.250000*%
G04 APERTURE END LIST*
D10*
D11*
X192210000Y-43110000D02*
X192310000Y-43040000D01*
X192030000Y-43110000D02*
X192210000Y-43110000D01*
X191930000Y-43040000D02*
X192030000Y-43110000D01*
X191880000Y-42900000D02*
X191930000Y-43040000D01*
X191880000Y-42320000D02*
X191880000Y-42900000D01*
X191940000Y-42170000D02*
X191880000Y-42320000D01*
X192040000Y-42100000D02*
X191940000Y-42170000D01*
X192210000Y-42100000D02*
X192040000Y-42100000D01*
X192310000Y-42190000D02*
X192210000Y-42100000D01*
X192360000Y-42320000D02*
X192310000Y-42190000D01*
X192360000Y-42590000D02*
X192360000Y-42320000D01*
X191880000Y-42590000D02*
X192360000Y-42590000D01*
X191310000Y-42110000D02*
X191310000Y-43110000D01*
X191360000Y-42250000D02*
X191310000Y-42420000D01*
X191400000Y-42190000D02*
X191360000Y-42250000D01*
X191500000Y-42110000D02*
X191400000Y-42190000D01*
X191610000Y-42110000D02*
X191500000Y-42110000D01*
X189260000Y-42100000D02*
X189450000Y-43110000D01*
X189450000Y-43110000D02*
X189640000Y-42390000D01*
X189640000Y-42390000D02*
X189830000Y-43110000D01*
X189830000Y-43110000D02*
X190030000Y-42100000D01*
X188880000Y-43030000D02*
X188790000Y-43110000D01*
X188790000Y-43110000D02*
X188600000Y-43110000D01*
X188600000Y-43110000D02*
X188530000Y-43060000D01*
X188530000Y-43060000D02*
X188460000Y-42980000D01*
X188460000Y-42980000D02*
X188400000Y-42820000D01*
X188400000Y-42820000D02*
X188400000Y-42400000D01*
X188400000Y-42400000D02*
X188450000Y-42250000D01*
X188450000Y-42250000D02*
X188520000Y-42160000D01*
X188520000Y-42160000D02*
X188600000Y-42110000D01*
X188600000Y-42110000D02*
X188780000Y-42110000D01*
X188780000Y-42110000D02*
X188880000Y-42190000D01*
X188880000Y-41610000D02*
X188880000Y-43110000D01*
X188130000Y-42110000D02*
X188020000Y-42110000D01*
X188020000Y-42110000D02*
X187920000Y-42190000D01*
X187920000Y-42190000D02*
X187880000Y-42250000D01*
X187880000Y-42250000D02*
X187830000Y-42420000D01*
X187830000Y-42110000D02*
X187830000Y-43110000D01*
X190840000Y-42320000D02*
X190840000Y-43110000D01*
X190780000Y-42170000D02*
X190840000Y-42320000D01*
X190690000Y-42100000D02*
X190780000Y-42170000D01*
X190510000Y-42100000D02*
X190690000Y-42100000D01*
X190400000Y-42180000D02*
X190510000Y-42100000D01*
X190360000Y-42880000D02*
X190400000Y-43020000D01*
X190360000Y-42750000D02*
X190360000Y-42880000D01*
X190410000Y-42610000D02*
X190360000Y-42750000D01*
X190510000Y-42530000D02*
X190410000Y-42610000D01*
X190750000Y-42530000D02*
X190510000Y-42530000D01*
X190840000Y-42460000D02*
X190750000Y-42530000D01*
X190740000Y-43110000D02*
X190840000Y-43030000D01*
X190510000Y-43110000D02*
X190740000Y-43110000D01*
X190400000Y-43020000D02*
X190510000Y-43110000D01*
X186920000Y-43020000D02*
X187030000Y-43110000D01*
X187030000Y-43110000D02*
X187260000Y-43110000D01*
X187260000Y-43110000D02*
X187360000Y-43030000D01*
X187360000Y-42460000D02*
X187270000Y-42530000D01*
X187270000Y-42530000D02*
X187030000Y-42530000D01*
X187030000Y-42530000D02*
X186930000Y-42610000D01*
X186930000Y-42610000D02*
X186880000Y-42750000D01*
X186880000Y-42750000D02*
X186880000Y-42880000D01*
X186880000Y-42880000D02*
X186920000Y-43020000D01*
X186920000Y-42180000D02*
X187030000Y-42100000D01*
X187030000Y-42100000D02*
X187210000Y-42100000D01*
X187210000Y-42100000D02*
X187300000Y-42170000D01*
X187300000Y-42170000D02*
X187360000Y-42320000D01*
X187360000Y-42320000D02*
X187360000Y-43110000D01*
X186020000Y-43110000D02*
X186020000Y-41610000D01*
X186080000Y-42170000D02*
X186020000Y-42240000D01*
X186160000Y-42110000D02*
X186080000Y-42170000D01*
X186300000Y-42110000D02*
X186160000Y-42110000D01*
X186400000Y-42180000D02*
X186300000Y-42110000D01*
X186450000Y-42330000D02*
X186400000Y-42180000D01*
X186450000Y-43110000D02*
X186450000Y-42330000D01*
X184790000Y-43110000D02*
X184790000Y-42330000D01*
X184790000Y-42330000D02*
X184740000Y-42180000D01*
X184740000Y-42180000D02*
X184640000Y-42110000D01*
X184640000Y-42110000D02*
X184500000Y-42110000D01*
X184500000Y-42110000D02*
X184420000Y-42170000D01*
X184420000Y-42170000D02*
X184360000Y-42240000D01*
X184360000Y-42110000D02*
X184360000Y-43110000D01*
X183450000Y-42590000D02*
X183930000Y-42590000D01*
X183930000Y-42590000D02*
X183930000Y-42320000D01*
X183930000Y-42320000D02*
X183880000Y-42190000D01*
X183880000Y-42190000D02*
X183780000Y-42100000D01*
X183780000Y-42100000D02*
X183610000Y-42100000D01*
X183610000Y-42100000D02*
X183510000Y-42170000D01*
X183510000Y-42170000D02*
X183450000Y-42320000D01*
X183450000Y-42320000D02*
X183450000Y-42900000D01*
X183450000Y-42900000D02*
X183500000Y-43040000D01*
X183500000Y-43040000D02*
X183600000Y-43110000D01*
X183600000Y-43110000D02*
X183780000Y-43110000D01*
X183780000Y-43110000D02*
X183880000Y-43040000D01*
X182590000Y-42100000D02*
X182590000Y-43610000D01*
X182700000Y-42100000D02*
X182880000Y-42100000D01*
X182700000Y-43100000D02*
X182890000Y-43100000D01*
X182700000Y-42100000D02*
X182620000Y-42160000D01*
X182970000Y-42170000D02*
X182880000Y-42100000D01*
X183020000Y-42240000D02*
X182970000Y-42170000D01*
X183070000Y-42400000D02*
X183020000Y-42240000D01*
X183070000Y-42810000D02*
X183070000Y-42400000D01*
X183020000Y-42950000D02*
X183070000Y-42810000D01*
X182980000Y-43020000D02*
X183020000Y-42950000D01*
X182880000Y-43100000D02*
X182980000Y-43020000D01*
X182600000Y-43030000D02*
X182700000Y-43100000D01*
X181640000Y-42400000D02*
X181640000Y-42810000D01*
X181640000Y-42810000D02*
X181690000Y-42950000D01*
X181690000Y-42950000D02*
X181740000Y-43040000D01*
X181740000Y-43040000D02*
X181840000Y-43110000D01*
X181840000Y-43110000D02*
X181980000Y-43110000D01*
X181980000Y-43110000D02*
X182080000Y-43030000D01*
X182080000Y-43030000D02*
X182120000Y-42960000D01*
X182120000Y-42960000D02*
X182170000Y-42820000D01*
X182170000Y-42820000D02*
X182170000Y-42410000D01*
X182170000Y-42410000D02*
X182120000Y-42250000D01*
X182120000Y-42250000D02*
X182070000Y-42180000D01*
X182070000Y-42180000D02*
X181980000Y-42110000D01*
X181980000Y-42110000D02*
X181830000Y-42110000D01*
X181830000Y-42110000D02*
X181750000Y-42170000D01*
X181750000Y-42170000D02*
X181690000Y-42250000D01*
X181690000Y-42250000D02*
X181640000Y-42400000D01*
D12*
G36*
X183362720Y-41389880D02*
X183426220Y-41356860D01*
X183565920Y-41267960D01*
X183766580Y-41138420D01*
X184002800Y-40978400D01*
X184241560Y-40818380D01*
X184437140Y-40686300D01*
X184574300Y-40599940D01*
X184630180Y-40566920D01*
X184660660Y-40577080D01*
X184774960Y-40632960D01*
X184937520Y-40719320D01*
X185034040Y-40767580D01*
X185183900Y-40833620D01*
X185257560Y-40846320D01*
X185270260Y-40826000D01*
X185326140Y-40709160D01*
X185412500Y-40513580D01*
X185526800Y-40251960D01*
X185656340Y-39949700D01*
X185793500Y-39619500D01*
X185933200Y-39284220D01*
X186065280Y-38966720D01*
X186184660Y-38679700D01*
X186278640Y-38446020D01*
X186339600Y-38283460D01*
X186362460Y-38212340D01*
X186354840Y-38197100D01*
X186281180Y-38125980D01*
X186149100Y-38026920D01*
X185864620Y-37795780D01*
X185585220Y-37445260D01*
X185415040Y-37049020D01*
X185356620Y-36607060D01*
X185404880Y-36198120D01*
X185567440Y-35804420D01*
X185841760Y-35451360D01*
X186174500Y-35187200D01*
X186563120Y-35022100D01*
X187000000Y-34966220D01*
X187419100Y-35014480D01*
X187820420Y-35171960D01*
X188173480Y-35441200D01*
X188323340Y-35613920D01*
X188529080Y-35972060D01*
X188645920Y-36358140D01*
X188658620Y-36454660D01*
X188640840Y-36876300D01*
X188516380Y-37280160D01*
X188295400Y-37640840D01*
X187985520Y-37938020D01*
X187947420Y-37965960D01*
X187802640Y-38072640D01*
X187708660Y-38146300D01*
X187632460Y-38207260D01*
X188168400Y-39500120D01*
X188254760Y-39705860D01*
X188402080Y-40056380D01*
X188531620Y-40361180D01*
X188635760Y-40605020D01*
X188706880Y-40765040D01*
X188737360Y-40831080D01*
X188742440Y-40833620D01*
X188788160Y-40841240D01*
X188887220Y-40805680D01*
X189067560Y-40719320D01*
X189186940Y-40658360D01*
X189324100Y-40592320D01*
X189385060Y-40566920D01*
X189438400Y-40594860D01*
X189570480Y-40681220D01*
X189760980Y-40810760D01*
X189992120Y-40965700D01*
X190213100Y-41115560D01*
X190416300Y-41250180D01*
X190563620Y-41344160D01*
X190634740Y-41382260D01*
X190644900Y-41382260D01*
X190708400Y-41346700D01*
X190825240Y-41250180D01*
X191000500Y-41082540D01*
X191249420Y-40838700D01*
X191287520Y-40800600D01*
X191493260Y-40592320D01*
X191658360Y-40417060D01*
X191770120Y-40292600D01*
X191810760Y-40236720D01*
X191810760Y-40236720D01*
X191772660Y-40165600D01*
X191681220Y-40018280D01*
X191546600Y-39815080D01*
X191384040Y-39573780D01*
X190954780Y-38954020D01*
X191191000Y-38367280D01*
X191262120Y-38186940D01*
X191353560Y-37968500D01*
X191422140Y-37813560D01*
X191457700Y-37744980D01*
X191521200Y-37722120D01*
X191681220Y-37684020D01*
X191914900Y-37635760D01*
X192191760Y-37584960D01*
X192455920Y-37536700D01*
X192694680Y-37490980D01*
X192867400Y-37457960D01*
X192946140Y-37442720D01*
X192963920Y-37430020D01*
X192979160Y-37391920D01*
X192989320Y-37310640D01*
X192994400Y-37165860D01*
X192999480Y-36937260D01*
X192999480Y-36607060D01*
X192999480Y-36571500D01*
X192994400Y-36256540D01*
X192989320Y-36005080D01*
X192981700Y-35839980D01*
X192969000Y-35773940D01*
X192969000Y-35773940D01*
X192895340Y-35756160D01*
X192725160Y-35720600D01*
X192486400Y-35672340D01*
X192201920Y-35619000D01*
X192184140Y-35616460D01*
X191899660Y-35560580D01*
X191663440Y-35512320D01*
X191495800Y-35474220D01*
X191427220Y-35451360D01*
X191411980Y-35431040D01*
X191353560Y-35319280D01*
X191272280Y-35144020D01*
X191178300Y-34930660D01*
X191086860Y-34707140D01*
X191005580Y-34506480D01*
X190952240Y-34356620D01*
X190937000Y-34288040D01*
X190937000Y-34288040D01*
X190980180Y-34219460D01*
X191076700Y-34072140D01*
X191216400Y-33868940D01*
X191381500Y-33627640D01*
X191394200Y-33607320D01*
X191556760Y-33368560D01*
X191688840Y-33165360D01*
X191777740Y-33020580D01*
X191810760Y-32957080D01*
X191810760Y-32952000D01*
X191754880Y-32880880D01*
X191632960Y-32743720D01*
X191457700Y-32560840D01*
X191249420Y-32350020D01*
X191180840Y-32283980D01*
X190949700Y-32055380D01*
X190787140Y-31908060D01*
X190685540Y-31826780D01*
X190637280Y-31809000D01*
X190634740Y-31811540D01*
X190563620Y-31854720D01*
X190411220Y-31953780D01*
X190205480Y-32093480D01*
X189961640Y-32258580D01*
X189946400Y-32268740D01*
X189705100Y-32431300D01*
X189506980Y-32568460D01*
X189364740Y-32662440D01*
X189301240Y-32698000D01*
X189291080Y-32698000D01*
X189194560Y-32670060D01*
X189024380Y-32611640D01*
X188813560Y-32530360D01*
X188592580Y-32441460D01*
X188389380Y-32355100D01*
X188239520Y-32286520D01*
X188168400Y-32245880D01*
X188165860Y-32243340D01*
X188140460Y-32156980D01*
X188099820Y-31976640D01*
X188046480Y-31730260D01*
X187993140Y-31435620D01*
X187982980Y-31389900D01*
X187929640Y-31102880D01*
X187883920Y-30866660D01*
X187848360Y-30704100D01*
X187833120Y-30635520D01*
X187792480Y-30627900D01*
X187652780Y-30617740D01*
X187439420Y-30610120D01*
X187180340Y-30607580D01*
X186908560Y-30610120D01*
X186644400Y-30615200D01*
X186418340Y-30622820D01*
X186255780Y-30635520D01*
X186187200Y-30648220D01*
X186184660Y-30653300D01*
X186161800Y-30742200D01*
X186121160Y-30920000D01*
X186070360Y-31168920D01*
X186014480Y-31463560D01*
X186004320Y-31516900D01*
X185950980Y-31801380D01*
X185902720Y-32035060D01*
X185867160Y-32195080D01*
X185849380Y-32258580D01*
X185823980Y-32271280D01*
X185707140Y-32324620D01*
X185516640Y-32403360D01*
X185277880Y-32499880D01*
X184729240Y-32720860D01*
X184056140Y-32258580D01*
X183995180Y-32217940D01*
X183751340Y-32052840D01*
X183553220Y-31920760D01*
X183413520Y-31831860D01*
X183357640Y-31798840D01*
X183352560Y-31801380D01*
X183283980Y-31859800D01*
X183151900Y-31984260D01*
X182969020Y-32162060D01*
X182758200Y-32372880D01*
X182600720Y-32530360D01*
X182415300Y-32718320D01*
X182298460Y-32845320D01*
X182232420Y-32926600D01*
X182209560Y-32977400D01*
X182217180Y-33010420D01*
X182260360Y-33079000D01*
X182359420Y-33226320D01*
X182496580Y-33432060D01*
X182661680Y-33668280D01*
X182796300Y-33868940D01*
X182943620Y-34095000D01*
X183037600Y-34255020D01*
X183070620Y-34333760D01*
X183063000Y-34366780D01*
X183014740Y-34498860D01*
X182936000Y-34699520D01*
X182834400Y-34935740D01*
X182600720Y-35469140D01*
X182250200Y-35535180D01*
X182039380Y-35575820D01*
X181742200Y-35634240D01*
X181457720Y-35687580D01*
X181015760Y-35773940D01*
X181000520Y-37399540D01*
X181069100Y-37430020D01*
X181135140Y-37447800D01*
X181297700Y-37483360D01*
X181531380Y-37529080D01*
X181808240Y-37582420D01*
X182044460Y-37625600D01*
X182280680Y-37671320D01*
X182450860Y-37704340D01*
X182527060Y-37719580D01*
X182544840Y-37744980D01*
X182605800Y-37861820D01*
X182689620Y-38042160D01*
X182783600Y-38263140D01*
X182877580Y-38489200D01*
X182961400Y-38700020D01*
X183019820Y-38860040D01*
X183042680Y-38943860D01*
X183009660Y-39004820D01*
X182920760Y-39144520D01*
X182788680Y-39342640D01*
X182628660Y-39578860D01*
X182466100Y-39815080D01*
X182331480Y-40015740D01*
X182234960Y-40160520D01*
X182196860Y-40226560D01*
X182217180Y-40272280D01*
X182311160Y-40386580D01*
X182488960Y-40569460D01*
X182753120Y-40831080D01*
X182796300Y-40874260D01*
X183007120Y-41074920D01*
X183184920Y-41240020D01*
X183306840Y-41349240D01*
X183362720Y-41389880D01*
X183362720Y-41389880D01*
G37*
X183362720Y-41389880D02*
X183426220Y-41356860D01*
X183565920Y-41267960D01*
X183766580Y-41138420D01*
X184002800Y-40978400D01*
X184241560Y-40818380D01*
X184437140Y-40686300D01*
X184574300Y-40599940D01*
X184630180Y-40566920D01*
X184660660Y-40577080D01*
X184774960Y-40632960D01*
X184937520Y-40719320D01*
X185034040Y-40767580D01*
X185183900Y-40833620D01*
X185257560Y-40846320D01*
X185270260Y-40826000D01*
X185326140Y-40709160D01*
X185412500Y-40513580D01*
X185526800Y-40251960D01*
X185656340Y-39949700D01*
X185793500Y-39619500D01*
X185933200Y-39284220D01*
X186065280Y-38966720D01*
X186184660Y-38679700D01*
X186278640Y-38446020D01*
X186339600Y-38283460D01*
X186362460Y-38212340D01*
X186354840Y-38197100D01*
X186281180Y-38125980D01*
X186149100Y-38026920D01*
X185864620Y-37795780D01*
X185585220Y-37445260D01*
X185415040Y-37049020D01*
X185356620Y-36607060D01*
X185404880Y-36198120D01*
X185567440Y-35804420D01*
X185841760Y-35451360D01*
X186174500Y-35187200D01*
X186563120Y-35022100D01*
X187000000Y-34966220D01*
X187419100Y-35014480D01*
X187820420Y-35171960D01*
X188173480Y-35441200D01*
X188323340Y-35613920D01*
X188529080Y-35972060D01*
X188645920Y-36358140D01*
X188658620Y-36454660D01*
X188640840Y-36876300D01*
X188516380Y-37280160D01*
X188295400Y-37640840D01*
X187985520Y-37938020D01*
X187947420Y-37965960D01*
X187802640Y-38072640D01*
X187708660Y-38146300D01*
X187632460Y-38207260D01*
X188168400Y-39500120D01*
X188254760Y-39705860D01*
X188402080Y-40056380D01*
X188531620Y-40361180D01*
X188635760Y-40605020D01*
X188706880Y-40765040D01*
X188737360Y-40831080D01*
X188742440Y-40833620D01*
X188788160Y-40841240D01*
X188887220Y-40805680D01*
X189067560Y-40719320D01*
X189186940Y-40658360D01*
X189324100Y-40592320D01*
X189385060Y-40566920D01*
X189438400Y-40594860D01*
X189570480Y-40681220D01*
X189760980Y-40810760D01*
X189992120Y-40965700D01*
X190213100Y-41115560D01*
X190416300Y-41250180D01*
X190563620Y-41344160D01*
X190634740Y-41382260D01*
X190644900Y-41382260D01*
X190708400Y-41346700D01*
X190825240Y-41250180D01*
X191000500Y-41082540D01*
X191249420Y-40838700D01*
X191287520Y-40800600D01*
X191493260Y-40592320D01*
X191658360Y-40417060D01*
X191770120Y-40292600D01*
X191810760Y-40236720D01*
X191810760Y-40236720D01*
X191772660Y-40165600D01*
X191681220Y-40018280D01*
X191546600Y-39815080D01*
X191384040Y-39573780D01*
X190954780Y-38954020D01*
X191191000Y-38367280D01*
X191262120Y-38186940D01*
X191353560Y-37968500D01*
X191422140Y-37813560D01*
X191457700Y-37744980D01*
X191521200Y-37722120D01*
X191681220Y-37684020D01*
X191914900Y-37635760D01*
X192191760Y-37584960D01*
X192455920Y-37536700D01*
X192694680Y-37490980D01*
X192867400Y-37457960D01*
X192946140Y-37442720D01*
X192963920Y-37430020D01*
X192979160Y-37391920D01*
X192989320Y-37310640D01*
X192994400Y-37165860D01*
X192999480Y-36937260D01*
X192999480Y-36607060D01*
X192999480Y-36571500D01*
X192994400Y-36256540D01*
X192989320Y-36005080D01*
X192981700Y-35839980D01*
X192969000Y-35773940D01*
X192969000Y-35773940D01*
X192895340Y-35756160D01*
X192725160Y-35720600D01*
X192486400Y-35672340D01*
X192201920Y-35619000D01*
X192184140Y-35616460D01*
X191899660Y-35560580D01*
X191663440Y-35512320D01*
X191495800Y-35474220D01*
X191427220Y-35451360D01*
X191411980Y-35431040D01*
X191353560Y-35319280D01*
X191272280Y-35144020D01*
X191178300Y-34930660D01*
X191086860Y-34707140D01*
X191005580Y-34506480D01*
X190952240Y-34356620D01*
X190937000Y-34288040D01*
X190937000Y-34288040D01*
X190980180Y-34219460D01*
X191076700Y-34072140D01*
X191216400Y-33868940D01*
X191381500Y-33627640D01*
X191394200Y-33607320D01*
X191556760Y-33368560D01*
X191688840Y-33165360D01*
X191777740Y-33020580D01*
X191810760Y-32957080D01*
X191810760Y-32952000D01*
X191754880Y-32880880D01*
X191632960Y-32743720D01*
X191457700Y-32560840D01*
X191249420Y-32350020D01*
X191180840Y-32283980D01*
X190949700Y-32055380D01*
X190787140Y-31908060D01*
X190685540Y-31826780D01*
X190637280Y-31809000D01*
X190634740Y-31811540D01*
X190563620Y-31854720D01*
X190411220Y-31953780D01*
X190205480Y-32093480D01*
X189961640Y-32258580D01*
X189946400Y-32268740D01*
X189705100Y-32431300D01*
X189506980Y-32568460D01*
X189364740Y-32662440D01*
X189301240Y-32698000D01*
X189291080Y-32698000D01*
X189194560Y-32670060D01*
X189024380Y-32611640D01*
X188813560Y-32530360D01*
X188592580Y-32441460D01*
X188389380Y-32355100D01*
X188239520Y-32286520D01*
X188168400Y-32245880D01*
X188165860Y-32243340D01*
X188140460Y-32156980D01*
X188099820Y-31976640D01*
X188046480Y-31730260D01*
X187993140Y-31435620D01*
X187982980Y-31389900D01*
X187929640Y-31102880D01*
X187883920Y-30866660D01*
X187848360Y-30704100D01*
X187833120Y-30635520D01*
X187792480Y-30627900D01*
X187652780Y-30617740D01*
X187439420Y-30610120D01*
X187180340Y-30607580D01*
X186908560Y-30610120D01*
X186644400Y-30615200D01*
X186418340Y-30622820D01*
X186255780Y-30635520D01*
X186187200Y-30648220D01*
X186184660Y-30653300D01*
X186161800Y-30742200D01*
X186121160Y-30920000D01*
X186070360Y-31168920D01*
X186014480Y-31463560D01*
X186004320Y-31516900D01*
X185950980Y-31801380D01*
X185902720Y-32035060D01*
X185867160Y-32195080D01*
X185849380Y-32258580D01*
X185823980Y-32271280D01*
X185707140Y-32324620D01*
X185516640Y-32403360D01*
X185277880Y-32499880D01*
X184729240Y-32720860D01*
X184056140Y-32258580D01*
X183995180Y-32217940D01*
X183751340Y-32052840D01*
X183553220Y-31920760D01*
X183413520Y-31831860D01*
X183357640Y-31798840D01*
X183352560Y-31801380D01*
X183283980Y-31859800D01*
X183151900Y-31984260D01*
X182969020Y-32162060D01*
X182758200Y-32372880D01*
X182600720Y-32530360D01*
X182415300Y-32718320D01*
X182298460Y-32845320D01*
X182232420Y-32926600D01*
X182209560Y-32977400D01*
X182217180Y-33010420D01*
X182260360Y-33079000D01*
X182359420Y-33226320D01*
X182496580Y-33432060D01*
X182661680Y-33668280D01*
X182796300Y-33868940D01*
X182943620Y-34095000D01*
X183037600Y-34255020D01*
X183070620Y-34333760D01*
X183063000Y-34366780D01*
X183014740Y-34498860D01*
X182936000Y-34699520D01*
X182834400Y-34935740D01*
X182600720Y-35469140D01*
X182250200Y-35535180D01*
X182039380Y-35575820D01*
X181742200Y-35634240D01*
X181457720Y-35687580D01*
X181015760Y-35773940D01*
X181000520Y-37399540D01*
X181069100Y-37430020D01*
X181135140Y-37447800D01*
X181297700Y-37483360D01*
X181531380Y-37529080D01*
X181808240Y-37582420D01*
X182044460Y-37625600D01*
X182280680Y-37671320D01*
X182450860Y-37704340D01*
X182527060Y-37719580D01*
X182544840Y-37744980D01*
X182605800Y-37861820D01*
X182689620Y-38042160D01*
X182783600Y-38263140D01*
X182877580Y-38489200D01*
X182961400Y-38700020D01*
X183019820Y-38860040D01*
X183042680Y-38943860D01*
X183009660Y-39004820D01*
X182920760Y-39144520D01*
X182788680Y-39342640D01*
X182628660Y-39578860D01*
X182466100Y-39815080D01*
X182331480Y-40015740D01*
X182234960Y-40160520D01*
X182196860Y-40226560D01*
X182217180Y-40272280D01*
X182311160Y-40386580D01*
X182488960Y-40569460D01*
X182753120Y-40831080D01*
X182796300Y-40874260D01*
X183007120Y-41074920D01*
X183184920Y-41240020D01*
X183306840Y-41349240D01*
X183362720Y-41389880D01*
D13*
X71880000Y-35000000D03*
D14*
X79500000Y-35000000D03*
D13*
X76960000Y-35000000D03*
X74420000Y-35000000D03*
X69340000Y-35000000D03*
X66800000Y-35000000D03*
X64260000Y-35000000D03*
X61720000Y-35000000D03*
X59180000Y-35000000D03*
X56640000Y-35000000D03*
X117380000Y-35000000D03*
D14*
X125000000Y-35000000D03*
D13*
X122460000Y-35000000D03*
X119920000Y-35000000D03*
X114840000Y-35000000D03*
X112300000Y-35000000D03*
X109760000Y-35000000D03*
X107220000Y-35000000D03*
X104680000Y-35000000D03*
X102140000Y-35000000D03*
D15*
X200000000Y-77501260D03*
X200000000Y-82502520D03*
X200000000Y-72500000D03*
X175000000Y-77501260D03*
X175000000Y-82502520D03*
X175000000Y-72500000D03*
D16*
X57301000Y-77500000D03*
X62000000Y-77500000D03*
X66699000Y-77500000D03*
X57301000Y-57500000D03*
X62000000Y-57500000D03*
X66699000Y-57500000D03*
X57301000Y-104000000D03*
X62000000Y-104000000D03*
X66699000Y-104000000D03*
X85801000Y-57500000D03*
X90500000Y-57500000D03*
X95199000Y-57500000D03*
X85801000Y-104000000D03*
X90500000Y-104000000D03*
X95199000Y-104000000D03*
X85801000Y-77500000D03*
X90500000Y-77500000D03*
X95199000Y-77500000D03*
X114801000Y-57000000D03*
X119500000Y-57000000D03*
X124199000Y-57000000D03*
X114801000Y-104500000D03*
X119500000Y-104500000D03*
X124199000Y-104500000D03*
X148301000Y-77500000D03*
X153000000Y-77500000D03*
X157699000Y-77500000D03*
X148301000Y-57500000D03*
X153000000Y-57500000D03*
X157699000Y-57500000D03*
X148301000Y-104500000D03*
X153000000Y-104500000D03*
X157699000Y-104500000D03*
D17*
X154500000Y-36000000D03*
X158000000Y-36000000D03*
X151000000Y-36000000D03*
X147500000Y-36000000D03*
X144000000Y-36000000D03*
X140500000Y-36000000D03*
D18*
X161500000Y-36000000D03*
D17*
X137000000Y-36000000D03*
D19*
X199500000Y-120000000D03*
X43000000Y-120000000D03*
X41000000Y-35500000D03*
X199500000Y-35000000D03*
D20*
X90000000Y-51000000D03*
X147000000Y-98500000D03*
X116000000Y-39500000D03*
X123500000Y-47000000D03*
X147000000Y-71500000D03*
D21*
X57301000Y-81000000D02*
X57500000Y-81000000D01*
X57500000Y-81000000D02*
X57301000Y-81000000D01*
X71880000Y-35000000D02*
X72000000Y-35000000D01*
X72000000Y-35000000D02*
X71000000Y-36000000D01*
X71000000Y-36000000D02*
X71000000Y-36500000D01*
X71000000Y-36500000D02*
X70000000Y-37500000D01*
X70000000Y-37500000D02*
X70000000Y-71000000D01*
X70000000Y-71000000D02*
X64000000Y-77000000D01*
X64000000Y-77000000D02*
X64000000Y-79000000D01*
X64000000Y-79000000D02*
X62000000Y-81000000D01*
X62000000Y-81000000D02*
X62000000Y-104000000D01*
X71880000Y-35000000D02*
X72000000Y-35000000D01*
X90500000Y-104000000D02*
X92500000Y-102000000D01*
X92500000Y-102000000D02*
X92500000Y-56000000D01*
X92500000Y-56000000D02*
X91000000Y-54500000D01*
X91000000Y-54500000D02*
X91000000Y-50500000D01*
X91000000Y-50500000D02*
X89000000Y-48500000D01*
X89000000Y-48500000D02*
X89000000Y-46000000D01*
X89000000Y-46000000D02*
X79500000Y-36500000D01*
X79500000Y-36500000D02*
X79500000Y-35000000D01*
X76960000Y-35000000D02*
X77000000Y-35000000D01*
X77000000Y-35000000D02*
X78000000Y-36000000D01*
X78000000Y-36000000D02*
X78000000Y-36500000D01*
X78000000Y-36500000D02*
X88500000Y-47000000D01*
X88500000Y-47000000D02*
X88500000Y-59000000D01*
X88500000Y-59000000D02*
X90500000Y-61000000D01*
X90500000Y-61000000D02*
X90500000Y-77500000D01*
X76960000Y-35000000D02*
X77000000Y-35000000D01*
X77000000Y-35000000D02*
X77500000Y-35500000D01*
X76960000Y-35000000D02*
X77000000Y-35000000D01*
X90000000Y-51000000D02*
X90500000Y-51500000D01*
X90500000Y-51500000D02*
X90500000Y-57500000D01*
X62000000Y-77500000D02*
X69500000Y-70000000D01*
X69500000Y-70000000D02*
X69500000Y-35000000D01*
X69500000Y-35000000D02*
X69340000Y-35000000D01*
X69500000Y-35000000D02*
X69340000Y-35000000D01*
X62000000Y-57500000D02*
X67000000Y-52500000D01*
X67000000Y-52500000D02*
X67000000Y-35000000D01*
X67000000Y-35000000D02*
X66800000Y-35000000D01*
X67000000Y-35000000D02*
X66800000Y-35000000D01*
X57301000Y-57500000D02*
X57500000Y-57500000D01*
X57500000Y-57500000D02*
X64500000Y-50500000D01*
X64500000Y-50500000D02*
X64500000Y-35000000D01*
X64500000Y-35000000D02*
X64260000Y-35000000D01*
X148301000Y-77500000D02*
X148500000Y-77500000D01*
X148500000Y-77500000D02*
X148500000Y-104500000D01*
X148500000Y-104500000D02*
X148301000Y-104500000D01*
X57301000Y-104000000D02*
X57500000Y-104000000D01*
X57500000Y-104000000D02*
X58000000Y-103500000D01*
X58000000Y-103500000D02*
X58000000Y-80500000D01*
X58000000Y-80500000D02*
X57500000Y-80000000D01*
X57500000Y-80000000D02*
X57500000Y-77500000D01*
X57500000Y-77500000D02*
X57301000Y-77500000D01*
X57301000Y-77500000D02*
X57500000Y-77500000D01*
X57500000Y-77500000D02*
X57500000Y-57500000D01*
X57500000Y-57500000D02*
X57301000Y-57500000D01*
X148301000Y-57500000D02*
X148500000Y-57500000D01*
X148500000Y-57500000D02*
X148500000Y-77500000D01*
X148500000Y-77500000D02*
X148301000Y-77500000D01*
X64500000Y-35000000D02*
X64260000Y-35000000D01*
X57301000Y-57500000D02*
X57500000Y-57500000D01*
X148500000Y-103500000D02*
X148301000Y-103500000D01*
X148301000Y-77500000D02*
X148500000Y-77500000D01*
X57500000Y-57500000D02*
X57301000Y-57500000D01*
X57301000Y-104000000D02*
X57500000Y-104000000D01*
X148500000Y-77500000D02*
X148301000Y-77500000D01*
X148301000Y-57500000D02*
X148500000Y-57500000D01*
X147000000Y-98500000D02*
X122000000Y-73500000D01*
X122000000Y-73500000D02*
X122000000Y-46500000D01*
X122000000Y-46500000D02*
X117500000Y-42000000D01*
X117500000Y-42000000D02*
X117500000Y-35000000D01*
X117500000Y-35000000D02*
X117380000Y-35000000D01*
X117500000Y-35000000D02*
X117380000Y-35000000D01*
X114840000Y-35000000D02*
X115000000Y-35000000D01*
X115000000Y-35000000D02*
X116000000Y-36000000D01*
X116000000Y-36000000D02*
X116000000Y-39500000D01*
X123500000Y-47000000D02*
X147000000Y-70500000D01*
X147000000Y-70500000D02*
X147000000Y-71500000D01*
X114840000Y-35000000D02*
X115000000Y-35000000D01*
X109760000Y-35000000D02*
X110000000Y-35000000D01*
X110000000Y-35000000D02*
X110500000Y-35500000D01*
X110500000Y-35500000D02*
X110500000Y-36500000D01*
X110500000Y-36500000D02*
X121500000Y-47500000D01*
X121500000Y-47500000D02*
X121500000Y-58500000D01*
X121500000Y-58500000D02*
X119500000Y-60500000D01*
X119500000Y-60500000D02*
X119500000Y-104500000D01*
X110000000Y-35000000D02*
X110500000Y-35500000D01*
X109760000Y-35000000D02*
X110000000Y-35000000D01*
X107220000Y-35000000D02*
X107000000Y-35000000D01*
X107000000Y-35000000D02*
X108000000Y-36000000D01*
X108000000Y-36000000D02*
X108000000Y-36500000D01*
X108000000Y-36500000D02*
X119500000Y-48000000D01*
X119500000Y-48000000D02*
X119500000Y-57000000D01*
X107220000Y-35000000D02*
X107000000Y-35000000D01*
X175000000Y-72500000D02*
X160000000Y-57500000D01*
X160000000Y-57500000D02*
X160000000Y-57000000D01*
X160000000Y-57000000D02*
X159500000Y-56500000D01*
X159500000Y-56500000D02*
X159500000Y-56000000D01*
X159500000Y-56000000D02*
X158000000Y-54500000D01*
X158000000Y-54500000D02*
X158000000Y-36000000D01*
M02*
