M48
;DRILL file {KiCad 4.0.0-rc2-stable} date 14-1-2016 13:50:15
;FORMAT={-:-/ absolute / inch / decimal}
FMAT,2
INCH,TZ
T1C0.016
T2C0.043
T3C0.047
T4C0.047
T5C0.073
T6C0.197
%
G90
G05
M72
T1
X3.5433Y-2.0079
X4.5669Y-1.5551
X4.8622Y-1.8504
X5.7874Y-2.815
X5.7874Y-3.878
T2
X2.2299Y-1.378
X2.3299Y-1.378
X2.4299Y-1.378
X2.5299Y-1.378
X2.6299Y-1.378
X2.7299Y-1.378
X2.8299Y-1.378
X2.9299Y-1.378
X3.0299Y-1.378
X3.1299Y-1.378
X4.0213Y-1.378
X4.1213Y-1.378
X4.2213Y-1.378
X4.3213Y-1.378
X4.4213Y-1.378
X4.5213Y-1.378
X4.6213Y-1.378
X4.7213Y-1.378
X4.8213Y-1.378
X4.9213Y-1.378
T3
X6.8898Y-2.8543
X6.8898Y-3.0512
X6.8898Y-3.2481
X7.874Y-2.8543
X7.874Y-3.0512
X7.874Y-3.2481
T4
X5.3937Y-1.4173
X5.5315Y-1.4173
X5.6693Y-1.4173
X5.8071Y-1.4173
X5.9449Y-1.4173
X6.0827Y-1.4173
X6.2205Y-1.4173
X6.3583Y-1.4173
T5
X2.2559Y-2.2638
X2.2559Y-3.0512
X2.2559Y-4.0945
X2.4409Y-2.2638
X2.4409Y-3.0512
X2.4409Y-4.0945
X2.6259Y-2.2638
X2.6259Y-3.0512
X2.6259Y-4.0945
X3.378Y-2.2638
X3.378Y-3.0512
X3.378Y-4.0945
X3.563Y-2.2638
X3.563Y-3.0512
X3.563Y-4.0945
X3.748Y-2.2638
X3.748Y-3.0512
X3.748Y-4.0945
X4.5197Y-2.2441
X4.5197Y-4.1142
X4.7047Y-2.2441
X4.7047Y-4.1142
X4.8897Y-2.2441
X4.8897Y-4.1142
X5.8386Y-2.2638
X5.8386Y-3.0512
X5.8386Y-4.1142
X6.0236Y-2.2638
X6.0236Y-3.0512
X6.0236Y-4.1142
X6.2086Y-2.2638
X6.2086Y-3.0512
X6.2086Y-4.1142
T6
X1.6142Y-1.3976
X1.6929Y-4.7244
X7.8543Y-1.378
X7.8543Y-4.7244
T0
M30
